%TF.GenerationSoftware,KiCad,Pcbnew,(6.0.1)*%
%TF.CreationDate,2022-02-08T14:34:19+00:00*%
%TF.ProjectId,TrackingGenerator,54726163-6b69-46e6-9747-656e65726174,rev?*%
%TF.SameCoordinates,Original*%
%TF.FileFunction,Copper,L2,Inr*%
%TF.FilePolarity,Positive*%
%FSLAX46Y46*%
G04 Gerber Fmt 4.6, Leading zero omitted, Abs format (unit mm)*
G04 Created by KiCad (PCBNEW (6.0.1)) date 2022-02-08 14:34:19*
%MOMM*%
%LPD*%
G01*
G04 APERTURE LIST*
%TA.AperFunction,ComponentPad*%
%ADD10R,1.905000X2.000000*%
%TD*%
%TA.AperFunction,ComponentPad*%
%ADD11O,1.905000X2.000000*%
%TD*%
%TA.AperFunction,ComponentPad*%
%ADD12R,1.600000X1.600000*%
%TD*%
%TA.AperFunction,ComponentPad*%
%ADD13C,1.600000*%
%TD*%
%TA.AperFunction,ComponentPad*%
%ADD14C,2.400000*%
%TD*%
%TA.AperFunction,ComponentPad*%
%ADD15O,2.400000X2.400000*%
%TD*%
%TA.AperFunction,ComponentPad*%
%ADD16R,2.100000X2.100000*%
%TD*%
%TA.AperFunction,ComponentPad*%
%ADD17C,2.100000*%
%TD*%
%TA.AperFunction,ViaPad*%
%ADD18C,0.800000*%
%TD*%
%TA.AperFunction,Conductor*%
%ADD19C,0.250000*%
%TD*%
G04 APERTURE END LIST*
D10*
%TO.N,Net-(C22-Pad1)*%
%TO.C,U1*%
X116484400Y-85171400D03*
D11*
%TO.N,GNDPWR*%
X119024400Y-85171400D03*
%TO.N,+5V*%
X121564400Y-85171400D03*
%TD*%
D12*
%TO.N,+5V*%
%TO.C,C28*%
X105359200Y-86272380D03*
D13*
%TO.N,GNDPWR*%
X105359200Y-83772380D03*
%TD*%
D12*
%TO.N,Net-(C22-Pad1)*%
%TO.C,C22*%
X132080000Y-87630000D03*
D13*
%TO.N,GNDPWR*%
X132080000Y-90130000D03*
%TD*%
D14*
%TO.N,+12V*%
%TO.C,R13*%
X141732000Y-97078800D03*
D15*
%TO.N,Net-(C22-Pad1)*%
X116332000Y-97078800D03*
%TD*%
D16*
%TO.N,GNDPWR*%
%TO.C,J3*%
X139446000Y-84124800D03*
D17*
%TO.N,+12V*%
X141986000Y-84124800D03*
%TD*%
D18*
%TO.N,GNDPWR*%
X105943400Y-95351600D03*
X91643200Y-121056400D03*
X87249000Y-108254800D03*
X153100000Y-105000000D03*
X141247800Y-116063300D03*
X135997800Y-107813300D03*
X99314000Y-122377200D03*
X90424000Y-109778800D03*
X100050600Y-99263200D03*
X102565200Y-93395800D03*
X153350000Y-117550000D03*
X147197800Y-114163300D03*
X97510600Y-109423200D03*
X74676000Y-131318000D03*
X102336600Y-121285000D03*
X100050600Y-109423200D03*
X139947800Y-107663300D03*
X95275400Y-121335800D03*
X88823800Y-106807000D03*
X95148400Y-96418400D03*
X91592400Y-119481600D03*
X71729600Y-86207600D03*
X81991200Y-86715600D03*
X94488000Y-85852000D03*
X144297800Y-109513300D03*
X134497800Y-106663300D03*
X94970600Y-114503200D03*
X107670600Y-104343200D03*
X108737400Y-95300800D03*
X106400600Y-106883200D03*
X92405200Y-125171200D03*
X83515200Y-123545600D03*
X90830400Y-84226400D03*
X97510600Y-104343200D03*
X112903000Y-110185200D03*
X108940600Y-117043200D03*
X97510600Y-114503200D03*
X95250000Y-86664800D03*
X87579200Y-83566000D03*
X95275400Y-120218200D03*
X133947800Y-116263300D03*
X94970600Y-109423200D03*
X96240600Y-117043200D03*
X103860600Y-106883200D03*
X87299800Y-109778800D03*
X105130600Y-99263200D03*
X78536800Y-123545600D03*
X108661200Y-121107200D03*
X134047800Y-119963300D03*
X84785200Y-83464400D03*
X87249000Y-106857800D03*
X138797800Y-119963300D03*
X91643200Y-116890800D03*
X108940600Y-101803200D03*
X84632800Y-80670400D03*
X85242400Y-126949200D03*
X93421200Y-122377200D03*
X102590600Y-99263200D03*
X81889600Y-123545600D03*
X131547800Y-117513300D03*
X108661200Y-120091200D03*
X103860600Y-101803200D03*
X111734600Y-116408200D03*
X83515200Y-126949200D03*
X101320600Y-111963200D03*
X98780600Y-101803200D03*
X111302800Y-107365800D03*
X91236800Y-115468400D03*
X95148400Y-95300800D03*
X148350000Y-112800000D03*
X106400600Y-117043200D03*
X86969600Y-126390400D03*
X87020400Y-90119200D03*
X77063600Y-96469200D03*
X119747800Y-110763300D03*
X131447800Y-119963300D03*
X94970600Y-99288600D03*
X135647800Y-112263300D03*
X71628000Y-90017600D03*
X84632800Y-118668800D03*
X96875600Y-85191600D03*
X96240600Y-111963200D03*
X106400600Y-101803200D03*
X132647800Y-114813300D03*
X96917949Y-91523640D03*
X91643200Y-118211600D03*
X101752400Y-90043000D03*
X84785200Y-90932000D03*
X78536800Y-90932000D03*
X101320600Y-101803200D03*
X86918800Y-93675200D03*
X101320600Y-106883200D03*
X86309200Y-121615200D03*
X84734400Y-82092800D03*
X76962000Y-128371600D03*
X89255600Y-93675200D03*
X102565200Y-125069600D03*
X90576400Y-125323600D03*
X141147800Y-117663300D03*
X111175800Y-102209600D03*
X106019600Y-121183400D03*
X124409200Y-107340400D03*
X97993200Y-120218200D03*
X80162400Y-126898400D03*
X76708000Y-120142000D03*
X97510600Y-99263200D03*
X92608400Y-81737200D03*
X99949000Y-96088200D03*
X129397800Y-112163300D03*
X100050600Y-114503200D03*
X84937600Y-114503200D03*
X133047800Y-110363300D03*
X98501200Y-85191600D03*
X97967800Y-121386600D03*
X77165200Y-87782400D03*
X107670600Y-114503200D03*
X111252000Y-104876600D03*
X74828400Y-98856800D03*
X83261200Y-83159600D03*
X85953600Y-90932000D03*
X98374200Y-90017600D03*
X150350000Y-105000000D03*
X95980124Y-84201393D03*
X126263400Y-107391200D03*
X140697800Y-119913300D03*
X88849200Y-109804200D03*
X122656600Y-112141000D03*
X74422000Y-90119200D03*
X102641400Y-123571000D03*
X148400000Y-109950000D03*
X110693200Y-116433600D03*
X102489000Y-91541600D03*
X136247800Y-113513300D03*
X103860600Y-111963200D03*
X111277400Y-114122200D03*
X74574400Y-122936000D03*
X105130600Y-109423200D03*
X85496400Y-94538800D03*
X111912400Y-100076000D03*
X105130600Y-114503200D03*
X98780600Y-106883200D03*
X137897800Y-107663300D03*
X131297800Y-105863300D03*
X122656600Y-107315000D03*
X81889600Y-84683600D03*
X93421200Y-84836000D03*
X93548200Y-106807000D03*
X101320600Y-117043200D03*
X87528400Y-86410800D03*
X91846400Y-94843600D03*
X71932800Y-118516400D03*
X111252000Y-109397800D03*
X96240600Y-106883200D03*
X96266000Y-83058000D03*
X110718600Y-100076000D03*
X94945200Y-91490800D03*
X83464400Y-90932000D03*
X81889600Y-128270000D03*
X127697800Y-110663300D03*
X114960400Y-106578400D03*
X103860600Y-117043200D03*
X98094800Y-95326200D03*
X89103200Y-126441200D03*
X87528400Y-80873600D03*
X96418400Y-122377200D03*
X74574400Y-127508000D03*
X107670600Y-99263200D03*
X90424000Y-106807000D03*
X141847800Y-114113300D03*
X127647800Y-107413300D03*
X98780600Y-117043200D03*
X87528400Y-82092800D03*
X78435200Y-95910400D03*
X89611200Y-113385600D03*
X104013000Y-96037400D03*
X97739200Y-125120400D03*
X91998800Y-106781600D03*
X90017600Y-114808000D03*
X136747800Y-119963300D03*
X71932800Y-95148400D03*
X86156800Y-87884000D03*
X96240600Y-101803200D03*
X77216000Y-89408000D03*
X131347800Y-110413300D03*
X86055200Y-79603600D03*
X92608400Y-89763600D03*
X105943400Y-96469200D03*
X96824800Y-87274400D03*
X80264000Y-94538800D03*
X116408200Y-106934000D03*
X117947800Y-110763300D03*
X93497400Y-109753400D03*
X112877600Y-106629200D03*
X146481800Y-109575600D03*
X106400600Y-111963200D03*
X83718400Y-94538800D03*
X115062000Y-110134400D03*
X148350000Y-107700000D03*
X96367600Y-125120400D03*
X74422000Y-95148400D03*
X111226600Y-111607600D03*
X116179600Y-110566200D03*
X111861600Y-98450400D03*
X84785200Y-86360000D03*
X153300000Y-114050000D03*
X90881200Y-86868000D03*
X129297800Y-107613300D03*
X86156800Y-113284000D03*
X91897200Y-93268800D03*
X110769400Y-118389400D03*
X72085200Y-98806000D03*
X78536800Y-126949200D03*
X81940400Y-90932000D03*
X78587600Y-94538800D03*
X80314800Y-90932000D03*
X98602800Y-87477600D03*
X76911200Y-123545600D03*
X71780400Y-127609600D03*
X102590600Y-109423200D03*
X87680800Y-121615200D03*
X86715600Y-123037600D03*
X102590600Y-114503200D03*
X83515200Y-87934800D03*
X102184200Y-95478600D03*
X93980000Y-90170000D03*
X141647800Y-109513300D03*
X90728800Y-82042000D03*
X100634800Y-127000000D03*
X108940600Y-111963200D03*
X90881200Y-88341200D03*
X76860400Y-130302000D03*
X144447800Y-112463300D03*
X150150000Y-114050000D03*
X98780600Y-111963200D03*
X90982800Y-89712800D03*
X148300000Y-105750000D03*
X153250000Y-108750000D03*
X77165200Y-98094800D03*
X72085200Y-122885200D03*
X72034400Y-131419600D03*
X94894400Y-122377200D03*
X148400000Y-117300000D03*
X92252800Y-84226400D03*
X106019600Y-120142000D03*
X99212400Y-126949200D03*
X94742000Y-81686400D03*
X100050600Y-104343200D03*
X119647800Y-107613300D03*
X124409200Y-112113300D03*
X108762800Y-96494600D03*
X90881200Y-85598000D03*
X91795600Y-122377200D03*
X150350000Y-108750000D03*
X74422000Y-118516400D03*
X150150000Y-117450000D03*
X117947800Y-107613300D03*
X111810800Y-118364000D03*
X90830400Y-92710000D03*
X110718600Y-98475800D03*
X94132400Y-127203200D03*
X94970600Y-104343200D03*
X100050600Y-89992200D03*
X82092800Y-95859600D03*
X88950800Y-81635600D03*
X105130600Y-104343200D03*
X132997800Y-105863300D03*
X91973400Y-109728000D03*
X98069400Y-96443800D03*
X139397800Y-113113300D03*
X74117200Y-86309200D03*
X84582000Y-116230400D03*
X136447800Y-115313300D03*
X84937600Y-120396000D03*
X126136400Y-110693200D03*
X107670600Y-109423200D03*
X102590600Y-104343200D03*
X102057200Y-126644400D03*
X148350000Y-115150000D03*
X85293200Y-123545600D03*
X97840800Y-122377200D03*
X80264000Y-123545600D03*
X132247800Y-112863300D03*
X108940600Y-106883200D03*
X76758800Y-121869200D03*
%TO.N,+5V*%
X135397800Y-119913300D03*
X88036400Y-112623600D03*
X114600000Y-90600000D03*
%TD*%
D19*
%TO.N,+5V*%
X116135800Y-90600000D02*
X121564400Y-85171400D01*
X114600000Y-90600000D02*
X116135800Y-90600000D01*
%TD*%
%TA.AperFunction,Conductor*%
%TO.N,GNDPWR*%
G36*
X154069321Y-77998002D02*
G01*
X154115814Y-78051658D01*
X154127200Y-78104000D01*
X154127200Y-137135600D01*
X154107198Y-137203721D01*
X154053542Y-137250214D01*
X154001200Y-137261600D01*
X126271867Y-137261600D01*
X70890170Y-137160784D01*
X70822086Y-137140658D01*
X70775691Y-137086918D01*
X70764400Y-137034784D01*
X70764400Y-132974703D01*
X78815143Y-132974703D01*
X78852668Y-133259734D01*
X78928529Y-133537036D01*
X79041323Y-133801476D01*
X79188961Y-134048161D01*
X79368713Y-134272528D01*
X79577251Y-134470423D01*
X79810717Y-134638186D01*
X79814512Y-134640195D01*
X79814513Y-134640196D01*
X79836269Y-134651715D01*
X80064792Y-134772712D01*
X80334773Y-134871511D01*
X80615664Y-134932755D01*
X80644241Y-134935004D01*
X80838682Y-134950307D01*
X80838691Y-134950307D01*
X80841139Y-134950500D01*
X80996671Y-134950500D01*
X80998807Y-134950354D01*
X80998818Y-134950354D01*
X81206948Y-134936165D01*
X81206954Y-134936164D01*
X81211225Y-134935873D01*
X81215420Y-134935004D01*
X81215422Y-134935004D01*
X81366342Y-134903750D01*
X81492742Y-134877574D01*
X81763743Y-134781607D01*
X82019212Y-134649750D01*
X82022713Y-134647289D01*
X82022717Y-134647287D01*
X82199294Y-134523186D01*
X82254423Y-134484441D01*
X82332803Y-134411606D01*
X82461879Y-134291661D01*
X82461881Y-134291658D01*
X82465022Y-134288740D01*
X82647113Y-134066268D01*
X82797327Y-133821142D01*
X82812360Y-133786897D01*
X82911157Y-133561830D01*
X82912883Y-133557898D01*
X82925464Y-133513734D01*
X82990468Y-133285534D01*
X82991644Y-133281406D01*
X82999145Y-133228703D01*
X146633143Y-133228703D01*
X146633702Y-133232947D01*
X146633702Y-133232951D01*
X146639522Y-133277159D01*
X146670668Y-133513734D01*
X146671801Y-133517874D01*
X146671801Y-133517876D01*
X146692815Y-133594689D01*
X146746529Y-133791036D01*
X146859323Y-134055476D01*
X146871093Y-134075142D01*
X146998929Y-134288740D01*
X147006961Y-134302161D01*
X147186713Y-134526528D01*
X147395251Y-134724423D01*
X147628717Y-134892186D01*
X147632512Y-134894195D01*
X147632513Y-134894196D01*
X147654269Y-134905715D01*
X147882792Y-135026712D01*
X148152773Y-135125511D01*
X148433664Y-135186755D01*
X148462241Y-135189004D01*
X148656682Y-135204307D01*
X148656691Y-135204307D01*
X148659139Y-135204500D01*
X148814671Y-135204500D01*
X148816807Y-135204354D01*
X148816818Y-135204354D01*
X149024948Y-135190165D01*
X149024954Y-135190164D01*
X149029225Y-135189873D01*
X149033420Y-135189004D01*
X149033422Y-135189004D01*
X149169983Y-135160724D01*
X149310742Y-135131574D01*
X149581743Y-135035607D01*
X149837212Y-134903750D01*
X149840713Y-134901289D01*
X149840717Y-134901287D01*
X150013801Y-134779641D01*
X150072423Y-134738441D01*
X150283022Y-134542740D01*
X150465113Y-134320268D01*
X150615327Y-134075142D01*
X150619223Y-134066268D01*
X150729157Y-133815830D01*
X150730883Y-133811898D01*
X150809644Y-133535406D01*
X150839915Y-133322704D01*
X150849546Y-133255036D01*
X150849546Y-133255034D01*
X150850151Y-133250784D01*
X150850245Y-133232951D01*
X150851635Y-132967583D01*
X150851635Y-132967576D01*
X150851657Y-132963297D01*
X150814132Y-132678266D01*
X150738271Y-132400964D01*
X150625477Y-132136524D01*
X150477839Y-131889839D01*
X150298087Y-131665472D01*
X150089549Y-131467577D01*
X149856083Y-131299814D01*
X149834243Y-131288250D01*
X149698781Y-131216527D01*
X149602008Y-131165288D01*
X149332027Y-131066489D01*
X149051136Y-131005245D01*
X149020085Y-131002801D01*
X148828118Y-130987693D01*
X148828109Y-130987693D01*
X148825661Y-130987500D01*
X148670129Y-130987500D01*
X148667993Y-130987646D01*
X148667982Y-130987646D01*
X148459852Y-131001835D01*
X148459846Y-131001836D01*
X148455575Y-131002127D01*
X148451380Y-131002996D01*
X148451378Y-131002996D01*
X148314816Y-131031277D01*
X148174058Y-131060426D01*
X147903057Y-131156393D01*
X147647588Y-131288250D01*
X147644087Y-131290711D01*
X147644083Y-131290713D01*
X147633994Y-131297804D01*
X147412377Y-131453559D01*
X147397292Y-131467577D01*
X147216221Y-131635839D01*
X147201778Y-131649260D01*
X147019687Y-131871732D01*
X146869473Y-132116858D01*
X146867747Y-132120791D01*
X146867746Y-132120792D01*
X146755643Y-132376170D01*
X146753917Y-132380102D01*
X146752742Y-132384229D01*
X146752741Y-132384230D01*
X146740124Y-132428522D01*
X146675156Y-132656594D01*
X146634649Y-132941216D01*
X146634627Y-132945505D01*
X146634626Y-132945512D01*
X146633165Y-133224417D01*
X146633143Y-133228703D01*
X82999145Y-133228703D01*
X83032151Y-132996784D01*
X83032245Y-132978951D01*
X83033635Y-132713583D01*
X83033635Y-132713576D01*
X83033657Y-132709297D01*
X83029027Y-132674124D01*
X82996692Y-132428522D01*
X82996132Y-132424266D01*
X82982975Y-132376170D01*
X82921403Y-132151103D01*
X82920271Y-132146964D01*
X82807477Y-131882524D01*
X82677574Y-131665472D01*
X82662043Y-131639521D01*
X82662040Y-131639517D01*
X82659839Y-131635839D01*
X82480087Y-131411472D01*
X82271549Y-131213577D01*
X82038083Y-131045814D01*
X82016243Y-131034250D01*
X81963186Y-131006158D01*
X81784008Y-130911288D01*
X81514027Y-130812489D01*
X81233136Y-130751245D01*
X81202085Y-130748801D01*
X81010118Y-130733693D01*
X81010109Y-130733693D01*
X81007661Y-130733500D01*
X80852129Y-130733500D01*
X80849993Y-130733646D01*
X80849982Y-130733646D01*
X80641852Y-130747835D01*
X80641846Y-130747836D01*
X80637575Y-130748127D01*
X80633380Y-130748996D01*
X80633378Y-130748996D01*
X80496817Y-130777276D01*
X80356058Y-130806426D01*
X80085057Y-130902393D01*
X79829588Y-131034250D01*
X79826087Y-131036711D01*
X79826083Y-131036713D01*
X79781618Y-131067964D01*
X79594377Y-131199559D01*
X79383778Y-131395260D01*
X79201687Y-131617732D01*
X79051473Y-131862858D01*
X79049747Y-131866791D01*
X79049746Y-131866792D01*
X79045974Y-131875386D01*
X78935917Y-132126102D01*
X78857156Y-132402594D01*
X78854072Y-132424266D01*
X78821595Y-132652466D01*
X78816649Y-132687216D01*
X78816627Y-132691505D01*
X78816626Y-132691512D01*
X78815180Y-132967583D01*
X78815143Y-132974703D01*
X70764400Y-132974703D01*
X70764400Y-119913300D01*
X134484296Y-119913300D01*
X134504258Y-120103228D01*
X134563273Y-120284856D01*
X134658760Y-120450244D01*
X134786547Y-120592166D01*
X134941048Y-120704418D01*
X134947076Y-120707102D01*
X134947078Y-120707103D01*
X135109481Y-120779409D01*
X135115512Y-120782094D01*
X135208913Y-120801947D01*
X135295856Y-120820428D01*
X135295861Y-120820428D01*
X135302313Y-120821800D01*
X135493287Y-120821800D01*
X135499739Y-120820428D01*
X135499744Y-120820428D01*
X135586687Y-120801947D01*
X135680088Y-120782094D01*
X135686119Y-120779409D01*
X135848522Y-120707103D01*
X135848524Y-120707102D01*
X135854552Y-120704418D01*
X136009053Y-120592166D01*
X136136840Y-120450244D01*
X136232327Y-120284856D01*
X136291342Y-120103228D01*
X136311304Y-119913300D01*
X136291342Y-119723372D01*
X136232327Y-119541744D01*
X136136840Y-119376356D01*
X136009053Y-119234434D01*
X135854552Y-119122182D01*
X135848524Y-119119498D01*
X135848522Y-119119497D01*
X135686119Y-119047191D01*
X135686118Y-119047191D01*
X135680088Y-119044506D01*
X135586688Y-119024653D01*
X135499744Y-119006172D01*
X135499739Y-119006172D01*
X135493287Y-119004800D01*
X135302313Y-119004800D01*
X135295861Y-119006172D01*
X135295856Y-119006172D01*
X135208912Y-119024653D01*
X135115512Y-119044506D01*
X135109482Y-119047191D01*
X135109481Y-119047191D01*
X134947078Y-119119497D01*
X134947076Y-119119498D01*
X134941048Y-119122182D01*
X134786547Y-119234434D01*
X134658760Y-119376356D01*
X134563273Y-119541744D01*
X134504258Y-119723372D01*
X134484296Y-119913300D01*
X70764400Y-119913300D01*
X70764400Y-112623600D01*
X87122896Y-112623600D01*
X87142858Y-112813528D01*
X87201873Y-112995156D01*
X87297360Y-113160544D01*
X87425147Y-113302466D01*
X87579648Y-113414718D01*
X87585676Y-113417402D01*
X87585678Y-113417403D01*
X87748081Y-113489709D01*
X87754112Y-113492394D01*
X87847512Y-113512247D01*
X87934456Y-113530728D01*
X87934461Y-113530728D01*
X87940913Y-113532100D01*
X88131887Y-113532100D01*
X88138339Y-113530728D01*
X88138344Y-113530728D01*
X88225287Y-113512247D01*
X88318688Y-113492394D01*
X88324719Y-113489709D01*
X88487122Y-113417403D01*
X88487124Y-113417402D01*
X88493152Y-113414718D01*
X88647653Y-113302466D01*
X88775440Y-113160544D01*
X88870927Y-112995156D01*
X88929942Y-112813528D01*
X88949904Y-112623600D01*
X88929942Y-112433672D01*
X88870927Y-112252044D01*
X88775440Y-112086656D01*
X88647653Y-111944734D01*
X88493152Y-111832482D01*
X88487124Y-111829798D01*
X88487122Y-111829797D01*
X88324719Y-111757491D01*
X88324718Y-111757491D01*
X88318688Y-111754806D01*
X88225288Y-111734953D01*
X88138344Y-111716472D01*
X88138339Y-111716472D01*
X88131887Y-111715100D01*
X87940913Y-111715100D01*
X87934461Y-111716472D01*
X87934456Y-111716472D01*
X87847512Y-111734953D01*
X87754112Y-111754806D01*
X87748082Y-111757491D01*
X87748081Y-111757491D01*
X87585678Y-111829797D01*
X87585676Y-111829798D01*
X87579648Y-111832482D01*
X87425147Y-111944734D01*
X87297360Y-112086656D01*
X87201873Y-112252044D01*
X87142858Y-112433672D01*
X87122896Y-112623600D01*
X70764400Y-112623600D01*
X70764400Y-97033951D01*
X114619296Y-97033951D01*
X114631480Y-97287598D01*
X114681021Y-97536657D01*
X114682600Y-97541055D01*
X114682602Y-97541062D01*
X114727022Y-97664780D01*
X114766831Y-97775658D01*
X114887025Y-97999351D01*
X114889820Y-98003094D01*
X114889822Y-98003097D01*
X115036171Y-98199082D01*
X115036176Y-98199088D01*
X115038963Y-98202820D01*
X115042272Y-98206100D01*
X115042277Y-98206106D01*
X115140859Y-98303831D01*
X115219307Y-98381597D01*
X115223069Y-98384355D01*
X115223072Y-98384358D01*
X115328764Y-98461854D01*
X115424094Y-98531753D01*
X115428229Y-98533929D01*
X115428233Y-98533931D01*
X115546289Y-98596043D01*
X115648827Y-98649991D01*
X115888568Y-98733712D01*
X116138050Y-98781078D01*
X116258532Y-98785811D01*
X116387125Y-98790864D01*
X116387130Y-98790864D01*
X116391793Y-98791047D01*
X116490774Y-98780207D01*
X116639569Y-98763912D01*
X116639575Y-98763911D01*
X116644222Y-98763402D01*
X116753680Y-98734584D01*
X116885273Y-98699938D01*
X116889793Y-98698748D01*
X117008353Y-98647811D01*
X117118807Y-98600357D01*
X117118810Y-98600355D01*
X117123110Y-98598508D01*
X117127090Y-98596045D01*
X117127094Y-98596043D01*
X117335064Y-98467347D01*
X117335066Y-98467345D01*
X117339047Y-98464882D01*
X117437428Y-98381597D01*
X117529289Y-98303831D01*
X117529291Y-98303829D01*
X117532862Y-98300806D01*
X117700295Y-98109884D01*
X117837669Y-97896312D01*
X117941967Y-97664780D01*
X118010896Y-97420375D01*
X118042943Y-97168467D01*
X118045291Y-97078800D01*
X118041958Y-97033951D01*
X140019296Y-97033951D01*
X140031480Y-97287598D01*
X140081021Y-97536657D01*
X140082600Y-97541055D01*
X140082602Y-97541062D01*
X140127022Y-97664780D01*
X140166831Y-97775658D01*
X140287025Y-97999351D01*
X140289820Y-98003094D01*
X140289822Y-98003097D01*
X140436171Y-98199082D01*
X140436176Y-98199088D01*
X140438963Y-98202820D01*
X140442272Y-98206100D01*
X140442277Y-98206106D01*
X140540859Y-98303831D01*
X140619307Y-98381597D01*
X140623069Y-98384355D01*
X140623072Y-98384358D01*
X140728764Y-98461854D01*
X140824094Y-98531753D01*
X140828229Y-98533929D01*
X140828233Y-98533931D01*
X140946289Y-98596043D01*
X141048827Y-98649991D01*
X141288568Y-98733712D01*
X141538050Y-98781078D01*
X141658532Y-98785811D01*
X141787125Y-98790864D01*
X141787130Y-98790864D01*
X141791793Y-98791047D01*
X141890774Y-98780207D01*
X142039569Y-98763912D01*
X142039575Y-98763911D01*
X142044222Y-98763402D01*
X142153680Y-98734584D01*
X142285273Y-98699938D01*
X142289793Y-98698748D01*
X142408353Y-98647811D01*
X142518807Y-98600357D01*
X142518810Y-98600355D01*
X142523110Y-98598508D01*
X142527090Y-98596045D01*
X142527094Y-98596043D01*
X142735064Y-98467347D01*
X142735066Y-98467345D01*
X142739047Y-98464882D01*
X142837428Y-98381597D01*
X142929289Y-98303831D01*
X142929291Y-98303829D01*
X142932862Y-98300806D01*
X143100295Y-98109884D01*
X143237669Y-97896312D01*
X143341967Y-97664780D01*
X143410896Y-97420375D01*
X143442943Y-97168467D01*
X143445291Y-97078800D01*
X143426472Y-96825559D01*
X143370428Y-96577882D01*
X143278391Y-96341209D01*
X143257866Y-96305298D01*
X143154702Y-96124797D01*
X143154700Y-96124795D01*
X143152383Y-96120740D01*
X142995171Y-95921317D01*
X142810209Y-95747323D01*
X142766483Y-95716989D01*
X142605393Y-95605237D01*
X142605390Y-95605235D01*
X142601561Y-95602579D01*
X142597384Y-95600519D01*
X142597377Y-95600515D01*
X142377996Y-95492328D01*
X142377992Y-95492327D01*
X142373810Y-95490264D01*
X142131960Y-95412847D01*
X142127355Y-95412097D01*
X141885935Y-95372780D01*
X141885934Y-95372780D01*
X141881323Y-95372029D01*
X141754365Y-95370367D01*
X141632083Y-95368766D01*
X141632080Y-95368766D01*
X141627406Y-95368705D01*
X141375787Y-95402949D01*
X141131993Y-95474008D01*
X140901380Y-95580322D01*
X140897471Y-95582885D01*
X140692928Y-95716989D01*
X140692923Y-95716993D01*
X140689015Y-95719555D01*
X140499562Y-95888648D01*
X140337183Y-96083887D01*
X140205447Y-96300982D01*
X140107246Y-96535165D01*
X140044738Y-96781290D01*
X140019296Y-97033951D01*
X118041958Y-97033951D01*
X118026472Y-96825559D01*
X117970428Y-96577882D01*
X117878391Y-96341209D01*
X117857866Y-96305298D01*
X117754702Y-96124797D01*
X117754700Y-96124795D01*
X117752383Y-96120740D01*
X117595171Y-95921317D01*
X117410209Y-95747323D01*
X117366483Y-95716989D01*
X117205393Y-95605237D01*
X117205390Y-95605235D01*
X117201561Y-95602579D01*
X117197384Y-95600519D01*
X117197377Y-95600515D01*
X116977996Y-95492328D01*
X116977992Y-95492327D01*
X116973810Y-95490264D01*
X116731960Y-95412847D01*
X116727355Y-95412097D01*
X116485935Y-95372780D01*
X116485934Y-95372780D01*
X116481323Y-95372029D01*
X116354365Y-95370367D01*
X116232083Y-95368766D01*
X116232080Y-95368766D01*
X116227406Y-95368705D01*
X115975787Y-95402949D01*
X115731993Y-95474008D01*
X115501380Y-95580322D01*
X115497471Y-95582885D01*
X115292928Y-95716989D01*
X115292923Y-95716993D01*
X115289015Y-95719555D01*
X115099562Y-95888648D01*
X114937183Y-96083887D01*
X114805447Y-96300982D01*
X114707246Y-96535165D01*
X114644738Y-96781290D01*
X114619296Y-97033951D01*
X70764400Y-97033951D01*
X70764400Y-90600000D01*
X113686496Y-90600000D01*
X113706458Y-90789928D01*
X113765473Y-90971556D01*
X113860960Y-91136944D01*
X113865378Y-91141851D01*
X113865379Y-91141852D01*
X113947452Y-91233003D01*
X113988747Y-91278866D01*
X114143248Y-91391118D01*
X114149276Y-91393802D01*
X114149278Y-91393803D01*
X114311681Y-91466109D01*
X114317712Y-91468794D01*
X114411113Y-91488647D01*
X114498056Y-91507128D01*
X114498061Y-91507128D01*
X114504513Y-91508500D01*
X114695487Y-91508500D01*
X114701939Y-91507128D01*
X114701944Y-91507128D01*
X114788888Y-91488647D01*
X114882288Y-91468794D01*
X114888319Y-91466109D01*
X115050722Y-91393803D01*
X115050724Y-91393802D01*
X115056752Y-91391118D01*
X115211253Y-91278866D01*
X115215668Y-91273963D01*
X115220580Y-91269540D01*
X115221705Y-91270789D01*
X115275014Y-91237949D01*
X115308200Y-91233500D01*
X116057033Y-91233500D01*
X116068216Y-91234027D01*
X116075709Y-91235702D01*
X116083635Y-91235453D01*
X116083636Y-91235453D01*
X116143786Y-91233562D01*
X116147745Y-91233500D01*
X116175656Y-91233500D01*
X116179591Y-91233003D01*
X116179656Y-91232995D01*
X116191493Y-91232062D01*
X116223751Y-91231048D01*
X116227770Y-91230922D01*
X116235689Y-91230673D01*
X116255143Y-91225021D01*
X116274500Y-91221013D01*
X116286730Y-91219468D01*
X116286731Y-91219468D01*
X116294597Y-91218474D01*
X116301968Y-91215555D01*
X116301970Y-91215555D01*
X116335712Y-91202196D01*
X116346942Y-91198351D01*
X116381783Y-91188229D01*
X116381784Y-91188229D01*
X116389393Y-91186018D01*
X116396212Y-91181985D01*
X116396217Y-91181983D01*
X116406828Y-91175707D01*
X116424576Y-91167012D01*
X116443417Y-91159552D01*
X116479187Y-91133564D01*
X116489107Y-91127048D01*
X116520335Y-91108580D01*
X116520338Y-91108578D01*
X116527162Y-91104542D01*
X116541483Y-91090221D01*
X116556517Y-91077380D01*
X116566494Y-91070131D01*
X116572907Y-91065472D01*
X116601098Y-91031395D01*
X116609088Y-91022616D01*
X119153571Y-88478134D01*
X130771500Y-88478134D01*
X130778255Y-88540316D01*
X130829385Y-88676705D01*
X130916739Y-88793261D01*
X131033295Y-88880615D01*
X131169684Y-88931745D01*
X131231866Y-88938500D01*
X132928134Y-88938500D01*
X132990316Y-88931745D01*
X133126705Y-88880615D01*
X133243261Y-88793261D01*
X133330615Y-88676705D01*
X133381745Y-88540316D01*
X133388500Y-88478134D01*
X133388500Y-88118303D01*
X147598343Y-88118303D01*
X147635868Y-88403334D01*
X147711729Y-88680636D01*
X147713413Y-88684584D01*
X147821561Y-88938131D01*
X147824523Y-88945076D01*
X147972161Y-89191761D01*
X148151913Y-89416128D01*
X148360451Y-89614023D01*
X148593917Y-89781786D01*
X148597712Y-89783795D01*
X148597713Y-89783796D01*
X148619469Y-89795315D01*
X148847992Y-89916312D01*
X149117973Y-90015111D01*
X149398864Y-90076355D01*
X149427441Y-90078604D01*
X149621882Y-90093907D01*
X149621891Y-90093907D01*
X149624339Y-90094100D01*
X149779871Y-90094100D01*
X149782007Y-90093954D01*
X149782018Y-90093954D01*
X149990148Y-90079765D01*
X149990154Y-90079764D01*
X149994425Y-90079473D01*
X149998620Y-90078604D01*
X149998622Y-90078604D01*
X150135184Y-90050323D01*
X150275942Y-90021174D01*
X150546943Y-89925207D01*
X150802412Y-89793350D01*
X150805913Y-89790889D01*
X150805917Y-89790887D01*
X150947330Y-89691500D01*
X151037623Y-89628041D01*
X151248222Y-89432340D01*
X151430313Y-89209868D01*
X151580527Y-88964742D01*
X151592047Y-88938500D01*
X151694357Y-88705430D01*
X151696083Y-88701498D01*
X151701099Y-88683891D01*
X151773668Y-88429134D01*
X151774844Y-88425006D01*
X151815351Y-88140384D01*
X151815445Y-88122551D01*
X151816835Y-87857183D01*
X151816835Y-87857176D01*
X151816857Y-87852897D01*
X151779332Y-87567866D01*
X151703471Y-87290564D01*
X151590677Y-87026124D01*
X151443039Y-86779439D01*
X151263287Y-86555072D01*
X151083827Y-86384771D01*
X151057858Y-86360127D01*
X151057855Y-86360125D01*
X151054749Y-86357177D01*
X150821283Y-86189414D01*
X150799443Y-86177850D01*
X150737828Y-86145227D01*
X150567208Y-86054888D01*
X150297227Y-85956089D01*
X150016336Y-85894845D01*
X149985285Y-85892401D01*
X149793318Y-85877293D01*
X149793309Y-85877293D01*
X149790861Y-85877100D01*
X149635329Y-85877100D01*
X149633193Y-85877246D01*
X149633182Y-85877246D01*
X149425052Y-85891435D01*
X149425046Y-85891436D01*
X149420775Y-85891727D01*
X149416580Y-85892596D01*
X149416578Y-85892596D01*
X149280017Y-85920876D01*
X149139258Y-85950026D01*
X148868257Y-86045993D01*
X148612788Y-86177850D01*
X148609287Y-86180311D01*
X148609283Y-86180313D01*
X148548644Y-86222931D01*
X148377577Y-86343159D01*
X148362492Y-86357177D01*
X148171497Y-86534661D01*
X148166978Y-86538860D01*
X147984887Y-86761332D01*
X147834673Y-87006458D01*
X147719117Y-87269702D01*
X147640356Y-87546194D01*
X147599849Y-87830816D01*
X147599827Y-87835105D01*
X147599826Y-87835112D01*
X147598365Y-88114017D01*
X147598343Y-88118303D01*
X133388500Y-88118303D01*
X133388500Y-86781866D01*
X133381745Y-86719684D01*
X133330615Y-86583295D01*
X133243261Y-86466739D01*
X133126705Y-86379385D01*
X132990316Y-86328255D01*
X132928134Y-86321500D01*
X131231866Y-86321500D01*
X131169684Y-86328255D01*
X131033295Y-86379385D01*
X130916739Y-86466739D01*
X130829385Y-86583295D01*
X130778255Y-86719684D01*
X130771500Y-86781866D01*
X130771500Y-88478134D01*
X119153571Y-88478134D01*
X120990078Y-86641627D01*
X121052390Y-86607601D01*
X121121232Y-86611949D01*
X121185036Y-86634543D01*
X121185044Y-86634545D01*
X121189915Y-86636270D01*
X121195008Y-86637177D01*
X121195011Y-86637178D01*
X121421348Y-86677495D01*
X121421354Y-86677496D01*
X121426437Y-86678401D01*
X121513800Y-86679468D01*
X121661493Y-86681273D01*
X121661495Y-86681273D01*
X121666663Y-86681336D01*
X121904144Y-86644996D01*
X122018555Y-86607601D01*
X122127583Y-86571966D01*
X122127589Y-86571963D01*
X122132501Y-86570358D01*
X122137087Y-86567971D01*
X122137091Y-86567969D01*
X122341007Y-86461816D01*
X122345600Y-86459425D01*
X122456401Y-86376233D01*
X122533585Y-86318282D01*
X122533588Y-86318280D01*
X122537720Y-86315177D01*
X122668953Y-86177850D01*
X122700128Y-86145227D01*
X122703701Y-86141488D01*
X122839086Y-85943022D01*
X122861026Y-85895758D01*
X122938058Y-85729805D01*
X122938059Y-85729801D01*
X122940237Y-85725110D01*
X123004440Y-85493602D01*
X123015560Y-85389552D01*
X123025044Y-85300807D01*
X123025044Y-85300799D01*
X123025400Y-85297472D01*
X123025400Y-85062998D01*
X123024224Y-85048685D01*
X123011146Y-84889624D01*
X123010722Y-84884463D01*
X122952194Y-84651456D01*
X122856397Y-84431137D01*
X122725902Y-84229423D01*
X122630703Y-84124800D01*
X140422681Y-84124800D01*
X140441928Y-84369357D01*
X140443082Y-84374164D01*
X140443083Y-84374170D01*
X140456760Y-84431137D01*
X140499195Y-84607892D01*
X140593073Y-84834532D01*
X140721248Y-85043696D01*
X140724463Y-85047460D01*
X140724465Y-85047463D01*
X140739945Y-85065587D01*
X140880567Y-85230233D01*
X140884323Y-85233441D01*
X140955363Y-85294115D01*
X141067104Y-85389552D01*
X141071327Y-85392140D01*
X141071330Y-85392142D01*
X141118176Y-85420849D01*
X141276268Y-85517727D01*
X141420967Y-85577664D01*
X141498335Y-85609711D01*
X141498337Y-85609712D01*
X141502908Y-85611605D01*
X141585563Y-85631449D01*
X141736630Y-85667717D01*
X141736636Y-85667718D01*
X141741443Y-85668872D01*
X141986000Y-85688119D01*
X142230557Y-85668872D01*
X142235364Y-85667718D01*
X142235370Y-85667717D01*
X142386437Y-85631449D01*
X142469092Y-85611605D01*
X142473663Y-85609712D01*
X142473665Y-85609711D01*
X142551033Y-85577664D01*
X142695732Y-85517727D01*
X142853824Y-85420849D01*
X142900670Y-85392142D01*
X142900673Y-85392140D01*
X142904896Y-85389552D01*
X143016638Y-85294115D01*
X143087677Y-85233441D01*
X143091433Y-85230233D01*
X143232055Y-85065587D01*
X143247535Y-85047463D01*
X143247537Y-85047460D01*
X143250752Y-85043696D01*
X143378927Y-84834532D01*
X143472805Y-84607892D01*
X143515240Y-84431137D01*
X143528917Y-84374170D01*
X143528918Y-84374164D01*
X143530072Y-84369357D01*
X143549319Y-84124800D01*
X143530072Y-83880243D01*
X143512762Y-83808139D01*
X143479514Y-83669655D01*
X143472805Y-83641708D01*
X143378927Y-83415068D01*
X143290279Y-83270407D01*
X143253342Y-83210130D01*
X143253340Y-83210127D01*
X143250752Y-83205904D01*
X143091433Y-83019367D01*
X142904896Y-82860048D01*
X142900673Y-82857460D01*
X142900670Y-82857458D01*
X142764838Y-82774221D01*
X142695732Y-82731873D01*
X142551033Y-82671936D01*
X142473665Y-82639889D01*
X142473663Y-82639888D01*
X142469092Y-82637995D01*
X142386437Y-82618151D01*
X142235370Y-82581883D01*
X142235364Y-82581882D01*
X142230557Y-82580728D01*
X141986000Y-82561481D01*
X141741443Y-82580728D01*
X141736636Y-82581882D01*
X141736630Y-82581883D01*
X141585563Y-82618151D01*
X141502908Y-82637995D01*
X141498337Y-82639888D01*
X141498335Y-82639889D01*
X141420967Y-82671936D01*
X141276268Y-82731873D01*
X141207162Y-82774221D01*
X141071330Y-82857458D01*
X141071327Y-82857460D01*
X141067104Y-82860048D01*
X140880567Y-83019367D01*
X140721248Y-83205904D01*
X140718660Y-83210127D01*
X140718658Y-83210130D01*
X140681721Y-83270407D01*
X140593073Y-83415068D01*
X140499195Y-83641708D01*
X140492486Y-83669655D01*
X140459239Y-83808139D01*
X140441928Y-83880243D01*
X140422681Y-84124800D01*
X122630703Y-84124800D01*
X122564214Y-84051730D01*
X122414006Y-83933103D01*
X122379730Y-83906033D01*
X122379725Y-83906030D01*
X122375676Y-83902832D01*
X122371160Y-83900339D01*
X122371157Y-83900337D01*
X122169874Y-83789223D01*
X122169870Y-83789221D01*
X122165350Y-83786726D01*
X122160481Y-83785002D01*
X122160477Y-83785000D01*
X121943760Y-83708256D01*
X121943756Y-83708255D01*
X121938885Y-83706530D01*
X121933792Y-83705623D01*
X121933789Y-83705622D01*
X121707452Y-83665305D01*
X121707446Y-83665304D01*
X121702363Y-83664399D01*
X121609874Y-83663269D01*
X121467307Y-83661527D01*
X121467305Y-83661527D01*
X121462137Y-83661464D01*
X121224656Y-83697804D01*
X121112403Y-83734494D01*
X121001217Y-83770834D01*
X121001211Y-83770837D01*
X120996299Y-83772442D01*
X120991713Y-83774829D01*
X120991709Y-83774831D01*
X120798462Y-83875430D01*
X120783200Y-83883375D01*
X120591080Y-84027623D01*
X120425099Y-84201312D01*
X120289714Y-84399778D01*
X120287540Y-84404461D01*
X120287538Y-84404465D01*
X120193111Y-84607892D01*
X120188563Y-84617690D01*
X120124360Y-84849198D01*
X120123811Y-84854335D01*
X120105343Y-85027151D01*
X120103400Y-85045328D01*
X120103400Y-85279802D01*
X120103612Y-85282375D01*
X120103612Y-85282386D01*
X120105127Y-85300807D01*
X120118078Y-85458337D01*
X120153572Y-85599642D01*
X120150768Y-85670583D01*
X120120463Y-85719433D01*
X115910300Y-89929595D01*
X115847988Y-89963621D01*
X115821205Y-89966500D01*
X115308200Y-89966500D01*
X115240079Y-89946498D01*
X115220853Y-89930157D01*
X115220580Y-89930460D01*
X115215668Y-89926037D01*
X115211253Y-89921134D01*
X115056752Y-89808882D01*
X115050724Y-89806198D01*
X115050722Y-89806197D01*
X114888319Y-89733891D01*
X114888318Y-89733891D01*
X114882288Y-89731206D01*
X114788888Y-89711353D01*
X114701944Y-89692872D01*
X114701939Y-89692872D01*
X114695487Y-89691500D01*
X114504513Y-89691500D01*
X114498061Y-89692872D01*
X114498056Y-89692872D01*
X114411112Y-89711353D01*
X114317712Y-89731206D01*
X114311682Y-89733891D01*
X114311681Y-89733891D01*
X114149278Y-89806197D01*
X114149276Y-89806198D01*
X114143248Y-89808882D01*
X113988747Y-89921134D01*
X113984326Y-89926044D01*
X113984325Y-89926045D01*
X113950492Y-89963621D01*
X113860960Y-90063056D01*
X113765473Y-90228444D01*
X113706458Y-90410072D01*
X113686496Y-90600000D01*
X70764400Y-90600000D01*
X70764400Y-87120514D01*
X104050700Y-87120514D01*
X104057455Y-87182696D01*
X104108585Y-87319085D01*
X104195939Y-87435641D01*
X104312495Y-87522995D01*
X104448884Y-87574125D01*
X104511066Y-87580880D01*
X106207334Y-87580880D01*
X106269516Y-87574125D01*
X106405905Y-87522995D01*
X106522461Y-87435641D01*
X106609815Y-87319085D01*
X106660945Y-87182696D01*
X106667700Y-87120514D01*
X106667700Y-86219534D01*
X115023400Y-86219534D01*
X115030155Y-86281716D01*
X115081285Y-86418105D01*
X115168639Y-86534661D01*
X115285195Y-86622015D01*
X115421584Y-86673145D01*
X115483766Y-86679900D01*
X117485034Y-86679900D01*
X117547216Y-86673145D01*
X117683605Y-86622015D01*
X117800161Y-86534661D01*
X117887515Y-86418105D01*
X117938645Y-86281716D01*
X117945400Y-86219534D01*
X117945400Y-84123266D01*
X117938645Y-84061084D01*
X117887515Y-83924695D01*
X117800161Y-83808139D01*
X117683605Y-83720785D01*
X117547216Y-83669655D01*
X117485034Y-83662900D01*
X115483766Y-83662900D01*
X115421584Y-83669655D01*
X115285195Y-83720785D01*
X115168639Y-83808139D01*
X115081285Y-83924695D01*
X115030155Y-84061084D01*
X115023400Y-84123266D01*
X115023400Y-86219534D01*
X106667700Y-86219534D01*
X106667700Y-85424246D01*
X106660945Y-85362064D01*
X106609815Y-85225675D01*
X106522461Y-85109119D01*
X106405905Y-85021765D01*
X106269516Y-84970635D01*
X106207334Y-84963880D01*
X104511066Y-84963880D01*
X104448884Y-84970635D01*
X104312495Y-85021765D01*
X104195939Y-85109119D01*
X104108585Y-85225675D01*
X104057455Y-85362064D01*
X104050700Y-85424246D01*
X104050700Y-87120514D01*
X70764400Y-87120514D01*
X70764400Y-81463503D01*
X72261943Y-81463503D01*
X72299468Y-81748534D01*
X72375329Y-82025836D01*
X72488123Y-82290276D01*
X72635761Y-82536961D01*
X72815513Y-82761328D01*
X73024051Y-82959223D01*
X73257517Y-83126986D01*
X73261312Y-83128995D01*
X73261313Y-83128996D01*
X73283069Y-83140515D01*
X73511592Y-83261512D01*
X73781573Y-83360311D01*
X74062464Y-83421555D01*
X74091041Y-83423804D01*
X74285482Y-83439107D01*
X74285491Y-83439107D01*
X74287939Y-83439300D01*
X74443471Y-83439300D01*
X74445607Y-83439154D01*
X74445618Y-83439154D01*
X74653748Y-83424965D01*
X74653754Y-83424964D01*
X74658025Y-83424673D01*
X74662220Y-83423804D01*
X74662222Y-83423804D01*
X74798784Y-83395523D01*
X74939542Y-83366374D01*
X75210543Y-83270407D01*
X75466012Y-83138550D01*
X75469513Y-83136089D01*
X75469517Y-83136087D01*
X75640157Y-83016159D01*
X75701223Y-82973241D01*
X75911822Y-82777540D01*
X76093913Y-82555068D01*
X76244127Y-82309942D01*
X76359683Y-82046698D01*
X76438444Y-81770206D01*
X76478951Y-81485584D01*
X76479045Y-81467751D01*
X76480435Y-81202383D01*
X76480435Y-81202376D01*
X76480457Y-81198097D01*
X76442932Y-80913066D01*
X76367071Y-80635764D01*
X76254277Y-80371324D01*
X76106639Y-80124639D01*
X75926887Y-79900272D01*
X75718349Y-79702377D01*
X75484883Y-79534614D01*
X75463043Y-79523050D01*
X75439854Y-79510772D01*
X75230808Y-79400088D01*
X74960827Y-79301289D01*
X74679936Y-79240045D01*
X74648885Y-79237601D01*
X74456918Y-79222493D01*
X74456909Y-79222493D01*
X74454461Y-79222300D01*
X74298929Y-79222300D01*
X74296793Y-79222446D01*
X74296782Y-79222446D01*
X74088652Y-79236635D01*
X74088646Y-79236636D01*
X74084375Y-79236927D01*
X74080180Y-79237796D01*
X74080178Y-79237796D01*
X73943616Y-79266077D01*
X73802858Y-79295226D01*
X73531857Y-79391193D01*
X73276388Y-79523050D01*
X73272887Y-79525511D01*
X73272883Y-79525513D01*
X73262794Y-79532604D01*
X73041177Y-79688359D01*
X72830578Y-79884060D01*
X72648487Y-80106532D01*
X72498273Y-80351658D01*
X72382717Y-80614902D01*
X72303956Y-80891394D01*
X72263449Y-81176016D01*
X72263427Y-81180305D01*
X72263426Y-81180312D01*
X72261965Y-81459217D01*
X72261943Y-81463503D01*
X70764400Y-81463503D01*
X70764400Y-78104000D01*
X70784402Y-78035879D01*
X70838058Y-77989386D01*
X70890400Y-77978000D01*
X154001200Y-77978000D01*
X154069321Y-77998002D01*
G37*
%TD.AperFunction*%
%TD*%
M02*
