%FSLAX45Y45*%
G04 Gerber Fmt 4.5, Leading zero omitted, Abs format (unit mm)*
G04 Created by KiCad (PCBNEW (6.0.1)) date 2022-02-08 14:36:47*
%MOMM*%
%LPD*%
G01*
G04 APERTURE LIST*
%TA.AperFunction,Profile*%
%ADD10C,0.100000*%
%TD*%
%ADD11C,0.200000*%
%ADD12C,0.040000*%
%ADD13C,0.080000*%
%ADD14C,0.110000*%
%ADD15C,0.120000*%
G04 APERTURE END LIST*
D10*
X7025640Y-7747000D02*
X15463520Y-7747000D01*
X15463520Y-7747000D02*
X15463520Y-13776960D01*
X15463520Y-13776960D02*
X7025640Y-13776960D01*
X7025640Y-13776960D02*
X7025640Y-7747000D01*
D11*
D12*
X7142800Y-8981760D02*
X7182800Y-9021760D01*
X7182800Y-8981760D02*
X7142800Y-9021760D01*
X7152960Y-8600760D02*
X7192960Y-8640760D01*
X7192960Y-8600760D02*
X7152960Y-8640760D01*
X7158040Y-12740960D02*
X7198040Y-12780960D01*
X7198040Y-12740960D02*
X7158040Y-12780960D01*
X7173280Y-9494840D02*
X7213280Y-9534840D01*
X7213280Y-9494840D02*
X7173280Y-9534840D01*
X7173280Y-11831640D02*
X7213280Y-11871640D01*
X7213280Y-11831640D02*
X7173280Y-11871640D01*
X7183440Y-13121960D02*
X7223440Y-13161960D01*
X7223440Y-13121960D02*
X7183440Y-13161960D01*
X7188520Y-9860600D02*
X7228520Y-9900600D01*
X7228520Y-9860600D02*
X7188520Y-9900600D01*
X7188520Y-12268520D02*
X7228520Y-12308520D01*
X7228520Y-12268520D02*
X7188520Y-12308520D01*
X7391720Y-8610920D02*
X7431720Y-8650920D01*
X7431720Y-8610920D02*
X7391720Y-8650920D01*
X7422200Y-8991920D02*
X7462200Y-9031920D01*
X7462200Y-8991920D02*
X7422200Y-9031920D01*
X7422200Y-9494840D02*
X7462200Y-9534840D01*
X7462200Y-9494840D02*
X7422200Y-9534840D01*
X7422200Y-11831640D02*
X7462200Y-11871640D01*
X7462200Y-11831640D02*
X7422200Y-11871640D01*
X7437440Y-12273600D02*
X7477440Y-12313600D01*
X7477440Y-12273600D02*
X7437440Y-12313600D01*
X7437440Y-12730800D02*
X7477440Y-12770800D01*
X7477440Y-12730800D02*
X7437440Y-12770800D01*
X7447600Y-13111800D02*
X7487600Y-13151800D01*
X7487600Y-13111800D02*
X7447600Y-13151800D01*
X7462840Y-9865680D02*
X7502840Y-9905680D01*
X7502840Y-9865680D02*
X7462840Y-9905680D01*
X7650800Y-11994200D02*
X7690800Y-12034200D01*
X7690800Y-11994200D02*
X7650800Y-12034200D01*
X7655880Y-12166920D02*
X7695880Y-12206920D01*
X7695880Y-12166920D02*
X7655880Y-12206920D01*
X7666040Y-13010200D02*
X7706040Y-13050200D01*
X7706040Y-13010200D02*
X7666040Y-13050200D01*
X7671120Y-12334560D02*
X7711120Y-12374560D01*
X7711120Y-12334560D02*
X7671120Y-12374560D01*
X7676200Y-12817160D02*
X7716200Y-12857160D01*
X7716200Y-12817160D02*
X7676200Y-12857160D01*
X7686360Y-9626920D02*
X7726360Y-9666920D01*
X7726360Y-9626920D02*
X7686360Y-9666920D01*
X7696520Y-8758240D02*
X7736520Y-8798240D01*
X7736520Y-8758240D02*
X7696520Y-8798240D01*
X7696520Y-9789480D02*
X7736520Y-9829480D01*
X7736520Y-9789480D02*
X7696520Y-9829480D01*
X7701600Y-8920800D02*
X7741600Y-8960800D01*
X7741600Y-8920800D02*
X7701600Y-8960800D01*
X7823520Y-9571040D02*
X7863520Y-9611040D01*
X7863520Y-9571040D02*
X7823520Y-9611040D01*
X7833680Y-9073200D02*
X7873680Y-9113200D01*
X7873680Y-9073200D02*
X7833680Y-9113200D01*
X7833680Y-12334560D02*
X7873680Y-12374560D01*
X7873680Y-12334560D02*
X7833680Y-12374560D01*
X7833680Y-12674920D02*
X7873680Y-12714920D01*
X7873680Y-12674920D02*
X7833680Y-12714920D01*
X7838760Y-9433880D02*
X7878760Y-9473880D01*
X7878760Y-9433880D02*
X7838760Y-9473880D01*
X7996240Y-12669840D02*
X8036240Y-12709840D01*
X8036240Y-12669840D02*
X7996240Y-12709840D01*
X8006400Y-9433880D02*
X8046400Y-9473880D01*
X8046400Y-9433880D02*
X8006400Y-9473880D01*
X8006400Y-12334560D02*
X8046400Y-12374560D01*
X8046400Y-12334560D02*
X8006400Y-12374560D01*
X8011480Y-9073200D02*
X8051480Y-9113200D01*
X8051480Y-9073200D02*
X8011480Y-9113200D01*
X8168960Y-8448360D02*
X8208960Y-8488360D01*
X8208960Y-8448360D02*
X8168960Y-8488360D01*
X8168960Y-12334560D02*
X8208960Y-12374560D01*
X8208960Y-12334560D02*
X8168960Y-12374560D01*
X8168960Y-12807000D02*
X8208960Y-12847000D01*
X8208960Y-12807000D02*
X8168960Y-12847000D01*
X8174040Y-9073200D02*
X8214040Y-9113200D01*
X8214040Y-9073200D02*
X8174040Y-9113200D01*
X8179120Y-8651560D02*
X8219120Y-8691560D01*
X8219120Y-8651560D02*
X8179120Y-8691560D01*
X8189280Y-9565960D02*
X8229280Y-9605960D01*
X8229280Y-9565960D02*
X8189280Y-9605960D01*
X8306120Y-8295960D02*
X8346120Y-8335960D01*
X8346120Y-8295960D02*
X8306120Y-8335960D01*
X8326440Y-9073200D02*
X8366440Y-9113200D01*
X8366440Y-9073200D02*
X8326440Y-9113200D01*
X8331520Y-8773480D02*
X8371520Y-8813480D01*
X8371520Y-8773480D02*
X8331520Y-8813480D01*
X8331520Y-12334560D02*
X8371520Y-12374560D01*
X8371520Y-12334560D02*
X8331520Y-12374560D01*
X8331520Y-12674920D02*
X8371520Y-12714920D01*
X8371520Y-12674920D02*
X8331520Y-12714920D01*
X8351840Y-9433880D02*
X8391840Y-9473880D01*
X8391840Y-9433880D02*
X8351840Y-9473880D01*
X8438200Y-11603040D02*
X8478200Y-11643040D01*
X8478200Y-11603040D02*
X8438200Y-11643040D01*
X8443280Y-8047040D02*
X8483280Y-8087040D01*
X8483280Y-8047040D02*
X8443280Y-8087040D01*
X8443280Y-11846880D02*
X8483280Y-11886880D01*
X8483280Y-11846880D02*
X8443280Y-11886880D01*
X8453440Y-8189280D02*
X8493440Y-8229280D01*
X8493440Y-8189280D02*
X8453440Y-8229280D01*
X8458520Y-8326440D02*
X8498520Y-8366440D01*
X8498520Y-8326440D02*
X8458520Y-8366440D01*
X8458520Y-8616000D02*
X8498520Y-8656000D01*
X8498520Y-8616000D02*
X8458520Y-8656000D01*
X8458520Y-9073200D02*
X8498520Y-9113200D01*
X8498520Y-9073200D02*
X8458520Y-9113200D01*
X8473760Y-11430320D02*
X8513760Y-11470320D01*
X8513760Y-11430320D02*
X8473760Y-11470320D01*
X8473760Y-12019600D02*
X8513760Y-12059600D01*
X8513760Y-12019600D02*
X8473760Y-12059600D01*
X8504240Y-12674920D02*
X8544240Y-12714920D01*
X8544240Y-12674920D02*
X8504240Y-12714920D01*
X8509320Y-12334560D02*
X8549320Y-12374560D01*
X8549320Y-12334560D02*
X8509320Y-12374560D01*
X8529640Y-9433880D02*
X8569640Y-9473880D01*
X8569640Y-9433880D02*
X8529640Y-9473880D01*
X8575360Y-9073200D02*
X8615360Y-9113200D01*
X8615360Y-9073200D02*
X8575360Y-9113200D01*
X8585520Y-7940360D02*
X8625520Y-7980360D01*
X8625520Y-7940360D02*
X8585520Y-7980360D01*
X8595680Y-8768400D02*
X8635680Y-8808400D01*
X8635680Y-8768400D02*
X8595680Y-8808400D01*
X8595680Y-11308400D02*
X8635680Y-11348400D01*
X8635680Y-11308400D02*
X8595680Y-11348400D01*
X8610920Y-12141520D02*
X8650920Y-12181520D01*
X8650920Y-12141520D02*
X8610920Y-12181520D01*
X8651560Y-12283760D02*
X8691560Y-12323760D01*
X8691560Y-12283760D02*
X8651560Y-12323760D01*
X8671880Y-9347520D02*
X8711880Y-9387520D01*
X8711880Y-9347520D02*
X8671880Y-9387520D01*
X8676960Y-12619040D02*
X8716960Y-12659040D01*
X8716960Y-12619040D02*
X8676960Y-12659040D01*
X8682040Y-8991920D02*
X8722040Y-9031920D01*
X8722040Y-8991920D02*
X8682040Y-9031920D01*
X8704900Y-10665780D02*
X8744900Y-10705780D01*
X8744900Y-10665780D02*
X8704900Y-10705780D01*
X8704900Y-10805480D02*
X8744900Y-10845480D01*
X8744900Y-10805480D02*
X8704900Y-10845480D01*
X8709980Y-10957880D02*
X8749980Y-10997880D01*
X8749980Y-10957880D02*
X8709980Y-10997880D01*
X8732840Y-8067360D02*
X8772840Y-8107360D01*
X8772840Y-8067360D02*
X8732840Y-8107360D01*
X8732840Y-8189280D02*
X8772840Y-8229280D01*
X8772840Y-8189280D02*
X8732840Y-8229280D01*
X8732840Y-8621080D02*
X8772840Y-8661080D01*
X8772840Y-8621080D02*
X8732840Y-8661080D01*
X8737920Y-8336600D02*
X8777920Y-8376600D01*
X8777920Y-8336600D02*
X8737920Y-8376600D01*
X8748080Y-12141520D02*
X8788080Y-12181520D01*
X8788080Y-12141520D02*
X8748080Y-12181520D01*
X8783640Y-11242360D02*
X8823640Y-11282360D01*
X8823640Y-11242360D02*
X8783640Y-11282360D01*
X8862380Y-10660700D02*
X8902380Y-10700700D01*
X8902380Y-10660700D02*
X8862380Y-10700700D01*
X8864920Y-10960420D02*
X8904920Y-11000420D01*
X8904920Y-10960420D02*
X8864920Y-11000420D01*
X8875080Y-8143560D02*
X8915080Y-8183560D01*
X8915080Y-8143560D02*
X8875080Y-8183560D01*
X8890320Y-12624120D02*
X8930320Y-12664120D01*
X8930320Y-12624120D02*
X8890320Y-12664120D01*
X8905560Y-9347520D02*
X8945560Y-9387520D01*
X8945560Y-9347520D02*
X8905560Y-9387520D01*
X8941120Y-11318560D02*
X8981120Y-11358560D01*
X8981120Y-11318560D02*
X8941120Y-11358560D01*
X8981760Y-11460800D02*
X9021760Y-11500800D01*
X9021760Y-11460800D02*
X8981760Y-11500800D01*
X9022400Y-10660700D02*
X9062400Y-10700700D01*
X9062400Y-10660700D02*
X9022400Y-10700700D01*
X9022400Y-10957880D02*
X9062400Y-10997880D01*
X9062400Y-10957880D02*
X9022400Y-10997880D01*
X9037640Y-12512360D02*
X9077640Y-12552360D01*
X9077640Y-12512360D02*
X9037640Y-12552360D01*
X9052880Y-8184200D02*
X9092880Y-8224200D01*
X9092880Y-8184200D02*
X9052880Y-8224200D01*
X9063040Y-8402640D02*
X9103040Y-8442640D01*
X9103040Y-8402640D02*
X9063040Y-8442640D01*
X9063040Y-9251000D02*
X9103040Y-9291000D01*
X9103040Y-9251000D02*
X9063040Y-9291000D01*
X9068120Y-8539800D02*
X9108120Y-8579800D01*
X9108120Y-8539800D02*
X9068120Y-8579800D01*
X9068120Y-8666800D02*
X9108120Y-8706800D01*
X9108120Y-8666800D02*
X9068120Y-8706800D01*
X9068120Y-8814120D02*
X9108120Y-8854120D01*
X9108120Y-8814120D02*
X9068120Y-8854120D01*
X9078280Y-8951280D02*
X9118280Y-8991280D01*
X9118280Y-8951280D02*
X9078280Y-8991280D01*
X9103680Y-11526840D02*
X9143680Y-11566840D01*
X9143680Y-11526840D02*
X9103680Y-11566840D01*
X9139240Y-11928160D02*
X9179240Y-11968160D01*
X9179240Y-11928160D02*
X9139240Y-11968160D01*
X9144320Y-11669080D02*
X9184320Y-11709080D01*
X9184320Y-11669080D02*
X9144320Y-11709080D01*
X9144320Y-11801160D02*
X9184320Y-11841160D01*
X9184320Y-11801160D02*
X9144320Y-11841160D01*
X9144320Y-12085640D02*
X9184320Y-12125640D01*
X9184320Y-12085640D02*
X9144320Y-12125640D01*
X9159560Y-12217720D02*
X9199560Y-12257720D01*
X9199560Y-12217720D02*
X9159560Y-12257720D01*
X9164640Y-9464360D02*
X9204640Y-9504360D01*
X9204640Y-9464360D02*
X9164640Y-9504360D01*
X9169720Y-9306880D02*
X9209720Y-9346880D01*
X9209720Y-9306880D02*
X9169720Y-9346880D01*
X9177340Y-10952800D02*
X9217340Y-10992800D01*
X9217340Y-10952800D02*
X9177340Y-10992800D01*
X9179880Y-10658160D02*
X9219880Y-10698160D01*
X9219880Y-10658160D02*
X9179880Y-10698160D01*
X9205280Y-8402640D02*
X9245280Y-8442640D01*
X9245280Y-8402640D02*
X9205280Y-8442640D01*
X9220520Y-12497120D02*
X9260520Y-12537120D01*
X9260520Y-12497120D02*
X9220520Y-12537120D01*
X9240840Y-8153720D02*
X9280840Y-8193720D01*
X9280840Y-8153720D02*
X9240840Y-8193720D01*
X9240840Y-8956360D02*
X9280840Y-8996360D01*
X9280840Y-8956360D02*
X9240840Y-8996360D01*
X9322120Y-8463600D02*
X9362120Y-8503600D01*
X9362120Y-8463600D02*
X9322120Y-8503600D01*
X9322120Y-12217720D02*
X9362120Y-12257720D01*
X9362120Y-12217720D02*
X9322120Y-12257720D01*
X9329740Y-10955340D02*
X9369740Y-10995340D01*
X9369740Y-10955340D02*
X9329740Y-10995340D01*
X9334820Y-10660700D02*
X9374820Y-10700700D01*
X9374820Y-10660700D02*
X9334820Y-10700700D01*
X9378000Y-8997000D02*
X9418000Y-9037000D01*
X9418000Y-8997000D02*
X9378000Y-9037000D01*
X9393240Y-12700320D02*
X9433240Y-12740320D01*
X9433240Y-12700320D02*
X9393240Y-12740320D01*
X9428800Y-8565200D02*
X9468800Y-8605200D01*
X9468800Y-8565200D02*
X9428800Y-8605200D01*
X9454200Y-8148640D02*
X9494200Y-8188640D01*
X9494200Y-8148640D02*
X9454200Y-8188640D01*
X9469440Y-12217720D02*
X9509440Y-12257720D01*
X9509440Y-12217720D02*
X9469440Y-12257720D01*
X9474520Y-9129080D02*
X9514520Y-9169080D01*
X9514520Y-9129080D02*
X9474520Y-9169080D01*
X9477060Y-9908860D02*
X9517060Y-9948860D01*
X9517060Y-9908860D02*
X9477060Y-9948860D01*
X9477060Y-10414320D02*
X9517060Y-10454320D01*
X9517060Y-10414320D02*
X9477060Y-10454320D01*
X9477060Y-10922320D02*
X9517060Y-10962320D01*
X9517060Y-10922320D02*
X9477060Y-10962320D01*
X9477060Y-11430320D02*
X9517060Y-11470320D01*
X9517060Y-11430320D02*
X9477060Y-11470320D01*
X9494840Y-9510080D02*
X9534840Y-9550080D01*
X9534840Y-9510080D02*
X9494840Y-9550080D01*
X9494840Y-9621840D02*
X9534840Y-9661840D01*
X9534840Y-9621840D02*
X9494840Y-9661840D01*
X9505000Y-8646480D02*
X9545000Y-8686480D01*
X9545000Y-8646480D02*
X9505000Y-8686480D01*
X9507540Y-12001820D02*
X9547540Y-12041820D01*
X9547540Y-12001820D02*
X9507540Y-12041820D01*
X9507540Y-12113580D02*
X9547540Y-12153580D01*
X9547540Y-12113580D02*
X9507540Y-12153580D01*
X9578012Y-8400139D02*
X9618012Y-8440139D01*
X9618012Y-8400139D02*
X9578012Y-8440139D01*
X9604060Y-10160320D02*
X9644060Y-10200320D01*
X9644060Y-10160320D02*
X9604060Y-10200320D01*
X9604060Y-10668320D02*
X9644060Y-10708320D01*
X9644060Y-10668320D02*
X9604060Y-10708320D01*
X9604060Y-11176320D02*
X9644060Y-11216320D01*
X9644060Y-11176320D02*
X9604060Y-11216320D01*
X9604060Y-11684320D02*
X9644060Y-11724320D01*
X9644060Y-11684320D02*
X9604060Y-11724320D01*
X9606600Y-8285800D02*
X9646600Y-8325800D01*
X9646600Y-8285800D02*
X9606600Y-8325800D01*
X9616760Y-12492040D02*
X9656760Y-12532040D01*
X9656760Y-12492040D02*
X9616760Y-12532040D01*
X9621840Y-12217720D02*
X9661840Y-12257720D01*
X9661840Y-12217720D02*
X9621840Y-12257720D01*
X9662480Y-8707440D02*
X9702480Y-8747440D01*
X9702480Y-8707440D02*
X9662480Y-8747440D01*
X9667560Y-8499160D02*
X9707560Y-8539160D01*
X9707560Y-8499160D02*
X9667560Y-8539160D01*
X9671795Y-9132364D02*
X9711795Y-9172364D01*
X9711795Y-9132364D02*
X9671795Y-9172364D01*
X9731060Y-9906320D02*
X9771060Y-9946320D01*
X9771060Y-9906320D02*
X9731060Y-9946320D01*
X9731060Y-10414320D02*
X9771060Y-10454320D01*
X9771060Y-10414320D02*
X9731060Y-10454320D01*
X9731060Y-10922320D02*
X9771060Y-10962320D01*
X9771060Y-10922320D02*
X9731060Y-10962320D01*
X9731060Y-11430320D02*
X9771060Y-11470320D01*
X9771060Y-11430320D02*
X9731060Y-11470320D01*
X9753920Y-12492040D02*
X9793920Y-12532040D01*
X9793920Y-12492040D02*
X9753920Y-12532040D01*
X9764080Y-12217720D02*
X9804080Y-12257720D01*
X9804080Y-12217720D02*
X9764080Y-12257720D01*
X9776780Y-12118660D02*
X9816780Y-12158660D01*
X9816780Y-12118660D02*
X9776780Y-12158660D01*
X9779320Y-12001820D02*
X9819320Y-12041820D01*
X9819320Y-12001820D02*
X9779320Y-12041820D01*
X9786940Y-9624380D02*
X9826940Y-9664380D01*
X9826940Y-9624380D02*
X9786940Y-9664380D01*
X9789480Y-9512620D02*
X9829480Y-9552620D01*
X9829480Y-9512620D02*
X9789480Y-9552620D01*
X9817420Y-8981760D02*
X9857420Y-9021760D01*
X9857420Y-8981760D02*
X9817420Y-9021760D01*
X9830120Y-8499160D02*
X9870120Y-8539160D01*
X9870120Y-8499160D02*
X9830120Y-8539160D01*
X9840280Y-8727760D02*
X9880280Y-8767760D01*
X9880280Y-8727760D02*
X9840280Y-8767760D01*
X9858060Y-10160320D02*
X9898060Y-10200320D01*
X9898060Y-10160320D02*
X9858060Y-10200320D01*
X9858060Y-10668320D02*
X9898060Y-10708320D01*
X9898060Y-10668320D02*
X9858060Y-10708320D01*
X9858060Y-11176320D02*
X9898060Y-11216320D01*
X9898060Y-11176320D02*
X9858060Y-11216320D01*
X9858060Y-11684320D02*
X9898060Y-11724320D01*
X9898060Y-11684320D02*
X9858060Y-11724320D01*
X9901240Y-12674920D02*
X9941240Y-12714920D01*
X9941240Y-12674920D02*
X9901240Y-12714920D01*
X9911400Y-12217720D02*
X9951400Y-12257720D01*
X9951400Y-12217720D02*
X9911400Y-12257720D01*
X9974900Y-9588820D02*
X10014900Y-9628820D01*
X10014900Y-9588820D02*
X9974900Y-9628820D01*
X9985060Y-8979220D02*
X10025060Y-9019220D01*
X10025060Y-8979220D02*
X9985060Y-9019220D01*
X9985060Y-9906320D02*
X10025060Y-9946320D01*
X10025060Y-9906320D02*
X9985060Y-9946320D01*
X9985060Y-10414320D02*
X10025060Y-10454320D01*
X10025060Y-10414320D02*
X9985060Y-10454320D01*
X9985060Y-10922320D02*
X10025060Y-10962320D01*
X10025060Y-10922320D02*
X9985060Y-10962320D01*
X9985060Y-11430320D02*
X10025060Y-11470320D01*
X10025060Y-11430320D02*
X9985060Y-11470320D01*
X10043480Y-12680000D02*
X10083480Y-12720000D01*
X10083480Y-12680000D02*
X10043480Y-12720000D01*
X10112060Y-10160320D02*
X10152060Y-10200320D01*
X10152060Y-10160320D02*
X10112060Y-10200320D01*
X10112060Y-10668320D02*
X10152060Y-10708320D01*
X10152060Y-10668320D02*
X10112060Y-10708320D01*
X10112060Y-11176320D02*
X10152060Y-11216320D01*
X10152060Y-11176320D02*
X10112060Y-11216320D01*
X10112060Y-11684320D02*
X10152060Y-11724320D01*
X10152060Y-11684320D02*
X10112060Y-11724320D01*
X10155240Y-8984300D02*
X10195240Y-9024300D01*
X10195240Y-8984300D02*
X10155240Y-9024300D01*
X10185720Y-12644440D02*
X10225720Y-12684440D01*
X10225720Y-12644440D02*
X10185720Y-12684440D01*
X10198420Y-9527860D02*
X10238420Y-9567860D01*
X10238420Y-9527860D02*
X10198420Y-9567860D01*
X10213660Y-12108500D02*
X10253660Y-12148500D01*
X10253660Y-12108500D02*
X10213660Y-12148500D01*
X10228900Y-9134160D02*
X10268900Y-9174160D01*
X10268900Y-9134160D02*
X10228900Y-9174160D01*
X10236520Y-9319580D02*
X10276520Y-9359580D01*
X10276520Y-9319580D02*
X10236520Y-9359580D01*
X10236520Y-12486960D02*
X10276520Y-12526960D01*
X10276520Y-12486960D02*
X10236520Y-12526960D01*
X10239060Y-9906320D02*
X10279060Y-9946320D01*
X10279060Y-9906320D02*
X10239060Y-9946320D01*
X10239060Y-10414320D02*
X10279060Y-10454320D01*
X10279060Y-10414320D02*
X10239060Y-10454320D01*
X10239060Y-10922320D02*
X10279060Y-10962320D01*
X10279060Y-10922320D02*
X10239060Y-10962320D01*
X10239060Y-11430320D02*
X10279060Y-11470320D01*
X10279060Y-11430320D02*
X10239060Y-11470320D01*
X10244140Y-12337100D02*
X10284140Y-12377100D01*
X10284140Y-12337100D02*
X10244140Y-12377100D01*
X10366060Y-10160320D02*
X10406060Y-10200320D01*
X10406060Y-10160320D02*
X10366060Y-10200320D01*
X10366060Y-10668320D02*
X10406060Y-10708320D01*
X10406060Y-10668320D02*
X10366060Y-10708320D01*
X10366060Y-11176320D02*
X10406060Y-11216320D01*
X10406060Y-11176320D02*
X10366060Y-11216320D01*
X10366060Y-11684320D02*
X10406060Y-11724320D01*
X10406060Y-11684320D02*
X10366060Y-11724320D01*
X10381300Y-9583740D02*
X10421300Y-9623740D01*
X10421300Y-9583740D02*
X10381300Y-9623740D01*
X10493060Y-9906320D02*
X10533060Y-9946320D01*
X10533060Y-9906320D02*
X10493060Y-9946320D01*
X10493060Y-10414320D02*
X10533060Y-10454320D01*
X10533060Y-10414320D02*
X10493060Y-10454320D01*
X10493060Y-10922320D02*
X10533060Y-10962320D01*
X10533060Y-10922320D02*
X10493060Y-10962320D01*
X10493060Y-11430320D02*
X10533060Y-11470320D01*
X10533060Y-11430320D02*
X10493060Y-11470320D01*
X10574340Y-9515160D02*
X10614340Y-9555160D01*
X10614340Y-9515160D02*
X10574340Y-9555160D01*
X10574340Y-9626920D02*
X10614340Y-9666920D01*
X10614340Y-9626920D02*
X10574340Y-9666920D01*
X10581960Y-11994200D02*
X10621960Y-12034200D01*
X10621960Y-11994200D02*
X10581960Y-12034200D01*
X10581960Y-12098340D02*
X10621960Y-12138340D01*
X10621960Y-12098340D02*
X10581960Y-12138340D01*
X10620060Y-10160320D02*
X10660060Y-10200320D01*
X10660060Y-10160320D02*
X10620060Y-10200320D01*
X10620060Y-10668320D02*
X10660060Y-10708320D01*
X10660060Y-10668320D02*
X10620060Y-10708320D01*
X10620060Y-11176320D02*
X10660060Y-11216320D01*
X10660060Y-11176320D02*
X10620060Y-11216320D01*
X10620060Y-11684320D02*
X10660060Y-11724320D01*
X10660060Y-11684320D02*
X10620060Y-11724320D01*
X10747060Y-9906320D02*
X10787060Y-9946320D01*
X10787060Y-9906320D02*
X10747060Y-9946320D01*
X10747060Y-10414320D02*
X10787060Y-10454320D01*
X10787060Y-10414320D02*
X10747060Y-10454320D01*
X10747060Y-10922320D02*
X10787060Y-10962320D01*
X10787060Y-10922320D02*
X10747060Y-10962320D01*
X10747060Y-11430320D02*
X10787060Y-11470320D01*
X10787060Y-11430320D02*
X10747060Y-11470320D01*
X10846120Y-11989120D02*
X10886120Y-12029120D01*
X10886120Y-11989120D02*
X10846120Y-12029120D01*
X10846120Y-12090720D02*
X10886120Y-12130720D01*
X10886120Y-12090720D02*
X10846120Y-12130720D01*
X10853740Y-9510080D02*
X10893740Y-9550080D01*
X10893740Y-9510080D02*
X10853740Y-9550080D01*
X10856280Y-9629460D02*
X10896280Y-9669460D01*
X10896280Y-9629460D02*
X10856280Y-9669460D01*
X10874060Y-10160320D02*
X10914060Y-10200320D01*
X10914060Y-10160320D02*
X10874060Y-10200320D01*
X10874060Y-10668320D02*
X10914060Y-10708320D01*
X10914060Y-10668320D02*
X10874060Y-10708320D01*
X10874060Y-11176320D02*
X10914060Y-11216320D01*
X10914060Y-11176320D02*
X10874060Y-11216320D01*
X10874060Y-11684320D02*
X10914060Y-11724320D01*
X10914060Y-11684320D02*
X10874060Y-11724320D01*
X11049320Y-11623360D02*
X11089320Y-11663360D01*
X11089320Y-11623360D02*
X11049320Y-11663360D01*
X11051860Y-9827580D02*
X11091860Y-9867580D01*
X11091860Y-9827580D02*
X11051860Y-9867580D01*
X11051860Y-9987600D02*
X11091860Y-10027600D01*
X11091860Y-9987600D02*
X11051860Y-10027600D01*
X11056940Y-11818940D02*
X11096940Y-11858940D01*
X11096940Y-11818940D02*
X11056940Y-11858940D01*
X11097580Y-10200960D02*
X11137580Y-10240960D01*
X11137580Y-10200960D02*
X11097580Y-10240960D01*
X11102660Y-11140760D02*
X11142660Y-11180760D01*
X11142660Y-11140760D02*
X11102660Y-11180760D01*
X11105200Y-10467660D02*
X11145200Y-10507660D01*
X11145200Y-10467660D02*
X11105200Y-10507660D01*
X11105200Y-10919780D02*
X11145200Y-10959780D01*
X11145200Y-10919780D02*
X11105200Y-10959780D01*
X11107740Y-11392220D02*
X11147740Y-11432220D01*
X11147740Y-11392220D02*
X11107740Y-11432220D01*
X11110280Y-10716580D02*
X11150280Y-10756580D01*
X11150280Y-10716580D02*
X11110280Y-10756580D01*
X11153460Y-11620820D02*
X11193460Y-11660820D01*
X11193460Y-11620820D02*
X11153460Y-11660820D01*
X11161080Y-11816400D02*
X11201080Y-11856400D01*
X11201080Y-11816400D02*
X11161080Y-11856400D01*
X11166160Y-9825040D02*
X11206160Y-9865040D01*
X11206160Y-9825040D02*
X11166160Y-9865040D01*
X11171240Y-9987600D02*
X11211240Y-10027600D01*
X11211240Y-9987600D02*
X11171240Y-10027600D01*
X11267760Y-10642920D02*
X11307760Y-10682920D01*
X11307760Y-10642920D02*
X11267760Y-10682920D01*
X11270300Y-10998520D02*
X11310300Y-11038520D01*
X11310300Y-10998520D02*
X11270300Y-11038520D01*
X11440000Y-9040000D02*
X11480000Y-9080000D01*
X11480000Y-9040000D02*
X11440000Y-9080000D01*
X11476040Y-10637840D02*
X11516040Y-10677840D01*
X11516040Y-10637840D02*
X11476040Y-10677840D01*
X11486200Y-10993440D02*
X11526200Y-11033440D01*
X11526200Y-10993440D02*
X11486200Y-11033440D01*
X11597960Y-11036620D02*
X11637960Y-11076620D01*
X11637960Y-11036620D02*
X11597960Y-11076620D01*
X11620820Y-10673400D02*
X11660820Y-10713400D01*
X11660820Y-10673400D02*
X11620820Y-10713400D01*
X11774780Y-10741330D02*
X11814780Y-10781330D01*
X11814780Y-10741330D02*
X11774780Y-10781330D01*
X11774780Y-11056330D02*
X11814780Y-11096330D01*
X11814780Y-11056330D02*
X11774780Y-11096330D01*
X11944780Y-10741330D02*
X11984780Y-10781330D01*
X11984780Y-10741330D02*
X11944780Y-10781330D01*
X11954780Y-11056330D02*
X11994780Y-11096330D01*
X11994780Y-11056330D02*
X11954780Y-11096330D01*
X12245660Y-10711500D02*
X12285660Y-10751500D01*
X12285660Y-10711500D02*
X12245660Y-10751500D01*
X12245660Y-11194100D02*
X12285660Y-11234100D01*
X12285660Y-11194100D02*
X12245660Y-11234100D01*
X12420920Y-10714040D02*
X12460920Y-10754040D01*
X12460920Y-10714040D02*
X12420920Y-10754040D01*
X12420920Y-11191330D02*
X12460920Y-11231330D01*
X12460920Y-11191330D02*
X12420920Y-11231330D01*
X12593640Y-11049320D02*
X12633640Y-11089320D01*
X12633640Y-11049320D02*
X12593640Y-11089320D01*
X12606340Y-10719120D02*
X12646340Y-10759120D01*
X12646340Y-10719120D02*
X12606340Y-10759120D01*
X12744780Y-10721330D02*
X12784780Y-10761330D01*
X12784780Y-10721330D02*
X12744780Y-10761330D01*
X12749780Y-11046330D02*
X12789780Y-11086330D01*
X12789780Y-11046330D02*
X12749780Y-11086330D01*
X12909780Y-10741330D02*
X12949780Y-10781330D01*
X12949780Y-10741330D02*
X12909780Y-10781330D01*
X12919780Y-11196330D02*
X12959780Y-11236330D01*
X12959780Y-11196330D02*
X12919780Y-11236330D01*
X13109780Y-10566330D02*
X13149780Y-10606330D01*
X13149780Y-10566330D02*
X13109780Y-10606330D01*
X13114780Y-11021330D02*
X13154780Y-11061330D01*
X13154780Y-11021330D02*
X13114780Y-11061330D01*
X13124780Y-11976330D02*
X13164780Y-12016330D01*
X13164780Y-11976330D02*
X13124780Y-12016330D01*
X13134780Y-11731330D02*
X13174780Y-11771330D01*
X13174780Y-11731330D02*
X13134780Y-11771330D01*
X13204780Y-11266330D02*
X13244780Y-11306330D01*
X13244780Y-11266330D02*
X13204780Y-11306330D01*
X13244780Y-11461330D02*
X13284780Y-11501330D01*
X13284780Y-11461330D02*
X13244780Y-11501330D01*
X13279780Y-10566330D02*
X13319780Y-10606330D01*
X13319780Y-10566330D02*
X13279780Y-10606330D01*
X13284780Y-11016330D02*
X13324780Y-11056330D01*
X13324780Y-11016330D02*
X13284780Y-11056330D01*
X13374780Y-11606330D02*
X13414780Y-11646330D01*
X13414780Y-11606330D02*
X13374780Y-11646330D01*
X13384780Y-11976330D02*
X13424780Y-12016330D01*
X13424780Y-11976330D02*
X13384780Y-12016330D01*
X13429780Y-10646330D02*
X13469780Y-10686330D01*
X13469780Y-10646330D02*
X13429780Y-10686330D01*
X13519780Y-11971330D02*
X13559780Y-12011330D01*
X13559780Y-11971330D02*
X13519780Y-12011330D01*
X13544780Y-11206330D02*
X13584780Y-11246330D01*
X13584780Y-11206330D02*
X13544780Y-11246330D01*
X13579780Y-10761330D02*
X13619780Y-10801330D01*
X13619780Y-10761330D02*
X13579780Y-10801330D01*
X13604780Y-11331330D02*
X13644780Y-11371330D01*
X13644780Y-11331330D02*
X13604780Y-11371330D01*
X13624780Y-11511330D02*
X13664780Y-11551330D01*
X13664780Y-11511330D02*
X13624780Y-11551330D01*
X13654780Y-11976330D02*
X13694780Y-12016330D01*
X13694780Y-11976330D02*
X13654780Y-12016330D01*
X13769780Y-10746330D02*
X13809780Y-10786330D01*
X13809780Y-10746330D02*
X13769780Y-10786330D01*
X13859780Y-11976330D02*
X13899780Y-12016330D01*
X13899780Y-11976330D02*
X13859780Y-12016330D01*
X13919780Y-11291330D02*
X13959780Y-11331330D01*
X13959780Y-11291330D02*
X13919780Y-11331330D01*
X13974780Y-10746330D02*
X14014780Y-10786330D01*
X14014780Y-10746330D02*
X13974780Y-10786330D01*
X14049780Y-11971330D02*
X14089780Y-12011330D01*
X14089780Y-11971330D02*
X14049780Y-12011330D01*
X14094780Y-11746330D02*
X14134780Y-11786330D01*
X14134780Y-11746330D02*
X14094780Y-11786330D01*
X14104780Y-11586330D02*
X14144780Y-11626330D01*
X14144780Y-11586330D02*
X14104780Y-11626330D01*
X14144780Y-10931330D02*
X14184780Y-10971330D01*
X14184780Y-10931330D02*
X14144780Y-10971330D01*
X14164780Y-11391330D02*
X14204780Y-11431330D01*
X14204780Y-11391330D02*
X14164780Y-11431330D01*
X14409780Y-10931330D02*
X14449780Y-10971330D01*
X14449780Y-10931330D02*
X14409780Y-10971330D01*
X14424780Y-11226330D02*
X14464780Y-11266330D01*
X14464780Y-11226330D02*
X14424780Y-11266330D01*
X14628180Y-10937560D02*
X14668180Y-10977560D01*
X14668180Y-10937560D02*
X14628180Y-10977560D01*
X14699780Y-11396330D02*
X14739780Y-11436330D01*
X14739780Y-11396330D02*
X14699780Y-11436330D01*
X14810000Y-10555000D02*
X14850000Y-10595000D01*
X14850000Y-10555000D02*
X14810000Y-10595000D01*
X14815000Y-10750000D02*
X14855000Y-10790000D01*
X14855000Y-10750000D02*
X14815000Y-10790000D01*
X14815000Y-11260000D02*
X14855000Y-11300000D01*
X14855000Y-11260000D02*
X14815000Y-11300000D01*
X14815000Y-11495000D02*
X14855000Y-11535000D01*
X14855000Y-11495000D02*
X14815000Y-11535000D01*
X14820000Y-10975000D02*
X14860000Y-11015000D01*
X14860000Y-10975000D02*
X14820000Y-11015000D01*
X14820000Y-11710000D02*
X14860000Y-11750000D01*
X14860000Y-11710000D02*
X14820000Y-11750000D01*
X14995000Y-11385000D02*
X15035000Y-11425000D01*
X15035000Y-11385000D02*
X14995000Y-11425000D01*
X14995000Y-11725000D02*
X15035000Y-11765000D01*
X15035000Y-11725000D02*
X14995000Y-11765000D01*
X15015000Y-10480000D02*
X15055000Y-10520000D01*
X15055000Y-10480000D02*
X15015000Y-10520000D01*
X15015000Y-10855000D02*
X15055000Y-10895000D01*
X15055000Y-10855000D02*
X15015000Y-10895000D01*
X15290000Y-10480000D02*
X15330000Y-10520000D01*
X15330000Y-10480000D02*
X15290000Y-10520000D01*
X15305000Y-10855000D02*
X15345000Y-10895000D01*
X15345000Y-10855000D02*
X15305000Y-10895000D01*
X15310000Y-11385000D02*
X15350000Y-11425000D01*
X15350000Y-11385000D02*
X15310000Y-11425000D01*
X15315000Y-11735000D02*
X15355000Y-11775000D01*
X15355000Y-11735000D02*
X15315000Y-11775000D01*
D13*
X10575920Y-8377238D02*
G75*
G03*
X10575920Y-8377238I-40000J0D01*
G01*
X10575920Y-8627238D02*
G75*
G03*
X10575920Y-8627238I-40000J0D01*
G01*
X13248000Y-8763000D02*
G75*
G03*
X13248000Y-8763000I-40000J0D01*
G01*
X13248000Y-9013000D02*
G75*
G03*
X13248000Y-9013000I-40000J0D01*
G01*
D14*
X11648440Y-8462140D02*
X11648440Y-8572140D01*
X11593440Y-8517140D02*
X11703440Y-8517140D01*
X11902440Y-8462140D02*
X11902440Y-8572140D01*
X11847440Y-8517140D02*
X11957440Y-8517140D01*
X12156440Y-8462140D02*
X12156440Y-8572140D01*
X12101440Y-8517140D02*
X12211440Y-8517140D01*
X13944600Y-8357480D02*
X13944600Y-8467480D01*
X13889600Y-8412480D02*
X13999600Y-8412480D01*
X14198600Y-8357480D02*
X14198600Y-8467480D01*
X14143600Y-8412480D02*
X14253600Y-8412480D01*
D15*
X11675627Y-9750307D02*
X11675627Y-9665453D01*
X11590773Y-9665453D01*
X11590773Y-9750307D01*
X11675627Y-9750307D01*
X14215627Y-9750307D02*
X14215627Y-9665453D01*
X14130773Y-9665453D01*
X14130773Y-9750307D01*
X14215627Y-9750307D01*
D11*
X7278259Y-14092436D02*
X7278259Y-13892436D01*
X7325878Y-13892436D01*
X7354449Y-13901960D01*
X7373497Y-13921008D01*
X7383021Y-13940055D01*
X7392545Y-13978150D01*
X7392545Y-14006722D01*
X7383021Y-14044817D01*
X7373497Y-14063865D01*
X7354449Y-14082912D01*
X7325878Y-14092436D01*
X7278259Y-14092436D01*
X7478259Y-14092436D02*
X7478259Y-13959103D01*
X7478259Y-13997198D02*
X7487783Y-13978150D01*
X7497307Y-13968627D01*
X7516354Y-13959103D01*
X7535402Y-13959103D01*
X7602068Y-14092436D02*
X7602068Y-13959103D01*
X7602068Y-13892436D02*
X7592545Y-13901960D01*
X7602068Y-13911484D01*
X7611592Y-13901960D01*
X7602068Y-13892436D01*
X7602068Y-13911484D01*
X7725878Y-14092436D02*
X7706830Y-14082912D01*
X7697307Y-14063865D01*
X7697307Y-13892436D01*
X7830640Y-14092436D02*
X7811592Y-14082912D01*
X7802068Y-14063865D01*
X7802068Y-13892436D01*
X8059211Y-14092436D02*
X8059211Y-13892436D01*
X8125878Y-14035293D01*
X8192545Y-13892436D01*
X8192545Y-14092436D01*
X8373497Y-14092436D02*
X8373497Y-13987674D01*
X8363973Y-13968627D01*
X8344926Y-13959103D01*
X8306830Y-13959103D01*
X8287783Y-13968627D01*
X8373497Y-14082912D02*
X8354449Y-14092436D01*
X8306830Y-14092436D01*
X8287783Y-14082912D01*
X8278259Y-14063865D01*
X8278259Y-14044817D01*
X8287783Y-14025769D01*
X8306830Y-14016246D01*
X8354449Y-14016246D01*
X8373497Y-14006722D01*
X8468735Y-13959103D02*
X8468735Y-14159103D01*
X8468735Y-13968627D02*
X8487783Y-13959103D01*
X8525878Y-13959103D01*
X8544926Y-13968627D01*
X8554450Y-13978150D01*
X8563973Y-13997198D01*
X8563973Y-14054341D01*
X8554450Y-14073388D01*
X8544926Y-14082912D01*
X8525878Y-14092436D01*
X8487783Y-14092436D01*
X8468735Y-14082912D01*
X8649688Y-14073388D02*
X8659211Y-14082912D01*
X8649688Y-14092436D01*
X8640164Y-14082912D01*
X8649688Y-14073388D01*
X8649688Y-14092436D01*
X8649688Y-13968627D02*
X8659211Y-13978150D01*
X8649688Y-13987674D01*
X8640164Y-13978150D01*
X8649688Y-13968627D01*
X8649688Y-13987674D01*
D12*
X6980640Y-14401960D02*
X7020640Y-14441960D01*
X7020640Y-14401960D02*
X6980640Y-14441960D01*
D11*
X7316354Y-14312436D02*
X7335402Y-14312436D01*
X7354449Y-14321960D01*
X7363973Y-14331484D01*
X7373497Y-14350531D01*
X7383021Y-14388627D01*
X7383021Y-14436246D01*
X7373497Y-14474341D01*
X7363973Y-14493388D01*
X7354449Y-14502912D01*
X7335402Y-14512436D01*
X7316354Y-14512436D01*
X7297307Y-14502912D01*
X7287783Y-14493388D01*
X7278259Y-14474341D01*
X7268735Y-14436246D01*
X7268735Y-14388627D01*
X7278259Y-14350531D01*
X7287783Y-14331484D01*
X7297307Y-14321960D01*
X7316354Y-14312436D01*
X7468735Y-14493388D02*
X7478259Y-14502912D01*
X7468735Y-14512436D01*
X7459211Y-14502912D01*
X7468735Y-14493388D01*
X7468735Y-14512436D01*
X7649688Y-14379103D02*
X7649688Y-14512436D01*
X7602068Y-14302912D02*
X7554449Y-14445769D01*
X7678259Y-14445769D01*
X7792545Y-14312436D02*
X7811592Y-14312436D01*
X7830640Y-14321960D01*
X7840164Y-14331484D01*
X7849688Y-14350531D01*
X7859211Y-14388627D01*
X7859211Y-14436246D01*
X7849688Y-14474341D01*
X7840164Y-14493388D01*
X7830640Y-14502912D01*
X7811592Y-14512436D01*
X7792545Y-14512436D01*
X7773497Y-14502912D01*
X7763973Y-14493388D01*
X7754449Y-14474341D01*
X7744926Y-14436246D01*
X7744926Y-14388627D01*
X7754449Y-14350531D01*
X7763973Y-14331484D01*
X7773497Y-14321960D01*
X7792545Y-14312436D01*
X7983021Y-14312436D02*
X8002068Y-14312436D01*
X8021116Y-14321960D01*
X8030640Y-14331484D01*
X8040164Y-14350531D01*
X8049688Y-14388627D01*
X8049688Y-14436246D01*
X8040164Y-14474341D01*
X8030640Y-14493388D01*
X8021116Y-14502912D01*
X8002068Y-14512436D01*
X7983021Y-14512436D01*
X7963973Y-14502912D01*
X7954449Y-14493388D01*
X7944926Y-14474341D01*
X7935402Y-14436246D01*
X7935402Y-14388627D01*
X7944926Y-14350531D01*
X7954449Y-14331484D01*
X7963973Y-14321960D01*
X7983021Y-14312436D01*
X8135402Y-14512436D02*
X8135402Y-14379103D01*
X8135402Y-14398150D02*
X8144926Y-14388627D01*
X8163973Y-14379103D01*
X8192545Y-14379103D01*
X8211592Y-14388627D01*
X8221116Y-14407674D01*
X8221116Y-14512436D01*
X8221116Y-14407674D02*
X8230640Y-14388627D01*
X8249688Y-14379103D01*
X8278259Y-14379103D01*
X8297307Y-14388627D01*
X8306830Y-14407674D01*
X8306830Y-14512436D01*
X8402069Y-14512436D02*
X8402069Y-14379103D01*
X8402069Y-14398150D02*
X8411592Y-14388627D01*
X8430640Y-14379103D01*
X8459211Y-14379103D01*
X8478259Y-14388627D01*
X8487783Y-14407674D01*
X8487783Y-14512436D01*
X8487783Y-14407674D02*
X8497307Y-14388627D01*
X8516354Y-14379103D01*
X8544926Y-14379103D01*
X8563973Y-14388627D01*
X8573497Y-14407674D01*
X8573497Y-14512436D01*
X8963973Y-14302912D02*
X8792545Y-14560055D01*
X9221116Y-14312436D02*
X9240164Y-14312436D01*
X9259211Y-14321960D01*
X9268735Y-14331484D01*
X9278259Y-14350531D01*
X9287783Y-14388627D01*
X9287783Y-14436246D01*
X9278259Y-14474341D01*
X9268735Y-14493388D01*
X9259211Y-14502912D01*
X9240164Y-14512436D01*
X9221116Y-14512436D01*
X9202069Y-14502912D01*
X9192545Y-14493388D01*
X9183021Y-14474341D01*
X9173497Y-14436246D01*
X9173497Y-14388627D01*
X9183021Y-14350531D01*
X9192545Y-14331484D01*
X9202069Y-14321960D01*
X9221116Y-14312436D01*
X9373497Y-14493388D02*
X9383021Y-14502912D01*
X9373497Y-14512436D01*
X9363973Y-14502912D01*
X9373497Y-14493388D01*
X9373497Y-14512436D01*
X9506830Y-14312436D02*
X9525878Y-14312436D01*
X9544926Y-14321960D01*
X9554450Y-14331484D01*
X9563973Y-14350531D01*
X9573497Y-14388627D01*
X9573497Y-14436246D01*
X9563973Y-14474341D01*
X9554450Y-14493388D01*
X9544926Y-14502912D01*
X9525878Y-14512436D01*
X9506830Y-14512436D01*
X9487783Y-14502912D01*
X9478259Y-14493388D01*
X9468735Y-14474341D01*
X9459211Y-14436246D01*
X9459211Y-14388627D01*
X9468735Y-14350531D01*
X9478259Y-14331484D01*
X9487783Y-14321960D01*
X9506830Y-14312436D01*
X9763973Y-14512436D02*
X9649688Y-14512436D01*
X9706830Y-14512436D02*
X9706830Y-14312436D01*
X9687783Y-14341008D01*
X9668735Y-14360055D01*
X9649688Y-14369579D01*
X9944926Y-14312436D02*
X9849688Y-14312436D01*
X9840164Y-14407674D01*
X9849688Y-14398150D01*
X9868735Y-14388627D01*
X9916354Y-14388627D01*
X9935402Y-14398150D01*
X9944926Y-14407674D01*
X9954450Y-14426722D01*
X9954450Y-14474341D01*
X9944926Y-14493388D01*
X9935402Y-14502912D01*
X9916354Y-14512436D01*
X9868735Y-14512436D01*
X9849688Y-14502912D01*
X9840164Y-14493388D01*
X10021116Y-14312436D02*
X10154450Y-14312436D01*
X10068735Y-14512436D01*
X10221116Y-14312436D02*
X10221116Y-14350531D01*
X10297307Y-14312436D02*
X10297307Y-14350531D01*
X10592545Y-14588627D02*
X10583021Y-14579103D01*
X10563973Y-14550531D01*
X10554450Y-14531484D01*
X10544926Y-14502912D01*
X10535402Y-14455293D01*
X10535402Y-14417198D01*
X10544926Y-14369579D01*
X10554450Y-14341008D01*
X10563973Y-14321960D01*
X10583021Y-14293388D01*
X10592545Y-14283865D01*
X10659211Y-14331484D02*
X10668735Y-14321960D01*
X10687783Y-14312436D01*
X10735402Y-14312436D01*
X10754450Y-14321960D01*
X10763973Y-14331484D01*
X10773497Y-14350531D01*
X10773497Y-14369579D01*
X10763973Y-14398150D01*
X10649688Y-14512436D01*
X10773497Y-14512436D01*
X10887783Y-14398150D02*
X10868735Y-14388627D01*
X10859211Y-14379103D01*
X10849688Y-14360055D01*
X10849688Y-14350531D01*
X10859211Y-14331484D01*
X10868735Y-14321960D01*
X10887783Y-14312436D01*
X10925878Y-14312436D01*
X10944926Y-14321960D01*
X10954450Y-14331484D01*
X10963973Y-14350531D01*
X10963973Y-14360055D01*
X10954450Y-14379103D01*
X10944926Y-14388627D01*
X10925878Y-14398150D01*
X10887783Y-14398150D01*
X10868735Y-14407674D01*
X10859211Y-14417198D01*
X10849688Y-14436246D01*
X10849688Y-14474341D01*
X10859211Y-14493388D01*
X10868735Y-14502912D01*
X10887783Y-14512436D01*
X10925878Y-14512436D01*
X10944926Y-14502912D01*
X10954450Y-14493388D01*
X10963973Y-14474341D01*
X10963973Y-14436246D01*
X10954450Y-14417198D01*
X10944926Y-14407674D01*
X10925878Y-14398150D01*
X11030640Y-14312436D02*
X11163973Y-14312436D01*
X11078259Y-14512436D01*
X11392545Y-14512436D02*
X11392545Y-14312436D01*
X11478259Y-14512436D02*
X11478259Y-14407674D01*
X11468735Y-14388627D01*
X11449688Y-14379103D01*
X11421116Y-14379103D01*
X11402068Y-14388627D01*
X11392545Y-14398150D01*
X11602068Y-14512436D02*
X11583021Y-14502912D01*
X11573497Y-14493388D01*
X11563973Y-14474341D01*
X11563973Y-14417198D01*
X11573497Y-14398150D01*
X11583021Y-14388627D01*
X11602068Y-14379103D01*
X11630640Y-14379103D01*
X11649688Y-14388627D01*
X11659211Y-14398150D01*
X11668735Y-14417198D01*
X11668735Y-14474341D01*
X11659211Y-14493388D01*
X11649688Y-14502912D01*
X11630640Y-14512436D01*
X11602068Y-14512436D01*
X11783021Y-14512436D02*
X11763973Y-14502912D01*
X11754449Y-14483865D01*
X11754449Y-14312436D01*
X11935402Y-14502912D02*
X11916354Y-14512436D01*
X11878259Y-14512436D01*
X11859211Y-14502912D01*
X11849688Y-14483865D01*
X11849688Y-14407674D01*
X11859211Y-14388627D01*
X11878259Y-14379103D01*
X11916354Y-14379103D01*
X11935402Y-14388627D01*
X11944926Y-14407674D01*
X11944926Y-14426722D01*
X11849688Y-14445769D01*
X12021116Y-14502912D02*
X12040164Y-14512436D01*
X12078259Y-14512436D01*
X12097307Y-14502912D01*
X12106830Y-14483865D01*
X12106830Y-14474341D01*
X12097307Y-14455293D01*
X12078259Y-14445769D01*
X12049688Y-14445769D01*
X12030640Y-14436246D01*
X12021116Y-14417198D01*
X12021116Y-14407674D01*
X12030640Y-14388627D01*
X12049688Y-14379103D01*
X12078259Y-14379103D01*
X12097307Y-14388627D01*
X12173497Y-14588627D02*
X12183021Y-14579103D01*
X12202068Y-14550531D01*
X12211592Y-14531484D01*
X12221116Y-14502912D01*
X12230640Y-14455293D01*
X12230640Y-14417198D01*
X12221116Y-14369579D01*
X12211592Y-14341008D01*
X12202068Y-14321960D01*
X12183021Y-14293388D01*
X12173497Y-14283865D01*
D13*
X7020640Y-14685960D02*
G75*
G03*
X7020640Y-14685960I-40000J0D01*
G01*
D11*
X7316354Y-14576436D02*
X7335402Y-14576436D01*
X7354449Y-14585960D01*
X7363973Y-14595484D01*
X7373497Y-14614531D01*
X7383021Y-14652627D01*
X7383021Y-14700246D01*
X7373497Y-14738341D01*
X7363973Y-14757388D01*
X7354449Y-14766912D01*
X7335402Y-14776436D01*
X7316354Y-14776436D01*
X7297307Y-14766912D01*
X7287783Y-14757388D01*
X7278259Y-14738341D01*
X7268735Y-14700246D01*
X7268735Y-14652627D01*
X7278259Y-14614531D01*
X7287783Y-14595484D01*
X7297307Y-14585960D01*
X7316354Y-14576436D01*
X7468735Y-14757388D02*
X7478259Y-14766912D01*
X7468735Y-14776436D01*
X7459211Y-14766912D01*
X7468735Y-14757388D01*
X7468735Y-14776436D01*
X7592545Y-14662150D02*
X7573497Y-14652627D01*
X7563973Y-14643103D01*
X7554449Y-14624055D01*
X7554449Y-14614531D01*
X7563973Y-14595484D01*
X7573497Y-14585960D01*
X7592545Y-14576436D01*
X7630640Y-14576436D01*
X7649688Y-14585960D01*
X7659211Y-14595484D01*
X7668735Y-14614531D01*
X7668735Y-14624055D01*
X7659211Y-14643103D01*
X7649688Y-14652627D01*
X7630640Y-14662150D01*
X7592545Y-14662150D01*
X7573497Y-14671674D01*
X7563973Y-14681198D01*
X7554449Y-14700246D01*
X7554449Y-14738341D01*
X7563973Y-14757388D01*
X7573497Y-14766912D01*
X7592545Y-14776436D01*
X7630640Y-14776436D01*
X7649688Y-14766912D01*
X7659211Y-14757388D01*
X7668735Y-14738341D01*
X7668735Y-14700246D01*
X7659211Y-14681198D01*
X7649688Y-14671674D01*
X7630640Y-14662150D01*
X7792545Y-14576436D02*
X7811592Y-14576436D01*
X7830640Y-14585960D01*
X7840164Y-14595484D01*
X7849688Y-14614531D01*
X7859211Y-14652627D01*
X7859211Y-14700246D01*
X7849688Y-14738341D01*
X7840164Y-14757388D01*
X7830640Y-14766912D01*
X7811592Y-14776436D01*
X7792545Y-14776436D01*
X7773497Y-14766912D01*
X7763973Y-14757388D01*
X7754449Y-14738341D01*
X7744926Y-14700246D01*
X7744926Y-14652627D01*
X7754449Y-14614531D01*
X7763973Y-14595484D01*
X7773497Y-14585960D01*
X7792545Y-14576436D01*
X7983021Y-14576436D02*
X8002068Y-14576436D01*
X8021116Y-14585960D01*
X8030640Y-14595484D01*
X8040164Y-14614531D01*
X8049688Y-14652627D01*
X8049688Y-14700246D01*
X8040164Y-14738341D01*
X8030640Y-14757388D01*
X8021116Y-14766912D01*
X8002068Y-14776436D01*
X7983021Y-14776436D01*
X7963973Y-14766912D01*
X7954449Y-14757388D01*
X7944926Y-14738341D01*
X7935402Y-14700246D01*
X7935402Y-14652627D01*
X7944926Y-14614531D01*
X7954449Y-14595484D01*
X7963973Y-14585960D01*
X7983021Y-14576436D01*
X8135402Y-14776436D02*
X8135402Y-14643103D01*
X8135402Y-14662150D02*
X8144926Y-14652627D01*
X8163973Y-14643103D01*
X8192545Y-14643103D01*
X8211592Y-14652627D01*
X8221116Y-14671674D01*
X8221116Y-14776436D01*
X8221116Y-14671674D02*
X8230640Y-14652627D01*
X8249688Y-14643103D01*
X8278259Y-14643103D01*
X8297307Y-14652627D01*
X8306830Y-14671674D01*
X8306830Y-14776436D01*
X8402069Y-14776436D02*
X8402069Y-14643103D01*
X8402069Y-14662150D02*
X8411592Y-14652627D01*
X8430640Y-14643103D01*
X8459211Y-14643103D01*
X8478259Y-14652627D01*
X8487783Y-14671674D01*
X8487783Y-14776436D01*
X8487783Y-14671674D02*
X8497307Y-14652627D01*
X8516354Y-14643103D01*
X8544926Y-14643103D01*
X8563973Y-14652627D01*
X8573497Y-14671674D01*
X8573497Y-14776436D01*
X8963973Y-14566912D02*
X8792545Y-14824055D01*
X9221116Y-14576436D02*
X9240164Y-14576436D01*
X9259211Y-14585960D01*
X9268735Y-14595484D01*
X9278259Y-14614531D01*
X9287783Y-14652627D01*
X9287783Y-14700246D01*
X9278259Y-14738341D01*
X9268735Y-14757388D01*
X9259211Y-14766912D01*
X9240164Y-14776436D01*
X9221116Y-14776436D01*
X9202069Y-14766912D01*
X9192545Y-14757388D01*
X9183021Y-14738341D01*
X9173497Y-14700246D01*
X9173497Y-14652627D01*
X9183021Y-14614531D01*
X9192545Y-14595484D01*
X9202069Y-14585960D01*
X9221116Y-14576436D01*
X9373497Y-14757388D02*
X9383021Y-14766912D01*
X9373497Y-14776436D01*
X9363973Y-14766912D01*
X9373497Y-14757388D01*
X9373497Y-14776436D01*
X9506830Y-14576436D02*
X9525878Y-14576436D01*
X9544926Y-14585960D01*
X9554450Y-14595484D01*
X9563973Y-14614531D01*
X9573497Y-14652627D01*
X9573497Y-14700246D01*
X9563973Y-14738341D01*
X9554450Y-14757388D01*
X9544926Y-14766912D01*
X9525878Y-14776436D01*
X9506830Y-14776436D01*
X9487783Y-14766912D01*
X9478259Y-14757388D01*
X9468735Y-14738341D01*
X9459211Y-14700246D01*
X9459211Y-14652627D01*
X9468735Y-14614531D01*
X9478259Y-14595484D01*
X9487783Y-14585960D01*
X9506830Y-14576436D01*
X9640164Y-14576436D02*
X9763973Y-14576436D01*
X9697307Y-14652627D01*
X9725878Y-14652627D01*
X9744926Y-14662150D01*
X9754450Y-14671674D01*
X9763973Y-14690722D01*
X9763973Y-14738341D01*
X9754450Y-14757388D01*
X9744926Y-14766912D01*
X9725878Y-14776436D01*
X9668735Y-14776436D01*
X9649688Y-14766912D01*
X9640164Y-14757388D01*
X9954450Y-14776436D02*
X9840164Y-14776436D01*
X9897307Y-14776436D02*
X9897307Y-14576436D01*
X9878259Y-14605008D01*
X9859211Y-14624055D01*
X9840164Y-14633579D01*
X10135402Y-14576436D02*
X10040164Y-14576436D01*
X10030640Y-14671674D01*
X10040164Y-14662150D01*
X10059211Y-14652627D01*
X10106830Y-14652627D01*
X10125878Y-14662150D01*
X10135402Y-14671674D01*
X10144926Y-14690722D01*
X10144926Y-14738341D01*
X10135402Y-14757388D01*
X10125878Y-14766912D01*
X10106830Y-14776436D01*
X10059211Y-14776436D01*
X10040164Y-14766912D01*
X10030640Y-14757388D01*
X10221116Y-14576436D02*
X10221116Y-14614531D01*
X10297307Y-14576436D02*
X10297307Y-14614531D01*
X10592545Y-14852627D02*
X10583021Y-14843103D01*
X10563973Y-14814531D01*
X10554450Y-14795484D01*
X10544926Y-14766912D01*
X10535402Y-14719293D01*
X10535402Y-14681198D01*
X10544926Y-14633579D01*
X10554450Y-14605008D01*
X10563973Y-14585960D01*
X10583021Y-14557388D01*
X10592545Y-14547865D01*
X10754450Y-14643103D02*
X10754450Y-14776436D01*
X10706830Y-14566912D02*
X10659211Y-14709769D01*
X10783021Y-14709769D01*
X11011592Y-14776436D02*
X11011592Y-14576436D01*
X11097307Y-14776436D02*
X11097307Y-14671674D01*
X11087783Y-14652627D01*
X11068735Y-14643103D01*
X11040164Y-14643103D01*
X11021116Y-14652627D01*
X11011592Y-14662150D01*
X11221116Y-14776436D02*
X11202068Y-14766912D01*
X11192545Y-14757388D01*
X11183021Y-14738341D01*
X11183021Y-14681198D01*
X11192545Y-14662150D01*
X11202068Y-14652627D01*
X11221116Y-14643103D01*
X11249688Y-14643103D01*
X11268735Y-14652627D01*
X11278259Y-14662150D01*
X11287783Y-14681198D01*
X11287783Y-14738341D01*
X11278259Y-14757388D01*
X11268735Y-14766912D01*
X11249688Y-14776436D01*
X11221116Y-14776436D01*
X11402068Y-14776436D02*
X11383021Y-14766912D01*
X11373497Y-14747865D01*
X11373497Y-14576436D01*
X11554449Y-14766912D02*
X11535402Y-14776436D01*
X11497307Y-14776436D01*
X11478259Y-14766912D01*
X11468735Y-14747865D01*
X11468735Y-14671674D01*
X11478259Y-14652627D01*
X11497307Y-14643103D01*
X11535402Y-14643103D01*
X11554449Y-14652627D01*
X11563973Y-14671674D01*
X11563973Y-14690722D01*
X11468735Y-14709769D01*
X11640164Y-14766912D02*
X11659211Y-14776436D01*
X11697307Y-14776436D01*
X11716354Y-14766912D01*
X11725878Y-14747865D01*
X11725878Y-14738341D01*
X11716354Y-14719293D01*
X11697307Y-14709769D01*
X11668735Y-14709769D01*
X11649688Y-14700246D01*
X11640164Y-14681198D01*
X11640164Y-14671674D01*
X11649688Y-14652627D01*
X11668735Y-14643103D01*
X11697307Y-14643103D01*
X11716354Y-14652627D01*
X11792545Y-14852627D02*
X11802068Y-14843103D01*
X11821116Y-14814531D01*
X11830640Y-14795484D01*
X11840164Y-14766912D01*
X11849688Y-14719293D01*
X11849688Y-14681198D01*
X11840164Y-14633579D01*
X11830640Y-14605008D01*
X11821116Y-14585960D01*
X11802068Y-14557388D01*
X11792545Y-14547865D01*
D14*
X6965640Y-14894960D02*
X6965640Y-15004960D01*
X6910640Y-14949960D02*
X7020640Y-14949960D01*
D11*
X7383021Y-15040436D02*
X7268735Y-15040436D01*
X7325878Y-15040436D02*
X7325878Y-14840436D01*
X7306830Y-14869008D01*
X7287783Y-14888055D01*
X7268735Y-14897579D01*
X7468735Y-15021388D02*
X7478259Y-15030912D01*
X7468735Y-15040436D01*
X7459211Y-15030912D01*
X7468735Y-15021388D01*
X7468735Y-15040436D01*
X7668735Y-15040436D02*
X7554449Y-15040436D01*
X7611592Y-15040436D02*
X7611592Y-14840436D01*
X7592545Y-14869008D01*
X7573497Y-14888055D01*
X7554449Y-14897579D01*
X7792545Y-14840436D02*
X7811592Y-14840436D01*
X7830640Y-14849960D01*
X7840164Y-14859484D01*
X7849688Y-14878531D01*
X7859211Y-14916627D01*
X7859211Y-14964246D01*
X7849688Y-15002341D01*
X7840164Y-15021388D01*
X7830640Y-15030912D01*
X7811592Y-15040436D01*
X7792545Y-15040436D01*
X7773497Y-15030912D01*
X7763973Y-15021388D01*
X7754449Y-15002341D01*
X7744926Y-14964246D01*
X7744926Y-14916627D01*
X7754449Y-14878531D01*
X7763973Y-14859484D01*
X7773497Y-14849960D01*
X7792545Y-14840436D01*
X7983021Y-14840436D02*
X8002068Y-14840436D01*
X8021116Y-14849960D01*
X8030640Y-14859484D01*
X8040164Y-14878531D01*
X8049688Y-14916627D01*
X8049688Y-14964246D01*
X8040164Y-15002341D01*
X8030640Y-15021388D01*
X8021116Y-15030912D01*
X8002068Y-15040436D01*
X7983021Y-15040436D01*
X7963973Y-15030912D01*
X7954449Y-15021388D01*
X7944926Y-15002341D01*
X7935402Y-14964246D01*
X7935402Y-14916627D01*
X7944926Y-14878531D01*
X7954449Y-14859484D01*
X7963973Y-14849960D01*
X7983021Y-14840436D01*
X8135402Y-15040436D02*
X8135402Y-14907103D01*
X8135402Y-14926150D02*
X8144926Y-14916627D01*
X8163973Y-14907103D01*
X8192545Y-14907103D01*
X8211592Y-14916627D01*
X8221116Y-14935674D01*
X8221116Y-15040436D01*
X8221116Y-14935674D02*
X8230640Y-14916627D01*
X8249688Y-14907103D01*
X8278259Y-14907103D01*
X8297307Y-14916627D01*
X8306830Y-14935674D01*
X8306830Y-15040436D01*
X8402069Y-15040436D02*
X8402069Y-14907103D01*
X8402069Y-14926150D02*
X8411592Y-14916627D01*
X8430640Y-14907103D01*
X8459211Y-14907103D01*
X8478259Y-14916627D01*
X8487783Y-14935674D01*
X8487783Y-15040436D01*
X8487783Y-14935674D02*
X8497307Y-14916627D01*
X8516354Y-14907103D01*
X8544926Y-14907103D01*
X8563973Y-14916627D01*
X8573497Y-14935674D01*
X8573497Y-15040436D01*
X8963973Y-14830912D02*
X8792545Y-15088055D01*
X9221116Y-14840436D02*
X9240164Y-14840436D01*
X9259211Y-14849960D01*
X9268735Y-14859484D01*
X9278259Y-14878531D01*
X9287783Y-14916627D01*
X9287783Y-14964246D01*
X9278259Y-15002341D01*
X9268735Y-15021388D01*
X9259211Y-15030912D01*
X9240164Y-15040436D01*
X9221116Y-15040436D01*
X9202069Y-15030912D01*
X9192545Y-15021388D01*
X9183021Y-15002341D01*
X9173497Y-14964246D01*
X9173497Y-14916627D01*
X9183021Y-14878531D01*
X9192545Y-14859484D01*
X9202069Y-14849960D01*
X9221116Y-14840436D01*
X9373497Y-15021388D02*
X9383021Y-15030912D01*
X9373497Y-15040436D01*
X9363973Y-15030912D01*
X9373497Y-15021388D01*
X9373497Y-15040436D01*
X9506830Y-14840436D02*
X9525878Y-14840436D01*
X9544926Y-14849960D01*
X9554450Y-14859484D01*
X9563973Y-14878531D01*
X9573497Y-14916627D01*
X9573497Y-14964246D01*
X9563973Y-15002341D01*
X9554450Y-15021388D01*
X9544926Y-15030912D01*
X9525878Y-15040436D01*
X9506830Y-15040436D01*
X9487783Y-15030912D01*
X9478259Y-15021388D01*
X9468735Y-15002341D01*
X9459211Y-14964246D01*
X9459211Y-14916627D01*
X9468735Y-14878531D01*
X9478259Y-14859484D01*
X9487783Y-14849960D01*
X9506830Y-14840436D01*
X9744926Y-14907103D02*
X9744926Y-15040436D01*
X9697307Y-14830912D02*
X9649688Y-14973769D01*
X9773497Y-14973769D01*
X9830640Y-14840436D02*
X9954450Y-14840436D01*
X9887783Y-14916627D01*
X9916354Y-14916627D01*
X9935402Y-14926150D01*
X9944926Y-14935674D01*
X9954450Y-14954722D01*
X9954450Y-15002341D01*
X9944926Y-15021388D01*
X9935402Y-15030912D01*
X9916354Y-15040436D01*
X9859211Y-15040436D01*
X9840164Y-15030912D01*
X9830640Y-15021388D01*
X10021116Y-14840436D02*
X10144926Y-14840436D01*
X10078259Y-14916627D01*
X10106830Y-14916627D01*
X10125878Y-14926150D01*
X10135402Y-14935674D01*
X10144926Y-14954722D01*
X10144926Y-15002341D01*
X10135402Y-15021388D01*
X10125878Y-15030912D01*
X10106830Y-15040436D01*
X10049688Y-15040436D01*
X10030640Y-15030912D01*
X10021116Y-15021388D01*
X10221116Y-14840436D02*
X10221116Y-14878531D01*
X10297307Y-14840436D02*
X10297307Y-14878531D01*
X10592545Y-15116627D02*
X10583021Y-15107103D01*
X10563973Y-15078531D01*
X10554450Y-15059484D01*
X10544926Y-15030912D01*
X10535402Y-14983293D01*
X10535402Y-14945198D01*
X10544926Y-14897579D01*
X10554450Y-14869008D01*
X10563973Y-14849960D01*
X10583021Y-14821388D01*
X10592545Y-14811865D01*
X10763973Y-14840436D02*
X10668735Y-14840436D01*
X10659211Y-14935674D01*
X10668735Y-14926150D01*
X10687783Y-14916627D01*
X10735402Y-14916627D01*
X10754450Y-14926150D01*
X10763973Y-14935674D01*
X10773497Y-14954722D01*
X10773497Y-15002341D01*
X10763973Y-15021388D01*
X10754450Y-15030912D01*
X10735402Y-15040436D01*
X10687783Y-15040436D01*
X10668735Y-15030912D01*
X10659211Y-15021388D01*
X11011592Y-15040436D02*
X11011592Y-14840436D01*
X11097307Y-15040436D02*
X11097307Y-14935674D01*
X11087783Y-14916627D01*
X11068735Y-14907103D01*
X11040164Y-14907103D01*
X11021116Y-14916627D01*
X11011592Y-14926150D01*
X11221116Y-15040436D02*
X11202068Y-15030912D01*
X11192545Y-15021388D01*
X11183021Y-15002341D01*
X11183021Y-14945198D01*
X11192545Y-14926150D01*
X11202068Y-14916627D01*
X11221116Y-14907103D01*
X11249688Y-14907103D01*
X11268735Y-14916627D01*
X11278259Y-14926150D01*
X11287783Y-14945198D01*
X11287783Y-15002341D01*
X11278259Y-15021388D01*
X11268735Y-15030912D01*
X11249688Y-15040436D01*
X11221116Y-15040436D01*
X11402068Y-15040436D02*
X11383021Y-15030912D01*
X11373497Y-15011865D01*
X11373497Y-14840436D01*
X11554449Y-15030912D02*
X11535402Y-15040436D01*
X11497307Y-15040436D01*
X11478259Y-15030912D01*
X11468735Y-15011865D01*
X11468735Y-14935674D01*
X11478259Y-14916627D01*
X11497307Y-14907103D01*
X11535402Y-14907103D01*
X11554449Y-14916627D01*
X11563973Y-14935674D01*
X11563973Y-14954722D01*
X11468735Y-14973769D01*
X11640164Y-15030912D02*
X11659211Y-15040436D01*
X11697307Y-15040436D01*
X11716354Y-15030912D01*
X11725878Y-15011865D01*
X11725878Y-15002341D01*
X11716354Y-14983293D01*
X11697307Y-14973769D01*
X11668735Y-14973769D01*
X11649688Y-14964246D01*
X11640164Y-14945198D01*
X11640164Y-14935674D01*
X11649688Y-14916627D01*
X11668735Y-14907103D01*
X11697307Y-14907103D01*
X11716354Y-14916627D01*
X11792545Y-15116627D02*
X11802068Y-15107103D01*
X11821116Y-15078531D01*
X11830640Y-15059484D01*
X11840164Y-15030912D01*
X11849688Y-14983293D01*
X11849688Y-14945198D01*
X11840164Y-14897579D01*
X11830640Y-14869008D01*
X11821116Y-14849960D01*
X11802068Y-14821388D01*
X11792545Y-14811865D01*
D15*
X7003067Y-15256387D02*
X7003067Y-15171533D01*
X6918213Y-15171533D01*
X6918213Y-15256387D01*
X7003067Y-15256387D01*
D11*
X7383021Y-15304436D02*
X7268735Y-15304436D01*
X7325878Y-15304436D02*
X7325878Y-15104436D01*
X7306830Y-15133008D01*
X7287783Y-15152055D01*
X7268735Y-15161579D01*
X7468735Y-15285388D02*
X7478259Y-15294912D01*
X7468735Y-15304436D01*
X7459211Y-15294912D01*
X7468735Y-15285388D01*
X7468735Y-15304436D01*
X7554449Y-15123484D02*
X7563973Y-15113960D01*
X7583021Y-15104436D01*
X7630640Y-15104436D01*
X7649688Y-15113960D01*
X7659211Y-15123484D01*
X7668735Y-15142531D01*
X7668735Y-15161579D01*
X7659211Y-15190150D01*
X7544926Y-15304436D01*
X7668735Y-15304436D01*
X7792545Y-15104436D02*
X7811592Y-15104436D01*
X7830640Y-15113960D01*
X7840164Y-15123484D01*
X7849688Y-15142531D01*
X7859211Y-15180627D01*
X7859211Y-15228246D01*
X7849688Y-15266341D01*
X7840164Y-15285388D01*
X7830640Y-15294912D01*
X7811592Y-15304436D01*
X7792545Y-15304436D01*
X7773497Y-15294912D01*
X7763973Y-15285388D01*
X7754449Y-15266341D01*
X7744926Y-15228246D01*
X7744926Y-15180627D01*
X7754449Y-15142531D01*
X7763973Y-15123484D01*
X7773497Y-15113960D01*
X7792545Y-15104436D01*
X7983021Y-15104436D02*
X8002068Y-15104436D01*
X8021116Y-15113960D01*
X8030640Y-15123484D01*
X8040164Y-15142531D01*
X8049688Y-15180627D01*
X8049688Y-15228246D01*
X8040164Y-15266341D01*
X8030640Y-15285388D01*
X8021116Y-15294912D01*
X8002068Y-15304436D01*
X7983021Y-15304436D01*
X7963973Y-15294912D01*
X7954449Y-15285388D01*
X7944926Y-15266341D01*
X7935402Y-15228246D01*
X7935402Y-15180627D01*
X7944926Y-15142531D01*
X7954449Y-15123484D01*
X7963973Y-15113960D01*
X7983021Y-15104436D01*
X8135402Y-15304436D02*
X8135402Y-15171103D01*
X8135402Y-15190150D02*
X8144926Y-15180627D01*
X8163973Y-15171103D01*
X8192545Y-15171103D01*
X8211592Y-15180627D01*
X8221116Y-15199674D01*
X8221116Y-15304436D01*
X8221116Y-15199674D02*
X8230640Y-15180627D01*
X8249688Y-15171103D01*
X8278259Y-15171103D01*
X8297307Y-15180627D01*
X8306830Y-15199674D01*
X8306830Y-15304436D01*
X8402069Y-15304436D02*
X8402069Y-15171103D01*
X8402069Y-15190150D02*
X8411592Y-15180627D01*
X8430640Y-15171103D01*
X8459211Y-15171103D01*
X8478259Y-15180627D01*
X8487783Y-15199674D01*
X8487783Y-15304436D01*
X8487783Y-15199674D02*
X8497307Y-15180627D01*
X8516354Y-15171103D01*
X8544926Y-15171103D01*
X8563973Y-15180627D01*
X8573497Y-15199674D01*
X8573497Y-15304436D01*
X8963973Y-15094912D02*
X8792545Y-15352055D01*
X9221116Y-15104436D02*
X9240164Y-15104436D01*
X9259211Y-15113960D01*
X9268735Y-15123484D01*
X9278259Y-15142531D01*
X9287783Y-15180627D01*
X9287783Y-15228246D01*
X9278259Y-15266341D01*
X9268735Y-15285388D01*
X9259211Y-15294912D01*
X9240164Y-15304436D01*
X9221116Y-15304436D01*
X9202069Y-15294912D01*
X9192545Y-15285388D01*
X9183021Y-15266341D01*
X9173497Y-15228246D01*
X9173497Y-15180627D01*
X9183021Y-15142531D01*
X9192545Y-15123484D01*
X9202069Y-15113960D01*
X9221116Y-15104436D01*
X9373497Y-15285388D02*
X9383021Y-15294912D01*
X9373497Y-15304436D01*
X9363973Y-15294912D01*
X9373497Y-15285388D01*
X9373497Y-15304436D01*
X9506830Y-15104436D02*
X9525878Y-15104436D01*
X9544926Y-15113960D01*
X9554450Y-15123484D01*
X9563973Y-15142531D01*
X9573497Y-15180627D01*
X9573497Y-15228246D01*
X9563973Y-15266341D01*
X9554450Y-15285388D01*
X9544926Y-15294912D01*
X9525878Y-15304436D01*
X9506830Y-15304436D01*
X9487783Y-15294912D01*
X9478259Y-15285388D01*
X9468735Y-15266341D01*
X9459211Y-15228246D01*
X9459211Y-15180627D01*
X9468735Y-15142531D01*
X9478259Y-15123484D01*
X9487783Y-15113960D01*
X9506830Y-15104436D01*
X9744926Y-15171103D02*
X9744926Y-15304436D01*
X9697307Y-15094912D02*
X9649688Y-15237769D01*
X9773497Y-15237769D01*
X9830640Y-15104436D02*
X9963973Y-15104436D01*
X9878259Y-15304436D01*
X10030640Y-15123484D02*
X10040164Y-15113960D01*
X10059211Y-15104436D01*
X10106830Y-15104436D01*
X10125878Y-15113960D01*
X10135402Y-15123484D01*
X10144926Y-15142531D01*
X10144926Y-15161579D01*
X10135402Y-15190150D01*
X10021116Y-15304436D01*
X10144926Y-15304436D01*
X10221116Y-15104436D02*
X10221116Y-15142531D01*
X10297307Y-15104436D02*
X10297307Y-15142531D01*
X10592545Y-15380627D02*
X10583021Y-15371103D01*
X10563973Y-15342531D01*
X10554450Y-15323484D01*
X10544926Y-15294912D01*
X10535402Y-15247293D01*
X10535402Y-15209198D01*
X10544926Y-15161579D01*
X10554450Y-15133008D01*
X10563973Y-15113960D01*
X10583021Y-15085388D01*
X10592545Y-15075865D01*
X10659211Y-15123484D02*
X10668735Y-15113960D01*
X10687783Y-15104436D01*
X10735402Y-15104436D01*
X10754450Y-15113960D01*
X10763973Y-15123484D01*
X10773497Y-15142531D01*
X10773497Y-15161579D01*
X10763973Y-15190150D01*
X10649688Y-15304436D01*
X10773497Y-15304436D01*
X11011592Y-15304436D02*
X11011592Y-15104436D01*
X11097307Y-15304436D02*
X11097307Y-15199674D01*
X11087783Y-15180627D01*
X11068735Y-15171103D01*
X11040164Y-15171103D01*
X11021116Y-15180627D01*
X11011592Y-15190150D01*
X11221116Y-15304436D02*
X11202068Y-15294912D01*
X11192545Y-15285388D01*
X11183021Y-15266341D01*
X11183021Y-15209198D01*
X11192545Y-15190150D01*
X11202068Y-15180627D01*
X11221116Y-15171103D01*
X11249688Y-15171103D01*
X11268735Y-15180627D01*
X11278259Y-15190150D01*
X11287783Y-15209198D01*
X11287783Y-15266341D01*
X11278259Y-15285388D01*
X11268735Y-15294912D01*
X11249688Y-15304436D01*
X11221116Y-15304436D01*
X11402068Y-15304436D02*
X11383021Y-15294912D01*
X11373497Y-15275865D01*
X11373497Y-15104436D01*
X11554449Y-15294912D02*
X11535402Y-15304436D01*
X11497307Y-15304436D01*
X11478259Y-15294912D01*
X11468735Y-15275865D01*
X11468735Y-15199674D01*
X11478259Y-15180627D01*
X11497307Y-15171103D01*
X11535402Y-15171103D01*
X11554449Y-15180627D01*
X11563973Y-15199674D01*
X11563973Y-15218722D01*
X11468735Y-15237769D01*
X11640164Y-15294912D02*
X11659211Y-15304436D01*
X11697307Y-15304436D01*
X11716354Y-15294912D01*
X11725878Y-15275865D01*
X11725878Y-15266341D01*
X11716354Y-15247293D01*
X11697307Y-15237769D01*
X11668735Y-15237769D01*
X11649688Y-15228246D01*
X11640164Y-15209198D01*
X11640164Y-15199674D01*
X11649688Y-15180627D01*
X11668735Y-15171103D01*
X11697307Y-15171103D01*
X11716354Y-15180627D01*
X11792545Y-15380627D02*
X11802068Y-15371103D01*
X11821116Y-15342531D01*
X11830640Y-15323484D01*
X11840164Y-15294912D01*
X11849688Y-15247293D01*
X11849688Y-15209198D01*
X11840164Y-15161579D01*
X11830640Y-15133008D01*
X11821116Y-15113960D01*
X11802068Y-15085388D01*
X11792545Y-15075865D01*
M02*
