M48
; DRILL file {KiCad (6.0.1)} date Tue Feb  8 14:36:32 2022
; FORMAT={-:-/ absolute / metric / decimal}
; #@! TF.CreationDate,2022-02-08T14:36:32+00:00
; #@! TF.GenerationSoftware,Kicad,Pcbnew,(6.0.1)
; #@! TF.FileFunction,Plated,1,4,PTH
FMAT,2
METRIC
; #@! TA.AperFunction,Plated,PTH,ViaDrill
T1C0.400
; #@! TA.AperFunction,Plated,PTH,ComponentDrill
T2C0.800
; #@! TA.AperFunction,Plated,PTH,ComponentDrill
T3C1.100
; #@! TA.AperFunction,Plated,PTH,ComponentDrill
T4C1.200
%
G90
G05
T1
X71.628Y-90.018
X71.73Y-86.208
X71.78Y-127.61
X71.933Y-95.148
X71.933Y-118.516
X72.034Y-131.42
X72.085Y-98.806
X72.085Y-122.885
X74.117Y-86.309
X74.422Y-90.119
X74.422Y-95.148
X74.422Y-118.516
X74.574Y-122.936
X74.574Y-127.508
X74.676Y-131.318
X74.828Y-98.857
X76.708Y-120.142
X76.759Y-121.869
X76.86Y-130.302
X76.911Y-123.546
X76.962Y-128.372
X77.064Y-96.469
X77.165Y-87.782
X77.165Y-98.095
X77.216Y-89.408
X78.435Y-95.91
X78.537Y-90.932
X78.537Y-123.546
X78.537Y-126.949
X78.588Y-94.539
X80.162Y-126.898
X80.264Y-94.539
X80.264Y-123.546
X80.315Y-90.932
X81.89Y-84.684
X81.89Y-123.546
X81.89Y-128.27
X81.94Y-90.932
X81.991Y-86.716
X82.093Y-95.86
X83.261Y-83.16
X83.464Y-90.932
X83.515Y-87.935
X83.515Y-123.546
X83.515Y-126.949
X83.718Y-94.539
X84.582Y-116.23
X84.633Y-80.67
X84.633Y-118.669
X84.734Y-82.093
X84.785Y-83.464
X84.785Y-86.36
X84.785Y-90.932
X84.938Y-114.503
X84.938Y-120.396
X85.242Y-126.949
X85.293Y-123.546
X85.496Y-94.539
X85.954Y-90.932
X86.055Y-79.604
X86.157Y-87.884
X86.157Y-113.284
X86.309Y-121.615
X86.716Y-123.038
X86.919Y-93.675
X86.97Y-126.39
X87.02Y-90.119
X87.249Y-106.858
X87.249Y-108.255
X87.3Y-109.779
X87.528Y-80.874
X87.528Y-82.093
X87.528Y-86.411
X87.579Y-83.566
X87.681Y-121.615
X88.036Y-112.624
X88.824Y-106.807
X88.849Y-109.804
X88.951Y-81.636
X89.103Y-126.441
X89.256Y-93.675
X89.611Y-113.386
X90.018Y-114.808
X90.424Y-106.807
X90.424Y-109.779
X90.576Y-125.324
X90.729Y-82.042
X90.83Y-84.226
X90.83Y-92.71
X90.881Y-85.598
X90.881Y-86.868
X90.881Y-88.341
X90.983Y-89.713
X91.237Y-115.468
X91.592Y-119.482
X91.643Y-116.891
X91.643Y-118.212
X91.643Y-121.056
X91.796Y-122.377
X91.846Y-94.844
X91.897Y-93.269
X91.973Y-109.728
X91.999Y-106.782
X92.253Y-84.226
X92.405Y-125.171
X92.608Y-81.737
X92.608Y-89.764
X93.421Y-84.836
X93.421Y-122.377
X93.497Y-109.753
X93.548Y-106.807
X93.98Y-90.17
X94.132Y-127.203
X94.488Y-85.852
X94.742Y-81.686
X94.894Y-122.377
X94.945Y-91.491
X94.971Y-99.289
X94.971Y-104.343
X94.971Y-109.423
X94.971Y-114.503
X95.148Y-95.301
X95.148Y-96.418
X95.25Y-86.665
X95.275Y-120.218
X95.275Y-121.336
X95.98Y-84.201
X96.241Y-101.803
X96.241Y-106.883
X96.241Y-111.963
X96.241Y-117.043
X96.266Y-83.058
X96.368Y-125.12
X96.418Y-122.377
X96.825Y-87.274
X96.876Y-85.192
X96.918Y-91.524
X97.511Y-99.263
X97.511Y-104.343
X97.511Y-109.423
X97.511Y-114.503
X97.739Y-125.12
X97.841Y-122.377
X97.968Y-121.387
X97.993Y-120.218
X98.069Y-96.444
X98.095Y-95.326
X98.374Y-90.018
X98.501Y-85.192
X98.603Y-87.478
X98.781Y-101.803
X98.781Y-106.883
X98.781Y-111.963
X98.781Y-117.043
X99.212Y-126.949
X99.314Y-122.377
X99.949Y-96.088
X100.051Y-89.992
X100.051Y-99.263
X100.051Y-104.343
X100.051Y-109.423
X100.051Y-114.503
X100.635Y-127.0
X101.321Y-101.803
X101.321Y-106.883
X101.321Y-111.963
X101.321Y-117.043
X101.752Y-90.043
X102.057Y-126.644
X102.184Y-95.479
X102.337Y-121.285
X102.489Y-91.542
X102.565Y-93.396
X102.565Y-125.07
X102.591Y-99.263
X102.591Y-104.343
X102.591Y-109.423
X102.591Y-114.503
X102.641Y-123.571
X103.861Y-101.803
X103.861Y-106.883
X103.861Y-111.963
X103.861Y-117.043
X104.013Y-96.037
X105.131Y-99.263
X105.131Y-104.343
X105.131Y-109.423
X105.131Y-114.503
X105.943Y-95.352
X105.943Y-96.469
X106.02Y-120.142
X106.02Y-121.183
X106.401Y-101.803
X106.401Y-106.883
X106.401Y-111.963
X106.401Y-117.043
X107.671Y-99.263
X107.671Y-104.343
X107.671Y-109.423
X107.671Y-114.503
X108.661Y-120.091
X108.661Y-121.107
X108.737Y-95.301
X108.763Y-96.495
X108.941Y-101.803
X108.941Y-106.883
X108.941Y-111.963
X108.941Y-117.043
X110.693Y-116.434
X110.719Y-98.476
X110.719Y-100.076
X110.769Y-118.389
X111.176Y-102.21
X111.227Y-111.608
X111.252Y-104.877
X111.252Y-109.398
X111.277Y-114.122
X111.303Y-107.366
X111.735Y-116.408
X111.811Y-118.364
X111.862Y-98.45
X111.912Y-100.076
X112.878Y-106.629
X112.903Y-110.185
X114.6Y-90.6
X114.96Y-106.578
X115.062Y-110.134
X116.18Y-110.566
X116.408Y-106.934
X117.948Y-107.613
X117.948Y-110.763
X119.648Y-107.613
X119.748Y-110.763
X122.657Y-107.315
X122.657Y-112.141
X124.409Y-107.34
X124.409Y-112.113
X126.136Y-110.693
X126.263Y-107.391
X127.648Y-107.413
X127.698Y-110.663
X129.298Y-107.613
X129.398Y-112.163
X131.298Y-105.863
X131.348Y-110.413
X131.448Y-119.963
X131.548Y-117.513
X132.248Y-112.863
X132.648Y-114.813
X132.998Y-105.863
X133.048Y-110.363
X133.948Y-116.263
X134.048Y-119.963
X134.498Y-106.663
X135.398Y-119.913
X135.648Y-112.263
X135.998Y-107.813
X136.248Y-113.513
X136.448Y-115.313
X136.748Y-119.963
X137.898Y-107.663
X138.798Y-119.963
X139.398Y-113.113
X139.948Y-107.663
X140.698Y-119.913
X141.148Y-117.663
X141.248Y-116.063
X141.648Y-109.513
X141.848Y-114.113
X144.298Y-109.513
X144.448Y-112.463
X146.482Y-109.576
X147.198Y-114.163
X148.3Y-105.75
X148.35Y-107.7
X148.35Y-112.8
X148.35Y-115.15
X148.4Y-109.95
X148.4Y-117.3
X150.15Y-114.05
X150.15Y-117.45
X150.35Y-105.0
X150.35Y-108.75
X153.1Y-105.0
X153.25Y-108.75
X153.3Y-114.05
X153.35Y-117.55
T2
X105.359Y-83.772
X105.359Y-86.272
X132.08Y-87.63
X132.08Y-90.13
T3
X116.484Y-85.171
X119.024Y-85.171
X121.564Y-85.171
X139.446Y-84.125
X141.986Y-84.125
T4
X116.332Y-97.079
X141.732Y-97.079
T0
M30
