%TF.GenerationSoftware,KiCad,Pcbnew,(6.0.1)*%
%TF.CreationDate,2022-02-10T09:54:43+00:00*%
%TF.ProjectId,TrackingGenerator,54726163-6b69-46e6-9747-656e65726174,rev?*%
%TF.SameCoordinates,Original*%
%TF.FileFunction,Copper,L1,Top*%
%TF.FilePolarity,Positive*%
%FSLAX46Y46*%
G04 Gerber Fmt 4.6, Leading zero omitted, Abs format (unit mm)*
G04 Created by KiCad (PCBNEW (6.0.1)) date 2022-02-10 09:54:43*
%MOMM*%
%LPD*%
G01*
G04 APERTURE LIST*
G04 Aperture macros list*
%AMRoundRect*
0 Rectangle with rounded corners*
0 $1 Rounding radius*
0 $2 $3 $4 $5 $6 $7 $8 $9 X,Y pos of 4 corners*
0 Add a 4 corners polygon primitive as box body*
4,1,4,$2,$3,$4,$5,$6,$7,$8,$9,$2,$3,0*
0 Add four circle primitives for the rounded corners*
1,1,$1+$1,$2,$3*
1,1,$1+$1,$4,$5*
1,1,$1+$1,$6,$7*
1,1,$1+$1,$8,$9*
0 Add four rect primitives between the rounded corners*
20,1,$1+$1,$2,$3,$4,$5,0*
20,1,$1+$1,$4,$5,$6,$7,0*
20,1,$1+$1,$6,$7,$8,$9,0*
20,1,$1+$1,$8,$9,$2,$3,0*%
%AMFreePoly0*
4,1,53,2.042426,15.408426,2.060000,15.366000,2.060000,7.426000,13.541000,7.426000,13.583426,7.408426,13.601000,7.366000,13.601000,3.366000,13.583426,3.323574,13.541000,3.306000,10.601000,3.306000,10.601000,-3.306000,13.541000,-3.306000,13.583426,-3.323574,13.601000,-3.366000,13.601000,-7.366000,13.583426,-7.408426,13.541000,-7.426000,10.601000,-7.426000,10.601000,-10.366000,10.583426,-10.408426,
10.541000,-10.426000,7.541000,-10.426000,7.498574,-10.408426,7.481000,-10.366000,7.481000,-7.426000,-7.481000,-7.426000,-7.481000,-10.366000,-7.498574,-10.408426,-7.541000,-10.426000,-10.541000,-10.426000,-10.583426,-10.408426,-10.601000,-10.366000,-10.601000,-7.426000,-13.541000,-7.426000,-13.583426,-7.408426,-13.601000,-7.366000,-13.601000,-3.366000,-13.583426,-3.323574,-13.541000,-3.306000,-10.601000,-3.306000,
-10.601000,3.306000,-13.541000,3.306000,-13.583426,3.323574,-13.601000,3.366000,-13.601000,7.366000,-13.583426,7.408426,-13.541000,7.426000,-2.060000,7.426000,-2.060000,15.366000,-2.042426,15.408426,-2.000000,15.426000,2.000000,15.426000,2.042426,15.408426,2.042426,15.408426,$1*%
G04 Aperture macros list end*
%TA.AperFunction,SMDPad,CuDef*%
%ADD10RoundRect,0.237500X-0.237500X0.300000X-0.237500X-0.300000X0.237500X-0.300000X0.237500X0.300000X0*%
%TD*%
%TA.AperFunction,ComponentPad*%
%ADD11R,1.905000X2.000000*%
%TD*%
%TA.AperFunction,ComponentPad*%
%ADD12O,1.905000X2.000000*%
%TD*%
%TA.AperFunction,SMDPad,CuDef*%
%ADD13RoundRect,0.237500X-0.237500X0.250000X-0.237500X-0.250000X0.237500X-0.250000X0.237500X0.250000X0*%
%TD*%
%TA.AperFunction,SMDPad,CuDef*%
%ADD14RoundRect,0.237500X-0.250000X-0.237500X0.250000X-0.237500X0.250000X0.237500X-0.250000X0.237500X0*%
%TD*%
%TA.AperFunction,SMDPad,CuDef*%
%ADD15RoundRect,0.237500X0.237500X-0.250000X0.237500X0.250000X-0.237500X0.250000X-0.237500X-0.250000X0*%
%TD*%
%TA.AperFunction,SMDPad,CuDef*%
%ADD16RoundRect,0.237500X-0.300000X-0.237500X0.300000X-0.237500X0.300000X0.237500X-0.300000X0.237500X0*%
%TD*%
%TA.AperFunction,SMDPad,CuDef*%
%ADD17RoundRect,0.237500X-0.237500X0.287500X-0.237500X-0.287500X0.237500X-0.287500X0.237500X0.287500X0*%
%TD*%
%TA.AperFunction,SMDPad,CuDef*%
%ADD18RoundRect,0.237500X0.300000X0.237500X-0.300000X0.237500X-0.300000X-0.237500X0.300000X-0.237500X0*%
%TD*%
%TA.AperFunction,SMDPad,CuDef*%
%ADD19R,5.080000X1.500000*%
%TD*%
%TA.AperFunction,SMDPad,CuDef*%
%ADD20RoundRect,0.237500X0.287500X0.237500X-0.287500X0.237500X-0.287500X-0.237500X0.287500X-0.237500X0*%
%TD*%
%TA.AperFunction,SMDPad,CuDef*%
%ADD21RoundRect,0.237500X0.237500X-0.300000X0.237500X0.300000X-0.237500X0.300000X-0.237500X-0.300000X0*%
%TD*%
%TA.AperFunction,ComponentPad*%
%ADD22R,1.600000X1.600000*%
%TD*%
%TA.AperFunction,ComponentPad*%
%ADD23C,1.600000*%
%TD*%
%TA.AperFunction,SMDPad,CuDef*%
%ADD24R,1.000000X3.000000*%
%TD*%
%TA.AperFunction,SMDPad,CuDef*%
%ADD25FreePoly0,90.000000*%
%TD*%
%TA.AperFunction,SMDPad,CuDef*%
%ADD26R,3.000000X1.000000*%
%TD*%
%TA.AperFunction,SMDPad,CuDef*%
%ADD27RoundRect,0.237500X0.237500X-0.287500X0.237500X0.287500X-0.237500X0.287500X-0.237500X-0.287500X0*%
%TD*%
%TA.AperFunction,SMDPad,CuDef*%
%ADD28R,1.050000X0.400000*%
%TD*%
%TA.AperFunction,SMDPad,CuDef*%
%ADD29R,0.400000X1.050000*%
%TD*%
%TA.AperFunction,SMDPad,CuDef*%
%ADD30RoundRect,0.237500X-0.287500X-0.237500X0.287500X-0.237500X0.287500X0.237500X-0.287500X0.237500X0*%
%TD*%
%TA.AperFunction,ComponentPad*%
%ADD31C,2.400000*%
%TD*%
%TA.AperFunction,ComponentPad*%
%ADD32O,2.400000X2.400000*%
%TD*%
%TA.AperFunction,ComponentPad*%
%ADD33R,2.100000X2.100000*%
%TD*%
%TA.AperFunction,ComponentPad*%
%ADD34C,2.100000*%
%TD*%
%TA.AperFunction,ViaPad*%
%ADD35C,0.800000*%
%TD*%
%TA.AperFunction,Conductor*%
%ADD36C,0.293370*%
%TD*%
%TA.AperFunction,Conductor*%
%ADD37C,0.250000*%
%TD*%
G04 APERTURE END LIST*
D10*
%TO.P,C9,1*%
%TO.N,GNDPWR*%
X86258400Y-114656700D03*
%TO.P,C9,2*%
%TO.N,Net-(C5-Pad1)*%
X86258400Y-116381700D03*
%TD*%
D11*
%TO.P,U1,1,IN*%
%TO.N,Net-(C22-Pad1)*%
X116484400Y-85171400D03*
D12*
%TO.P,U1,2,GND*%
%TO.N,GNDPWR*%
X119024400Y-85171400D03*
%TO.P,U1,3,OUT*%
%TO.N,+5V*%
X121564400Y-85171400D03*
%TD*%
D13*
%TO.P,R14,1*%
%TO.N,Net-(C25-Pad2)*%
X141647800Y-111100800D03*
%TO.P,R14,2*%
%TO.N,GNDPWR*%
X141647800Y-112925800D03*
%TD*%
D14*
%TO.P,R6,1*%
%TO.N,Net-(C12-Pad1)*%
X94743900Y-93218000D03*
%TO.P,R6,2*%
%TO.N,Net-(M1-Pad1)*%
X96568900Y-93218000D03*
%TD*%
D15*
%TO.P,R10,1*%
%TO.N,GNDPWR*%
X117322600Y-110894500D03*
%TO.P,R10,2*%
%TO.N,Net-(M1-Pad4)*%
X117322600Y-109069500D03*
%TD*%
D10*
%TO.P,C5,1*%
%TO.N,Net-(C5-Pad1)*%
X86309200Y-118669900D03*
%TO.P,C5,2*%
%TO.N,GNDPWR*%
X86309200Y-120394900D03*
%TD*%
D16*
%TO.P,C17,1*%
%TO.N,Net-(C16-Pad1)*%
X131335300Y-109013300D03*
%TO.P,C17,2*%
%TO.N,Net-(C17-Pad2)*%
X133060300Y-109013300D03*
%TD*%
D13*
%TO.P,R3,1*%
%TO.N,Net-(C4-Pad1)*%
X82092800Y-92711900D03*
%TO.P,R3,2*%
%TO.N,GNDPWR*%
X82092800Y-94536900D03*
%TD*%
D10*
%TO.P,C10,1*%
%TO.N,GNDPWR*%
X86207600Y-81077900D03*
%TO.P,C10,2*%
%TO.N,Net-(C10-Pad2)*%
X86207600Y-82802900D03*
%TD*%
D17*
%TO.P,L3,1,1*%
%TO.N,Net-(C10-Pad2)*%
X89154000Y-87313800D03*
%TO.P,L3,2,2*%
%TO.N,Net-(C12-Pad2)*%
X89154000Y-89063800D03*
%TD*%
D18*
%TO.P,C12,1*%
%TO.N,Net-(C12-Pad1)*%
X92607300Y-91440000D03*
%TO.P,C12,2*%
%TO.N,Net-(C12-Pad2)*%
X90882300Y-91440000D03*
%TD*%
D19*
%TO.P,J4,1,In*%
%TO.N,Net-(J4-Pad1)*%
X151937500Y-111350000D03*
%TO.P,J4,2,Ext*%
%TO.N,GNDPWR*%
X151937500Y-115600000D03*
X151937500Y-107100000D03*
%TD*%
D17*
%TO.P,L5,1,1*%
%TO.N,Net-(C5-Pad1)*%
X90017600Y-120435400D03*
%TO.P,L5,2,2*%
%TO.N,Net-(C14-Pad1)*%
X90017600Y-122185400D03*
%TD*%
D20*
%TO.P,L6,1,1*%
%TO.N,Net-(C16-Pad1)*%
X127849600Y-109016800D03*
%TO.P,L6,2,2*%
%TO.N,Net-(C15-Pad2)*%
X126099600Y-109016800D03*
%TD*%
D16*
%TO.P,C14,1*%
%TO.N,Net-(C14-Pad1)*%
X90831500Y-124002800D03*
%TO.P,C14,2*%
%TO.N,Net-(C14-Pad2)*%
X92556500Y-124002800D03*
%TD*%
D10*
%TO.P,C23,1*%
%TO.N,Net-(C22-Pad1)*%
X127000000Y-86767500D03*
%TO.P,C23,2*%
%TO.N,GNDPWR*%
X127000000Y-88492500D03*
%TD*%
D16*
%TO.P,C24,1*%
%TO.N,GNDPWR*%
X132541550Y-118738300D03*
%TO.P,C24,2*%
%TO.N,+5V*%
X134266550Y-118738300D03*
%TD*%
D14*
%TO.P,R15,1*%
%TO.N,Net-(C25-Pad2)*%
X143435300Y-111113300D03*
%TO.P,R15,2*%
%TO.N,Net-(J4-Pad1)*%
X145260300Y-111113300D03*
%TD*%
D21*
%TO.P,C21,1*%
%TO.N,GNDPWR*%
X133897800Y-114675800D03*
%TO.P,C21,2*%
%TO.N,Net-(C19-Pad1)*%
X133897800Y-112950800D03*
%TD*%
D13*
%TO.P,R5,1*%
%TO.N,Net-(C14-Pad2)*%
X94183200Y-124004700D03*
%TO.P,R5,2*%
%TO.N,GNDPWR*%
X94183200Y-125829700D03*
%TD*%
D16*
%TO.P,C18,1*%
%TO.N,Net-(C16-Pad1)*%
X131335300Y-107263300D03*
%TO.P,C18,2*%
%TO.N,Net-(C17-Pad2)*%
X133060300Y-107263300D03*
%TD*%
D10*
%TO.P,C20,1*%
%TO.N,Net-(C19-Pad1)*%
X138004050Y-116975800D03*
%TO.P,C20,2*%
%TO.N,GNDPWR*%
X138004050Y-118700800D03*
%TD*%
D14*
%TO.P,R11,1*%
%TO.N,Net-(M1-Pad4)*%
X119051700Y-109067600D03*
%TO.P,R11,2*%
%TO.N,Net-(C15-Pad2)*%
X120876700Y-109067600D03*
%TD*%
D13*
%TO.P,R4,1*%
%TO.N,Net-(C12-Pad1)*%
X93218000Y-93169100D03*
%TO.P,R4,2*%
%TO.N,GNDPWR*%
X93218000Y-94994100D03*
%TD*%
D19*
%TO.P,J1,1,In*%
%TO.N,Net-(J1-Pad1)*%
X73202800Y-92710000D03*
%TO.P,J1,2,Ext*%
%TO.N,GNDPWR*%
X73202800Y-96960000D03*
X73202800Y-88460000D03*
%TD*%
D21*
%TO.P,C15,1*%
%TO.N,GNDPWR*%
X124333000Y-110825800D03*
%TO.P,C15,2*%
%TO.N,Net-(C15-Pad2)*%
X124333000Y-109100800D03*
%TD*%
D20*
%TO.P,L8,1,1*%
%TO.N,Net-(C19-Pad1)*%
X139729050Y-115238300D03*
%TO.P,L8,2,2*%
%TO.N,Net-(C25-Pad1)*%
X137979050Y-115238300D03*
%TD*%
D16*
%TO.P,C25,1*%
%TO.N,Net-(C25-Pad1)*%
X138035300Y-111113300D03*
%TO.P,C25,2*%
%TO.N,Net-(C25-Pad2)*%
X139760300Y-111113300D03*
%TD*%
D10*
%TO.P,C2,1*%
%TO.N,Net-(C2-Pad1)*%
X81889600Y-125273900D03*
%TO.P,C2,2*%
%TO.N,GNDPWR*%
X81889600Y-126998900D03*
%TD*%
D16*
%TO.P,C26,1*%
%TO.N,Net-(C25-Pad1)*%
X137985300Y-109313300D03*
%TO.P,C26,2*%
%TO.N,Net-(C25-Pad2)*%
X139710300Y-109313300D03*
%TD*%
D21*
%TO.P,C13,1*%
%TO.N,GNDPWR*%
X88036400Y-116330900D03*
%TO.P,C13,2*%
%TO.N,+5V*%
X88036400Y-114605900D03*
%TD*%
D22*
%TO.P,C28,1*%
%TO.N,+5V*%
X105359200Y-86272380D03*
D23*
%TO.P,C28,2*%
%TO.N,GNDPWR*%
X105359200Y-83772380D03*
%TD*%
D24*
%TO.P,M1,1,R*%
%TO.N,Net-(M1-Pad1)*%
X100757000Y-92831000D03*
D25*
%TO.P,M1,2,GND*%
%TO.N,GNDPWR*%
X102018000Y-108331000D03*
D24*
%TO.P,M1,3,L*%
%TO.N,Net-(M1-Pad3)*%
X100757000Y-123831000D03*
D26*
%TO.P,M1,4,I*%
%TO.N,Net-(M1-Pad4)*%
X114018000Y-108331000D03*
%TD*%
D10*
%TO.P,C19,1*%
%TO.N,Net-(C19-Pad1)*%
X139754050Y-116975800D03*
%TO.P,C19,2*%
%TO.N,GNDPWR*%
X139754050Y-118700800D03*
%TD*%
D27*
%TO.P,L7,1,1*%
%TO.N,+5V*%
X136204050Y-118713300D03*
%TO.P,L7,2,2*%
%TO.N,Net-(C19-Pad1)*%
X136204050Y-116963300D03*
%TD*%
D14*
%TO.P,R2,1*%
%TO.N,Net-(J1-Pad1)*%
X78741900Y-92710000D03*
%TO.P,R2,2*%
%TO.N,Net-(C4-Pad1)*%
X80566900Y-92710000D03*
%TD*%
D28*
%TO.P,IC2,1,GND2*%
%TO.N,GNDPWR*%
X87037200Y-123962400D03*
%TO.P,IC2,2,GND1*%
X87037200Y-124612400D03*
%TO.P,IC2,3,INPUT*%
%TO.N,Net-(C3-Pad2)*%
X87037200Y-125262400D03*
%TO.P,IC2,4,VCC*%
%TO.N,Net-(C5-Pad1)*%
X89137200Y-125262400D03*
%TO.P,IC2,5,GND3*%
%TO.N,GNDPWR*%
X89137200Y-124612400D03*
%TO.P,IC2,6,OUTPUT_&_VCC*%
%TO.N,Net-(C14-Pad1)*%
X89137200Y-123962400D03*
%TD*%
D10*
%TO.P,C16,1*%
%TO.N,Net-(C16-Pad1)*%
X129590800Y-109068700D03*
%TO.P,C16,2*%
%TO.N,GNDPWR*%
X129590800Y-110793700D03*
%TD*%
%TO.P,C8,1*%
%TO.N,Net-(C10-Pad2)*%
X83464400Y-84887900D03*
%TO.P,C8,2*%
%TO.N,GNDPWR*%
X83464400Y-86612900D03*
%TD*%
D16*
%TO.P,C11,1*%
%TO.N,+5V*%
X93015900Y-83159600D03*
%TO.P,C11,2*%
%TO.N,GNDPWR*%
X94740900Y-83159600D03*
%TD*%
D29*
%TO.P,IC3,1,GND2*%
%TO.N,GNDPWR*%
X136297800Y-109013300D03*
%TO.P,IC3,2,GND1*%
X135647800Y-109013300D03*
%TO.P,IC3,3,INPUT*%
%TO.N,Net-(C17-Pad2)*%
X134997800Y-109013300D03*
%TO.P,IC3,4,VCC*%
%TO.N,Net-(C19-Pad1)*%
X134997800Y-111113300D03*
%TO.P,IC3,5,GND3*%
%TO.N,GNDPWR*%
X135647800Y-111113300D03*
%TO.P,IC3,6,OUTPUT_&_VCC*%
%TO.N,Net-(C25-Pad1)*%
X136297800Y-111113300D03*
%TD*%
D13*
%TO.P,R8,1*%
%TO.N,Net-(M1-Pad3)*%
X99110800Y-124004700D03*
%TO.P,R8,2*%
%TO.N,GNDPWR*%
X99110800Y-125829700D03*
%TD*%
D30*
%TO.P,L1,1,1*%
%TO.N,Net-(C1-Pad1)*%
X78576200Y-125222000D03*
%TO.P,L1,2,2*%
%TO.N,Net-(C2-Pad1)*%
X80326200Y-125222000D03*
%TD*%
D22*
%TO.P,C22,1*%
%TO.N,Net-(C22-Pad1)*%
X132080000Y-87630000D03*
D23*
%TO.P,C22,2*%
%TO.N,GNDPWR*%
X132080000Y-90130000D03*
%TD*%
D10*
%TO.P,C27,1*%
%TO.N,+5V*%
X113030000Y-90577500D03*
%TO.P,C27,2*%
%TO.N,GNDPWR*%
X113030000Y-92302500D03*
%TD*%
%TO.P,C7,1*%
%TO.N,Net-(C5-Pad1)*%
X88188800Y-118619100D03*
%TO.P,C7,2*%
%TO.N,GNDPWR*%
X88188800Y-120344100D03*
%TD*%
D31*
%TO.P,R13,1*%
%TO.N,+12V*%
X141732000Y-97078800D03*
D32*
%TO.P,R13,2*%
%TO.N,Net-(C22-Pad1)*%
X116332000Y-97078800D03*
%TD*%
D10*
%TO.P,C1,1*%
%TO.N,Net-(C1-Pad1)*%
X76962000Y-125273900D03*
%TO.P,C1,2*%
%TO.N,GNDPWR*%
X76962000Y-126998900D03*
%TD*%
D28*
%TO.P,IC1,1,GND2*%
%TO.N,GNDPWR*%
X87088000Y-91450400D03*
%TO.P,IC1,2,GND1*%
X87088000Y-92100400D03*
%TO.P,IC1,3,INPUT*%
%TO.N,Net-(C4-Pad2)*%
X87088000Y-92750400D03*
%TO.P,IC1,4,VCC*%
%TO.N,Net-(C10-Pad2)*%
X89188000Y-92750400D03*
%TO.P,IC1,5,GND3*%
%TO.N,GNDPWR*%
X89188000Y-92100400D03*
%TO.P,IC1,6,OUTPUT_&_VCC*%
%TO.N,Net-(C12-Pad2)*%
X89188000Y-91450400D03*
%TD*%
D13*
%TO.P,R16,1*%
%TO.N,Net-(J4-Pad1)*%
X147097800Y-111150800D03*
%TO.P,R16,2*%
%TO.N,GNDPWR*%
X147097800Y-112975800D03*
%TD*%
D16*
%TO.P,C3,1*%
%TO.N,Net-(C2-Pad1)*%
X83567100Y-125222000D03*
%TO.P,C3,2*%
%TO.N,Net-(C3-Pad2)*%
X85292100Y-125222000D03*
%TD*%
D15*
%TO.P,R9,1*%
%TO.N,Net-(M1-Pad1)*%
X98374200Y-93190700D03*
%TO.P,R9,2*%
%TO.N,GNDPWR*%
X98374200Y-91365700D03*
%TD*%
D10*
%TO.P,C6,1*%
%TO.N,Net-(C10-Pad2)*%
X86156800Y-84887900D03*
%TO.P,C6,2*%
%TO.N,GNDPWR*%
X86156800Y-86612900D03*
%TD*%
D13*
%TO.P,R1,1*%
%TO.N,Net-(J1-Pad1)*%
X77114400Y-92711900D03*
%TO.P,R1,2*%
%TO.N,GNDPWR*%
X77114400Y-94536900D03*
%TD*%
D16*
%TO.P,C4,1*%
%TO.N,Net-(C4-Pad1)*%
X83719500Y-92760800D03*
%TO.P,C4,2*%
%TO.N,Net-(C4-Pad2)*%
X85444500Y-92760800D03*
%TD*%
D17*
%TO.P,L4,1,1*%
%TO.N,+5V*%
X89916000Y-116879400D03*
%TO.P,L4,2,2*%
%TO.N,Net-(C5-Pad1)*%
X89916000Y-118629400D03*
%TD*%
D19*
%TO.P,J2,1,In*%
%TO.N,Net-(C1-Pad1)*%
X73028100Y-125323600D03*
%TO.P,J2,2,Ext*%
%TO.N,GNDPWR*%
X73028100Y-129573600D03*
X73028100Y-121073600D03*
%TD*%
D13*
%TO.P,R12,1*%
%TO.N,Net-(C15-Pad2)*%
X122580400Y-109069500D03*
%TO.P,R12,2*%
%TO.N,GNDPWR*%
X122580400Y-110894500D03*
%TD*%
D14*
%TO.P,R7,1*%
%TO.N,Net-(C14-Pad2)*%
X95810700Y-124002800D03*
%TO.P,R7,2*%
%TO.N,Net-(M1-Pad3)*%
X97635700Y-124002800D03*
%TD*%
D33*
%TO.P,J3,1,Pin_1*%
%TO.N,GNDPWR*%
X139446000Y-84124800D03*
D34*
%TO.P,J3,2,Pin_2*%
%TO.N,+12V*%
X141986000Y-84124800D03*
%TD*%
D17*
%TO.P,L2,1,1*%
%TO.N,+5V*%
X89154000Y-83148200D03*
%TO.P,L2,2,2*%
%TO.N,Net-(C10-Pad2)*%
X89154000Y-84898200D03*
%TD*%
D35*
%TO.N,GNDPWR*%
X105943400Y-95351600D03*
X91643200Y-121056400D03*
X87249000Y-108254800D03*
X153100000Y-105000000D03*
X141247800Y-116063300D03*
X135997800Y-107813300D03*
X99314000Y-122377200D03*
X90424000Y-109778800D03*
X100050600Y-99263200D03*
X102565200Y-93395800D03*
X153350000Y-117550000D03*
X147197800Y-114163300D03*
X97510600Y-109423200D03*
X74676000Y-131318000D03*
X102336600Y-121285000D03*
X100050600Y-109423200D03*
X139947800Y-107663300D03*
X95275400Y-121335800D03*
X88823800Y-106807000D03*
X95148400Y-96418400D03*
X91592400Y-119481600D03*
X71729600Y-86207600D03*
X81991200Y-86715600D03*
X94488000Y-85852000D03*
X144297800Y-109513300D03*
X134497800Y-106663300D03*
X94970600Y-114503200D03*
X107670600Y-104343200D03*
X108737400Y-95300800D03*
X106400600Y-106883200D03*
X92405200Y-125171200D03*
X83515200Y-123545600D03*
X90830400Y-84226400D03*
X97510600Y-104343200D03*
X112903000Y-110185200D03*
X108940600Y-117043200D03*
X97510600Y-114503200D03*
X95250000Y-86664800D03*
X87579200Y-83566000D03*
X95275400Y-120218200D03*
X133947800Y-116263300D03*
X94970600Y-109423200D03*
X96240600Y-117043200D03*
X103860600Y-106883200D03*
X87299800Y-109778800D03*
X105130600Y-99263200D03*
X78536800Y-123545600D03*
X108661200Y-121107200D03*
X134047800Y-119963300D03*
X84785200Y-83464400D03*
X87249000Y-106857800D03*
X138797800Y-119963300D03*
X91643200Y-116890800D03*
X108940600Y-101803200D03*
X84632800Y-80670400D03*
X85242400Y-126949200D03*
X93421200Y-122377200D03*
X102590600Y-99263200D03*
X81889600Y-123545600D03*
X131547800Y-117513300D03*
X108661200Y-120091200D03*
X103860600Y-101803200D03*
X111734600Y-116408200D03*
X83515200Y-126949200D03*
X101320600Y-111963200D03*
X98780600Y-101803200D03*
X111302800Y-107365800D03*
X91236800Y-115468400D03*
X95148400Y-95300800D03*
X148350000Y-112800000D03*
X106400600Y-117043200D03*
X86969600Y-126390400D03*
X87020400Y-90119200D03*
X77063600Y-96469200D03*
X119747800Y-110763300D03*
X131447800Y-119963300D03*
X94970600Y-99288600D03*
X135647800Y-112263300D03*
X71628000Y-90017600D03*
X84632800Y-118668800D03*
X96875600Y-85191600D03*
X96240600Y-111963200D03*
X106400600Y-101803200D03*
X132647800Y-114813300D03*
X96917949Y-91523640D03*
X91643200Y-118211600D03*
X101752400Y-90043000D03*
X84785200Y-90932000D03*
X78536800Y-90932000D03*
X101320600Y-101803200D03*
X86918800Y-93675200D03*
X101320600Y-106883200D03*
X86309200Y-121615200D03*
X84734400Y-82092800D03*
X76962000Y-128371600D03*
X89255600Y-93675200D03*
X102565200Y-125069600D03*
X90576400Y-125323600D03*
X141147800Y-117663300D03*
X111175800Y-102209600D03*
X106019600Y-121183400D03*
X124409200Y-107340400D03*
X97993200Y-120218200D03*
X80162400Y-126898400D03*
X76708000Y-120142000D03*
X97510600Y-99263200D03*
X92608400Y-81737200D03*
X99949000Y-96088200D03*
X129397800Y-112163300D03*
X100050600Y-114503200D03*
X84937600Y-114503200D03*
X133047800Y-110363300D03*
X98501200Y-85191600D03*
X97967800Y-121386600D03*
X77165200Y-87782400D03*
X107670600Y-114503200D03*
X111252000Y-104876600D03*
X74828400Y-98856800D03*
X83261200Y-83159600D03*
X85953600Y-90932000D03*
X98374200Y-90017600D03*
X150350000Y-105000000D03*
X95980124Y-84201393D03*
X126263400Y-107391200D03*
X140697800Y-119913300D03*
X88849200Y-109804200D03*
X122656600Y-112141000D03*
X74422000Y-90119200D03*
X102641400Y-123571000D03*
X148400000Y-109950000D03*
X110693200Y-116433600D03*
X102489000Y-91541600D03*
X136247800Y-113513300D03*
X103860600Y-111963200D03*
X111277400Y-114122200D03*
X74574400Y-122936000D03*
X105130600Y-109423200D03*
X85496400Y-94538800D03*
X111912400Y-100076000D03*
X105130600Y-114503200D03*
X98780600Y-106883200D03*
X137897800Y-107663300D03*
X131297800Y-105863300D03*
X122656600Y-107315000D03*
X81889600Y-84683600D03*
X93421200Y-84836000D03*
X93548200Y-106807000D03*
X101320600Y-117043200D03*
X87528400Y-86410800D03*
X91846400Y-94843600D03*
X71932800Y-118516400D03*
X111252000Y-109397800D03*
X96240600Y-106883200D03*
X96266000Y-83058000D03*
X110718600Y-100076000D03*
X94945200Y-91490800D03*
X83464400Y-90932000D03*
X81889600Y-128270000D03*
X127697800Y-110663300D03*
X114960400Y-106578400D03*
X103860600Y-117043200D03*
X98094800Y-95326200D03*
X89103200Y-126441200D03*
X87528400Y-80873600D03*
X96418400Y-122377200D03*
X74574400Y-127508000D03*
X107670600Y-99263200D03*
X90424000Y-106807000D03*
X141847800Y-114113300D03*
X127647800Y-107413300D03*
X98780600Y-117043200D03*
X87528400Y-82092800D03*
X78435200Y-95910400D03*
X89611200Y-113385600D03*
X104013000Y-96037400D03*
X97739200Y-125120400D03*
X91998800Y-106781600D03*
X90017600Y-114808000D03*
X136747800Y-119963300D03*
X71932800Y-95148400D03*
X86156800Y-87884000D03*
X96240600Y-101803200D03*
X77216000Y-89408000D03*
X131347800Y-110413300D03*
X86055200Y-79603600D03*
X92608400Y-89763600D03*
X105943400Y-96469200D03*
X96824800Y-87274400D03*
X80264000Y-94538800D03*
X116408200Y-106934000D03*
X117947800Y-110763300D03*
X93497400Y-109753400D03*
X112877600Y-106629200D03*
X146481800Y-109575600D03*
X106400600Y-111963200D03*
X83718400Y-94538800D03*
X115062000Y-110134400D03*
X148350000Y-107700000D03*
X96367600Y-125120400D03*
X74422000Y-95148400D03*
X111226600Y-111607600D03*
X116179600Y-110566200D03*
X111861600Y-98450400D03*
X84785200Y-86360000D03*
X153300000Y-114050000D03*
X90881200Y-86868000D03*
X129297800Y-107613300D03*
X86156800Y-113284000D03*
X91897200Y-93268800D03*
X110769400Y-118389400D03*
X72085200Y-98806000D03*
X78536800Y-126949200D03*
X81940400Y-90932000D03*
X78587600Y-94538800D03*
X80314800Y-90932000D03*
X98602800Y-87477600D03*
X76911200Y-123545600D03*
X71780400Y-127609600D03*
X102590600Y-109423200D03*
X87680800Y-121615200D03*
X86715600Y-123037600D03*
X102590600Y-114503200D03*
X83515200Y-87934800D03*
X102184200Y-95478600D03*
X93980000Y-90170000D03*
X141647800Y-109513300D03*
X90728800Y-82042000D03*
X100634800Y-127000000D03*
X108940600Y-111963200D03*
X90881200Y-88341200D03*
X76860400Y-130302000D03*
X144447800Y-112463300D03*
X150150000Y-114050000D03*
X98780600Y-111963200D03*
X90982800Y-89712800D03*
X148300000Y-105750000D03*
X153250000Y-108750000D03*
X77165200Y-98094800D03*
X72085200Y-122885200D03*
X72034400Y-131419600D03*
X94894400Y-122377200D03*
X148400000Y-117300000D03*
X92252800Y-84226400D03*
X106019600Y-120142000D03*
X99212400Y-126949200D03*
X94742000Y-81686400D03*
X100050600Y-104343200D03*
X119647800Y-107613300D03*
X124409200Y-112113300D03*
X108762800Y-96494600D03*
X90881200Y-85598000D03*
X91795600Y-122377200D03*
X150350000Y-108750000D03*
X74422000Y-118516400D03*
X150150000Y-117450000D03*
X117947800Y-107613300D03*
X111810800Y-118364000D03*
X90830400Y-92710000D03*
X110718600Y-98475800D03*
X94132400Y-127203200D03*
X94970600Y-104343200D03*
X100050600Y-89992200D03*
X82092800Y-95859600D03*
X88950800Y-81635600D03*
X105130600Y-104343200D03*
X132997800Y-105863300D03*
X91973400Y-109728000D03*
X98069400Y-96443800D03*
X139397800Y-113113300D03*
X74117200Y-86309200D03*
X84582000Y-116230400D03*
X136447800Y-115313300D03*
X84937600Y-120396000D03*
X126136400Y-110693200D03*
X107670600Y-109423200D03*
X102590600Y-104343200D03*
X102057200Y-126644400D03*
X148350000Y-115150000D03*
X85293200Y-123545600D03*
X97840800Y-122377200D03*
X80264000Y-123545600D03*
X132247800Y-112863300D03*
X108940600Y-106883200D03*
X76758800Y-121869200D03*
%TO.N,+5V*%
X135397800Y-119913300D03*
X88036400Y-112623600D03*
X114600000Y-90600000D03*
%TD*%
D36*
%TO.N,GNDPWR*%
X87037200Y-123962400D02*
X87037200Y-124612400D01*
X88036400Y-116330900D02*
X87932600Y-116330900D01*
D37*
X135647800Y-111113300D02*
X135647800Y-109013300D01*
D36*
X87088000Y-91450400D02*
X87088000Y-90186800D01*
D37*
X135647800Y-112263300D02*
X135647800Y-111113300D01*
D36*
X89188000Y-92100400D02*
X90179717Y-92100400D01*
D37*
X133847800Y-114582050D02*
X133854050Y-114588300D01*
X136297800Y-108113300D02*
X136297800Y-109013300D01*
D36*
X90179717Y-92100400D02*
X90789317Y-92710000D01*
D37*
X135997800Y-107813300D02*
X135647800Y-108163300D01*
D36*
X90789317Y-92710000D02*
X90830400Y-92710000D01*
X89137200Y-124612400D02*
X89865200Y-124612400D01*
X85091100Y-114656700D02*
X84937600Y-114503200D01*
X86258400Y-114656700D02*
X85091100Y-114656700D01*
X87088000Y-90186800D02*
X87020400Y-90119200D01*
D37*
X135997800Y-107813300D02*
X136297800Y-108113300D01*
X135647800Y-108163300D02*
X135647800Y-109013300D01*
D36*
X87932600Y-116330900D02*
X86258400Y-114656700D01*
X89865200Y-124612400D02*
X90576400Y-125323600D01*
X87037200Y-123359200D02*
X86715600Y-123037600D01*
X87037200Y-123962400D02*
X87037200Y-123359200D01*
X87088000Y-92100400D02*
X87088000Y-91450400D01*
%TO.N,Net-(C1-Pad1)*%
X78524300Y-125273900D02*
X78576200Y-125222000D01*
X73028100Y-125323600D02*
X76912300Y-125323600D01*
X76912300Y-125323600D02*
X76962000Y-125273900D01*
X76962000Y-125273900D02*
X78524300Y-125273900D01*
%TO.N,Net-(C2-Pad1)*%
X81889600Y-125273900D02*
X83515200Y-125273900D01*
X83515200Y-125273900D02*
X83567100Y-125222000D01*
X80326200Y-125222000D02*
X81837700Y-125222000D01*
X81837700Y-125222000D02*
X81889600Y-125273900D01*
%TO.N,Net-(C3-Pad2)*%
X86996800Y-125222000D02*
X87037200Y-125262400D01*
X85292100Y-125222000D02*
X86996800Y-125222000D01*
%TO.N,Net-(C4-Pad2)*%
X85342900Y-92710000D02*
X87047600Y-92710000D01*
X87047600Y-92710000D02*
X87088000Y-92750400D01*
%TO.N,Net-(C4-Pad1)*%
X82448400Y-92711900D02*
X83616000Y-92711900D01*
X81176500Y-92710000D02*
X82446500Y-92710000D01*
X82446500Y-92710000D02*
X82448400Y-92711900D01*
X83616000Y-92711900D02*
X83617900Y-92710000D01*
%TO.N,Net-(C5-Pad1)*%
X89137200Y-125262400D02*
X88318830Y-125262400D01*
X86360000Y-118619100D02*
X86309200Y-118669900D01*
X86309200Y-118669900D02*
X86309200Y-116432500D01*
X88318830Y-125262400D02*
X88266004Y-125209574D01*
X88266004Y-122186996D02*
X90017600Y-120435400D01*
X88188800Y-118619100D02*
X86360000Y-118619100D01*
X88266004Y-125209574D02*
X88266004Y-122186996D01*
X88199100Y-118629400D02*
X88188800Y-118619100D01*
X86309200Y-116432500D02*
X86258400Y-116381700D01*
X90017600Y-118731000D02*
X89916000Y-118629400D01*
X89916000Y-118629400D02*
X88199100Y-118629400D01*
X90017600Y-120435400D02*
X90017600Y-118731000D01*
%TO.N,Net-(C10-Pad2)*%
X86156800Y-84887900D02*
X86156800Y-82853700D01*
X88316804Y-92697574D02*
X88316804Y-88150996D01*
X86167100Y-84898200D02*
X86156800Y-84887900D01*
X89188000Y-92750400D02*
X88369630Y-92750400D01*
X89154000Y-84898200D02*
X86167100Y-84898200D01*
X88316804Y-88150996D02*
X89154000Y-87313800D01*
X89154000Y-87313800D02*
X89154000Y-84898200D01*
X86156800Y-84887900D02*
X83464400Y-84887900D01*
X86156800Y-82853700D02*
X86207600Y-82802900D01*
X88369630Y-92750400D02*
X88316804Y-92697574D01*
%TO.N,+5V*%
X89916000Y-116847517D02*
X88036400Y-114967917D01*
X88036400Y-114967917D02*
X88036400Y-114605900D01*
D37*
X113030000Y-90577500D02*
X114577500Y-90577500D01*
D36*
X93004500Y-83148200D02*
X93015900Y-83159600D01*
X96128680Y-86272380D02*
X105359200Y-86272380D01*
D37*
X134291550Y-118713300D02*
X134266550Y-118738300D01*
D36*
X93015900Y-83159600D02*
X96128680Y-86272380D01*
D37*
X135397800Y-119913300D02*
X136204050Y-119107050D01*
X136204050Y-119107050D02*
X136204050Y-118713300D01*
D36*
X89154000Y-83148200D02*
X93004500Y-83148200D01*
D37*
X136204050Y-118713300D02*
X134291550Y-118713300D01*
D36*
X88036400Y-114605900D02*
X88036400Y-112623600D01*
X89916000Y-116879400D02*
X89916000Y-116847517D01*
D37*
X114577500Y-90577500D02*
X114600000Y-90600000D01*
D36*
%TO.N,Net-(C12-Pad2)*%
X89188000Y-91450400D02*
X90871900Y-91450400D01*
X90871900Y-91450400D02*
X90882300Y-91440000D01*
X89154000Y-91416400D02*
X89188000Y-91450400D01*
X89154000Y-89063800D02*
X89154000Y-91416400D01*
%TO.N,Net-(C12-Pad1)*%
X92607300Y-92558400D02*
X93218000Y-93169100D01*
X94695000Y-93169100D02*
X94743900Y-93218000D01*
X92607300Y-91440000D02*
X92607300Y-92558400D01*
X93218000Y-93169100D02*
X94695000Y-93169100D01*
%TO.N,Net-(C14-Pad2)*%
X92556500Y-124002800D02*
X94232100Y-124002800D01*
X94232100Y-124002800D02*
X94234000Y-124004700D01*
X94234000Y-124004700D02*
X95808800Y-124004700D01*
X95808800Y-124004700D02*
X95810700Y-124002800D01*
%TO.N,Net-(C14-Pad1)*%
X89137200Y-123962400D02*
X90791100Y-123962400D01*
X89137200Y-123065800D02*
X90017600Y-122185400D01*
X90791100Y-123962400D02*
X90831500Y-124002800D01*
X89137200Y-123962400D02*
X89137200Y-123065800D01*
D37*
%TO.N,Net-(C15-Pad2)*%
X122580400Y-109069500D02*
X122578500Y-109067600D01*
X126099600Y-109016800D02*
X124417000Y-109016800D01*
X124417000Y-109016800D02*
X124333000Y-109100800D01*
X122578500Y-109067600D02*
X120876700Y-109067600D01*
X122611700Y-109100800D02*
X122580400Y-109069500D01*
X124333000Y-109100800D02*
X122611700Y-109100800D01*
%TO.N,Net-(C16-Pad1)*%
X131335300Y-109013300D02*
X129646200Y-109013300D01*
X129646200Y-109013300D02*
X129590800Y-109068700D01*
X129590800Y-109068700D02*
X127901500Y-109068700D01*
X131335300Y-107263300D02*
X131335300Y-109013300D01*
X127901500Y-109068700D02*
X127849600Y-109016800D01*
%TO.N,Net-(C17-Pad2)*%
X133060300Y-107263300D02*
X133060300Y-109013300D01*
X134997800Y-109013300D02*
X133060300Y-109013300D01*
%TO.N,Net-(C19-Pad1)*%
X139754050Y-115263300D02*
X139729050Y-115238300D01*
X137991550Y-116963300D02*
X138004050Y-116975800D01*
X138004050Y-116975800D02*
X139754050Y-116975800D01*
X133897800Y-112950800D02*
X135047800Y-114100800D01*
X135047800Y-114100800D02*
X135047800Y-115807050D01*
X134997800Y-111113300D02*
X134997800Y-111850800D01*
X134997800Y-111850800D02*
X133897800Y-112950800D01*
X139754050Y-116975800D02*
X139754050Y-115263300D01*
X135047800Y-115807050D02*
X136204050Y-116963300D01*
X136204050Y-116963300D02*
X137991550Y-116963300D01*
D36*
%TO.N,Net-(C22-Pad1)*%
X116484400Y-85171400D02*
X118921795Y-87608795D01*
X118921795Y-87608795D02*
X126158705Y-87608795D01*
X116484400Y-96926400D02*
X116332000Y-97078800D01*
X126158705Y-87608795D02*
X127000000Y-86767500D01*
X116484400Y-85171400D02*
X116484400Y-96926400D01*
X127862500Y-87630000D02*
X132080000Y-87630000D01*
X127000000Y-86767500D02*
X127862500Y-87630000D01*
D37*
%TO.N,Net-(C25-Pad2)*%
X139760300Y-111113300D02*
X141635300Y-111113300D01*
X141635300Y-111113300D02*
X141647800Y-111100800D01*
X139710300Y-109313300D02*
X139710300Y-111063300D01*
X139710300Y-111063300D02*
X139760300Y-111113300D01*
X143422800Y-111100800D02*
X143435300Y-111113300D01*
X141647800Y-111100800D02*
X143422800Y-111100800D01*
%TO.N,Net-(C25-Pad1)*%
X138035300Y-111113300D02*
X136297800Y-111113300D01*
X137985300Y-109313300D02*
X137985300Y-111063300D01*
X137972800Y-115232050D02*
X137979050Y-115238300D01*
X137985300Y-111063300D02*
X138035300Y-111113300D01*
X137972800Y-111175800D02*
X137972800Y-115232050D01*
X138035300Y-111113300D02*
X137972800Y-111175800D01*
D36*
%TO.N,Net-(J1-Pad1)*%
X77114400Y-92711900D02*
X78740000Y-92711900D01*
X78740000Y-92711900D02*
X78741900Y-92710000D01*
X73202800Y-92710000D02*
X77112500Y-92710000D01*
X77112500Y-92710000D02*
X77114400Y-92711900D01*
%TO.N,+12V*%
X141986000Y-96824800D02*
X141732000Y-97078800D01*
X141986000Y-84124800D02*
X141986000Y-96824800D01*
D37*
%TO.N,Net-(J4-Pad1)*%
X147297000Y-111350000D02*
X151937500Y-111350000D01*
X147097800Y-111150800D02*
X147297000Y-111350000D01*
X147097800Y-111150800D02*
X145297800Y-111150800D01*
X145297800Y-111150800D02*
X145260300Y-111113300D01*
D36*
%TO.N,Net-(M1-Pad1)*%
X98374200Y-93190700D02*
X100397300Y-93190700D01*
X100397300Y-93190700D02*
X100757000Y-92831000D01*
X98346900Y-93218000D02*
X98374200Y-93190700D01*
X96568900Y-93218000D02*
X98346900Y-93218000D01*
%TO.N,Net-(M1-Pad3)*%
X97635700Y-123952000D02*
X99007300Y-123952000D01*
X100583300Y-124004700D02*
X100757000Y-123831000D01*
X99007300Y-123952000D02*
X99060000Y-124004700D01*
X99110800Y-124004700D02*
X100583300Y-124004700D01*
D37*
%TO.N,Net-(M1-Pad4)*%
X117324500Y-109067600D02*
X117322600Y-109069500D01*
D36*
X116584100Y-108331000D02*
X117322600Y-109069500D01*
D37*
X119051700Y-109067600D02*
X117324500Y-109067600D01*
D36*
X114018000Y-108331000D02*
X116584100Y-108331000D01*
%TD*%
%TA.AperFunction,Conductor*%
%TO.N,GNDPWR*%
G36*
X153827321Y-78240002D02*
G01*
X153873814Y-78293658D01*
X153885200Y-78346000D01*
X153885200Y-109723500D01*
X153865198Y-109791621D01*
X153811542Y-109838114D01*
X153759200Y-109849500D01*
X149347634Y-109849500D01*
X149344388Y-109849837D01*
X149344384Y-109849837D01*
X149249839Y-109859647D01*
X149249835Y-109859648D01*
X149242981Y-109860359D01*
X149236445Y-109862540D01*
X149236443Y-109862540D01*
X149124006Y-109900052D01*
X149076971Y-109915744D01*
X148928155Y-110007834D01*
X148804516Y-110131689D01*
X148800676Y-110137919D01*
X148800675Y-110137920D01*
X148784678Y-110163873D01*
X148712686Y-110280666D01*
X148710381Y-110287614D01*
X148710381Y-110287615D01*
X148677028Y-110388168D01*
X148636596Y-110446528D01*
X148571032Y-110473764D01*
X148557435Y-110474500D01*
X148303625Y-110474500D01*
X148235504Y-110454498D01*
X148191964Y-110406877D01*
X148164383Y-110354120D01*
X148037524Y-110198576D01*
X147881980Y-110071717D01*
X147847198Y-110053533D01*
X147709766Y-109981685D01*
X147704104Y-109978725D01*
X147697963Y-109976964D01*
X147516924Y-109925052D01*
X147516922Y-109925052D01*
X147511162Y-109923400D01*
X147505190Y-109922867D01*
X147395183Y-109913049D01*
X147395175Y-109913049D01*
X147392389Y-109912800D01*
X147097906Y-109912800D01*
X146803212Y-109912801D01*
X146726977Y-109919604D01*
X146690409Y-109922867D01*
X146690407Y-109922867D01*
X146684438Y-109923400D01*
X146491496Y-109978725D01*
X146485834Y-109981685D01*
X146348403Y-110053533D01*
X146313620Y-110071717D01*
X146308674Y-110075751D01*
X146308668Y-110075755D01*
X146280261Y-110098923D01*
X146214830Y-110126477D01*
X146144888Y-110114281D01*
X146120990Y-110098922D01*
X146061933Y-110050755D01*
X146061923Y-110050748D01*
X146056980Y-110046717D01*
X145879104Y-109953725D01*
X145872963Y-109951964D01*
X145691924Y-109900052D01*
X145691922Y-109900052D01*
X145686162Y-109898400D01*
X145680190Y-109897867D01*
X145570183Y-109888049D01*
X145570175Y-109888049D01*
X145567389Y-109887800D01*
X145260410Y-109887800D01*
X144953212Y-109887801D01*
X144868276Y-109895380D01*
X144840409Y-109897867D01*
X144840407Y-109897867D01*
X144834438Y-109898400D01*
X144641496Y-109953725D01*
X144463620Y-110046717D01*
X144458677Y-110050748D01*
X144458673Y-110050751D01*
X144427436Y-110076228D01*
X144362004Y-110103782D01*
X144292063Y-110091587D01*
X144268164Y-110076228D01*
X144236927Y-110050751D01*
X144236923Y-110050748D01*
X144231980Y-110046717D01*
X144054104Y-109953725D01*
X144047963Y-109951964D01*
X143866924Y-109900052D01*
X143866922Y-109900052D01*
X143861162Y-109898400D01*
X143855190Y-109897867D01*
X143745183Y-109888049D01*
X143745175Y-109888049D01*
X143742389Y-109887800D01*
X143435410Y-109887800D01*
X143128212Y-109887801D01*
X143043276Y-109895380D01*
X143015409Y-109897867D01*
X143015407Y-109897867D01*
X143009438Y-109898400D01*
X142816496Y-109953725D01*
X142638620Y-110046717D01*
X142633674Y-110050751D01*
X142633671Y-110050753D01*
X142630257Y-110053537D01*
X142564824Y-110081087D01*
X142494884Y-110068889D01*
X142470990Y-110053533D01*
X142454056Y-110039722D01*
X142431980Y-110021717D01*
X142405425Y-110007834D01*
X142259766Y-109931685D01*
X142254104Y-109928725D01*
X142241295Y-109925052D01*
X142066924Y-109875052D01*
X142066922Y-109875052D01*
X142061162Y-109873400D01*
X142055190Y-109872867D01*
X141945183Y-109863049D01*
X141945175Y-109863049D01*
X141942389Y-109862800D01*
X141647906Y-109862800D01*
X141353212Y-109862801D01*
X141268276Y-109870380D01*
X141240409Y-109872867D01*
X141240407Y-109872867D01*
X141234438Y-109873400D01*
X141228676Y-109875052D01*
X141228677Y-109875052D01*
X141138253Y-109900980D01*
X141067257Y-109900529D01*
X141007776Y-109861767D01*
X140978694Y-109797000D01*
X140982404Y-109745130D01*
X140987700Y-109726662D01*
X140998300Y-109607889D01*
X140998299Y-109018712D01*
X140987700Y-108899938D01*
X140932375Y-108706996D01*
X140839383Y-108529120D01*
X140712524Y-108373576D01*
X140556980Y-108246717D01*
X140379104Y-108153725D01*
X140323567Y-108137800D01*
X140191924Y-108100052D01*
X140191922Y-108100052D01*
X140186162Y-108098400D01*
X140180190Y-108097867D01*
X140070183Y-108088049D01*
X140070175Y-108088049D01*
X140067389Y-108087800D01*
X139710428Y-108087800D01*
X139353212Y-108087801D01*
X139268276Y-108095380D01*
X139240409Y-108097867D01*
X139240407Y-108097867D01*
X139234438Y-108098400D01*
X139041496Y-108153725D01*
X138906173Y-108224471D01*
X138836540Y-108238304D01*
X138789428Y-108224471D01*
X138654104Y-108153725D01*
X138598567Y-108137800D01*
X138466924Y-108100052D01*
X138466922Y-108100052D01*
X138461162Y-108098400D01*
X138455190Y-108097867D01*
X138345183Y-108088049D01*
X138345175Y-108088049D01*
X138342389Y-108087800D01*
X137985428Y-108087800D01*
X137628212Y-108087801D01*
X137543276Y-108095380D01*
X137515409Y-108097867D01*
X137515407Y-108097867D01*
X137509438Y-108098400D01*
X137316496Y-108153725D01*
X137138620Y-108246717D01*
X136983076Y-108373576D01*
X136856217Y-108529120D01*
X136763225Y-108706996D01*
X136707900Y-108899938D01*
X136707367Y-108905909D01*
X136707367Y-108905910D01*
X136699679Y-108992057D01*
X136697300Y-109018711D01*
X136697301Y-109607888D01*
X136697551Y-109610684D01*
X136705814Y-109703286D01*
X136691946Y-109772915D01*
X136642635Y-109823993D01*
X136567472Y-109839829D01*
X136550868Y-109838128D01*
X136550867Y-109838128D01*
X136547666Y-109837800D01*
X136061461Y-109837800D01*
X135993340Y-109817798D01*
X135946847Y-109764142D01*
X135936801Y-109694269D01*
X135937710Y-109691528D01*
X135938670Y-109682163D01*
X135946566Y-109605087D01*
X135948300Y-109588166D01*
X135948300Y-108438434D01*
X135942083Y-108378516D01*
X135938153Y-108340639D01*
X135938152Y-108340635D01*
X135937441Y-108333781D01*
X135907408Y-108243759D01*
X135884374Y-108174719D01*
X135882056Y-108167771D01*
X135789966Y-108018955D01*
X135769034Y-107998059D01*
X135671291Y-107900487D01*
X135666111Y-107895316D01*
X135517134Y-107803486D01*
X135510185Y-107801181D01*
X135357559Y-107750556D01*
X135357557Y-107750555D01*
X135351028Y-107748390D01*
X135247666Y-107737800D01*
X134747934Y-107737800D01*
X134744688Y-107738137D01*
X134744684Y-107738137D01*
X134650139Y-107747947D01*
X134650135Y-107747948D01*
X134643281Y-107748659D01*
X134636745Y-107750840D01*
X134636743Y-107750840D01*
X134586310Y-107767666D01*
X134505594Y-107794595D01*
X134504176Y-107795068D01*
X134433227Y-107797652D01*
X134372143Y-107761469D01*
X134340318Y-107698004D01*
X134338799Y-107664343D01*
X134339074Y-107661270D01*
X134348300Y-107557889D01*
X134348299Y-106968712D01*
X134337700Y-106849938D01*
X134282375Y-106656996D01*
X134189383Y-106479120D01*
X134062524Y-106323576D01*
X133906980Y-106196717D01*
X133729104Y-106103725D01*
X133722963Y-106101964D01*
X133541924Y-106050052D01*
X133541922Y-106050052D01*
X133536162Y-106048400D01*
X133530190Y-106047867D01*
X133420183Y-106038049D01*
X133420175Y-106038049D01*
X133417389Y-106037800D01*
X133060428Y-106037800D01*
X132703212Y-106037801D01*
X132618276Y-106045380D01*
X132590409Y-106047867D01*
X132590407Y-106047867D01*
X132584438Y-106048400D01*
X132391496Y-106103725D01*
X132256173Y-106174471D01*
X132186540Y-106188304D01*
X132139428Y-106174471D01*
X132004104Y-106103725D01*
X131997963Y-106101964D01*
X131816924Y-106050052D01*
X131816922Y-106050052D01*
X131811162Y-106048400D01*
X131805190Y-106047867D01*
X131695183Y-106038049D01*
X131695175Y-106038049D01*
X131692389Y-106037800D01*
X131335428Y-106037800D01*
X130978212Y-106037801D01*
X130893276Y-106045380D01*
X130865409Y-106047867D01*
X130865407Y-106047867D01*
X130859438Y-106048400D01*
X130666496Y-106103725D01*
X130488620Y-106196717D01*
X130333076Y-106323576D01*
X130206217Y-106479120D01*
X130113225Y-106656996D01*
X130057900Y-106849938D01*
X130047300Y-106968711D01*
X130047301Y-107557888D01*
X130047551Y-107560684D01*
X130055249Y-107646959D01*
X130041381Y-107716588D01*
X129992070Y-107767666D01*
X129918549Y-107783659D01*
X129888185Y-107780949D01*
X129888173Y-107780948D01*
X129885389Y-107780700D01*
X129590906Y-107780700D01*
X129296212Y-107780701D01*
X129211276Y-107788280D01*
X129183409Y-107790767D01*
X129183407Y-107790767D01*
X129177438Y-107791300D01*
X129106999Y-107811498D01*
X129000277Y-107842100D01*
X128984496Y-107846625D01*
X128978834Y-107849585D01*
X128926463Y-107876964D01*
X128806620Y-107939617D01*
X128804635Y-107941236D01*
X128738067Y-107961635D01*
X128678211Y-107947305D01*
X128505904Y-107857225D01*
X128495885Y-107854352D01*
X128318724Y-107803552D01*
X128318722Y-107803552D01*
X128312962Y-107801900D01*
X128304906Y-107801181D01*
X128196983Y-107791549D01*
X128196975Y-107791549D01*
X128194189Y-107791300D01*
X127849723Y-107791300D01*
X127505012Y-107791301D01*
X127420076Y-107798880D01*
X127392209Y-107801367D01*
X127392207Y-107801367D01*
X127386238Y-107801900D01*
X127380476Y-107803552D01*
X127380477Y-107803552D01*
X127209077Y-107852700D01*
X127193296Y-107857225D01*
X127118871Y-107896134D01*
X127032976Y-107941039D01*
X126963340Y-107954874D01*
X126916224Y-107941039D01*
X126830330Y-107896134D01*
X126755904Y-107857225D01*
X126745885Y-107854352D01*
X126568724Y-107803552D01*
X126568722Y-107803552D01*
X126562962Y-107801900D01*
X126554906Y-107801181D01*
X126446983Y-107791549D01*
X126446975Y-107791549D01*
X126444189Y-107791300D01*
X126099723Y-107791300D01*
X125755012Y-107791301D01*
X125670076Y-107798880D01*
X125642209Y-107801367D01*
X125642207Y-107801367D01*
X125636238Y-107801900D01*
X125630476Y-107803552D01*
X125630477Y-107803552D01*
X125459077Y-107852700D01*
X125443296Y-107857225D01*
X125437634Y-107860185D01*
X125369770Y-107895664D01*
X125265420Y-107950217D01*
X125260473Y-107954252D01*
X125260468Y-107954255D01*
X125255773Y-107958084D01*
X125190341Y-107985637D01*
X125120400Y-107973441D01*
X125117229Y-107971624D01*
X125117180Y-107971717D01*
X124944966Y-107881685D01*
X124939304Y-107878725D01*
X124933163Y-107876964D01*
X124752124Y-107825052D01*
X124752122Y-107825052D01*
X124746362Y-107823400D01*
X124740390Y-107822867D01*
X124630383Y-107813049D01*
X124630375Y-107813049D01*
X124627589Y-107812800D01*
X124333106Y-107812800D01*
X124038412Y-107812801D01*
X123953476Y-107820380D01*
X123925609Y-107822867D01*
X123925607Y-107822867D01*
X123919638Y-107823400D01*
X123726696Y-107878725D01*
X123721034Y-107881685D01*
X123595516Y-107947305D01*
X123548820Y-107971717D01*
X123543874Y-107975751D01*
X123524870Y-107991250D01*
X123459438Y-108018803D01*
X123389497Y-108006607D01*
X123375209Y-107997424D01*
X123374853Y-107997964D01*
X123369529Y-107994453D01*
X123364580Y-107990417D01*
X123358925Y-107987461D01*
X123358921Y-107987458D01*
X123192366Y-107900385D01*
X123186704Y-107897425D01*
X123131812Y-107881685D01*
X122999524Y-107843752D01*
X122999522Y-107843752D01*
X122993762Y-107842100D01*
X122987790Y-107841567D01*
X122877783Y-107831749D01*
X122877775Y-107831749D01*
X122874989Y-107831500D01*
X122580506Y-107831500D01*
X122285812Y-107831501D01*
X122200876Y-107839080D01*
X122173009Y-107841567D01*
X122173007Y-107841567D01*
X122167038Y-107842100D01*
X121974096Y-107897425D01*
X121796220Y-107990417D01*
X121794235Y-107992036D01*
X121727667Y-108012435D01*
X121667811Y-107998105D01*
X121495504Y-107908025D01*
X121468860Y-107900385D01*
X121308324Y-107854352D01*
X121308322Y-107854352D01*
X121302562Y-107852700D01*
X121296590Y-107852167D01*
X121186583Y-107842349D01*
X121186575Y-107842349D01*
X121183789Y-107842100D01*
X120876810Y-107842100D01*
X120569612Y-107842101D01*
X120485745Y-107849585D01*
X120456809Y-107852167D01*
X120456807Y-107852167D01*
X120450838Y-107852700D01*
X120424735Y-107860185D01*
X120294863Y-107897425D01*
X120257896Y-107908025D01*
X120252234Y-107910985D01*
X120194747Y-107941039D01*
X120080020Y-108001017D01*
X120075077Y-108005048D01*
X120075073Y-108005051D01*
X120043836Y-108030528D01*
X119978404Y-108058082D01*
X119908463Y-108045887D01*
X119884564Y-108030528D01*
X119853327Y-108005051D01*
X119853323Y-108005048D01*
X119848380Y-108001017D01*
X119733654Y-107941039D01*
X119676166Y-107910985D01*
X119670504Y-107908025D01*
X119643860Y-107900385D01*
X119483324Y-107854352D01*
X119483322Y-107854352D01*
X119477562Y-107852700D01*
X119471590Y-107852167D01*
X119361583Y-107842349D01*
X119361575Y-107842349D01*
X119358789Y-107842100D01*
X119051810Y-107842100D01*
X118744612Y-107842101D01*
X118660745Y-107849585D01*
X118631809Y-107852167D01*
X118631807Y-107852167D01*
X118625838Y-107852700D01*
X118599735Y-107860185D01*
X118469863Y-107897425D01*
X118432896Y-107908025D01*
X118427234Y-107910985D01*
X118369747Y-107941039D01*
X118255020Y-108001017D01*
X118254889Y-108000767D01*
X118190148Y-108020604D01*
X118121797Y-108001402D01*
X118116375Y-107997516D01*
X118111725Y-107994450D01*
X118106780Y-107990417D01*
X118071011Y-107971717D01*
X117934566Y-107900385D01*
X117928904Y-107897425D01*
X117874012Y-107881685D01*
X117741724Y-107843752D01*
X117741722Y-107843752D01*
X117735962Y-107842100D01*
X117729990Y-107841567D01*
X117619983Y-107831749D01*
X117619975Y-107831749D01*
X117617189Y-107831500D01*
X117405601Y-107831500D01*
X117337480Y-107811498D01*
X117316506Y-107794595D01*
X117275451Y-107753540D01*
X117262610Y-107738506D01*
X117258395Y-107732704D01*
X117258391Y-107732700D01*
X117254511Y-107727359D01*
X117204339Y-107682184D01*
X117199554Y-107677643D01*
X117185258Y-107663347D01*
X117169531Y-107650612D01*
X117164550Y-107646358D01*
X117114357Y-107601164D01*
X117108639Y-107597862D01*
X117108634Y-107597859D01*
X117102423Y-107594273D01*
X117086141Y-107583084D01*
X117075433Y-107574413D01*
X117069551Y-107571416D01*
X117069548Y-107571414D01*
X117015285Y-107543765D01*
X117009490Y-107540619D01*
X117005432Y-107538276D01*
X116951028Y-107506866D01*
X116937929Y-107502610D01*
X116919662Y-107495043D01*
X116913280Y-107491791D01*
X116913274Y-107491789D01*
X116907393Y-107488792D01*
X116901015Y-107487083D01*
X116842187Y-107471320D01*
X116835862Y-107469446D01*
X116777949Y-107450629D01*
X116777945Y-107450628D01*
X116771663Y-107448587D01*
X116765095Y-107447897D01*
X116765092Y-107447896D01*
X116758968Y-107447253D01*
X116757970Y-107447148D01*
X116738529Y-107443545D01*
X116725224Y-107439980D01*
X116718634Y-107439635D01*
X116718630Y-107439634D01*
X116657818Y-107436447D01*
X116651243Y-107435930D01*
X116647102Y-107435495D01*
X116631119Y-107433815D01*
X116610890Y-107433815D01*
X116604295Y-107433642D01*
X116543477Y-107430454D01*
X116543473Y-107430454D01*
X116536886Y-107430109D01*
X116530370Y-107431141D01*
X116523280Y-107432264D01*
X116503569Y-107433815D01*
X116225022Y-107433815D01*
X116156901Y-107413813D01*
X116117879Y-107374119D01*
X116110166Y-107361655D01*
X115986311Y-107238016D01*
X115837334Y-107146186D01*
X115830385Y-107143881D01*
X115677759Y-107093256D01*
X115677757Y-107093255D01*
X115671228Y-107091090D01*
X115567866Y-107080500D01*
X112468134Y-107080500D01*
X112464888Y-107080837D01*
X112464884Y-107080837D01*
X112370339Y-107090647D01*
X112370335Y-107090648D01*
X112363481Y-107091359D01*
X112356945Y-107093540D01*
X112356943Y-107093540D01*
X112217860Y-107139942D01*
X112197471Y-107146744D01*
X112048655Y-107238834D01*
X111925016Y-107362689D01*
X111833186Y-107511666D01*
X111830881Y-107518614D01*
X111830881Y-107518615D01*
X111782875Y-107663347D01*
X111778090Y-107677772D01*
X111767500Y-107781134D01*
X111767500Y-108880866D01*
X111767837Y-108884112D01*
X111767837Y-108884116D01*
X111770099Y-108905910D01*
X111778359Y-108985519D01*
X111780540Y-108992055D01*
X111780540Y-108992057D01*
X111789433Y-109018712D01*
X111833744Y-109151529D01*
X111925834Y-109300345D01*
X112049689Y-109423984D01*
X112055919Y-109427824D01*
X112055920Y-109427825D01*
X112089658Y-109448621D01*
X112198666Y-109515814D01*
X112205614Y-109518119D01*
X112205615Y-109518119D01*
X112358241Y-109568744D01*
X112358243Y-109568745D01*
X112364772Y-109570910D01*
X112468134Y-109581500D01*
X115567866Y-109581500D01*
X115571112Y-109581163D01*
X115571116Y-109581163D01*
X115665661Y-109571353D01*
X115665665Y-109571352D01*
X115672519Y-109570641D01*
X115679055Y-109568460D01*
X115679057Y-109568460D01*
X115831581Y-109517574D01*
X115838529Y-109515256D01*
X115930438Y-109458381D01*
X115998890Y-109439543D01*
X116066660Y-109460704D01*
X116112231Y-109515145D01*
X116117860Y-109530795D01*
X116140768Y-109610684D01*
X116163025Y-109688304D01*
X116165985Y-109693966D01*
X116246717Y-109848390D01*
X116256017Y-109866180D01*
X116382876Y-110021724D01*
X116538420Y-110148583D01*
X116544078Y-110151541D01*
X116710508Y-110238549D01*
X116716296Y-110241575D01*
X116722436Y-110243336D01*
X116722437Y-110243336D01*
X116903476Y-110295248D01*
X116903478Y-110295248D01*
X116909238Y-110296900D01*
X116915210Y-110297433D01*
X117025217Y-110307251D01*
X117025225Y-110307251D01*
X117028011Y-110307500D01*
X117322494Y-110307500D01*
X117617188Y-110307499D01*
X117702124Y-110299920D01*
X117729991Y-110297433D01*
X117729993Y-110297433D01*
X117735962Y-110296900D01*
X117833380Y-110268966D01*
X117922763Y-110243336D01*
X117922764Y-110243336D01*
X117928904Y-110241575D01*
X117934692Y-110238549D01*
X118101122Y-110151541D01*
X118106780Y-110148583D01*
X118111726Y-110144549D01*
X118117057Y-110141034D01*
X118117736Y-110142063D01*
X118177044Y-110117089D01*
X118246985Y-110129285D01*
X118253815Y-110133200D01*
X118255020Y-110134183D01*
X118432896Y-110227175D01*
X118439036Y-110228936D01*
X118439037Y-110228936D01*
X118620076Y-110280848D01*
X118620078Y-110280848D01*
X118625838Y-110282500D01*
X118631810Y-110283033D01*
X118741817Y-110292851D01*
X118741825Y-110292851D01*
X118744611Y-110293100D01*
X119051590Y-110293100D01*
X119358788Y-110293099D01*
X119443724Y-110285520D01*
X119471591Y-110283033D01*
X119471593Y-110283033D01*
X119477562Y-110282500D01*
X119630838Y-110238549D01*
X119664363Y-110228936D01*
X119664364Y-110228936D01*
X119670504Y-110227175D01*
X119721067Y-110200741D01*
X119842722Y-110137141D01*
X119842724Y-110137140D01*
X119848380Y-110134183D01*
X119853323Y-110130152D01*
X119853327Y-110130149D01*
X119884564Y-110104672D01*
X119949996Y-110077118D01*
X120019937Y-110089313D01*
X120043836Y-110104672D01*
X120075073Y-110130149D01*
X120075077Y-110130152D01*
X120080020Y-110134183D01*
X120085676Y-110137140D01*
X120085678Y-110137141D01*
X120207333Y-110200741D01*
X120257896Y-110227175D01*
X120264036Y-110228936D01*
X120264037Y-110228936D01*
X120445076Y-110280848D01*
X120445078Y-110280848D01*
X120450838Y-110282500D01*
X120456810Y-110283033D01*
X120566817Y-110292851D01*
X120566825Y-110292851D01*
X120569611Y-110293100D01*
X120876590Y-110293100D01*
X121183788Y-110293099D01*
X121268724Y-110285520D01*
X121296591Y-110283033D01*
X121296593Y-110283033D01*
X121302562Y-110282500D01*
X121455838Y-110238549D01*
X121489363Y-110228936D01*
X121489364Y-110228936D01*
X121495504Y-110227175D01*
X121664595Y-110138776D01*
X121734230Y-110124941D01*
X121791975Y-110145120D01*
X121796220Y-110148583D01*
X121801878Y-110151541D01*
X121801880Y-110151542D01*
X121957390Y-110232841D01*
X121974096Y-110241575D01*
X121980236Y-110243336D01*
X121980237Y-110243336D01*
X122161276Y-110295248D01*
X122161278Y-110295248D01*
X122167038Y-110296900D01*
X122173010Y-110297433D01*
X122283017Y-110307251D01*
X122283025Y-110307251D01*
X122285811Y-110307500D01*
X122580294Y-110307500D01*
X122874988Y-110307499D01*
X122959924Y-110299920D01*
X122987791Y-110297433D01*
X122987793Y-110297433D01*
X122993762Y-110296900D01*
X123091180Y-110268966D01*
X123180563Y-110243336D01*
X123180564Y-110243336D01*
X123186704Y-110241575D01*
X123203411Y-110232841D01*
X123219910Y-110224215D01*
X123342480Y-110160137D01*
X123412115Y-110146302D01*
X123480490Y-110174155D01*
X123548820Y-110229883D01*
X123554478Y-110232841D01*
X123721034Y-110319915D01*
X123726696Y-110322875D01*
X123732836Y-110324636D01*
X123732837Y-110324636D01*
X123913876Y-110376548D01*
X123913878Y-110376548D01*
X123919638Y-110378200D01*
X123925610Y-110378733D01*
X124035617Y-110388551D01*
X124035625Y-110388551D01*
X124038411Y-110388800D01*
X124332894Y-110388800D01*
X124627588Y-110388799D01*
X124712524Y-110381220D01*
X124740391Y-110378733D01*
X124740393Y-110378733D01*
X124746362Y-110378200D01*
X124856450Y-110346633D01*
X124933163Y-110324636D01*
X124933164Y-110324636D01*
X124939304Y-110322875D01*
X124944966Y-110319915D01*
X125111522Y-110232841D01*
X125117180Y-110229883D01*
X125122123Y-110225852D01*
X125122127Y-110225849D01*
X125220163Y-110145892D01*
X125285595Y-110118338D01*
X125358174Y-110131874D01*
X125443296Y-110176375D01*
X125449436Y-110178136D01*
X125449437Y-110178136D01*
X125630476Y-110230048D01*
X125630478Y-110230048D01*
X125636238Y-110231700D01*
X125642210Y-110232233D01*
X125752217Y-110242051D01*
X125752225Y-110242051D01*
X125755011Y-110242300D01*
X126099477Y-110242300D01*
X126444188Y-110242299D01*
X126529124Y-110234720D01*
X126556991Y-110232233D01*
X126556993Y-110232233D01*
X126562962Y-110231700D01*
X126681245Y-110197783D01*
X126749763Y-110178136D01*
X126749764Y-110178136D01*
X126755904Y-110176375D01*
X126916224Y-110092561D01*
X126985860Y-110078726D01*
X127032975Y-110092561D01*
X127193296Y-110176375D01*
X127199436Y-110178136D01*
X127199437Y-110178136D01*
X127380476Y-110230048D01*
X127380478Y-110230048D01*
X127386238Y-110231700D01*
X127392210Y-110232233D01*
X127502217Y-110242051D01*
X127502225Y-110242051D01*
X127505011Y-110242300D01*
X127849477Y-110242300D01*
X128194188Y-110242299D01*
X128279124Y-110234720D01*
X128306991Y-110232233D01*
X128306993Y-110232233D01*
X128312962Y-110231700D01*
X128431245Y-110197783D01*
X128499763Y-110178136D01*
X128499764Y-110178136D01*
X128505904Y-110176375D01*
X128599532Y-110127427D01*
X128669168Y-110113592D01*
X128737544Y-110141446D01*
X128806620Y-110197783D01*
X128812278Y-110200741D01*
X128978834Y-110287815D01*
X128984496Y-110290775D01*
X128990636Y-110292536D01*
X128990637Y-110292536D01*
X129171676Y-110344448D01*
X129171678Y-110344448D01*
X129177438Y-110346100D01*
X129183410Y-110346633D01*
X129293417Y-110356451D01*
X129293425Y-110356451D01*
X129296211Y-110356700D01*
X129590694Y-110356700D01*
X129885388Y-110356699D01*
X129970324Y-110349120D01*
X129998191Y-110346633D01*
X129998193Y-110346633D01*
X130004162Y-110346100D01*
X130173885Y-110297433D01*
X130190963Y-110292536D01*
X130190964Y-110292536D01*
X130197104Y-110290775D01*
X130202766Y-110287815D01*
X130369322Y-110200741D01*
X130374980Y-110197783D01*
X130443079Y-110142243D01*
X130508509Y-110114689D01*
X130581089Y-110128225D01*
X130666496Y-110172875D01*
X130672636Y-110174636D01*
X130672637Y-110174636D01*
X130853676Y-110226548D01*
X130853678Y-110226548D01*
X130859438Y-110228200D01*
X130865410Y-110228733D01*
X130975417Y-110238551D01*
X130975425Y-110238551D01*
X130978211Y-110238800D01*
X131335172Y-110238800D01*
X131692388Y-110238799D01*
X131777324Y-110231220D01*
X131805191Y-110228733D01*
X131805193Y-110228733D01*
X131811162Y-110228200D01*
X131917239Y-110197783D01*
X131997963Y-110174636D01*
X131997964Y-110174636D01*
X132004104Y-110172875D01*
X132139427Y-110102129D01*
X132209060Y-110088296D01*
X132256172Y-110102129D01*
X132391496Y-110172875D01*
X132397636Y-110174636D01*
X132397637Y-110174636D01*
X132578676Y-110226548D01*
X132578678Y-110226548D01*
X132584438Y-110228200D01*
X132590410Y-110228733D01*
X132700417Y-110238551D01*
X132700425Y-110238551D01*
X132703211Y-110238800D01*
X133060172Y-110238800D01*
X133417388Y-110238799D01*
X133502324Y-110231220D01*
X133530191Y-110228733D01*
X133530193Y-110228733D01*
X133536162Y-110228200D01*
X133642239Y-110197783D01*
X133722963Y-110174636D01*
X133722964Y-110174636D01*
X133729104Y-110172875D01*
X133787697Y-110142243D01*
X133901322Y-110082841D01*
X133906980Y-110079883D01*
X133911927Y-110075848D01*
X133911932Y-110075845D01*
X133976802Y-110022939D01*
X134042234Y-109995385D01*
X134112175Y-110007581D01*
X134164420Y-110055654D01*
X134182381Y-110124341D01*
X134163698Y-110186696D01*
X134112986Y-110268966D01*
X134110681Y-110275914D01*
X134110681Y-110275915D01*
X134073321Y-110388551D01*
X134057890Y-110435072D01*
X134047300Y-110538434D01*
X134047300Y-111510966D01*
X134027298Y-111579087D01*
X134010395Y-111600061D01*
X133984561Y-111625895D01*
X133922249Y-111659921D01*
X133895466Y-111662800D01*
X133620774Y-111662801D01*
X133603212Y-111662801D01*
X133518276Y-111670380D01*
X133490409Y-111672867D01*
X133490407Y-111672867D01*
X133484438Y-111673400D01*
X133291496Y-111728725D01*
X133113620Y-111821717D01*
X132958076Y-111948576D01*
X132831217Y-112104120D01*
X132828259Y-112109778D01*
X132760264Y-112239839D01*
X132738225Y-112281996D01*
X132736464Y-112288136D01*
X132736464Y-112288137D01*
X132706954Y-112391053D01*
X132682900Y-112474938D01*
X132682367Y-112480910D01*
X132672844Y-112587619D01*
X132672300Y-112593711D01*
X132672301Y-113307888D01*
X132682900Y-113426662D01*
X132738225Y-113619604D01*
X132741185Y-113625266D01*
X132800056Y-113737874D01*
X132831217Y-113797480D01*
X132958076Y-113953024D01*
X133113620Y-114079883D01*
X133119278Y-114082841D01*
X133220978Y-114136009D01*
X133291496Y-114172875D01*
X133297636Y-114174636D01*
X133297637Y-114174636D01*
X133478676Y-114226548D01*
X133478678Y-114226548D01*
X133484438Y-114228200D01*
X133490410Y-114228733D01*
X133600417Y-114238551D01*
X133600425Y-114238551D01*
X133603211Y-114238800D01*
X133620761Y-114238800D01*
X133895466Y-114238799D01*
X133963585Y-114258801D01*
X133984560Y-114275704D01*
X134135395Y-114426539D01*
X134169421Y-114488851D01*
X134172300Y-114515634D01*
X134172300Y-115764936D01*
X134171858Y-115775480D01*
X134167400Y-115828567D01*
X134168302Y-115835326D01*
X134168302Y-115835328D01*
X134178364Y-115910734D01*
X134178734Y-115913791D01*
X134187682Y-115996159D01*
X134189857Y-116002622D01*
X134190679Y-116006362D01*
X134190704Y-116006502D01*
X134190751Y-116006665D01*
X134191655Y-116010347D01*
X134192559Y-116017117D01*
X134194894Y-116023532D01*
X134194895Y-116023537D01*
X134220906Y-116095003D01*
X134221917Y-116097888D01*
X134248355Y-116176446D01*
X134251870Y-116182296D01*
X134253472Y-116185764D01*
X134253530Y-116185903D01*
X134253604Y-116186040D01*
X134255285Y-116189456D01*
X134257619Y-116195868D01*
X134261275Y-116201629D01*
X134261276Y-116201631D01*
X134302034Y-116265857D01*
X134303635Y-116268448D01*
X134346326Y-116339497D01*
X134351013Y-116344454D01*
X134353321Y-116347494D01*
X134353762Y-116348130D01*
X134356777Y-116352116D01*
X134359545Y-116356478D01*
X134363437Y-116360831D01*
X134418530Y-116415924D01*
X134420984Y-116418446D01*
X134477025Y-116477708D01*
X134482666Y-116481542D01*
X134487866Y-116485967D01*
X134487542Y-116486348D01*
X134495716Y-116493110D01*
X134941646Y-116939040D01*
X134975672Y-117001352D01*
X134978551Y-117028135D01*
X134978551Y-117307888D01*
X134981663Y-117342762D01*
X134988163Y-117415604D01*
X134974295Y-117485233D01*
X134924984Y-117536311D01*
X134855886Y-117552621D01*
X134827932Y-117547922D01*
X134748174Y-117525052D01*
X134748172Y-117525052D01*
X134742412Y-117523400D01*
X134736440Y-117522867D01*
X134626433Y-117513049D01*
X134626425Y-117513049D01*
X134623639Y-117512800D01*
X134266678Y-117512800D01*
X133909462Y-117512801D01*
X133830145Y-117519879D01*
X133796659Y-117522867D01*
X133796657Y-117522867D01*
X133790688Y-117523400D01*
X133597746Y-117578725D01*
X133592084Y-117581685D01*
X133483479Y-117638463D01*
X133419870Y-117671717D01*
X133264326Y-117798576D01*
X133137467Y-117954120D01*
X133134509Y-117959778D01*
X133124970Y-117978024D01*
X133044475Y-118131996D01*
X133042714Y-118138136D01*
X133042714Y-118138137D01*
X132993429Y-118310017D01*
X132989150Y-118324938D01*
X132978550Y-118443711D01*
X132978551Y-119032888D01*
X132989150Y-119151662D01*
X133044475Y-119344604D01*
X133047435Y-119350266D01*
X133134383Y-119516580D01*
X133137467Y-119522480D01*
X133264326Y-119678024D01*
X133419870Y-119804883D01*
X133425528Y-119807841D01*
X133586460Y-119891975D01*
X133597746Y-119897875D01*
X133603886Y-119899636D01*
X133603887Y-119899636D01*
X133784926Y-119951548D01*
X133784928Y-119951548D01*
X133790688Y-119953200D01*
X133796660Y-119953733D01*
X133906667Y-119963551D01*
X133906675Y-119963551D01*
X133909461Y-119963800D01*
X134130047Y-119963800D01*
X134198168Y-119983802D01*
X134244661Y-120037458D01*
X134255777Y-120081556D01*
X134256596Y-120094049D01*
X134258017Y-120099645D01*
X134258018Y-120099650D01*
X134307224Y-120293395D01*
X134308645Y-120298990D01*
X134397169Y-120491014D01*
X134519205Y-120663691D01*
X134670665Y-120811237D01*
X134675461Y-120814442D01*
X134675464Y-120814444D01*
X134801655Y-120898762D01*
X134846477Y-120928711D01*
X134851785Y-120930992D01*
X134851786Y-120930992D01*
X135035450Y-121009900D01*
X135035453Y-121009901D01*
X135040753Y-121012178D01*
X135046382Y-121013452D01*
X135046383Y-121013452D01*
X135241350Y-121057569D01*
X135241353Y-121057569D01*
X135246986Y-121058844D01*
X135252757Y-121059071D01*
X135252759Y-121059071D01*
X135314789Y-121061508D01*
X135458270Y-121067146D01*
X135463979Y-121066318D01*
X135463983Y-121066318D01*
X135661815Y-121037633D01*
X135661819Y-121037632D01*
X135667530Y-121036804D01*
X135746787Y-121009900D01*
X135862283Y-120970695D01*
X135862288Y-120970693D01*
X135867755Y-120968837D01*
X135872798Y-120966013D01*
X136047195Y-120868346D01*
X136047199Y-120868343D01*
X136052242Y-120865519D01*
X136214812Y-120730312D01*
X136350019Y-120567742D01*
X136352843Y-120562699D01*
X136352846Y-120562695D01*
X136450513Y-120388298D01*
X136450514Y-120388296D01*
X136453337Y-120383255D01*
X136455193Y-120377788D01*
X136455195Y-120377783D01*
X136519448Y-120188499D01*
X136519449Y-120188494D01*
X136521304Y-120183030D01*
X136536437Y-120078661D01*
X136566007Y-120014115D01*
X136626403Y-119975622D01*
X136804213Y-119924636D01*
X136804214Y-119924636D01*
X136810354Y-119922875D01*
X136840529Y-119907100D01*
X136982572Y-119832841D01*
X136988230Y-119829883D01*
X137143774Y-119703024D01*
X137270633Y-119547480D01*
X137363625Y-119369604D01*
X137370862Y-119344366D01*
X137417298Y-119182424D01*
X137417298Y-119182422D01*
X137418950Y-119176662D01*
X137422241Y-119139791D01*
X137429301Y-119060683D01*
X137429301Y-119060675D01*
X137429550Y-119057889D01*
X137429549Y-118374202D01*
X137449551Y-118306081D01*
X137503207Y-118259588D01*
X137573480Y-118249484D01*
X137578986Y-118250662D01*
X137579026Y-118250449D01*
X137584926Y-118251548D01*
X137590688Y-118253200D01*
X137596660Y-118253733D01*
X137706667Y-118263551D01*
X137706675Y-118263551D01*
X137709461Y-118263800D01*
X138003944Y-118263800D01*
X138298638Y-118263799D01*
X138383574Y-118256220D01*
X138411441Y-118253733D01*
X138411443Y-118253733D01*
X138417412Y-118253200D01*
X138493941Y-118231256D01*
X138604213Y-118199636D01*
X138604214Y-118199636D01*
X138610354Y-118197875D01*
X138616016Y-118194915D01*
X138782572Y-118107841D01*
X138788230Y-118104883D01*
X138793176Y-118100849D01*
X138793181Y-118100846D01*
X138799417Y-118095760D01*
X138864849Y-118068208D01*
X138934790Y-118080405D01*
X138958683Y-118095760D01*
X138964919Y-118100846D01*
X138964924Y-118100849D01*
X138969870Y-118104883D01*
X138975528Y-118107841D01*
X139142084Y-118194915D01*
X139147746Y-118197875D01*
X139153886Y-118199636D01*
X139153887Y-118199636D01*
X139334926Y-118251548D01*
X139334928Y-118251548D01*
X139340688Y-118253200D01*
X139346660Y-118253733D01*
X139456667Y-118263551D01*
X139456675Y-118263551D01*
X139459461Y-118263800D01*
X139753944Y-118263800D01*
X140048638Y-118263799D01*
X140133574Y-118256220D01*
X140161441Y-118253733D01*
X140161443Y-118253733D01*
X140167412Y-118253200D01*
X140243941Y-118231256D01*
X140354213Y-118199636D01*
X140354214Y-118199636D01*
X140360354Y-118197875D01*
X140366016Y-118194915D01*
X140532572Y-118107841D01*
X140538230Y-118104883D01*
X140693774Y-117978024D01*
X140820633Y-117822480D01*
X140913625Y-117644604D01*
X140931667Y-117581685D01*
X140967298Y-117457424D01*
X140967298Y-117457422D01*
X140968950Y-117451662D01*
X140974636Y-117387953D01*
X140979301Y-117335683D01*
X140979301Y-117335675D01*
X140979550Y-117332889D01*
X140979549Y-116618712D01*
X140968950Y-116499938D01*
X140925196Y-116347350D01*
X140915386Y-116313137D01*
X140915386Y-116313136D01*
X140913625Y-116306996D01*
X140834637Y-116155907D01*
X140820803Y-116086272D01*
X140841106Y-116028175D01*
X140841603Y-116027421D01*
X140845633Y-116022480D01*
X140938625Y-115844604D01*
X140983516Y-115688049D01*
X140992298Y-115657424D01*
X140992298Y-115657422D01*
X140993950Y-115651662D01*
X141004550Y-115532889D01*
X141004549Y-114943712D01*
X140993950Y-114824938D01*
X140938625Y-114631996D01*
X140845633Y-114454120D01*
X140718774Y-114298576D01*
X140563230Y-114171717D01*
X140425426Y-114099674D01*
X140391016Y-114081685D01*
X140385354Y-114078725D01*
X140379213Y-114076964D01*
X140198174Y-114025052D01*
X140198172Y-114025052D01*
X140192412Y-114023400D01*
X140186440Y-114022867D01*
X140076433Y-114013049D01*
X140076425Y-114013049D01*
X140073639Y-114012800D01*
X139729173Y-114012800D01*
X139384462Y-114012801D01*
X139299526Y-114020380D01*
X139271659Y-114022867D01*
X139271657Y-114022867D01*
X139265688Y-114023400D01*
X139259926Y-114025052D01*
X139259927Y-114025052D01*
X139082776Y-114075849D01*
X139072746Y-114078725D01*
X139032675Y-114099674D01*
X138963039Y-114113508D01*
X138896979Y-114087498D01*
X138855467Y-114029902D01*
X138848300Y-113988012D01*
X138848300Y-112353785D01*
X138868302Y-112285664D01*
X138921958Y-112239171D01*
X138992232Y-112229067D01*
X139032674Y-112242123D01*
X139091496Y-112272875D01*
X139097636Y-112274636D01*
X139097637Y-112274636D01*
X139278676Y-112326548D01*
X139278678Y-112326548D01*
X139284438Y-112328200D01*
X139290410Y-112328733D01*
X139400417Y-112338551D01*
X139400425Y-112338551D01*
X139403211Y-112338800D01*
X139760172Y-112338800D01*
X140117388Y-112338799D01*
X140202324Y-112331220D01*
X140230191Y-112328733D01*
X140230193Y-112328733D01*
X140236162Y-112328200D01*
X140375879Y-112288137D01*
X140422963Y-112274636D01*
X140422964Y-112274636D01*
X140429104Y-112272875D01*
X140493573Y-112239171D01*
X140601322Y-112182841D01*
X140606980Y-112179883D01*
X140655664Y-112140177D01*
X140721096Y-112112623D01*
X140791037Y-112124818D01*
X140814936Y-112140177D01*
X140863620Y-112179883D01*
X140869278Y-112182841D01*
X140977027Y-112239171D01*
X141041496Y-112272875D01*
X141047636Y-112274636D01*
X141047637Y-112274636D01*
X141228676Y-112326548D01*
X141228678Y-112326548D01*
X141234438Y-112328200D01*
X141240410Y-112328733D01*
X141350417Y-112338551D01*
X141350425Y-112338551D01*
X141353211Y-112338800D01*
X141647694Y-112338800D01*
X141942388Y-112338799D01*
X142027324Y-112331220D01*
X142055191Y-112328733D01*
X142055193Y-112328733D01*
X142061162Y-112328200D01*
X142200879Y-112288137D01*
X142247963Y-112274636D01*
X142247964Y-112274636D01*
X142254104Y-112272875D01*
X142318573Y-112239171D01*
X142426322Y-112182841D01*
X142431980Y-112179883D01*
X142436927Y-112175848D01*
X142436932Y-112175845D01*
X142455665Y-112160567D01*
X142521097Y-112133013D01*
X142591038Y-112145209D01*
X142614935Y-112160567D01*
X142633668Y-112175845D01*
X142633673Y-112175848D01*
X142638620Y-112179883D01*
X142644278Y-112182841D01*
X142752027Y-112239171D01*
X142816496Y-112272875D01*
X142822636Y-112274636D01*
X142822637Y-112274636D01*
X143003676Y-112326548D01*
X143003678Y-112326548D01*
X143009438Y-112328200D01*
X143015410Y-112328733D01*
X143125417Y-112338551D01*
X143125425Y-112338551D01*
X143128211Y-112338800D01*
X143435190Y-112338800D01*
X143742388Y-112338799D01*
X143827324Y-112331220D01*
X143855191Y-112328733D01*
X143855193Y-112328733D01*
X143861162Y-112328200D01*
X144000879Y-112288137D01*
X144047963Y-112274636D01*
X144047964Y-112274636D01*
X144054104Y-112272875D01*
X144118573Y-112239171D01*
X144226322Y-112182841D01*
X144231980Y-112179883D01*
X144236923Y-112175852D01*
X144236927Y-112175849D01*
X144268164Y-112150372D01*
X144333596Y-112122818D01*
X144403537Y-112135013D01*
X144427436Y-112150372D01*
X144458673Y-112175849D01*
X144458677Y-112175852D01*
X144463620Y-112179883D01*
X144469278Y-112182841D01*
X144577027Y-112239171D01*
X144641496Y-112272875D01*
X144647636Y-112274636D01*
X144647637Y-112274636D01*
X144828676Y-112326548D01*
X144828678Y-112326548D01*
X144834438Y-112328200D01*
X144840410Y-112328733D01*
X144950417Y-112338551D01*
X144950425Y-112338551D01*
X144953211Y-112338800D01*
X145260190Y-112338800D01*
X145567388Y-112338799D01*
X145652324Y-112331220D01*
X145680191Y-112328733D01*
X145680193Y-112328733D01*
X145686162Y-112328200D01*
X145825879Y-112288137D01*
X145872963Y-112274636D01*
X145872964Y-112274636D01*
X145879104Y-112272875D01*
X145943573Y-112239171D01*
X146051322Y-112182841D01*
X146056980Y-112179883D01*
X146075010Y-112165178D01*
X146140442Y-112137623D01*
X146210383Y-112149818D01*
X146234282Y-112165177D01*
X146313620Y-112229883D01*
X146319278Y-112232841D01*
X146469975Y-112311624D01*
X146491496Y-112322875D01*
X146497636Y-112324636D01*
X146497637Y-112324636D01*
X146678676Y-112376548D01*
X146678678Y-112376548D01*
X146684438Y-112378200D01*
X146690410Y-112378733D01*
X146800417Y-112388551D01*
X146800425Y-112388551D01*
X146803211Y-112388800D01*
X147097694Y-112388800D01*
X147392388Y-112388799D01*
X147477324Y-112381220D01*
X147505191Y-112378733D01*
X147505193Y-112378733D01*
X147511162Y-112378200D01*
X147683675Y-112328733D01*
X147697963Y-112324636D01*
X147697964Y-112324636D01*
X147704104Y-112322875D01*
X147734457Y-112307007D01*
X147834856Y-112254519D01*
X147862936Y-112239839D01*
X147921312Y-112225500D01*
X148557387Y-112225500D01*
X148625508Y-112245502D01*
X148672001Y-112299158D01*
X148676909Y-112311618D01*
X148713244Y-112420529D01*
X148805334Y-112569345D01*
X148929189Y-112692984D01*
X149078166Y-112784814D01*
X149085114Y-112787119D01*
X149085115Y-112787119D01*
X149237741Y-112837744D01*
X149237743Y-112837745D01*
X149244272Y-112839910D01*
X149347634Y-112850500D01*
X153759200Y-112850500D01*
X153827321Y-112870502D01*
X153873814Y-112924158D01*
X153885200Y-112976500D01*
X153885200Y-136780776D01*
X153865198Y-136848897D01*
X153811542Y-136895390D01*
X153759509Y-136906776D01*
X107670800Y-137019600D01*
X71194828Y-137019600D01*
X71126707Y-136999598D01*
X71080214Y-136945942D01*
X71068828Y-136893817D01*
X71068751Y-136848897D01*
X71061837Y-132842000D01*
X78568857Y-132842000D01*
X78589009Y-133149460D01*
X78589813Y-133153500D01*
X78589813Y-133153503D01*
X78640337Y-133407503D01*
X78649120Y-133451659D01*
X78748162Y-133743427D01*
X78749986Y-133747125D01*
X78875245Y-134001125D01*
X78884440Y-134019771D01*
X79055622Y-134275964D01*
X79058336Y-134279058D01*
X79058340Y-134279064D01*
X79256071Y-134504531D01*
X79258780Y-134507620D01*
X79261869Y-134510329D01*
X79487336Y-134708060D01*
X79487342Y-134708064D01*
X79490436Y-134710778D01*
X79746629Y-134881960D01*
X79750328Y-134883784D01*
X79750333Y-134883787D01*
X79892362Y-134953828D01*
X80022973Y-135018238D01*
X80026878Y-135019564D01*
X80026879Y-135019564D01*
X80310834Y-135115954D01*
X80310837Y-135115955D01*
X80314741Y-135117280D01*
X80318780Y-135118083D01*
X80318786Y-135118085D01*
X80612897Y-135176587D01*
X80612900Y-135176587D01*
X80616940Y-135177391D01*
X80621051Y-135177660D01*
X80621055Y-135177661D01*
X80845410Y-135192366D01*
X80845419Y-135192366D01*
X80847459Y-135192500D01*
X81001341Y-135192500D01*
X81003381Y-135192366D01*
X81003390Y-135192366D01*
X81227745Y-135177661D01*
X81227749Y-135177660D01*
X81231860Y-135177391D01*
X81235900Y-135176587D01*
X81235903Y-135176587D01*
X81530014Y-135118085D01*
X81530020Y-135118083D01*
X81534059Y-135117280D01*
X81537963Y-135115955D01*
X81537966Y-135115954D01*
X81821921Y-135019564D01*
X81821922Y-135019564D01*
X81825827Y-135018238D01*
X81956438Y-134953828D01*
X82098467Y-134883787D01*
X82098472Y-134883784D01*
X82102171Y-134881960D01*
X82358364Y-134710778D01*
X82361458Y-134708064D01*
X82361464Y-134708060D01*
X82586931Y-134510329D01*
X82590020Y-134507620D01*
X82592729Y-134504531D01*
X82790460Y-134279064D01*
X82790464Y-134279058D01*
X82793178Y-134275964D01*
X82797119Y-134270067D01*
X82962066Y-134023205D01*
X82962067Y-134023204D01*
X82964360Y-134019772D01*
X82975380Y-133997427D01*
X83098814Y-133747125D01*
X83100638Y-133743427D01*
X83199680Y-133451659D01*
X83208464Y-133407503D01*
X83258987Y-133153503D01*
X83258987Y-133153500D01*
X83259791Y-133149460D01*
X83263295Y-133096000D01*
X146386857Y-133096000D01*
X146407009Y-133403460D01*
X146407813Y-133407500D01*
X146407813Y-133407503D01*
X146417374Y-133455566D01*
X146467120Y-133705659D01*
X146468445Y-133709563D01*
X146468446Y-133709566D01*
X146481196Y-133747125D01*
X146566162Y-133997427D01*
X146702440Y-134273771D01*
X146873622Y-134529964D01*
X146876336Y-134533058D01*
X146876340Y-134533064D01*
X147074071Y-134758531D01*
X147076780Y-134761620D01*
X147079869Y-134764329D01*
X147305336Y-134962060D01*
X147305342Y-134962064D01*
X147308436Y-134964778D01*
X147564629Y-135135960D01*
X147568328Y-135137784D01*
X147568333Y-135137787D01*
X147710362Y-135207828D01*
X147840973Y-135272238D01*
X147844878Y-135273564D01*
X147844879Y-135273564D01*
X148128834Y-135369954D01*
X148128837Y-135369955D01*
X148132741Y-135371280D01*
X148136780Y-135372083D01*
X148136786Y-135372085D01*
X148430897Y-135430587D01*
X148430900Y-135430587D01*
X148434940Y-135431391D01*
X148439051Y-135431660D01*
X148439055Y-135431661D01*
X148663410Y-135446366D01*
X148663419Y-135446366D01*
X148665459Y-135446500D01*
X148819341Y-135446500D01*
X148821381Y-135446366D01*
X148821390Y-135446366D01*
X149045745Y-135431661D01*
X149045749Y-135431660D01*
X149049860Y-135431391D01*
X149053900Y-135430587D01*
X149053903Y-135430587D01*
X149348014Y-135372085D01*
X149348020Y-135372083D01*
X149352059Y-135371280D01*
X149355963Y-135369955D01*
X149355966Y-135369954D01*
X149639921Y-135273564D01*
X149639922Y-135273564D01*
X149643827Y-135272238D01*
X149774438Y-135207828D01*
X149916467Y-135137787D01*
X149916472Y-135137784D01*
X149920171Y-135135960D01*
X150176364Y-134964778D01*
X150179458Y-134962064D01*
X150179464Y-134962060D01*
X150404931Y-134764329D01*
X150408020Y-134761620D01*
X150410729Y-134758531D01*
X150608460Y-134533064D01*
X150608464Y-134533058D01*
X150611178Y-134529964D01*
X150782360Y-134273772D01*
X150918638Y-133997427D01*
X151003604Y-133747125D01*
X151016354Y-133709566D01*
X151016355Y-133709563D01*
X151017680Y-133705659D01*
X151067427Y-133455566D01*
X151076987Y-133407503D01*
X151076987Y-133407500D01*
X151077791Y-133403460D01*
X151097943Y-133096000D01*
X151077791Y-132788540D01*
X151028086Y-132538655D01*
X151018485Y-132490386D01*
X151018483Y-132490380D01*
X151017680Y-132486341D01*
X150918638Y-132194573D01*
X150793379Y-131940573D01*
X150784187Y-131921933D01*
X150784184Y-131921928D01*
X150782360Y-131918229D01*
X150611178Y-131662036D01*
X150608464Y-131658942D01*
X150608460Y-131658936D01*
X150410729Y-131433469D01*
X150408020Y-131430380D01*
X150379007Y-131404936D01*
X150179464Y-131229940D01*
X150179458Y-131229936D01*
X150176364Y-131227222D01*
X149920171Y-131056040D01*
X149916472Y-131054216D01*
X149916467Y-131054213D01*
X149774438Y-130984172D01*
X149643827Y-130919762D01*
X149639921Y-130918436D01*
X149355966Y-130822046D01*
X149355963Y-130822045D01*
X149352059Y-130820720D01*
X149348020Y-130819917D01*
X149348014Y-130819915D01*
X149053903Y-130761413D01*
X149053900Y-130761413D01*
X149049860Y-130760609D01*
X149045749Y-130760340D01*
X149045745Y-130760339D01*
X148821390Y-130745634D01*
X148821381Y-130745634D01*
X148819341Y-130745500D01*
X148665459Y-130745500D01*
X148663419Y-130745634D01*
X148663410Y-130745634D01*
X148439055Y-130760339D01*
X148439051Y-130760340D01*
X148434940Y-130760609D01*
X148430900Y-130761413D01*
X148430897Y-130761413D01*
X148136786Y-130819915D01*
X148136780Y-130819917D01*
X148132741Y-130820720D01*
X148128837Y-130822045D01*
X148128834Y-130822046D01*
X147844879Y-130918436D01*
X147840973Y-130919762D01*
X147710362Y-130984172D01*
X147568333Y-131054213D01*
X147568328Y-131054216D01*
X147564629Y-131056040D01*
X147308436Y-131227222D01*
X147305342Y-131229936D01*
X147305336Y-131229940D01*
X147105793Y-131404936D01*
X147076780Y-131430380D01*
X147074071Y-131433469D01*
X146876340Y-131658936D01*
X146876336Y-131658942D01*
X146873622Y-131662036D01*
X146871333Y-131665462D01*
X146871329Y-131665467D01*
X146743016Y-131857501D01*
X146702440Y-131918228D01*
X146700616Y-131921927D01*
X146700613Y-131921932D01*
X146689494Y-131944479D01*
X146566162Y-132194573D01*
X146467120Y-132486341D01*
X146466317Y-132490380D01*
X146466315Y-132490386D01*
X146456714Y-132538655D01*
X146407009Y-132788540D01*
X146386857Y-133096000D01*
X83263295Y-133096000D01*
X83279943Y-132842000D01*
X83259791Y-132534540D01*
X83250204Y-132486341D01*
X83200485Y-132236386D01*
X83200483Y-132236380D01*
X83199680Y-132232341D01*
X83188186Y-132198479D01*
X83101964Y-131944479D01*
X83101964Y-131944478D01*
X83100638Y-131940573D01*
X82964360Y-131664229D01*
X82793178Y-131408036D01*
X82790464Y-131404942D01*
X82790460Y-131404936D01*
X82592729Y-131179469D01*
X82590020Y-131176380D01*
X82586931Y-131173671D01*
X82361464Y-130975940D01*
X82361458Y-130975936D01*
X82358364Y-130973222D01*
X82102171Y-130802040D01*
X82098472Y-130800216D01*
X82098467Y-130800213D01*
X81956438Y-130730172D01*
X81825827Y-130665762D01*
X81821921Y-130664436D01*
X81537966Y-130568046D01*
X81537963Y-130568045D01*
X81534059Y-130566720D01*
X81530020Y-130565917D01*
X81530014Y-130565915D01*
X81235903Y-130507413D01*
X81235900Y-130507413D01*
X81231860Y-130506609D01*
X81227749Y-130506340D01*
X81227745Y-130506339D01*
X81003390Y-130491634D01*
X81003381Y-130491634D01*
X81001341Y-130491500D01*
X80847459Y-130491500D01*
X80845419Y-130491634D01*
X80845410Y-130491634D01*
X80621055Y-130506339D01*
X80621051Y-130506340D01*
X80616940Y-130506609D01*
X80612900Y-130507413D01*
X80612897Y-130507413D01*
X80318786Y-130565915D01*
X80318780Y-130565917D01*
X80314741Y-130566720D01*
X80310837Y-130568045D01*
X80310834Y-130568046D01*
X80026879Y-130664436D01*
X80022973Y-130665762D01*
X79892362Y-130730172D01*
X79750333Y-130800213D01*
X79750328Y-130800216D01*
X79746629Y-130802040D01*
X79490436Y-130973222D01*
X79487342Y-130975936D01*
X79487336Y-130975940D01*
X79261869Y-131173671D01*
X79258780Y-131176380D01*
X79256071Y-131179469D01*
X79058340Y-131404936D01*
X79058336Y-131404942D01*
X79055622Y-131408036D01*
X78884440Y-131664228D01*
X78748162Y-131940573D01*
X78746836Y-131944478D01*
X78746836Y-131944479D01*
X78660615Y-132198479D01*
X78649120Y-132232341D01*
X78648317Y-132236380D01*
X78648315Y-132236386D01*
X78598596Y-132486341D01*
X78589009Y-132534540D01*
X78568857Y-132842000D01*
X71061837Y-132842000D01*
X71058968Y-131179469D01*
X71051670Y-126950317D01*
X71071555Y-126882162D01*
X71125130Y-126835577D01*
X71177670Y-126824100D01*
X75617966Y-126824100D01*
X75621212Y-126823763D01*
X75621216Y-126823763D01*
X75715761Y-126813953D01*
X75715765Y-126813952D01*
X75722619Y-126813241D01*
X75729155Y-126811060D01*
X75729157Y-126811060D01*
X75881681Y-126760174D01*
X75888629Y-126757856D01*
X76037445Y-126665766D01*
X76161084Y-126541911D01*
X76168328Y-126530159D01*
X76221100Y-126482666D01*
X76291172Y-126471242D01*
X76333964Y-126484614D01*
X76350035Y-126493016D01*
X76350039Y-126493018D01*
X76355696Y-126495975D01*
X76361834Y-126497735D01*
X76542876Y-126549648D01*
X76542878Y-126549648D01*
X76548638Y-126551300D01*
X76554610Y-126551833D01*
X76664617Y-126561651D01*
X76664625Y-126561651D01*
X76667411Y-126561900D01*
X76961894Y-126561900D01*
X77256588Y-126561899D01*
X77341524Y-126554320D01*
X77369391Y-126551833D01*
X77369393Y-126551833D01*
X77375362Y-126551300D01*
X77568304Y-126495975D01*
X77573966Y-126493015D01*
X77740522Y-126405941D01*
X77746180Y-126402983D01*
X77765647Y-126387106D01*
X77831079Y-126359552D01*
X77903656Y-126373086D01*
X77914242Y-126378620D01*
X77914249Y-126378623D01*
X77919896Y-126381575D01*
X77926024Y-126383332D01*
X77926026Y-126383333D01*
X78107076Y-126435248D01*
X78107078Y-126435248D01*
X78112838Y-126436900D01*
X78118810Y-126437433D01*
X78228817Y-126447251D01*
X78228825Y-126447251D01*
X78231611Y-126447500D01*
X78576077Y-126447500D01*
X78920788Y-126447499D01*
X79005724Y-126439920D01*
X79033591Y-126437433D01*
X79033593Y-126437433D01*
X79039562Y-126436900D01*
X79157845Y-126402983D01*
X79226363Y-126383336D01*
X79226364Y-126383336D01*
X79232504Y-126381575D01*
X79392824Y-126297761D01*
X79462460Y-126283926D01*
X79509575Y-126297761D01*
X79669896Y-126381575D01*
X79676036Y-126383336D01*
X79676037Y-126383336D01*
X79857076Y-126435248D01*
X79857078Y-126435248D01*
X79862838Y-126436900D01*
X79868810Y-126437433D01*
X79978817Y-126447251D01*
X79978825Y-126447251D01*
X79981611Y-126447500D01*
X80326077Y-126447500D01*
X80670788Y-126447499D01*
X80755724Y-126439920D01*
X80783591Y-126437433D01*
X80783593Y-126437433D01*
X80789562Y-126436900D01*
X80982504Y-126381575D01*
X80982703Y-126382270D01*
X81048563Y-126376005D01*
X81093960Y-126397237D01*
X81095147Y-126395436D01*
X81100471Y-126398947D01*
X81105420Y-126402983D01*
X81111075Y-126405939D01*
X81111079Y-126405942D01*
X81277634Y-126493015D01*
X81283296Y-126495975D01*
X81289434Y-126497735D01*
X81289437Y-126497736D01*
X81470476Y-126549648D01*
X81470478Y-126549648D01*
X81476238Y-126551300D01*
X81482210Y-126551833D01*
X81592217Y-126561651D01*
X81592225Y-126561651D01*
X81595011Y-126561900D01*
X81889494Y-126561900D01*
X82184188Y-126561899D01*
X82269124Y-126554320D01*
X82296991Y-126551833D01*
X82296993Y-126551833D01*
X82302962Y-126551300D01*
X82495904Y-126495975D01*
X82501566Y-126493015D01*
X82668122Y-126405941D01*
X82673780Y-126402983D01*
X82678727Y-126398948D01*
X82678732Y-126398945D01*
X82713092Y-126370922D01*
X82778524Y-126343368D01*
X82851102Y-126356903D01*
X82892643Y-126378620D01*
X82892646Y-126378621D01*
X82898296Y-126381575D01*
X82904424Y-126383332D01*
X82904426Y-126383333D01*
X83085476Y-126435248D01*
X83085478Y-126435248D01*
X83091238Y-126436900D01*
X83097210Y-126437433D01*
X83207217Y-126447251D01*
X83207225Y-126447251D01*
X83210011Y-126447500D01*
X83566972Y-126447500D01*
X83924188Y-126447499D01*
X84009124Y-126439920D01*
X84036991Y-126437433D01*
X84036993Y-126437433D01*
X84042962Y-126436900D01*
X84161245Y-126402983D01*
X84229763Y-126383336D01*
X84229764Y-126383336D01*
X84235904Y-126381575D01*
X84371227Y-126310829D01*
X84440860Y-126296996D01*
X84487972Y-126310829D01*
X84623296Y-126381575D01*
X84629436Y-126383336D01*
X84629437Y-126383336D01*
X84810476Y-126435248D01*
X84810478Y-126435248D01*
X84816238Y-126436900D01*
X84822210Y-126437433D01*
X84932217Y-126447251D01*
X84932225Y-126447251D01*
X84935011Y-126447500D01*
X85291972Y-126447500D01*
X85649188Y-126447499D01*
X85734124Y-126439920D01*
X85761991Y-126437433D01*
X85761993Y-126437433D01*
X85767962Y-126436900D01*
X85886245Y-126402983D01*
X85954763Y-126383336D01*
X85954764Y-126383336D01*
X85960904Y-126381575D01*
X86138780Y-126288583D01*
X86143723Y-126284552D01*
X86143727Y-126284549D01*
X86224014Y-126219068D01*
X86289446Y-126191514D01*
X86343318Y-126197118D01*
X86352441Y-126200144D01*
X86352444Y-126200145D01*
X86358972Y-126202310D01*
X86462334Y-126212900D01*
X87612066Y-126212900D01*
X87615312Y-126212563D01*
X87615316Y-126212563D01*
X87709861Y-126202753D01*
X87709865Y-126202752D01*
X87716719Y-126202041D01*
X87723255Y-126199860D01*
X87723257Y-126199860D01*
X87875790Y-126148971D01*
X87882729Y-126146656D01*
X87888961Y-126142800D01*
X87917922Y-126124878D01*
X87986374Y-126106040D01*
X88016833Y-126110314D01*
X88060759Y-126122084D01*
X88067059Y-126123951D01*
X88131267Y-126144813D01*
X88144960Y-126146252D01*
X88164401Y-126149855D01*
X88177706Y-126153420D01*
X88184296Y-126153765D01*
X88184300Y-126153766D01*
X88245112Y-126156953D01*
X88251687Y-126157470D01*
X88255828Y-126157905D01*
X88271811Y-126159585D01*
X88292039Y-126159585D01*
X88298632Y-126159758D01*
X88308027Y-126160250D01*
X88319740Y-126160864D01*
X88352812Y-126167098D01*
X88377638Y-126175332D01*
X88452441Y-126200144D01*
X88452443Y-126200145D01*
X88458972Y-126202310D01*
X88562334Y-126212900D01*
X89712066Y-126212900D01*
X89715312Y-126212563D01*
X89715316Y-126212563D01*
X89809861Y-126202753D01*
X89809865Y-126202752D01*
X89816719Y-126202041D01*
X89823255Y-126199860D01*
X89823257Y-126199860D01*
X89975781Y-126148974D01*
X89982729Y-126146656D01*
X90131545Y-126054566D01*
X90168473Y-126017574D01*
X90250013Y-125935891D01*
X90255184Y-125930711D01*
X90347014Y-125781734D01*
X90390202Y-125651529D01*
X90399944Y-125622159D01*
X90399945Y-125622157D01*
X90402110Y-125615628D01*
X90412700Y-125512266D01*
X90412700Y-125354300D01*
X90432702Y-125286179D01*
X90486358Y-125239686D01*
X90538700Y-125228300D01*
X91158741Y-125228299D01*
X91188588Y-125228299D01*
X91273524Y-125220720D01*
X91301391Y-125218233D01*
X91301393Y-125218233D01*
X91307362Y-125217700D01*
X91450085Y-125176775D01*
X91494163Y-125164136D01*
X91494164Y-125164136D01*
X91500304Y-125162375D01*
X91635627Y-125091629D01*
X91705260Y-125077796D01*
X91752372Y-125091629D01*
X91887696Y-125162375D01*
X91893836Y-125164136D01*
X91893837Y-125164136D01*
X92074876Y-125216048D01*
X92074878Y-125216048D01*
X92080638Y-125217700D01*
X92086610Y-125218233D01*
X92196617Y-125228051D01*
X92196625Y-125228051D01*
X92199411Y-125228300D01*
X92556372Y-125228300D01*
X92913588Y-125228299D01*
X92998524Y-125220720D01*
X93026391Y-125218233D01*
X93026393Y-125218233D01*
X93032362Y-125217700D01*
X93175085Y-125176775D01*
X93219163Y-125164136D01*
X93219164Y-125164136D01*
X93225304Y-125162375D01*
X93328954Y-125108188D01*
X93398588Y-125094354D01*
X93445704Y-125108189D01*
X93549352Y-125162375D01*
X93576896Y-125176775D01*
X93583036Y-125178536D01*
X93583037Y-125178536D01*
X93764076Y-125230448D01*
X93764078Y-125230448D01*
X93769838Y-125232100D01*
X93775810Y-125232633D01*
X93885817Y-125242451D01*
X93885825Y-125242451D01*
X93888611Y-125242700D01*
X94183094Y-125242700D01*
X94477788Y-125242699D01*
X94562724Y-125235120D01*
X94590591Y-125232633D01*
X94590593Y-125232633D01*
X94596562Y-125232100D01*
X94789504Y-125176775D01*
X94817049Y-125162375D01*
X94920698Y-125108188D01*
X94946096Y-125094910D01*
X95015732Y-125081075D01*
X95062844Y-125094908D01*
X95191896Y-125162375D01*
X95198036Y-125164136D01*
X95198037Y-125164136D01*
X95379076Y-125216048D01*
X95379078Y-125216048D01*
X95384838Y-125217700D01*
X95390810Y-125218233D01*
X95500817Y-125228051D01*
X95500825Y-125228051D01*
X95503611Y-125228300D01*
X95810590Y-125228300D01*
X96117788Y-125228299D01*
X96202724Y-125220720D01*
X96230591Y-125218233D01*
X96230593Y-125218233D01*
X96236562Y-125217700D01*
X96379285Y-125176775D01*
X96423363Y-125164136D01*
X96423364Y-125164136D01*
X96429504Y-125162375D01*
X96533152Y-125108189D01*
X96601722Y-125072341D01*
X96607380Y-125069383D01*
X96612323Y-125065352D01*
X96612327Y-125065349D01*
X96643564Y-125039872D01*
X96708996Y-125012318D01*
X96778937Y-125024513D01*
X96802836Y-125039872D01*
X96834073Y-125065349D01*
X96834077Y-125065352D01*
X96839020Y-125069383D01*
X96844678Y-125072341D01*
X96913248Y-125108189D01*
X97016896Y-125162375D01*
X97023036Y-125164136D01*
X97023037Y-125164136D01*
X97204076Y-125216048D01*
X97204078Y-125216048D01*
X97209838Y-125217700D01*
X97215810Y-125218233D01*
X97325817Y-125228051D01*
X97325825Y-125228051D01*
X97328611Y-125228300D01*
X97635590Y-125228300D01*
X97942788Y-125228299D01*
X98027724Y-125220720D01*
X98055591Y-125218233D01*
X98055593Y-125218233D01*
X98061562Y-125217700D01*
X98204285Y-125176775D01*
X98248363Y-125164136D01*
X98248364Y-125164136D01*
X98254504Y-125162375D01*
X98307353Y-125134746D01*
X98376989Y-125120912D01*
X98424103Y-125134746D01*
X98504496Y-125176775D01*
X98510636Y-125178536D01*
X98510637Y-125178536D01*
X98691676Y-125230448D01*
X98691678Y-125230448D01*
X98697438Y-125232100D01*
X98703410Y-125232633D01*
X98813417Y-125242451D01*
X98813425Y-125242451D01*
X98816211Y-125242700D01*
X98875831Y-125242700D01*
X99380500Y-125242699D01*
X99448621Y-125262701D01*
X99495114Y-125316357D01*
X99506500Y-125368699D01*
X99506500Y-125380866D01*
X99506837Y-125384112D01*
X99506837Y-125384116D01*
X99516515Y-125477383D01*
X99517359Y-125485519D01*
X99572744Y-125651529D01*
X99664834Y-125800345D01*
X99788689Y-125923984D01*
X99937666Y-126015814D01*
X99944614Y-126018119D01*
X99944615Y-126018119D01*
X100097241Y-126068744D01*
X100097243Y-126068745D01*
X100103772Y-126070910D01*
X100207134Y-126081500D01*
X101306866Y-126081500D01*
X101310112Y-126081163D01*
X101310116Y-126081163D01*
X101404661Y-126071353D01*
X101404665Y-126071352D01*
X101411519Y-126070641D01*
X101418055Y-126068460D01*
X101418057Y-126068460D01*
X101570581Y-126017574D01*
X101577529Y-126015256D01*
X101726345Y-125923166D01*
X101849984Y-125799311D01*
X101941814Y-125650334D01*
X101944119Y-125643385D01*
X101994744Y-125490759D01*
X101994745Y-125490757D01*
X101996910Y-125484228D01*
X102007500Y-125380866D01*
X102007500Y-122281134D01*
X102001947Y-122227619D01*
X101997353Y-122183339D01*
X101997352Y-122183335D01*
X101996641Y-122176481D01*
X101984463Y-122139977D01*
X101943574Y-122017419D01*
X101941256Y-122010471D01*
X101849166Y-121861655D01*
X101831096Y-121843616D01*
X101730491Y-121743187D01*
X101725311Y-121738016D01*
X101576334Y-121646186D01*
X101569385Y-121643881D01*
X101416759Y-121593256D01*
X101416757Y-121593255D01*
X101410228Y-121591090D01*
X101306866Y-121580500D01*
X100207134Y-121580500D01*
X100203888Y-121580837D01*
X100203884Y-121580837D01*
X100109339Y-121590647D01*
X100109335Y-121590648D01*
X100102481Y-121591359D01*
X100095945Y-121593540D01*
X100095943Y-121593540D01*
X99956860Y-121639942D01*
X99936471Y-121646744D01*
X99787655Y-121738834D01*
X99664016Y-121862689D01*
X99660176Y-121868919D01*
X99660175Y-121868920D01*
X99639379Y-121902658D01*
X99572186Y-122011666D01*
X99569881Y-122018614D01*
X99569881Y-122018615D01*
X99537387Y-122116581D01*
X99517090Y-122177772D01*
X99506500Y-122281134D01*
X99506500Y-122640700D01*
X99486498Y-122708821D01*
X99432842Y-122755314D01*
X99380500Y-122766700D01*
X98875868Y-122766701D01*
X98816212Y-122766701D01*
X98731276Y-122774280D01*
X98703409Y-122776767D01*
X98703407Y-122776767D01*
X98697438Y-122777300D01*
X98504496Y-122832625D01*
X98428526Y-122872342D01*
X98427737Y-122872754D01*
X98358101Y-122886588D01*
X98310987Y-122872754D01*
X98254504Y-122843225D01*
X98227850Y-122835582D01*
X98067324Y-122789552D01*
X98067322Y-122789552D01*
X98061562Y-122787900D01*
X98055590Y-122787367D01*
X97945583Y-122777549D01*
X97945575Y-122777549D01*
X97942789Y-122777300D01*
X97635810Y-122777300D01*
X97328612Y-122777301D01*
X97243676Y-122784880D01*
X97215809Y-122787367D01*
X97215807Y-122787367D01*
X97209838Y-122787900D01*
X97204076Y-122789552D01*
X97204077Y-122789552D01*
X97053863Y-122832625D01*
X97016896Y-122843225D01*
X97011234Y-122846185D01*
X96902038Y-122903272D01*
X96839020Y-122936217D01*
X96834077Y-122940248D01*
X96834073Y-122940251D01*
X96802836Y-122965728D01*
X96737404Y-122993282D01*
X96667463Y-122981087D01*
X96643564Y-122965728D01*
X96612327Y-122940251D01*
X96612323Y-122940248D01*
X96607380Y-122936217D01*
X96544363Y-122903272D01*
X96435166Y-122846185D01*
X96429504Y-122843225D01*
X96402850Y-122835582D01*
X96242324Y-122789552D01*
X96242322Y-122789552D01*
X96236562Y-122787900D01*
X96230590Y-122787367D01*
X96120583Y-122777549D01*
X96120575Y-122777549D01*
X96117789Y-122777300D01*
X95810810Y-122777300D01*
X95503612Y-122777301D01*
X95418676Y-122784880D01*
X95390809Y-122787367D01*
X95390807Y-122787367D01*
X95384838Y-122787900D01*
X95379076Y-122789552D01*
X95379077Y-122789552D01*
X95228863Y-122832625D01*
X95191896Y-122843225D01*
X95186234Y-122846185D01*
X95059214Y-122912590D01*
X94989578Y-122926425D01*
X94942466Y-122912592D01*
X94789504Y-122832625D01*
X94783363Y-122830864D01*
X94602324Y-122778952D01*
X94602322Y-122778952D01*
X94596562Y-122777300D01*
X94590590Y-122776767D01*
X94480583Y-122766949D01*
X94480575Y-122766949D01*
X94477789Y-122766700D01*
X94183306Y-122766700D01*
X93888612Y-122766701D01*
X93803676Y-122774280D01*
X93775809Y-122776767D01*
X93775807Y-122776767D01*
X93769838Y-122777300D01*
X93576896Y-122832625D01*
X93449338Y-122899311D01*
X93379703Y-122913146D01*
X93332587Y-122899311D01*
X93230960Y-122846181D01*
X93230953Y-122846178D01*
X93225304Y-122843225D01*
X93219176Y-122841468D01*
X93219174Y-122841467D01*
X93038124Y-122789552D01*
X93038122Y-122789552D01*
X93032362Y-122787900D01*
X93026390Y-122787367D01*
X92916383Y-122777549D01*
X92916375Y-122777549D01*
X92913589Y-122777300D01*
X92556628Y-122777300D01*
X92199412Y-122777301D01*
X92114476Y-122784880D01*
X92086609Y-122787367D01*
X92086607Y-122787367D01*
X92080638Y-122787900D01*
X92074876Y-122789552D01*
X92074877Y-122789552D01*
X91924663Y-122832625D01*
X91887696Y-122843225D01*
X91752373Y-122913971D01*
X91682740Y-122927804D01*
X91635628Y-122913971D01*
X91500304Y-122843225D01*
X91321259Y-122791885D01*
X91261290Y-122753881D01*
X91231388Y-122689489D01*
X91232074Y-122650246D01*
X91232500Y-122648762D01*
X91243100Y-122529989D01*
X91243099Y-121840812D01*
X91232500Y-121722038D01*
X91177175Y-121529096D01*
X91093361Y-121368776D01*
X91079526Y-121299140D01*
X91093361Y-121252024D01*
X91174215Y-121097366D01*
X91177175Y-121091704D01*
X91186532Y-121059071D01*
X91230848Y-120904524D01*
X91230848Y-120904522D01*
X91232500Y-120898762D01*
X91240025Y-120814444D01*
X91242851Y-120782783D01*
X91242851Y-120782775D01*
X91243100Y-120779989D01*
X91243099Y-120090812D01*
X91235520Y-120005876D01*
X91233033Y-119978009D01*
X91233033Y-119978007D01*
X91232500Y-119972038D01*
X91187019Y-119813427D01*
X91178936Y-119785237D01*
X91178936Y-119785236D01*
X91177175Y-119779096D01*
X91084183Y-119601220D01*
X91080148Y-119596273D01*
X91080145Y-119596268D01*
X91030931Y-119535925D01*
X91003377Y-119470493D01*
X91016912Y-119397915D01*
X91034923Y-119363463D01*
X91075575Y-119285704D01*
X91130900Y-119092762D01*
X91136770Y-119026988D01*
X91141251Y-118976783D01*
X91141251Y-118976775D01*
X91141500Y-118973989D01*
X91141499Y-118284812D01*
X91133399Y-118194038D01*
X91131433Y-118172009D01*
X91131433Y-118172007D01*
X91130900Y-118166038D01*
X91075575Y-117973096D01*
X91068613Y-117959778D01*
X90991761Y-117812776D01*
X90977926Y-117743140D01*
X90991761Y-117696024D01*
X91021854Y-117638463D01*
X91075575Y-117535704D01*
X91077336Y-117529563D01*
X91129248Y-117348524D01*
X91129248Y-117348522D01*
X91130900Y-117342762D01*
X91141500Y-117223989D01*
X91141499Y-116534812D01*
X91130900Y-116416038D01*
X91088204Y-116267140D01*
X91077336Y-116229237D01*
X91077336Y-116229236D01*
X91075575Y-116223096D01*
X90982583Y-116045220D01*
X90864206Y-115900076D01*
X90859753Y-115894616D01*
X90855724Y-115889676D01*
X90846856Y-115882443D01*
X90705126Y-115766851D01*
X90700180Y-115762817D01*
X90538112Y-115678089D01*
X90527966Y-115672785D01*
X90522304Y-115669825D01*
X90516163Y-115668064D01*
X90335124Y-115616152D01*
X90335122Y-115616152D01*
X90329362Y-115614500D01*
X90323390Y-115613967D01*
X90213383Y-115604149D01*
X90213375Y-115604149D01*
X90210589Y-115603900D01*
X89993384Y-115603900D01*
X89925263Y-115583898D01*
X89904289Y-115566995D01*
X89298805Y-114961511D01*
X89264779Y-114899199D01*
X89261900Y-114872416D01*
X89261899Y-114251616D01*
X89261899Y-114248812D01*
X89254320Y-114163876D01*
X89251833Y-114136009D01*
X89251833Y-114136007D01*
X89251300Y-114130038D01*
X89195975Y-113937096D01*
X89186238Y-113918471D01*
X89105941Y-113764878D01*
X89102983Y-113759220D01*
X88976124Y-113603676D01*
X88971184Y-113599647D01*
X88970490Y-113598953D01*
X88936464Y-113536641D01*
X88933585Y-113509858D01*
X88933585Y-113389764D01*
X88953587Y-113321643D01*
X88962710Y-113309196D01*
X88984925Y-113282484D01*
X88984927Y-113282482D01*
X88988619Y-113278042D01*
X89091937Y-113093555D01*
X89093793Y-113088088D01*
X89093795Y-113088083D01*
X89158047Y-112898800D01*
X89159904Y-112893330D01*
X89166115Y-112850500D01*
X89189714Y-112687740D01*
X89189714Y-112687738D01*
X89190246Y-112684070D01*
X89191829Y-112623600D01*
X89172481Y-112413040D01*
X89165645Y-112388799D01*
X89151473Y-112338551D01*
X89115086Y-112209531D01*
X89103953Y-112186954D01*
X89024119Y-112025069D01*
X89021565Y-112019890D01*
X88895051Y-111850467D01*
X88739781Y-111706937D01*
X88669830Y-111662801D01*
X88565834Y-111597184D01*
X88565833Y-111597184D01*
X88560954Y-111594105D01*
X88364560Y-111515752D01*
X88358903Y-111514627D01*
X88358897Y-111514625D01*
X88162842Y-111475628D01*
X88162840Y-111475628D01*
X88157175Y-111474501D01*
X88151400Y-111474425D01*
X88151396Y-111474425D01*
X88045376Y-111473037D01*
X87945746Y-111471733D01*
X87940049Y-111472712D01*
X87940048Y-111472712D01*
X87743050Y-111506562D01*
X87743049Y-111506562D01*
X87737353Y-111507541D01*
X87538975Y-111580727D01*
X87534014Y-111583679D01*
X87534013Y-111583679D01*
X87516489Y-111594105D01*
X87357256Y-111688838D01*
X87198281Y-111828255D01*
X87067376Y-111994308D01*
X87064687Y-111999419D01*
X87064685Y-111999422D01*
X87014800Y-112094238D01*
X86968923Y-112181436D01*
X86906220Y-112383373D01*
X86881367Y-112593354D01*
X86895196Y-112804349D01*
X86896617Y-112809945D01*
X86896618Y-112809950D01*
X86919184Y-112898800D01*
X86947245Y-113009290D01*
X87035769Y-113201314D01*
X87039102Y-113206030D01*
X87116112Y-113314997D01*
X87139215Y-113387717D01*
X87139215Y-113509858D01*
X87119213Y-113577979D01*
X87102310Y-113598953D01*
X87101616Y-113599647D01*
X87096676Y-113603676D01*
X86969817Y-113759220D01*
X86966859Y-113764878D01*
X86886562Y-113918471D01*
X86876825Y-113937096D01*
X86875064Y-113943236D01*
X86875064Y-113943237D01*
X86830207Y-114099674D01*
X86821500Y-114130038D01*
X86820967Y-114136009D01*
X86820967Y-114136010D01*
X86811794Y-114238799D01*
X86810900Y-114248811D01*
X86810901Y-114962988D01*
X86811360Y-114968137D01*
X86811275Y-114968568D01*
X86811275Y-114968578D01*
X86811273Y-114968578D01*
X86797496Y-115037763D01*
X86748188Y-115088844D01*
X86679091Y-115105157D01*
X86671764Y-115104281D01*
X86671762Y-115104300D01*
X86555783Y-115093949D01*
X86555775Y-115093949D01*
X86552989Y-115093700D01*
X86258506Y-115093700D01*
X85963812Y-115093701D01*
X85878876Y-115101280D01*
X85851009Y-115103767D01*
X85851007Y-115103767D01*
X85845038Y-115104300D01*
X85652096Y-115159625D01*
X85474220Y-115252617D01*
X85318676Y-115379476D01*
X85191817Y-115535020D01*
X85098825Y-115712896D01*
X85097064Y-115719036D01*
X85097064Y-115719037D01*
X85048279Y-115889173D01*
X85043500Y-115905838D01*
X85042967Y-115911810D01*
X85033399Y-116019022D01*
X85032900Y-116024611D01*
X85032901Y-116738788D01*
X85043500Y-116857562D01*
X85098825Y-117050504D01*
X85191817Y-117228380D01*
X85318676Y-117383924D01*
X85323616Y-117387953D01*
X85365651Y-117422236D01*
X85405799Y-117480791D01*
X85412015Y-117519879D01*
X85412015Y-117573858D01*
X85392013Y-117641979D01*
X85375110Y-117662953D01*
X85374416Y-117663647D01*
X85369476Y-117667676D01*
X85242617Y-117823220D01*
X85239659Y-117828878D01*
X85152585Y-117995434D01*
X85149625Y-118001096D01*
X85147864Y-118007236D01*
X85147864Y-118007237D01*
X85100617Y-118172009D01*
X85094300Y-118194038D01*
X85093767Y-118200010D01*
X85084301Y-118306081D01*
X85083700Y-118312811D01*
X85083701Y-119026988D01*
X85094300Y-119145762D01*
X85095952Y-119151523D01*
X85134428Y-119285704D01*
X85149625Y-119338704D01*
X85152585Y-119344366D01*
X85155670Y-119350266D01*
X85242617Y-119516580D01*
X85369476Y-119672124D01*
X85525020Y-119798983D01*
X85530678Y-119801941D01*
X85584126Y-119829883D01*
X85702896Y-119891975D01*
X85709036Y-119893736D01*
X85709037Y-119893736D01*
X85890076Y-119945648D01*
X85890078Y-119945648D01*
X85895838Y-119947300D01*
X85901810Y-119947833D01*
X86011817Y-119957651D01*
X86011825Y-119957651D01*
X86014611Y-119957900D01*
X86309094Y-119957900D01*
X86603788Y-119957899D01*
X86688724Y-119950320D01*
X86716591Y-119947833D01*
X86716593Y-119947833D01*
X86722562Y-119947300D01*
X86897865Y-119897033D01*
X86909363Y-119893736D01*
X86909364Y-119893736D01*
X86915504Y-119891975D01*
X87034274Y-119829883D01*
X87087722Y-119801941D01*
X87093380Y-119798983D01*
X87200507Y-119711612D01*
X87265939Y-119684058D01*
X87335880Y-119696253D01*
X87359778Y-119711612D01*
X87399668Y-119744145D01*
X87399673Y-119744148D01*
X87404620Y-119748183D01*
X87410278Y-119751141D01*
X87566555Y-119832841D01*
X87582496Y-119841175D01*
X87588636Y-119842936D01*
X87588637Y-119842936D01*
X87769676Y-119894848D01*
X87769678Y-119894848D01*
X87775438Y-119896500D01*
X87781410Y-119897033D01*
X87891417Y-119906851D01*
X87891425Y-119906851D01*
X87894211Y-119907100D01*
X88188694Y-119907100D01*
X88483388Y-119907099D01*
X88568324Y-119899520D01*
X88596191Y-119897033D01*
X88596193Y-119897033D01*
X88602162Y-119896500D01*
X88619791Y-119891445D01*
X88638327Y-119886130D01*
X88709322Y-119886581D01*
X88768804Y-119925343D01*
X88797886Y-119990110D01*
X88798558Y-120018449D01*
X88796862Y-120037458D01*
X88792100Y-120090811D01*
X88792100Y-120339899D01*
X88772098Y-120408020D01*
X88755195Y-120428994D01*
X87688544Y-121495645D01*
X87673510Y-121508486D01*
X87667708Y-121512701D01*
X87667704Y-121512705D01*
X87662363Y-121516585D01*
X87657942Y-121521495D01*
X87657941Y-121521496D01*
X87617188Y-121566757D01*
X87612647Y-121571542D01*
X87598351Y-121585838D01*
X87596274Y-121588403D01*
X87585620Y-121601560D01*
X87581362Y-121606546D01*
X87536168Y-121656739D01*
X87532866Y-121662457D01*
X87532863Y-121662462D01*
X87529277Y-121668673D01*
X87518088Y-121684955D01*
X87509417Y-121695663D01*
X87506420Y-121701545D01*
X87506418Y-121701548D01*
X87478769Y-121755811D01*
X87475623Y-121761606D01*
X87441870Y-121820068D01*
X87437615Y-121833165D01*
X87430047Y-121851434D01*
X87426795Y-121857816D01*
X87426793Y-121857822D01*
X87423796Y-121863703D01*
X87422087Y-121870081D01*
X87406324Y-121928909D01*
X87404450Y-121935234D01*
X87385633Y-121993147D01*
X87383591Y-121999433D01*
X87382901Y-122006001D01*
X87382900Y-122006004D01*
X87382152Y-122013125D01*
X87378549Y-122032567D01*
X87374984Y-122045872D01*
X87374639Y-122052462D01*
X87374638Y-122052466D01*
X87371451Y-122113278D01*
X87370934Y-122119853D01*
X87368819Y-122139977D01*
X87368819Y-122160206D01*
X87368646Y-122166801D01*
X87365113Y-122234210D01*
X87366145Y-122240726D01*
X87367268Y-122247816D01*
X87368819Y-122267527D01*
X87368819Y-124185900D01*
X87348817Y-124254021D01*
X87295161Y-124300514D01*
X87242819Y-124311900D01*
X86462334Y-124311900D01*
X86459088Y-124312237D01*
X86459084Y-124312237D01*
X86395807Y-124318803D01*
X86325986Y-124305939D01*
X86295800Y-124284085D01*
X86294324Y-124282276D01*
X86138780Y-124155417D01*
X85960904Y-124062425D01*
X85934250Y-124054782D01*
X85773724Y-124008752D01*
X85773722Y-124008752D01*
X85767962Y-124007100D01*
X85761990Y-124006567D01*
X85651983Y-123996749D01*
X85651975Y-123996749D01*
X85649189Y-123996500D01*
X85292228Y-123996500D01*
X84935012Y-123996501D01*
X84850076Y-124004080D01*
X84822209Y-124006567D01*
X84822207Y-124006567D01*
X84816238Y-124007100D01*
X84810476Y-124008752D01*
X84810477Y-124008752D01*
X84660263Y-124051825D01*
X84623296Y-124062425D01*
X84487973Y-124133171D01*
X84418340Y-124147004D01*
X84371228Y-124133171D01*
X84235904Y-124062425D01*
X84209250Y-124054782D01*
X84048724Y-124008752D01*
X84048722Y-124008752D01*
X84042962Y-124007100D01*
X84036990Y-124006567D01*
X83926983Y-123996749D01*
X83926975Y-123996749D01*
X83924189Y-123996500D01*
X83567228Y-123996500D01*
X83210012Y-123996501D01*
X83125076Y-124004080D01*
X83097209Y-124006567D01*
X83097207Y-124006567D01*
X83091238Y-124007100D01*
X83085476Y-124008752D01*
X83085477Y-124008752D01*
X82935263Y-124051825D01*
X82898296Y-124062425D01*
X82892634Y-124065385D01*
X82765614Y-124131790D01*
X82695978Y-124145625D01*
X82648866Y-124131792D01*
X82495904Y-124051825D01*
X82489763Y-124050064D01*
X82308724Y-123998152D01*
X82308722Y-123998152D01*
X82302962Y-123996500D01*
X82296990Y-123995967D01*
X82186983Y-123986149D01*
X82186975Y-123986149D01*
X82184189Y-123985900D01*
X81889706Y-123985900D01*
X81595012Y-123985901D01*
X81510076Y-123993480D01*
X81482209Y-123995967D01*
X81482207Y-123995967D01*
X81476238Y-123996500D01*
X81283296Y-124051825D01*
X81183008Y-124104255D01*
X81181137Y-124105233D01*
X81111502Y-124119067D01*
X81064387Y-124105233D01*
X81062516Y-124104255D01*
X80982504Y-124062425D01*
X80955850Y-124054782D01*
X80795324Y-124008752D01*
X80795322Y-124008752D01*
X80789562Y-124007100D01*
X80783590Y-124006567D01*
X80673583Y-123996749D01*
X80673575Y-123996749D01*
X80670789Y-123996500D01*
X80326323Y-123996500D01*
X79981612Y-123996501D01*
X79896676Y-124004080D01*
X79868809Y-124006567D01*
X79868807Y-124006567D01*
X79862838Y-124007100D01*
X79857076Y-124008752D01*
X79857077Y-124008752D01*
X79706863Y-124051825D01*
X79669896Y-124062425D01*
X79529638Y-124135751D01*
X79509576Y-124146239D01*
X79439940Y-124160074D01*
X79392824Y-124146239D01*
X79372763Y-124135751D01*
X79232504Y-124062425D01*
X79205850Y-124054782D01*
X79045324Y-124008752D01*
X79045322Y-124008752D01*
X79039562Y-124007100D01*
X79033590Y-124006567D01*
X78923583Y-123996749D01*
X78923575Y-123996749D01*
X78920789Y-123996500D01*
X78576323Y-123996500D01*
X78231612Y-123996501D01*
X78146676Y-124004080D01*
X78118809Y-124006567D01*
X78118807Y-124006567D01*
X78112838Y-124007100D01*
X78107076Y-124008752D01*
X78107077Y-124008752D01*
X77926026Y-124060667D01*
X77926024Y-124060668D01*
X77919896Y-124062425D01*
X77914247Y-124065378D01*
X77914240Y-124065381D01*
X77812613Y-124118511D01*
X77742977Y-124132346D01*
X77695862Y-124118511D01*
X77568304Y-124051825D01*
X77562163Y-124050064D01*
X77381124Y-123998152D01*
X77381122Y-123998152D01*
X77375362Y-123996500D01*
X77369390Y-123995967D01*
X77259383Y-123986149D01*
X77259375Y-123986149D01*
X77256589Y-123985900D01*
X76962106Y-123985900D01*
X76667412Y-123985901D01*
X76582476Y-123993480D01*
X76554609Y-123995967D01*
X76554607Y-123995967D01*
X76548638Y-123996500D01*
X76355696Y-124051825D01*
X76274913Y-124094058D01*
X76205280Y-124107891D01*
X76139219Y-124081881D01*
X76127522Y-124071568D01*
X76041591Y-123985787D01*
X76036411Y-123980616D01*
X75887434Y-123888786D01*
X75880485Y-123886481D01*
X75727859Y-123835856D01*
X75727857Y-123835855D01*
X75721328Y-123833690D01*
X75617966Y-123823100D01*
X71172056Y-123823100D01*
X71103935Y-123803098D01*
X71057442Y-123749442D01*
X71046056Y-123697317D01*
X71044469Y-122777549D01*
X71006400Y-100716600D01*
X71006400Y-94336500D01*
X71026402Y-94268379D01*
X71080058Y-94221886D01*
X71132400Y-94210500D01*
X75792666Y-94210500D01*
X75795912Y-94210163D01*
X75795916Y-94210163D01*
X75890461Y-94200353D01*
X75890465Y-94200352D01*
X75897319Y-94199641D01*
X75903855Y-94197460D01*
X75903857Y-94197460D01*
X76056381Y-94146574D01*
X76063329Y-94144256D01*
X76212145Y-94052166D01*
X76335784Y-93928311D01*
X76339625Y-93922080D01*
X76344162Y-93916335D01*
X76346335Y-93918051D01*
X76389605Y-93879100D01*
X76459675Y-93867667D01*
X76496324Y-93879117D01*
X76496512Y-93878647D01*
X76502438Y-93881017D01*
X76508096Y-93883975D01*
X76514234Y-93885735D01*
X76695276Y-93937648D01*
X76695278Y-93937648D01*
X76701038Y-93939300D01*
X76707010Y-93939833D01*
X76817017Y-93949651D01*
X76817025Y-93949651D01*
X76819811Y-93949900D01*
X77114294Y-93949900D01*
X77408988Y-93949899D01*
X77493924Y-93942320D01*
X77521791Y-93939833D01*
X77521793Y-93939833D01*
X77527762Y-93939300D01*
X77720704Y-93883975D01*
X77729997Y-93879117D01*
X77803311Y-93840789D01*
X77877296Y-93802110D01*
X77946932Y-93788275D01*
X77994044Y-93802108D01*
X78123096Y-93869575D01*
X78129236Y-93871336D01*
X78129237Y-93871336D01*
X78310276Y-93923248D01*
X78310278Y-93923248D01*
X78316038Y-93924900D01*
X78322010Y-93925433D01*
X78432017Y-93935251D01*
X78432025Y-93935251D01*
X78434811Y-93935500D01*
X78741790Y-93935500D01*
X79048988Y-93935499D01*
X79133924Y-93927920D01*
X79161791Y-93925433D01*
X79161793Y-93925433D01*
X79167762Y-93924900D01*
X79310485Y-93883975D01*
X79354563Y-93871336D01*
X79354564Y-93871336D01*
X79360704Y-93869575D01*
X79511036Y-93790983D01*
X79532922Y-93779541D01*
X79538580Y-93776583D01*
X79543523Y-93772552D01*
X79543527Y-93772549D01*
X79574764Y-93747072D01*
X79640196Y-93719518D01*
X79710137Y-93731713D01*
X79734036Y-93747072D01*
X79765273Y-93772549D01*
X79765277Y-93772552D01*
X79770220Y-93776583D01*
X79775878Y-93779541D01*
X79797764Y-93790983D01*
X79948096Y-93869575D01*
X79954236Y-93871336D01*
X79954237Y-93871336D01*
X80135276Y-93923248D01*
X80135278Y-93923248D01*
X80141038Y-93924900D01*
X80147010Y-93925433D01*
X80257017Y-93935251D01*
X80257025Y-93935251D01*
X80259811Y-93935500D01*
X80566790Y-93935500D01*
X80873988Y-93935499D01*
X80958924Y-93927920D01*
X80986791Y-93925433D01*
X80986793Y-93925433D01*
X80992762Y-93924900D01*
X81135485Y-93883975D01*
X81179563Y-93871336D01*
X81179564Y-93871336D01*
X81185704Y-93869575D01*
X81263953Y-93828667D01*
X81333589Y-93814833D01*
X81380701Y-93828666D01*
X81486496Y-93883975D01*
X81492634Y-93885735D01*
X81492637Y-93885736D01*
X81673676Y-93937648D01*
X81673678Y-93937648D01*
X81679438Y-93939300D01*
X81685410Y-93939833D01*
X81795417Y-93949651D01*
X81795425Y-93949651D01*
X81798211Y-93949900D01*
X82092694Y-93949900D01*
X82387388Y-93949899D01*
X82472324Y-93942320D01*
X82500191Y-93939833D01*
X82500193Y-93939833D01*
X82506162Y-93939300D01*
X82699104Y-93883975D01*
X82781713Y-93840788D01*
X82851348Y-93826954D01*
X82898462Y-93840788D01*
X83050696Y-93920375D01*
X83056836Y-93922136D01*
X83056837Y-93922136D01*
X83237876Y-93974048D01*
X83237878Y-93974048D01*
X83243638Y-93975700D01*
X83249610Y-93976233D01*
X83359617Y-93986051D01*
X83359625Y-93986051D01*
X83362411Y-93986300D01*
X83719372Y-93986300D01*
X84076588Y-93986299D01*
X84161524Y-93978720D01*
X84189391Y-93976233D01*
X84189393Y-93976233D01*
X84195362Y-93975700D01*
X84320446Y-93939833D01*
X84382163Y-93922136D01*
X84382164Y-93922136D01*
X84388304Y-93920375D01*
X84523627Y-93849629D01*
X84593260Y-93835796D01*
X84640372Y-93849629D01*
X84775696Y-93920375D01*
X84781836Y-93922136D01*
X84781837Y-93922136D01*
X84962876Y-93974048D01*
X84962878Y-93974048D01*
X84968638Y-93975700D01*
X84974610Y-93976233D01*
X85084617Y-93986051D01*
X85084625Y-93986051D01*
X85087411Y-93986300D01*
X85444372Y-93986300D01*
X85801588Y-93986299D01*
X85886524Y-93978720D01*
X85914391Y-93976233D01*
X85914393Y-93976233D01*
X85920362Y-93975700D01*
X86045446Y-93939833D01*
X86107163Y-93922136D01*
X86107164Y-93922136D01*
X86113304Y-93920375D01*
X86182930Y-93883975D01*
X86285522Y-93830341D01*
X86291180Y-93827383D01*
X86413232Y-93727840D01*
X86478663Y-93700286D01*
X86505706Y-93700139D01*
X86513134Y-93700900D01*
X87662866Y-93700900D01*
X87666112Y-93700563D01*
X87666116Y-93700563D01*
X87760661Y-93690753D01*
X87760665Y-93690752D01*
X87767519Y-93690041D01*
X87774055Y-93687860D01*
X87774057Y-93687860D01*
X87926590Y-93636971D01*
X87933529Y-93634656D01*
X87939761Y-93630800D01*
X87968722Y-93612878D01*
X88037174Y-93594040D01*
X88067633Y-93598314D01*
X88111559Y-93610084D01*
X88117859Y-93611951D01*
X88182067Y-93632813D01*
X88195760Y-93634252D01*
X88215201Y-93637855D01*
X88228506Y-93641420D01*
X88235096Y-93641765D01*
X88235100Y-93641766D01*
X88295912Y-93644953D01*
X88302487Y-93645470D01*
X88306628Y-93645905D01*
X88322611Y-93647585D01*
X88342839Y-93647585D01*
X88349432Y-93647758D01*
X88358827Y-93648250D01*
X88370540Y-93648864D01*
X88403612Y-93655098D01*
X88447271Y-93669579D01*
X88503241Y-93688144D01*
X88503243Y-93688145D01*
X88509772Y-93690310D01*
X88613134Y-93700900D01*
X89762866Y-93700900D01*
X89766112Y-93700563D01*
X89766116Y-93700563D01*
X89860661Y-93690753D01*
X89860665Y-93690752D01*
X89867519Y-93690041D01*
X89874055Y-93687860D01*
X89874057Y-93687860D01*
X90026581Y-93636974D01*
X90033529Y-93634656D01*
X90182345Y-93542566D01*
X90305984Y-93418711D01*
X90397814Y-93269734D01*
X90406188Y-93244489D01*
X90450744Y-93110159D01*
X90450745Y-93110157D01*
X90452910Y-93103628D01*
X90463500Y-93000266D01*
X90463500Y-92791500D01*
X90483502Y-92723379D01*
X90537158Y-92676886D01*
X90589500Y-92665500D01*
X91209541Y-92665499D01*
X91239388Y-92665499D01*
X91324324Y-92657920D01*
X91352191Y-92655433D01*
X91352193Y-92655433D01*
X91358162Y-92654900D01*
X91455730Y-92626923D01*
X91544967Y-92601335D01*
X91544969Y-92601334D01*
X91551104Y-92599575D01*
X91551382Y-92600545D01*
X91616231Y-92594372D01*
X91679326Y-92626923D01*
X91714806Y-92688418D01*
X91716015Y-92694462D01*
X91716280Y-92699524D01*
X91719845Y-92712829D01*
X91723448Y-92732270D01*
X91724887Y-92745963D01*
X91726928Y-92752245D01*
X91726929Y-92752249D01*
X91745746Y-92810162D01*
X91747620Y-92816487D01*
X91765092Y-92881693D01*
X91768089Y-92887574D01*
X91768091Y-92887580D01*
X91771343Y-92893962D01*
X91778910Y-92912229D01*
X91783166Y-92925328D01*
X91814576Y-92979732D01*
X91816919Y-92983790D01*
X91820065Y-92989585D01*
X91847714Y-93043848D01*
X91850713Y-93049733D01*
X91859384Y-93060441D01*
X91870573Y-93076723D01*
X91874159Y-93082934D01*
X91874162Y-93082939D01*
X91877464Y-93088657D01*
X91922658Y-93138850D01*
X91926912Y-93143831D01*
X91939647Y-93159558D01*
X91953934Y-93173845D01*
X91958479Y-93178634D01*
X91960141Y-93180480D01*
X91990855Y-93244489D01*
X91992501Y-93264786D01*
X91992501Y-93476188D01*
X92003100Y-93594962D01*
X92004752Y-93600723D01*
X92042313Y-93731713D01*
X92058425Y-93787904D01*
X92061385Y-93793566D01*
X92131829Y-93928311D01*
X92151417Y-93965780D01*
X92278276Y-94121324D01*
X92433820Y-94248183D01*
X92611696Y-94341175D01*
X92617834Y-94342935D01*
X92617837Y-94342936D01*
X92798876Y-94394848D01*
X92798878Y-94394848D01*
X92804638Y-94396500D01*
X92810610Y-94397033D01*
X92920617Y-94406851D01*
X92920625Y-94406851D01*
X92923411Y-94407100D01*
X93217894Y-94407100D01*
X93512588Y-94407099D01*
X93597524Y-94399520D01*
X93625391Y-94397033D01*
X93625393Y-94397033D01*
X93631362Y-94396500D01*
X93824304Y-94341175D01*
X93829961Y-94338218D01*
X93829965Y-94338216D01*
X93881511Y-94311268D01*
X93951147Y-94297433D01*
X93998259Y-94311266D01*
X94125096Y-94377575D01*
X94131236Y-94379336D01*
X94131237Y-94379336D01*
X94312276Y-94431248D01*
X94312278Y-94431248D01*
X94318038Y-94432900D01*
X94324010Y-94433433D01*
X94434017Y-94443251D01*
X94434025Y-94443251D01*
X94436811Y-94443500D01*
X94743790Y-94443500D01*
X95050988Y-94443499D01*
X95135924Y-94435920D01*
X95163791Y-94433433D01*
X95163793Y-94433433D01*
X95169762Y-94432900D01*
X95294846Y-94397033D01*
X95356563Y-94379336D01*
X95356564Y-94379336D01*
X95362704Y-94377575D01*
X95540580Y-94284583D01*
X95545523Y-94280552D01*
X95545527Y-94280549D01*
X95576764Y-94255072D01*
X95642196Y-94227518D01*
X95712137Y-94239713D01*
X95736036Y-94255072D01*
X95767273Y-94280549D01*
X95767277Y-94280552D01*
X95772220Y-94284583D01*
X95950096Y-94377575D01*
X95956236Y-94379336D01*
X95956237Y-94379336D01*
X96137276Y-94431248D01*
X96137278Y-94431248D01*
X96143038Y-94432900D01*
X96149010Y-94433433D01*
X96259017Y-94443251D01*
X96259025Y-94443251D01*
X96261811Y-94443500D01*
X96568790Y-94443500D01*
X96875988Y-94443499D01*
X96960924Y-94435920D01*
X96988791Y-94433433D01*
X96988793Y-94433433D01*
X96994762Y-94432900D01*
X97119846Y-94397033D01*
X97181563Y-94379336D01*
X97181564Y-94379336D01*
X97187704Y-94377575D01*
X97365580Y-94284583D01*
X97407237Y-94250608D01*
X97472668Y-94223054D01*
X97542610Y-94235249D01*
X97566508Y-94250608D01*
X97585068Y-94265745D01*
X97585073Y-94265748D01*
X97590020Y-94269783D01*
X97595678Y-94272741D01*
X97623988Y-94287541D01*
X97767896Y-94362775D01*
X97774036Y-94364536D01*
X97774037Y-94364536D01*
X97955076Y-94416448D01*
X97955078Y-94416448D01*
X97960838Y-94418100D01*
X97966810Y-94418633D01*
X98076817Y-94428451D01*
X98076825Y-94428451D01*
X98079611Y-94428700D01*
X98374094Y-94428700D01*
X98668788Y-94428699D01*
X98753724Y-94421120D01*
X98781591Y-94418633D01*
X98781593Y-94418633D01*
X98787562Y-94418100D01*
X98928890Y-94377575D01*
X98974363Y-94364536D01*
X98974364Y-94364536D01*
X98980504Y-94362775D01*
X99124412Y-94287541D01*
X99152722Y-94272741D01*
X99158380Y-94269783D01*
X99163323Y-94265752D01*
X99163327Y-94265749D01*
X99300864Y-94153576D01*
X99366296Y-94126022D01*
X99436237Y-94138217D01*
X99488483Y-94186290D01*
X99506500Y-94251219D01*
X99506500Y-94380866D01*
X99506837Y-94384112D01*
X99506837Y-94384116D01*
X99516515Y-94477383D01*
X99517359Y-94485519D01*
X99572744Y-94651529D01*
X99664834Y-94800345D01*
X99788689Y-94923984D01*
X99937666Y-95015814D01*
X99944614Y-95018119D01*
X99944615Y-95018119D01*
X100097241Y-95068744D01*
X100097243Y-95068745D01*
X100103772Y-95070910D01*
X100207134Y-95081500D01*
X101306866Y-95081500D01*
X101310112Y-95081163D01*
X101310116Y-95081163D01*
X101404661Y-95071353D01*
X101404665Y-95071352D01*
X101411519Y-95070641D01*
X101418055Y-95068460D01*
X101418057Y-95068460D01*
X101570581Y-95017574D01*
X101577529Y-95015256D01*
X101726345Y-94923166D01*
X101849984Y-94799311D01*
X101941814Y-94650334D01*
X101996910Y-94484228D01*
X102007500Y-94380866D01*
X102007500Y-91281134D01*
X102006644Y-91272881D01*
X101997353Y-91183339D01*
X101997352Y-91183335D01*
X101996641Y-91176481D01*
X101957488Y-91059123D01*
X101943574Y-91017419D01*
X101941256Y-91010471D01*
X101849166Y-90861655D01*
X101725311Y-90738016D01*
X101576334Y-90646186D01*
X101569385Y-90643881D01*
X101416759Y-90593256D01*
X101416757Y-90593255D01*
X101410228Y-90591090D01*
X101306866Y-90580500D01*
X100207134Y-90580500D01*
X100203888Y-90580837D01*
X100203884Y-90580837D01*
X100109339Y-90590647D01*
X100109335Y-90590648D01*
X100102481Y-90591359D01*
X100095945Y-90593540D01*
X100095943Y-90593540D01*
X99956860Y-90639942D01*
X99936471Y-90646744D01*
X99787655Y-90738834D01*
X99664016Y-90862689D01*
X99572186Y-91011666D01*
X99569881Y-91018614D01*
X99569881Y-91018615D01*
X99527824Y-91145412D01*
X99517090Y-91177772D01*
X99506500Y-91281134D01*
X99506500Y-92130181D01*
X99486498Y-92198302D01*
X99432842Y-92244795D01*
X99362568Y-92254899D01*
X99300864Y-92227824D01*
X99163327Y-92115651D01*
X99163323Y-92115648D01*
X99158380Y-92111617D01*
X98980504Y-92018625D01*
X98932123Y-92004752D01*
X98793324Y-91964952D01*
X98793322Y-91964952D01*
X98787562Y-91963300D01*
X98781590Y-91962767D01*
X98671583Y-91952949D01*
X98671575Y-91952949D01*
X98668789Y-91952700D01*
X98374306Y-91952700D01*
X98079612Y-91952701D01*
X97994676Y-91960280D01*
X97966809Y-91962767D01*
X97966807Y-91962767D01*
X97960838Y-91963300D01*
X97955076Y-91964952D01*
X97955077Y-91964952D01*
X97818628Y-92004078D01*
X97767896Y-92018625D01*
X97590020Y-92111617D01*
X97585077Y-92115648D01*
X97585073Y-92115651D01*
X97533036Y-92158092D01*
X97467604Y-92185646D01*
X97397663Y-92173451D01*
X97373762Y-92158090D01*
X97370528Y-92155452D01*
X97370525Y-92155450D01*
X97365580Y-92151417D01*
X97297167Y-92115651D01*
X97193366Y-92061385D01*
X97187704Y-92058425D01*
X97181563Y-92056664D01*
X97000524Y-92004752D01*
X97000522Y-92004752D01*
X96994762Y-92003100D01*
X96988790Y-92002567D01*
X96878783Y-91992749D01*
X96878775Y-91992749D01*
X96875989Y-91992500D01*
X96569010Y-91992500D01*
X96261812Y-91992501D01*
X96176876Y-92000080D01*
X96149009Y-92002567D01*
X96149007Y-92002567D01*
X96143038Y-92003100D01*
X95950096Y-92058425D01*
X95944434Y-92061385D01*
X95840634Y-92115651D01*
X95772220Y-92151417D01*
X95767277Y-92155448D01*
X95767273Y-92155451D01*
X95736036Y-92180928D01*
X95670604Y-92208482D01*
X95600663Y-92196287D01*
X95576764Y-92180928D01*
X95545527Y-92155451D01*
X95545523Y-92155448D01*
X95540580Y-92151417D01*
X95472167Y-92115651D01*
X95368366Y-92061385D01*
X95362704Y-92058425D01*
X95356563Y-92056664D01*
X95175524Y-92004752D01*
X95175522Y-92004752D01*
X95169762Y-92003100D01*
X95163790Y-92002567D01*
X95053783Y-91992749D01*
X95053775Y-91992749D01*
X95050989Y-91992500D01*
X94744010Y-91992500D01*
X94436812Y-91992501D01*
X94351876Y-92000080D01*
X94324009Y-92002567D01*
X94324007Y-92002567D01*
X94318038Y-92003100D01*
X94312276Y-92004752D01*
X94312277Y-92004752D01*
X94131226Y-92056667D01*
X94131224Y-92056668D01*
X94125096Y-92058425D01*
X94119447Y-92061378D01*
X94119445Y-92061379D01*
X94091800Y-92075832D01*
X94022165Y-92089667D01*
X93975047Y-92075832D01*
X93932070Y-92053364D01*
X93880969Y-92004078D01*
X93864625Y-91934989D01*
X93869326Y-91906977D01*
X93884700Y-91853362D01*
X93885233Y-91847390D01*
X93895051Y-91737383D01*
X93895051Y-91737375D01*
X93895300Y-91734589D01*
X93895299Y-91145412D01*
X93884700Y-91026638D01*
X93829375Y-90833696D01*
X93736383Y-90655820D01*
X93609524Y-90500276D01*
X93453980Y-90373417D01*
X93438416Y-90365280D01*
X93281766Y-90283385D01*
X93276104Y-90280425D01*
X93210750Y-90261685D01*
X93088924Y-90226752D01*
X93088922Y-90226752D01*
X93083162Y-90225100D01*
X93077190Y-90224567D01*
X93030624Y-90220411D01*
X111804500Y-90220411D01*
X111804501Y-90934588D01*
X111815100Y-91053362D01*
X111870425Y-91246304D01*
X111873385Y-91251966D01*
X111936236Y-91372187D01*
X111963417Y-91424180D01*
X112090276Y-91579724D01*
X112245820Y-91706583D01*
X112251478Y-91709541D01*
X112305681Y-91737878D01*
X112423696Y-91799575D01*
X112429836Y-91801336D01*
X112429837Y-91801336D01*
X112610876Y-91853248D01*
X112610878Y-91853248D01*
X112616638Y-91854900D01*
X112622610Y-91855433D01*
X112732617Y-91865251D01*
X112732625Y-91865251D01*
X112735411Y-91865500D01*
X113029894Y-91865500D01*
X113324588Y-91865499D01*
X113409524Y-91857920D01*
X113437391Y-91855433D01*
X113437393Y-91855433D01*
X113443362Y-91854900D01*
X113636304Y-91799575D01*
X113754319Y-91737878D01*
X113808522Y-91709541D01*
X113814180Y-91706583D01*
X113909963Y-91628464D01*
X113975395Y-91600910D01*
X114048175Y-91615076D01*
X114048677Y-91615411D01*
X114053986Y-91617692D01*
X114053988Y-91617693D01*
X114237650Y-91696600D01*
X114237653Y-91696601D01*
X114242953Y-91698878D01*
X114248582Y-91700152D01*
X114248583Y-91700152D01*
X114443550Y-91744269D01*
X114443553Y-91744269D01*
X114449186Y-91745544D01*
X114454957Y-91745771D01*
X114454959Y-91745771D01*
X114516989Y-91748208D01*
X114660470Y-91753846D01*
X114666179Y-91753018D01*
X114666183Y-91753018D01*
X114864015Y-91724333D01*
X114864019Y-91724332D01*
X114869730Y-91723504D01*
X114964721Y-91691259D01*
X115064483Y-91657395D01*
X115064488Y-91657393D01*
X115069955Y-91655537D01*
X115109082Y-91633625D01*
X115249395Y-91555046D01*
X115249399Y-91555043D01*
X115254442Y-91552219D01*
X115380646Y-91447257D01*
X115445810Y-91419076D01*
X115515865Y-91430600D01*
X115568569Y-91478169D01*
X115587215Y-91544131D01*
X115587215Y-95191078D01*
X115567213Y-95259199D01*
X115519298Y-95302892D01*
X115430746Y-95348892D01*
X115310263Y-95411478D01*
X115306648Y-95414061D01*
X115306642Y-95414065D01*
X115089150Y-95569487D01*
X115089146Y-95569490D01*
X115085529Y-95572075D01*
X114885665Y-95762736D01*
X114714659Y-95979656D01*
X114649294Y-96092191D01*
X114578161Y-96214653D01*
X114578158Y-96214659D01*
X114575923Y-96218507D01*
X114472226Y-96474523D01*
X114471155Y-96478836D01*
X114471153Y-96478841D01*
X114457641Y-96533238D01*
X114405636Y-96742596D01*
X114405182Y-96747024D01*
X114405182Y-96747026D01*
X114398963Y-96807722D01*
X114377483Y-97017377D01*
X114388327Y-97293383D01*
X114437953Y-97565109D01*
X114525370Y-97827131D01*
X114527363Y-97831119D01*
X114610550Y-97997602D01*
X114648834Y-98074221D01*
X114805882Y-98301451D01*
X114993380Y-98504285D01*
X114996834Y-98507097D01*
X115204131Y-98675863D01*
X115204135Y-98675866D01*
X115207588Y-98678677D01*
X115211410Y-98680978D01*
X115374761Y-98779323D01*
X115444230Y-98821147D01*
X115542747Y-98862864D01*
X115694482Y-98927116D01*
X115694487Y-98927118D01*
X115698585Y-98928853D01*
X115702882Y-98929992D01*
X115702887Y-98929994D01*
X115832082Y-98964249D01*
X115965579Y-98999645D01*
X116239884Y-99032111D01*
X116516027Y-99025604D01*
X116601587Y-99011363D01*
X116784108Y-98980983D01*
X116784112Y-98980982D01*
X116788498Y-98980252D01*
X116792739Y-98978911D01*
X116792742Y-98978910D01*
X117047615Y-98898304D01*
X117047617Y-98898303D01*
X117051861Y-98896961D01*
X117055872Y-98895035D01*
X117055877Y-98895033D01*
X117296842Y-98779323D01*
X117296843Y-98779322D01*
X117300861Y-98777393D01*
X117304567Y-98774917D01*
X117526821Y-98626412D01*
X117526825Y-98626409D01*
X117530529Y-98623934D01*
X117736283Y-98439645D01*
X117914018Y-98228203D01*
X118060188Y-97993828D01*
X118171875Y-97741196D01*
X118246853Y-97475347D01*
X118270705Y-97297763D01*
X118283196Y-97204768D01*
X118283197Y-97204761D01*
X118283623Y-97201586D01*
X118287482Y-97078800D01*
X118283133Y-97017377D01*
X139777483Y-97017377D01*
X139788327Y-97293383D01*
X139837953Y-97565109D01*
X139925370Y-97827131D01*
X139927363Y-97831119D01*
X140010550Y-97997602D01*
X140048834Y-98074221D01*
X140205882Y-98301451D01*
X140393380Y-98504285D01*
X140396834Y-98507097D01*
X140604131Y-98675863D01*
X140604135Y-98675866D01*
X140607588Y-98678677D01*
X140611410Y-98680978D01*
X140774761Y-98779323D01*
X140844230Y-98821147D01*
X140942747Y-98862864D01*
X141094482Y-98927116D01*
X141094487Y-98927118D01*
X141098585Y-98928853D01*
X141102882Y-98929992D01*
X141102887Y-98929994D01*
X141232082Y-98964249D01*
X141365579Y-98999645D01*
X141639884Y-99032111D01*
X141916027Y-99025604D01*
X142001587Y-99011363D01*
X142184108Y-98980983D01*
X142184112Y-98980982D01*
X142188498Y-98980252D01*
X142192739Y-98978911D01*
X142192742Y-98978910D01*
X142447615Y-98898304D01*
X142447617Y-98898303D01*
X142451861Y-98896961D01*
X142455872Y-98895035D01*
X142455877Y-98895033D01*
X142696842Y-98779323D01*
X142696843Y-98779322D01*
X142700861Y-98777393D01*
X142704567Y-98774917D01*
X142926821Y-98626412D01*
X142926825Y-98626409D01*
X142930529Y-98623934D01*
X143136283Y-98439645D01*
X143314018Y-98228203D01*
X143460188Y-97993828D01*
X143571875Y-97741196D01*
X143646853Y-97475347D01*
X143670705Y-97297763D01*
X143683196Y-97204768D01*
X143683197Y-97204761D01*
X143683623Y-97201586D01*
X143687482Y-97078800D01*
X143667973Y-96803270D01*
X143654911Y-96742596D01*
X143610773Y-96537585D01*
X143610773Y-96537583D01*
X143609837Y-96533238D01*
X143514233Y-96274091D01*
X143383068Y-96031000D01*
X143218960Y-95808816D01*
X143025183Y-95611971D01*
X143021644Y-95609270D01*
X143021637Y-95609264D01*
X142932743Y-95541423D01*
X142890726Y-95484195D01*
X142883185Y-95441260D01*
X142883185Y-87985600D01*
X147352057Y-87985600D01*
X147352327Y-87989719D01*
X147369886Y-88257611D01*
X147372209Y-88293060D01*
X147373013Y-88297100D01*
X147373013Y-88297103D01*
X147430184Y-88584519D01*
X147432320Y-88595259D01*
X147433645Y-88599163D01*
X147433646Y-88599166D01*
X147484621Y-88749334D01*
X147531362Y-88887027D01*
X147536927Y-88898311D01*
X147641800Y-89110972D01*
X147667640Y-89163371D01*
X147838822Y-89419564D01*
X147841536Y-89422658D01*
X147841540Y-89422664D01*
X148011331Y-89616272D01*
X148041980Y-89651220D01*
X148045069Y-89653929D01*
X148270536Y-89851660D01*
X148270542Y-89851664D01*
X148273636Y-89854378D01*
X148529829Y-90025560D01*
X148533528Y-90027384D01*
X148533533Y-90027387D01*
X148675562Y-90097428D01*
X148806173Y-90161838D01*
X148810078Y-90163164D01*
X148810079Y-90163164D01*
X149094034Y-90259554D01*
X149094037Y-90259555D01*
X149097941Y-90260880D01*
X149101980Y-90261683D01*
X149101986Y-90261685D01*
X149396097Y-90320187D01*
X149396100Y-90320187D01*
X149400140Y-90320991D01*
X149404251Y-90321260D01*
X149404255Y-90321261D01*
X149628610Y-90335966D01*
X149628619Y-90335966D01*
X149630659Y-90336100D01*
X149784541Y-90336100D01*
X149786581Y-90335966D01*
X149786590Y-90335966D01*
X150010945Y-90321261D01*
X150010949Y-90321260D01*
X150015060Y-90320991D01*
X150019100Y-90320187D01*
X150019103Y-90320187D01*
X150313214Y-90261685D01*
X150313220Y-90261683D01*
X150317259Y-90260880D01*
X150321163Y-90259555D01*
X150321166Y-90259554D01*
X150605121Y-90163164D01*
X150605122Y-90163164D01*
X150609027Y-90161838D01*
X150739638Y-90097428D01*
X150881667Y-90027387D01*
X150881672Y-90027384D01*
X150885371Y-90025560D01*
X151141564Y-89854378D01*
X151144658Y-89851664D01*
X151144664Y-89851660D01*
X151370131Y-89653929D01*
X151373220Y-89651220D01*
X151403869Y-89616272D01*
X151573660Y-89422664D01*
X151573664Y-89422658D01*
X151576378Y-89419564D01*
X151585718Y-89405587D01*
X151736115Y-89180500D01*
X151747560Y-89163372D01*
X151770370Y-89117119D01*
X151878273Y-88898311D01*
X151883838Y-88887027D01*
X151930579Y-88749334D01*
X151981554Y-88599166D01*
X151981555Y-88599163D01*
X151982880Y-88595259D01*
X151985017Y-88584519D01*
X152042187Y-88297103D01*
X152042187Y-88297100D01*
X152042991Y-88293060D01*
X152045315Y-88257611D01*
X152062873Y-87989719D01*
X152063143Y-87985600D01*
X152057482Y-87899234D01*
X152043261Y-87682255D01*
X152043260Y-87682251D01*
X152042991Y-87678140D01*
X152041054Y-87668400D01*
X151983685Y-87379986D01*
X151983683Y-87379980D01*
X151982880Y-87375941D01*
X151959612Y-87307394D01*
X151885164Y-87088079D01*
X151885164Y-87088078D01*
X151883838Y-87084173D01*
X151797523Y-86909144D01*
X151749387Y-86811533D01*
X151749384Y-86811528D01*
X151747560Y-86807829D01*
X151576378Y-86551636D01*
X151573664Y-86548542D01*
X151573660Y-86548536D01*
X151375929Y-86323069D01*
X151373220Y-86319980D01*
X151279551Y-86237834D01*
X151144664Y-86119540D01*
X151144658Y-86119536D01*
X151141564Y-86116822D01*
X150885371Y-85945640D01*
X150881672Y-85943816D01*
X150881667Y-85943813D01*
X150674701Y-85841749D01*
X150609027Y-85809362D01*
X150605121Y-85808036D01*
X150321166Y-85711646D01*
X150321163Y-85711645D01*
X150317259Y-85710320D01*
X150313220Y-85709517D01*
X150313214Y-85709515D01*
X150019103Y-85651013D01*
X150019100Y-85651013D01*
X150015060Y-85650209D01*
X150010949Y-85649940D01*
X150010945Y-85649939D01*
X149786590Y-85635234D01*
X149786581Y-85635234D01*
X149784541Y-85635100D01*
X149630659Y-85635100D01*
X149628619Y-85635234D01*
X149628610Y-85635234D01*
X149404255Y-85649939D01*
X149404251Y-85649940D01*
X149400140Y-85650209D01*
X149396100Y-85651013D01*
X149396097Y-85651013D01*
X149101986Y-85709515D01*
X149101980Y-85709517D01*
X149097941Y-85710320D01*
X149094037Y-85711645D01*
X149094034Y-85711646D01*
X148810079Y-85808036D01*
X148806173Y-85809362D01*
X148740499Y-85841749D01*
X148533533Y-85943813D01*
X148533528Y-85943816D01*
X148529829Y-85945640D01*
X148273636Y-86116822D01*
X148270542Y-86119536D01*
X148270536Y-86119540D01*
X148135649Y-86237834D01*
X148041980Y-86319980D01*
X148039271Y-86323069D01*
X147841540Y-86548536D01*
X147841536Y-86548542D01*
X147838822Y-86551636D01*
X147836533Y-86555062D01*
X147836529Y-86555067D01*
X147732129Y-86711313D01*
X147667640Y-86807828D01*
X147665816Y-86811527D01*
X147665813Y-86811532D01*
X147616608Y-86911310D01*
X147531362Y-87084173D01*
X147530036Y-87088078D01*
X147530036Y-87088079D01*
X147455589Y-87307394D01*
X147432320Y-87375941D01*
X147431517Y-87379980D01*
X147431515Y-87379986D01*
X147374146Y-87668400D01*
X147372209Y-87678140D01*
X147371940Y-87682251D01*
X147371939Y-87682255D01*
X147357718Y-87899234D01*
X147352057Y-87985600D01*
X142883185Y-87985600D01*
X142883185Y-85757264D01*
X142903187Y-85689143D01*
X142942878Y-85650123D01*
X143047275Y-85585520D01*
X143096717Y-85543664D01*
X143247960Y-85415628D01*
X143247961Y-85415627D01*
X143251526Y-85412609D01*
X143299600Y-85357791D01*
X143424894Y-85214922D01*
X143424898Y-85214917D01*
X143427976Y-85211407D01*
X143461045Y-85159995D01*
X143570219Y-84990265D01*
X143570222Y-84990260D01*
X143572747Y-84986334D01*
X143682661Y-84742334D01*
X143719500Y-84611713D01*
X143754032Y-84489273D01*
X143754033Y-84489270D01*
X143755302Y-84484769D01*
X143773103Y-84344841D01*
X143788677Y-84222425D01*
X143788677Y-84222421D01*
X143789075Y-84219295D01*
X143789229Y-84213434D01*
X143791466Y-84127960D01*
X143791549Y-84124800D01*
X143784039Y-84023739D01*
X143772064Y-83862588D01*
X143772063Y-83862584D01*
X143771717Y-83857923D01*
X143770147Y-83850982D01*
X143725693Y-83654527D01*
X143712655Y-83596909D01*
X143707797Y-83584416D01*
X143617355Y-83351844D01*
X143617354Y-83351842D01*
X143615662Y-83347491D01*
X143482868Y-83115150D01*
X143317190Y-82904989D01*
X143122269Y-82721625D01*
X142902385Y-82569086D01*
X142882819Y-82559437D01*
X142666559Y-82452789D01*
X142666556Y-82452788D01*
X142662371Y-82450724D01*
X142655777Y-82448613D01*
X142411942Y-82370561D01*
X142411944Y-82370561D01*
X142407497Y-82369138D01*
X142148989Y-82327038D01*
X142147976Y-82326873D01*
X142147975Y-82326873D01*
X142143364Y-82326122D01*
X142009569Y-82324370D01*
X141880451Y-82322680D01*
X141880448Y-82322680D01*
X141875774Y-82322619D01*
X141610605Y-82358707D01*
X141606118Y-82360015D01*
X141606117Y-82360015D01*
X141574817Y-82369138D01*
X141353683Y-82433592D01*
X141349430Y-82435552D01*
X141349429Y-82435553D01*
X141297512Y-82459487D01*
X141110652Y-82545631D01*
X141078030Y-82567019D01*
X140890764Y-82689796D01*
X140890759Y-82689800D01*
X140886851Y-82692362D01*
X140832943Y-82740477D01*
X140696546Y-82862216D01*
X140687197Y-82870560D01*
X140516075Y-83076312D01*
X140513652Y-83080305D01*
X140389729Y-83284524D01*
X140377244Y-83305098D01*
X140375437Y-83309406D01*
X140375437Y-83309407D01*
X140286421Y-83521687D01*
X140273755Y-83551891D01*
X140272604Y-83556423D01*
X140272603Y-83556426D01*
X140216452Y-83777522D01*
X140207881Y-83811270D01*
X140181070Y-84077536D01*
X140181294Y-84082203D01*
X140181294Y-84082208D01*
X140184508Y-84149114D01*
X140193909Y-84344841D01*
X140246118Y-84607312D01*
X140336549Y-84859183D01*
X140347410Y-84879396D01*
X140426506Y-85026601D01*
X140463215Y-85094921D01*
X140466010Y-85098664D01*
X140466012Y-85098667D01*
X140603213Y-85282401D01*
X140623335Y-85309347D01*
X140626642Y-85312625D01*
X140626647Y-85312631D01*
X140737494Y-85422514D01*
X140813390Y-85497750D01*
X140817156Y-85500512D01*
X140817158Y-85500513D01*
X141025432Y-85653226D01*
X141025436Y-85653229D01*
X141029205Y-85655992D01*
X141030207Y-85656519D01*
X141076756Y-85708884D01*
X141088815Y-85762675D01*
X141088815Y-95147994D01*
X141068813Y-95216115D01*
X141015157Y-95262608D01*
X141004564Y-95266876D01*
X140955384Y-95284147D01*
X140951433Y-95286199D01*
X140951427Y-95286202D01*
X140817501Y-95355772D01*
X140710263Y-95411478D01*
X140706648Y-95414061D01*
X140706642Y-95414065D01*
X140489150Y-95569487D01*
X140489146Y-95569490D01*
X140485529Y-95572075D01*
X140285665Y-95762736D01*
X140114659Y-95979656D01*
X140049294Y-96092191D01*
X139978161Y-96214653D01*
X139978158Y-96214659D01*
X139975923Y-96218507D01*
X139872226Y-96474523D01*
X139871155Y-96478836D01*
X139871153Y-96478841D01*
X139857641Y-96533238D01*
X139805636Y-96742596D01*
X139805182Y-96747024D01*
X139805182Y-96747026D01*
X139798963Y-96807722D01*
X139777483Y-97017377D01*
X118283133Y-97017377D01*
X118267973Y-96803270D01*
X118254911Y-96742596D01*
X118210773Y-96537585D01*
X118210773Y-96537583D01*
X118209837Y-96533238D01*
X118114233Y-96274091D01*
X117983068Y-96031000D01*
X117818960Y-95808816D01*
X117625183Y-95611971D01*
X117431143Y-95463884D01*
X117389126Y-95406657D01*
X117381585Y-95363722D01*
X117381585Y-87641586D01*
X117401587Y-87573465D01*
X117455243Y-87526972D01*
X117525517Y-87516868D01*
X117590097Y-87546362D01*
X117596680Y-87552491D01*
X118230444Y-88186255D01*
X118243285Y-88201289D01*
X118247500Y-88207091D01*
X118247501Y-88207092D01*
X118251384Y-88212436D01*
X118256294Y-88216857D01*
X118256295Y-88216858D01*
X118301556Y-88257611D01*
X118306341Y-88262152D01*
X118320637Y-88276448D01*
X118323202Y-88278525D01*
X118336359Y-88289179D01*
X118341345Y-88293437D01*
X118391538Y-88338631D01*
X118397256Y-88341933D01*
X118397261Y-88341936D01*
X118403472Y-88345522D01*
X118419754Y-88356711D01*
X118430462Y-88365382D01*
X118490634Y-88396042D01*
X118496388Y-88399166D01*
X118554867Y-88432929D01*
X118561147Y-88434970D01*
X118561148Y-88434970D01*
X118567968Y-88437186D01*
X118586227Y-88444750D01*
X118592616Y-88448005D01*
X118592620Y-88448007D01*
X118598501Y-88451003D01*
X118604872Y-88452710D01*
X118604877Y-88452712D01*
X118663716Y-88468477D01*
X118670024Y-88470346D01*
X118734232Y-88491208D01*
X118747925Y-88492647D01*
X118767366Y-88496250D01*
X118780671Y-88499815D01*
X118787261Y-88500160D01*
X118787265Y-88500161D01*
X118848077Y-88503348D01*
X118854652Y-88503865D01*
X118858793Y-88504300D01*
X118874776Y-88505980D01*
X118895004Y-88505980D01*
X118901599Y-88506153D01*
X118962417Y-88509341D01*
X118962421Y-88509341D01*
X118969008Y-88509686D01*
X118982615Y-88507531D01*
X119002325Y-88505980D01*
X126078174Y-88505980D01*
X126097886Y-88507531D01*
X126111491Y-88509686D01*
X126118078Y-88509341D01*
X126118082Y-88509341D01*
X126178900Y-88506153D01*
X126185495Y-88505980D01*
X126205724Y-88505980D01*
X126221707Y-88504300D01*
X126225848Y-88503865D01*
X126232423Y-88503348D01*
X126293235Y-88500161D01*
X126293239Y-88500160D01*
X126299829Y-88499815D01*
X126313134Y-88496250D01*
X126332575Y-88492647D01*
X126333573Y-88492542D01*
X126339697Y-88491899D01*
X126339700Y-88491898D01*
X126346268Y-88491208D01*
X126352550Y-88489167D01*
X126352554Y-88489166D01*
X126410467Y-88470349D01*
X126416792Y-88468475D01*
X126475620Y-88452712D01*
X126481998Y-88451003D01*
X126487882Y-88448005D01*
X126487885Y-88448004D01*
X126494267Y-88444752D01*
X126512534Y-88437185D01*
X126525633Y-88432929D01*
X126584095Y-88399176D01*
X126589890Y-88396030D01*
X126644153Y-88368381D01*
X126644158Y-88368378D01*
X126650038Y-88365382D01*
X126660746Y-88356711D01*
X126677028Y-88345522D01*
X126683239Y-88341936D01*
X126683244Y-88341933D01*
X126688962Y-88338631D01*
X126739155Y-88293437D01*
X126744141Y-88289179D01*
X126757298Y-88278525D01*
X126759863Y-88276448D01*
X126774159Y-88262152D01*
X126778944Y-88257611D01*
X126824205Y-88216858D01*
X126824206Y-88216857D01*
X126829116Y-88212436D01*
X126833000Y-88207091D01*
X126837214Y-88201290D01*
X126850055Y-88186256D01*
X126910905Y-88125406D01*
X126973217Y-88091380D01*
X127044032Y-88096445D01*
X127089095Y-88125406D01*
X127171149Y-88207460D01*
X127183990Y-88222494D01*
X127188205Y-88228296D01*
X127188209Y-88228300D01*
X127192089Y-88233641D01*
X127196999Y-88238062D01*
X127197000Y-88238063D01*
X127242261Y-88278816D01*
X127247046Y-88283357D01*
X127261342Y-88297653D01*
X127263907Y-88299730D01*
X127277064Y-88310384D01*
X127282050Y-88314642D01*
X127332243Y-88359836D01*
X127337961Y-88363138D01*
X127337966Y-88363141D01*
X127344177Y-88366727D01*
X127360459Y-88377916D01*
X127371167Y-88386587D01*
X127431339Y-88417247D01*
X127437093Y-88420371D01*
X127495572Y-88454134D01*
X127501852Y-88456175D01*
X127501853Y-88456175D01*
X127508673Y-88458391D01*
X127526932Y-88465955D01*
X127533321Y-88469210D01*
X127533325Y-88469212D01*
X127539206Y-88472208D01*
X127545577Y-88473915D01*
X127545582Y-88473917D01*
X127604421Y-88489682D01*
X127610729Y-88491551D01*
X127674937Y-88512413D01*
X127688630Y-88513852D01*
X127708071Y-88517455D01*
X127721376Y-88521020D01*
X127727966Y-88521365D01*
X127727970Y-88521366D01*
X127788782Y-88524553D01*
X127795357Y-88525070D01*
X127799498Y-88525505D01*
X127815481Y-88527185D01*
X127835709Y-88527185D01*
X127842304Y-88527358D01*
X127903122Y-88530546D01*
X127903126Y-88530546D01*
X127909713Y-88530891D01*
X127923320Y-88528736D01*
X127943030Y-88527185D01*
X130430440Y-88527185D01*
X130498561Y-88547187D01*
X130545054Y-88600843D01*
X130549964Y-88613309D01*
X130595744Y-88750529D01*
X130687834Y-88899345D01*
X130811689Y-89022984D01*
X130960666Y-89114814D01*
X130967614Y-89117119D01*
X130967615Y-89117119D01*
X131120241Y-89167744D01*
X131120243Y-89167745D01*
X131126772Y-89169910D01*
X131230134Y-89180500D01*
X132929866Y-89180500D01*
X132933112Y-89180163D01*
X132933116Y-89180163D01*
X133027661Y-89170353D01*
X133027665Y-89170352D01*
X133034519Y-89169641D01*
X133041055Y-89167460D01*
X133041057Y-89167460D01*
X133193581Y-89116574D01*
X133200529Y-89114256D01*
X133349345Y-89022166D01*
X133472984Y-88898311D01*
X133564814Y-88749334D01*
X133575733Y-88716416D01*
X133617744Y-88589759D01*
X133617745Y-88589757D01*
X133619910Y-88583228D01*
X133630500Y-88479866D01*
X133630500Y-86780134D01*
X133630163Y-86776884D01*
X133620353Y-86682339D01*
X133620352Y-86682335D01*
X133619641Y-86675481D01*
X133607121Y-86637952D01*
X133566574Y-86516419D01*
X133564256Y-86509471D01*
X133472166Y-86360655D01*
X133348311Y-86237016D01*
X133337348Y-86230258D01*
X133271319Y-86189558D01*
X133199334Y-86145186D01*
X133192385Y-86142881D01*
X133039759Y-86092256D01*
X133039757Y-86092255D01*
X133033228Y-86090090D01*
X132929866Y-86079500D01*
X131230134Y-86079500D01*
X131226888Y-86079837D01*
X131226884Y-86079837D01*
X131132339Y-86089647D01*
X131132335Y-86089648D01*
X131125481Y-86090359D01*
X131118945Y-86092540D01*
X131118943Y-86092540D01*
X131017048Y-86126535D01*
X130959471Y-86145744D01*
X130810655Y-86237834D01*
X130687016Y-86361689D01*
X130683176Y-86367919D01*
X130683175Y-86367920D01*
X130666718Y-86394618D01*
X130595186Y-86510666D01*
X130592881Y-86517614D01*
X130592881Y-86517615D01*
X130586047Y-86538220D01*
X130552967Y-86637952D01*
X130550137Y-86646483D01*
X130509706Y-86704842D01*
X130444142Y-86732079D01*
X130430544Y-86732815D01*
X128351499Y-86732815D01*
X128283378Y-86712813D01*
X128236885Y-86659157D01*
X128225499Y-86606815D01*
X128225499Y-86410412D01*
X128214900Y-86291638D01*
X128162809Y-86109975D01*
X128161336Y-86104837D01*
X128161336Y-86104836D01*
X128159575Y-86098696D01*
X128156208Y-86092256D01*
X128069541Y-85926478D01*
X128066583Y-85920820D01*
X127939724Y-85765276D01*
X127784180Y-85638417D01*
X127606304Y-85545425D01*
X127449677Y-85500513D01*
X127419124Y-85491752D01*
X127419122Y-85491752D01*
X127413362Y-85490100D01*
X127407390Y-85489567D01*
X127297383Y-85479749D01*
X127297375Y-85479749D01*
X127294589Y-85479500D01*
X127000106Y-85479500D01*
X126705412Y-85479501D01*
X126620476Y-85487080D01*
X126592609Y-85489567D01*
X126592607Y-85489567D01*
X126586638Y-85490100D01*
X126393696Y-85545425D01*
X126215820Y-85638417D01*
X126060276Y-85765276D01*
X125933417Y-85920820D01*
X125930459Y-85926478D01*
X125843792Y-86092256D01*
X125840425Y-86098696D01*
X125838664Y-86104836D01*
X125838664Y-86104837D01*
X125800763Y-86237016D01*
X125785100Y-86291638D01*
X125784567Y-86297609D01*
X125784567Y-86297610D01*
X125775623Y-86397832D01*
X125774500Y-86410411D01*
X125774500Y-86585610D01*
X125754498Y-86653731D01*
X125700842Y-86700224D01*
X125648500Y-86711610D01*
X122784040Y-86711610D01*
X122715919Y-86691608D01*
X122669426Y-86637952D01*
X122659322Y-86567678D01*
X122688816Y-86503098D01*
X122695178Y-86496282D01*
X122699287Y-86492195D01*
X122857357Y-86334950D01*
X122974833Y-86175900D01*
X123008450Y-86130386D01*
X123008452Y-86130383D01*
X123011294Y-86126535D01*
X123014975Y-86119540D01*
X123129709Y-85901466D01*
X123129709Y-85901465D01*
X123131936Y-85897233D01*
X123133495Y-85892717D01*
X123133498Y-85892711D01*
X123188262Y-85734113D01*
X123216505Y-85652322D01*
X123248022Y-85479749D01*
X123262330Y-85401408D01*
X123262331Y-85401402D01*
X123263055Y-85397436D01*
X123267158Y-85319152D01*
X123267313Y-85316199D01*
X123267313Y-85316183D01*
X123267400Y-85314531D01*
X123267400Y-85058013D01*
X123265137Y-85028269D01*
X123253122Y-84870312D01*
X123253121Y-84870307D01*
X123252759Y-84865545D01*
X123251285Y-84859183D01*
X123195335Y-84617799D01*
X123194254Y-84613135D01*
X123098242Y-84372479D01*
X123013978Y-84229141D01*
X122969360Y-84153242D01*
X122969358Y-84153239D01*
X122966933Y-84149114D01*
X122803348Y-83948182D01*
X122611253Y-83774306D01*
X122593914Y-83762851D01*
X122399060Y-83634125D01*
X122395067Y-83631487D01*
X122390727Y-83629486D01*
X122390723Y-83629484D01*
X122164117Y-83525017D01*
X122164114Y-83525016D01*
X122159765Y-83523011D01*
X122155163Y-83521687D01*
X121915356Y-83452697D01*
X121915352Y-83452696D01*
X121910763Y-83451376D01*
X121906028Y-83450765D01*
X121906022Y-83450764D01*
X121658527Y-83418840D01*
X121653790Y-83418229D01*
X121517050Y-83421451D01*
X121399540Y-83424220D01*
X121399535Y-83424221D01*
X121394761Y-83424333D01*
X121267198Y-83446941D01*
X121144339Y-83468714D01*
X121144335Y-83468715D01*
X121139635Y-83469548D01*
X121135108Y-83471085D01*
X121135107Y-83471085D01*
X121089443Y-83486586D01*
X120894283Y-83552834D01*
X120890042Y-83555037D01*
X120668605Y-83670064D01*
X120668602Y-83670066D01*
X120664353Y-83672273D01*
X120660485Y-83675099D01*
X120660483Y-83675100D01*
X120623586Y-83702055D01*
X120455135Y-83825117D01*
X120451746Y-83828488D01*
X120451744Y-83828490D01*
X120274836Y-84004474D01*
X120274832Y-84004479D01*
X120271443Y-84007850D01*
X120117506Y-84216265D01*
X120115280Y-84220495D01*
X120115278Y-84220499D01*
X120005540Y-84429077D01*
X119996864Y-84445567D01*
X119995305Y-84450083D01*
X119995302Y-84450089D01*
X119958587Y-84556416D01*
X119912295Y-84690478D01*
X119904754Y-84731769D01*
X119882289Y-84854779D01*
X119865745Y-84945364D01*
X119861400Y-85028269D01*
X119861400Y-85284787D01*
X119861581Y-85287166D01*
X119861581Y-85287167D01*
X119871630Y-85419264D01*
X119876041Y-85477255D01*
X119877120Y-85481909D01*
X119877120Y-85481911D01*
X119899898Y-85580182D01*
X119934546Y-85729665D01*
X120030558Y-85970321D01*
X120032986Y-85974451D01*
X120151411Y-86175899D01*
X120161867Y-86193686D01*
X120325452Y-86394618D01*
X120345999Y-86413216D01*
X120433253Y-86492195D01*
X120470335Y-86552738D01*
X120468797Y-86623718D01*
X120429129Y-86682599D01*
X120363924Y-86710687D01*
X120348698Y-86711610D01*
X119345611Y-86711610D01*
X119277490Y-86691608D01*
X119256516Y-86674705D01*
X118224305Y-85642494D01*
X118190279Y-85580182D01*
X118187400Y-85553399D01*
X118187400Y-84121534D01*
X118185514Y-84103353D01*
X118177253Y-84023739D01*
X118177252Y-84023735D01*
X118176541Y-84016881D01*
X118167812Y-83990715D01*
X118123474Y-83857819D01*
X118121156Y-83850871D01*
X118029066Y-83702055D01*
X117905211Y-83578416D01*
X117756234Y-83486586D01*
X117654064Y-83452697D01*
X117596659Y-83433656D01*
X117596657Y-83433655D01*
X117590128Y-83431490D01*
X117486766Y-83420900D01*
X115482034Y-83420900D01*
X115478788Y-83421237D01*
X115478784Y-83421237D01*
X115384239Y-83431047D01*
X115384235Y-83431048D01*
X115377381Y-83431759D01*
X115370845Y-83433940D01*
X115370843Y-83433940D01*
X115240679Y-83477366D01*
X115211371Y-83487144D01*
X115062555Y-83579234D01*
X115057382Y-83584416D01*
X115036244Y-83605591D01*
X114938916Y-83703089D01*
X114847086Y-83852066D01*
X114844781Y-83859014D01*
X114844781Y-83859015D01*
X114795414Y-84007850D01*
X114791990Y-84018172D01*
X114781400Y-84121534D01*
X114781400Y-86221266D01*
X114781737Y-86224512D01*
X114781737Y-86224516D01*
X114791362Y-86317271D01*
X114792259Y-86325919D01*
X114794440Y-86332455D01*
X114794440Y-86332457D01*
X114820448Y-86410412D01*
X114847644Y-86491929D01*
X114939734Y-86640745D01*
X115063589Y-86764384D01*
X115212566Y-86856214D01*
X115219514Y-86858519D01*
X115219515Y-86858519D01*
X115372141Y-86909144D01*
X115372143Y-86909145D01*
X115378672Y-86911310D01*
X115432108Y-86916785D01*
X115474058Y-86921083D01*
X115539785Y-86947924D01*
X115580567Y-87006039D01*
X115587215Y-87046427D01*
X115587215Y-89657650D01*
X115567213Y-89725771D01*
X115513557Y-89772264D01*
X115443283Y-89782368D01*
X115375686Y-89750175D01*
X115307622Y-89687257D01*
X115307620Y-89687255D01*
X115303381Y-89683337D01*
X115197090Y-89616272D01*
X115129434Y-89573584D01*
X115129433Y-89573584D01*
X115124554Y-89570505D01*
X114928160Y-89492152D01*
X114922503Y-89491027D01*
X114922497Y-89491025D01*
X114726442Y-89452028D01*
X114726440Y-89452028D01*
X114720775Y-89450901D01*
X114715000Y-89450825D01*
X114714996Y-89450825D01*
X114608976Y-89449437D01*
X114509346Y-89448133D01*
X114503649Y-89449112D01*
X114503648Y-89449112D01*
X114306650Y-89482962D01*
X114306649Y-89482962D01*
X114300953Y-89483941D01*
X114272896Y-89494292D01*
X114107990Y-89555129D01*
X114107987Y-89555130D01*
X114102575Y-89557127D01*
X114096543Y-89560716D01*
X114088646Y-89565414D01*
X114019876Y-89583055D01*
X113952485Y-89560716D01*
X113944585Y-89554773D01*
X113819127Y-89452451D01*
X113819123Y-89452448D01*
X113814180Y-89448417D01*
X113764920Y-89422664D01*
X113641966Y-89358385D01*
X113636304Y-89355425D01*
X113630163Y-89353664D01*
X113449124Y-89301752D01*
X113449122Y-89301752D01*
X113443362Y-89300100D01*
X113437390Y-89299567D01*
X113327383Y-89289749D01*
X113327375Y-89289749D01*
X113324589Y-89289500D01*
X113030106Y-89289500D01*
X112735412Y-89289501D01*
X112650476Y-89297080D01*
X112622609Y-89299567D01*
X112622607Y-89299567D01*
X112616638Y-89300100D01*
X112423696Y-89355425D01*
X112418034Y-89358385D01*
X112295081Y-89422664D01*
X112245820Y-89448417D01*
X112090276Y-89575276D01*
X111963417Y-89730820D01*
X111960459Y-89736478D01*
X111873385Y-89903034D01*
X111870425Y-89908696D01*
X111815100Y-90101638D01*
X111814567Y-90107610D01*
X111805028Y-90214500D01*
X111804500Y-90220411D01*
X93030624Y-90220411D01*
X92967183Y-90214749D01*
X92967175Y-90214749D01*
X92964389Y-90214500D01*
X92607428Y-90214500D01*
X92250212Y-90214501D01*
X92165276Y-90222080D01*
X92137409Y-90224567D01*
X92137407Y-90224567D01*
X92131438Y-90225100D01*
X91938496Y-90280425D01*
X91803173Y-90351171D01*
X91733540Y-90365004D01*
X91686428Y-90351171D01*
X91551104Y-90280425D01*
X91485750Y-90261685D01*
X91363924Y-90226752D01*
X91363922Y-90226752D01*
X91358162Y-90225100D01*
X91352190Y-90224567D01*
X91242183Y-90214749D01*
X91242175Y-90214749D01*
X91239389Y-90214500D01*
X90882428Y-90214500D01*
X90525212Y-90214501D01*
X90440276Y-90222080D01*
X90412409Y-90224567D01*
X90412407Y-90224567D01*
X90406438Y-90225100D01*
X90213496Y-90280425D01*
X90212799Y-90277996D01*
X90153276Y-90283649D01*
X90090188Y-90251084D01*
X90054722Y-90189581D01*
X90051185Y-90159938D01*
X90051185Y-90147342D01*
X90071187Y-90079221D01*
X90088090Y-90058247D01*
X90088784Y-90057553D01*
X90093724Y-90053524D01*
X90220583Y-89897980D01*
X90310559Y-89725874D01*
X90310615Y-89725766D01*
X90313575Y-89720104D01*
X90357085Y-89568366D01*
X90367248Y-89532924D01*
X90367248Y-89532922D01*
X90368900Y-89527162D01*
X90371834Y-89494292D01*
X90379251Y-89411183D01*
X90379251Y-89411175D01*
X90379500Y-89408389D01*
X90379499Y-88719212D01*
X90368900Y-88600438D01*
X90325191Y-88448005D01*
X90315336Y-88413637D01*
X90315336Y-88413636D01*
X90313575Y-88407496D01*
X90229761Y-88247176D01*
X90215926Y-88177540D01*
X90229761Y-88130424D01*
X90310615Y-87975766D01*
X90313575Y-87970104D01*
X90358827Y-87812290D01*
X90367248Y-87782924D01*
X90367248Y-87782922D01*
X90368900Y-87777162D01*
X90373757Y-87722743D01*
X90379251Y-87661183D01*
X90379251Y-87661175D01*
X90379500Y-87658389D01*
X90379499Y-86969212D01*
X90368900Y-86850438D01*
X90313575Y-86657496D01*
X90220583Y-86479620D01*
X90093724Y-86324076D01*
X90088784Y-86320047D01*
X90088090Y-86319353D01*
X90054064Y-86257041D01*
X90051185Y-86230258D01*
X90051185Y-85981742D01*
X90071187Y-85913621D01*
X90088090Y-85892647D01*
X90088784Y-85891953D01*
X90093724Y-85887924D01*
X90220583Y-85732380D01*
X90313575Y-85554504D01*
X90329849Y-85497750D01*
X90367248Y-85367324D01*
X90367248Y-85367322D01*
X90368900Y-85361562D01*
X90372800Y-85317861D01*
X90379251Y-85245583D01*
X90379251Y-85245575D01*
X90379500Y-85242789D01*
X90379499Y-84553612D01*
X90370261Y-84450089D01*
X90369433Y-84440809D01*
X90369433Y-84440807D01*
X90368900Y-84434838D01*
X90313575Y-84241896D01*
X90307230Y-84229759D01*
X90293396Y-84160124D01*
X90319406Y-84094064D01*
X90377002Y-84052552D01*
X90418892Y-84045385D01*
X91909855Y-84045385D01*
X91977976Y-84065387D01*
X92007498Y-84091749D01*
X92013676Y-84099324D01*
X92169220Y-84226183D01*
X92174878Y-84229141D01*
X92341434Y-84316215D01*
X92347096Y-84319175D01*
X92353236Y-84320936D01*
X92353237Y-84320936D01*
X92534276Y-84372848D01*
X92534278Y-84372848D01*
X92540038Y-84374500D01*
X92546010Y-84375033D01*
X92656017Y-84384851D01*
X92656025Y-84384851D01*
X92658811Y-84385100D01*
X92920399Y-84385100D01*
X92988520Y-84405102D01*
X93009494Y-84422005D01*
X95437329Y-86849840D01*
X95450170Y-86864874D01*
X95454385Y-86870676D01*
X95454389Y-86870680D01*
X95458269Y-86876021D01*
X95508316Y-86921083D01*
X95508441Y-86921196D01*
X95513226Y-86925737D01*
X95527522Y-86940033D01*
X95530081Y-86942105D01*
X95530084Y-86942108D01*
X95543247Y-86952767D01*
X95548262Y-86957051D01*
X95598423Y-87002216D01*
X95604138Y-87005516D01*
X95604144Y-87005520D01*
X95610349Y-87009102D01*
X95626644Y-87020301D01*
X95637347Y-87028968D01*
X95643227Y-87031964D01*
X95697496Y-87059615D01*
X95703293Y-87062763D01*
X95747142Y-87088079D01*
X95761752Y-87096514D01*
X95774855Y-87100772D01*
X95793116Y-87108336D01*
X95799501Y-87111589D01*
X95805387Y-87114588D01*
X95811763Y-87116297D01*
X95811767Y-87116298D01*
X95870592Y-87132060D01*
X95876917Y-87133933D01*
X95941117Y-87154793D01*
X95947684Y-87155483D01*
X95947692Y-87155485D01*
X95954815Y-87156234D01*
X95974249Y-87159836D01*
X95981174Y-87161691D01*
X95981176Y-87161691D01*
X95987557Y-87163401D01*
X95994148Y-87163746D01*
X95994152Y-87163747D01*
X96054969Y-87166934D01*
X96061545Y-87167451D01*
X96075561Y-87168924D01*
X96081661Y-87169565D01*
X96101884Y-87169565D01*
X96108478Y-87169738D01*
X96169302Y-87172926D01*
X96169306Y-87172926D01*
X96175894Y-87173271D01*
X96182409Y-87172239D01*
X96182411Y-87172239D01*
X96189500Y-87171116D01*
X96209211Y-87169565D01*
X103709640Y-87169565D01*
X103777761Y-87189567D01*
X103824254Y-87243223D01*
X103829164Y-87255689D01*
X103874944Y-87392909D01*
X103967034Y-87541725D01*
X104090889Y-87665364D01*
X104097119Y-87669204D01*
X104097120Y-87669205D01*
X104118291Y-87682255D01*
X104239866Y-87757194D01*
X104246814Y-87759499D01*
X104246815Y-87759499D01*
X104399441Y-87810124D01*
X104399443Y-87810125D01*
X104405972Y-87812290D01*
X104509334Y-87822880D01*
X106209066Y-87822880D01*
X106212312Y-87822543D01*
X106212316Y-87822543D01*
X106306861Y-87812733D01*
X106306865Y-87812732D01*
X106313719Y-87812021D01*
X106320255Y-87809840D01*
X106320257Y-87809840D01*
X106472781Y-87758954D01*
X106479729Y-87756636D01*
X106628545Y-87664546D01*
X106752184Y-87540691D01*
X106758308Y-87530757D01*
X106786206Y-87485496D01*
X106844014Y-87391714D01*
X106878939Y-87286420D01*
X106896944Y-87232139D01*
X106896945Y-87232137D01*
X106899110Y-87225608D01*
X106909700Y-87122246D01*
X106909700Y-85422514D01*
X106909363Y-85419264D01*
X106899553Y-85324719D01*
X106899552Y-85324715D01*
X106898841Y-85317861D01*
X106843456Y-85151851D01*
X106751366Y-85003035D01*
X106627511Y-84879396D01*
X106605041Y-84865545D01*
X106587542Y-84854759D01*
X106478534Y-84787566D01*
X106355022Y-84746598D01*
X106318959Y-84734636D01*
X106318957Y-84734635D01*
X106312428Y-84732470D01*
X106209066Y-84721880D01*
X104509334Y-84721880D01*
X104506088Y-84722217D01*
X104506084Y-84722217D01*
X104411539Y-84732027D01*
X104411535Y-84732028D01*
X104404681Y-84732739D01*
X104398145Y-84734920D01*
X104398143Y-84734920D01*
X104389418Y-84737831D01*
X104238671Y-84788124D01*
X104089855Y-84880214D01*
X103966216Y-85004069D01*
X103874386Y-85153046D01*
X103829900Y-85287167D01*
X103829337Y-85288863D01*
X103788906Y-85347222D01*
X103723342Y-85374459D01*
X103709744Y-85375195D01*
X96552496Y-85375195D01*
X96484375Y-85355193D01*
X96463401Y-85338290D01*
X94340805Y-83215694D01*
X94306779Y-83153382D01*
X94303900Y-83126599D01*
X94303899Y-82867816D01*
X94303899Y-82865012D01*
X94293300Y-82746238D01*
X94237975Y-82553296D01*
X94144983Y-82375420D01*
X94018124Y-82219876D01*
X93862580Y-82093017D01*
X93745134Y-82031617D01*
X93690366Y-82002985D01*
X93684704Y-82000025D01*
X93678563Y-81998264D01*
X93497524Y-81946352D01*
X93497522Y-81946352D01*
X93491762Y-81944700D01*
X93485790Y-81944167D01*
X93375783Y-81934349D01*
X93375775Y-81934349D01*
X93372989Y-81934100D01*
X93016028Y-81934100D01*
X92658812Y-81934101D01*
X92574945Y-81941585D01*
X92546009Y-81944167D01*
X92546007Y-81944167D01*
X92540038Y-81944700D01*
X92347096Y-82000025D01*
X92341434Y-82002985D01*
X92286667Y-82031617D01*
X92169220Y-82093017D01*
X92013676Y-82219876D01*
X92012480Y-82218409D01*
X91958041Y-82248136D01*
X91931258Y-82251015D01*
X90229026Y-82251015D01*
X90160905Y-82231013D01*
X90131383Y-82204650D01*
X90097757Y-82163420D01*
X90097753Y-82163416D01*
X90093724Y-82158476D01*
X89938180Y-82031617D01*
X89883413Y-82002985D01*
X89765966Y-81941585D01*
X89760304Y-81938625D01*
X89754163Y-81936864D01*
X89573124Y-81884952D01*
X89573122Y-81884952D01*
X89567362Y-81883300D01*
X89561390Y-81882767D01*
X89451383Y-81872949D01*
X89451375Y-81872949D01*
X89448589Y-81872700D01*
X89154106Y-81872700D01*
X88859412Y-81872701D01*
X88774476Y-81880280D01*
X88746609Y-81882767D01*
X88746607Y-81882767D01*
X88740638Y-81883300D01*
X88734876Y-81884952D01*
X88734877Y-81884952D01*
X88555407Y-81936414D01*
X88547696Y-81938625D01*
X88542034Y-81941585D01*
X88424588Y-82002985D01*
X88369820Y-82031617D01*
X88214276Y-82158476D01*
X88087417Y-82314020D01*
X88084459Y-82319678D01*
X88018518Y-82445811D01*
X87994425Y-82491896D01*
X87992664Y-82498036D01*
X87992664Y-82498037D01*
X87989644Y-82508571D01*
X87939100Y-82684838D01*
X87938567Y-82690810D01*
X87938429Y-82692362D01*
X87928500Y-82803611D01*
X87928501Y-83492788D01*
X87928751Y-83495584D01*
X87938082Y-83600149D01*
X87939100Y-83611562D01*
X87940752Y-83617323D01*
X87981325Y-83758817D01*
X87994425Y-83804504D01*
X88000397Y-83815927D01*
X88000770Y-83816640D01*
X88014604Y-83886276D01*
X87988594Y-83952336D01*
X87930998Y-83993848D01*
X87889108Y-84001015D01*
X87252915Y-84001015D01*
X87184794Y-83981013D01*
X87138301Y-83927357D01*
X87128197Y-83857083D01*
X87155272Y-83795379D01*
X87270149Y-83654527D01*
X87270152Y-83654523D01*
X87274183Y-83649580D01*
X87294059Y-83611562D01*
X87364215Y-83477366D01*
X87367175Y-83471704D01*
X87373004Y-83451376D01*
X87420848Y-83284524D01*
X87420848Y-83284522D01*
X87422500Y-83278762D01*
X87428129Y-83215694D01*
X87432851Y-83162783D01*
X87432851Y-83162775D01*
X87433100Y-83159989D01*
X87433099Y-82445812D01*
X87422500Y-82327038D01*
X87396374Y-82235925D01*
X87368936Y-82140237D01*
X87368936Y-82140236D01*
X87367175Y-82134096D01*
X87313600Y-82031617D01*
X87277141Y-81961878D01*
X87274183Y-81956220D01*
X87147324Y-81800676D01*
X86991780Y-81673817D01*
X86813904Y-81580825D01*
X86807763Y-81579064D01*
X86626724Y-81527152D01*
X86626722Y-81527152D01*
X86620962Y-81525500D01*
X86614990Y-81524967D01*
X86504983Y-81515149D01*
X86504975Y-81515149D01*
X86502189Y-81514900D01*
X86207706Y-81514900D01*
X85913012Y-81514901D01*
X85828076Y-81522480D01*
X85800209Y-81524967D01*
X85800207Y-81524967D01*
X85794238Y-81525500D01*
X85601296Y-81580825D01*
X85423420Y-81673817D01*
X85267876Y-81800676D01*
X85141017Y-81956220D01*
X85138059Y-81961878D01*
X85101600Y-82031617D01*
X85048025Y-82134096D01*
X85046264Y-82140236D01*
X85046264Y-82140237D01*
X85019887Y-82232227D01*
X84992700Y-82327038D01*
X84992167Y-82333009D01*
X84992167Y-82333010D01*
X84988824Y-82370474D01*
X84982100Y-82445811D01*
X84982101Y-83159988D01*
X84992700Y-83278762D01*
X84994352Y-83284523D01*
X85042021Y-83450764D01*
X85048025Y-83471704D01*
X85050985Y-83477366D01*
X85121142Y-83611562D01*
X85141017Y-83649580D01*
X85159525Y-83672273D01*
X85210375Y-83734621D01*
X85237929Y-83800053D01*
X85225734Y-83869994D01*
X85210377Y-83893889D01*
X85183082Y-83927357D01*
X85169222Y-83944351D01*
X85110667Y-83984499D01*
X85071579Y-83990715D01*
X84549621Y-83990715D01*
X84481500Y-83970713D01*
X84451978Y-83944351D01*
X84408153Y-83890616D01*
X84404124Y-83885676D01*
X84248580Y-83758817D01*
X84070704Y-83665825D01*
X83950953Y-83631487D01*
X83883524Y-83612152D01*
X83883522Y-83612152D01*
X83877762Y-83610500D01*
X83871790Y-83609967D01*
X83761783Y-83600149D01*
X83761775Y-83600149D01*
X83758989Y-83599900D01*
X83464506Y-83599900D01*
X83169812Y-83599901D01*
X83084876Y-83607480D01*
X83057009Y-83609967D01*
X83057007Y-83609967D01*
X83051038Y-83610500D01*
X82858096Y-83665825D01*
X82680220Y-83758817D01*
X82524676Y-83885676D01*
X82397817Y-84041220D01*
X82304825Y-84219096D01*
X82303064Y-84225236D01*
X82303064Y-84225237D01*
X82260738Y-84372848D01*
X82249500Y-84412038D01*
X82238900Y-84530811D01*
X82238901Y-85244988D01*
X82249500Y-85363762D01*
X82251152Y-85369523D01*
X82302440Y-85548385D01*
X82304825Y-85556704D01*
X82307785Y-85562366D01*
X82353662Y-85650119D01*
X82397817Y-85734580D01*
X82524676Y-85890124D01*
X82680220Y-86016983D01*
X82685878Y-86019941D01*
X82800448Y-86079837D01*
X82858096Y-86109975D01*
X82864236Y-86111736D01*
X82864237Y-86111736D01*
X83045276Y-86163648D01*
X83045278Y-86163648D01*
X83051038Y-86165300D01*
X83057010Y-86165833D01*
X83167017Y-86175651D01*
X83167025Y-86175651D01*
X83169811Y-86175900D01*
X83464294Y-86175900D01*
X83758988Y-86175899D01*
X83843924Y-86168320D01*
X83871791Y-86165833D01*
X83871793Y-86165833D01*
X83877762Y-86165300D01*
X84070704Y-86109975D01*
X84128352Y-86079837D01*
X84242922Y-86019941D01*
X84248580Y-86016983D01*
X84404124Y-85890124D01*
X84451979Y-85831449D01*
X84510533Y-85791301D01*
X84549621Y-85785085D01*
X85071579Y-85785085D01*
X85139700Y-85805087D01*
X85169221Y-85831448D01*
X85217076Y-85890124D01*
X85372620Y-86016983D01*
X85378278Y-86019941D01*
X85492848Y-86079837D01*
X85550496Y-86109975D01*
X85556636Y-86111736D01*
X85556637Y-86111736D01*
X85737676Y-86163648D01*
X85737678Y-86163648D01*
X85743438Y-86165300D01*
X85749410Y-86165833D01*
X85859417Y-86175651D01*
X85859425Y-86175651D01*
X85862211Y-86175900D01*
X86156694Y-86175900D01*
X86451388Y-86175899D01*
X86536324Y-86168320D01*
X86564191Y-86165833D01*
X86564193Y-86165833D01*
X86570162Y-86165300D01*
X86763104Y-86109975D01*
X86820752Y-86079837D01*
X86935322Y-86019941D01*
X86940980Y-86016983D01*
X87096524Y-85890124D01*
X87102347Y-85882984D01*
X87135978Y-85841749D01*
X87194533Y-85801601D01*
X87233621Y-85795385D01*
X88078974Y-85795385D01*
X88147095Y-85815387D01*
X88176617Y-85841750D01*
X88210243Y-85882980D01*
X88210247Y-85882984D01*
X88214276Y-85887924D01*
X88219216Y-85891953D01*
X88219910Y-85892647D01*
X88253936Y-85954959D01*
X88256815Y-85981742D01*
X88256815Y-86230258D01*
X88236813Y-86298379D01*
X88219910Y-86319353D01*
X88219216Y-86320047D01*
X88214276Y-86324076D01*
X88087417Y-86479620D01*
X87994425Y-86657496D01*
X87992664Y-86663636D01*
X87992664Y-86663637D01*
X87952303Y-86804395D01*
X87939100Y-86850438D01*
X87938567Y-86856409D01*
X87938567Y-86856410D01*
X87929968Y-86952767D01*
X87928500Y-86969211D01*
X87928500Y-87218299D01*
X87908498Y-87286420D01*
X87891595Y-87307394D01*
X87739344Y-87459645D01*
X87724310Y-87472486D01*
X87718508Y-87476701D01*
X87718504Y-87476705D01*
X87713163Y-87480585D01*
X87708742Y-87485495D01*
X87708741Y-87485496D01*
X87667988Y-87530757D01*
X87663447Y-87535542D01*
X87649151Y-87549838D01*
X87647074Y-87552403D01*
X87636420Y-87565560D01*
X87632162Y-87570546D01*
X87586968Y-87620739D01*
X87583666Y-87626457D01*
X87583663Y-87626462D01*
X87580077Y-87632673D01*
X87568888Y-87648955D01*
X87560217Y-87659663D01*
X87557220Y-87665545D01*
X87557218Y-87665548D01*
X87529569Y-87719811D01*
X87526423Y-87725606D01*
X87492670Y-87784068D01*
X87488415Y-87797165D01*
X87480847Y-87815434D01*
X87477595Y-87821816D01*
X87477593Y-87821822D01*
X87474596Y-87827703D01*
X87472887Y-87834081D01*
X87457124Y-87892909D01*
X87455250Y-87899234D01*
X87436433Y-87957147D01*
X87434391Y-87963433D01*
X87433701Y-87970001D01*
X87433700Y-87970004D01*
X87432952Y-87977125D01*
X87429349Y-87996567D01*
X87425784Y-88009872D01*
X87425439Y-88016462D01*
X87425438Y-88016466D01*
X87422251Y-88077278D01*
X87421734Y-88083853D01*
X87419619Y-88103977D01*
X87419619Y-88124206D01*
X87419446Y-88130801D01*
X87416540Y-88186256D01*
X87415913Y-88198210D01*
X87416945Y-88204726D01*
X87418068Y-88211816D01*
X87419619Y-88231527D01*
X87419619Y-91673900D01*
X87399617Y-91742021D01*
X87345961Y-91788514D01*
X87293619Y-91799900D01*
X86513134Y-91799900D01*
X86509888Y-91800237D01*
X86509884Y-91800237D01*
X86483257Y-91803000D01*
X86413435Y-91790135D01*
X86390617Y-91775316D01*
X86296127Y-91698251D01*
X86296123Y-91698248D01*
X86291180Y-91694217D01*
X86252318Y-91673900D01*
X86118966Y-91604185D01*
X86113304Y-91601225D01*
X86107163Y-91599464D01*
X85926124Y-91547552D01*
X85926122Y-91547552D01*
X85920362Y-91545900D01*
X85911992Y-91545153D01*
X85804383Y-91535549D01*
X85804375Y-91535549D01*
X85801589Y-91535300D01*
X85444628Y-91535300D01*
X85087412Y-91535301D01*
X85003579Y-91542782D01*
X84974609Y-91545367D01*
X84974607Y-91545367D01*
X84968638Y-91545900D01*
X84946601Y-91552219D01*
X84793245Y-91596193D01*
X84775696Y-91601225D01*
X84640373Y-91671971D01*
X84570740Y-91685804D01*
X84523628Y-91671971D01*
X84388304Y-91601225D01*
X84382163Y-91599464D01*
X84201124Y-91547552D01*
X84201122Y-91547552D01*
X84195362Y-91545900D01*
X84186992Y-91545153D01*
X84079383Y-91535549D01*
X84079375Y-91535549D01*
X84076589Y-91535300D01*
X83719628Y-91535300D01*
X83362412Y-91535301D01*
X83278579Y-91542782D01*
X83249609Y-91545367D01*
X83249607Y-91545367D01*
X83243638Y-91545900D01*
X83221601Y-91552219D01*
X83068245Y-91596193D01*
X83050696Y-91601225D01*
X82998593Y-91628464D01*
X82991998Y-91631912D01*
X82922362Y-91645746D01*
X82875247Y-91631911D01*
X82704766Y-91542785D01*
X82699104Y-91539825D01*
X82683327Y-91535301D01*
X82511924Y-91486152D01*
X82511922Y-91486152D01*
X82506162Y-91484500D01*
X82500190Y-91483967D01*
X82390183Y-91474149D01*
X82390175Y-91474149D01*
X82387389Y-91473900D01*
X82092906Y-91473900D01*
X81798212Y-91473901D01*
X81713276Y-91481480D01*
X81685409Y-91483967D01*
X81685407Y-91483967D01*
X81679438Y-91484500D01*
X81673676Y-91486152D01*
X81673677Y-91486152D01*
X81502277Y-91535300D01*
X81486496Y-91539825D01*
X81384337Y-91593233D01*
X81314702Y-91607067D01*
X81267587Y-91593233D01*
X81185704Y-91550425D01*
X81175685Y-91547552D01*
X80998524Y-91496752D01*
X80998522Y-91496752D01*
X80992762Y-91495100D01*
X80986790Y-91494567D01*
X80876783Y-91484749D01*
X80876775Y-91484749D01*
X80873989Y-91484500D01*
X80567010Y-91484500D01*
X80259812Y-91484501D01*
X80174876Y-91492080D01*
X80147009Y-91494567D01*
X80147007Y-91494567D01*
X80141038Y-91495100D01*
X80135276Y-91496752D01*
X80135277Y-91496752D01*
X79963877Y-91545900D01*
X79948096Y-91550425D01*
X79942434Y-91553385D01*
X79860551Y-91596193D01*
X79770220Y-91643417D01*
X79765277Y-91647448D01*
X79765273Y-91647451D01*
X79734036Y-91672928D01*
X79668604Y-91700482D01*
X79598663Y-91688287D01*
X79574764Y-91672928D01*
X79543527Y-91647451D01*
X79543523Y-91647448D01*
X79538580Y-91643417D01*
X79448250Y-91596193D01*
X79366366Y-91553385D01*
X79360704Y-91550425D01*
X79350685Y-91547552D01*
X79173524Y-91496752D01*
X79173522Y-91496752D01*
X79167762Y-91495100D01*
X79161790Y-91494567D01*
X79051783Y-91484749D01*
X79051775Y-91484749D01*
X79048989Y-91484500D01*
X78742010Y-91484500D01*
X78434812Y-91484501D01*
X78349876Y-91492080D01*
X78322009Y-91494567D01*
X78322007Y-91494567D01*
X78316038Y-91495100D01*
X78310276Y-91496752D01*
X78310277Y-91496752D01*
X78138877Y-91545900D01*
X78123096Y-91550425D01*
X78117434Y-91553385D01*
X77990414Y-91619790D01*
X77920778Y-91633625D01*
X77873666Y-91619792D01*
X77720704Y-91539825D01*
X77704927Y-91535301D01*
X77533524Y-91486152D01*
X77533522Y-91486152D01*
X77527762Y-91484500D01*
X77521790Y-91483967D01*
X77411783Y-91474149D01*
X77411775Y-91474149D01*
X77408989Y-91473900D01*
X77114506Y-91473900D01*
X76819812Y-91473901D01*
X76734876Y-91481480D01*
X76707009Y-91483967D01*
X76707007Y-91483967D01*
X76701038Y-91484500D01*
X76695276Y-91486152D01*
X76695277Y-91486152D01*
X76523877Y-91535300D01*
X76508096Y-91539825D01*
X76502434Y-91542785D01*
X76496514Y-91545153D01*
X76495870Y-91543543D01*
X76434481Y-91555733D01*
X76368423Y-91529718D01*
X76343775Y-91502289D01*
X76343363Y-91502615D01*
X76338820Y-91496883D01*
X76334966Y-91490655D01*
X76211111Y-91367016D01*
X76062134Y-91275186D01*
X75999594Y-91254442D01*
X75902559Y-91222256D01*
X75902557Y-91222255D01*
X75896028Y-91220090D01*
X75792666Y-91209500D01*
X71132400Y-91209500D01*
X71064279Y-91189498D01*
X71017786Y-91135842D01*
X71006400Y-91083500D01*
X71006400Y-81330800D01*
X72015657Y-81330800D01*
X72015927Y-81334919D01*
X72032239Y-81583785D01*
X72035809Y-81638260D01*
X72036613Y-81642300D01*
X72036613Y-81642303D01*
X72094705Y-81934349D01*
X72095920Y-81940459D01*
X72097245Y-81944363D01*
X72097246Y-81944366D01*
X72168559Y-82154447D01*
X72194962Y-82232227D01*
X72239569Y-82322680D01*
X72323017Y-82491896D01*
X72331240Y-82508571D01*
X72502422Y-82764764D01*
X72505136Y-82767858D01*
X72505140Y-82767864D01*
X72628613Y-82908657D01*
X72705580Y-82996420D01*
X72708669Y-82999129D01*
X72934136Y-83196860D01*
X72934142Y-83196864D01*
X72937236Y-83199578D01*
X73193429Y-83370760D01*
X73197128Y-83372584D01*
X73197133Y-83372587D01*
X73320969Y-83433656D01*
X73469773Y-83507038D01*
X73473678Y-83508364D01*
X73473679Y-83508364D01*
X73757634Y-83604754D01*
X73757637Y-83604755D01*
X73761541Y-83606080D01*
X73765580Y-83606883D01*
X73765586Y-83606885D01*
X74059697Y-83665387D01*
X74059700Y-83665387D01*
X74063740Y-83666191D01*
X74067851Y-83666460D01*
X74067855Y-83666461D01*
X74292210Y-83681166D01*
X74292219Y-83681166D01*
X74294259Y-83681300D01*
X74448141Y-83681300D01*
X74450181Y-83681166D01*
X74450190Y-83681166D01*
X74674545Y-83666461D01*
X74674549Y-83666460D01*
X74678660Y-83666191D01*
X74682700Y-83665387D01*
X74682703Y-83665387D01*
X74976814Y-83606885D01*
X74976820Y-83606883D01*
X74980859Y-83606080D01*
X74984763Y-83604755D01*
X74984766Y-83604754D01*
X75268721Y-83508364D01*
X75268722Y-83508364D01*
X75272627Y-83507038D01*
X75421431Y-83433656D01*
X75545267Y-83372587D01*
X75545272Y-83372584D01*
X75548971Y-83370760D01*
X75805164Y-83199578D01*
X75808258Y-83196864D01*
X75808264Y-83196860D01*
X76033731Y-82999129D01*
X76036820Y-82996420D01*
X76113787Y-82908657D01*
X76237260Y-82767864D01*
X76237264Y-82767858D01*
X76239978Y-82764764D01*
X76270580Y-82718966D01*
X76408866Y-82512005D01*
X76408867Y-82512004D01*
X76411160Y-82508572D01*
X76416356Y-82498037D01*
X76501164Y-82326061D01*
X76547438Y-82232227D01*
X76573841Y-82154447D01*
X76645154Y-81944366D01*
X76645155Y-81944363D01*
X76646480Y-81940459D01*
X76647696Y-81934349D01*
X76705787Y-81642303D01*
X76705787Y-81642300D01*
X76706591Y-81638260D01*
X76710162Y-81583785D01*
X76726473Y-81334919D01*
X76726743Y-81330800D01*
X76706591Y-81023340D01*
X76646480Y-80721141D01*
X76547438Y-80429373D01*
X76411160Y-80153029D01*
X76239978Y-79896836D01*
X76237264Y-79893742D01*
X76237260Y-79893736D01*
X76039529Y-79668269D01*
X76036820Y-79665180D01*
X76033731Y-79662471D01*
X75808264Y-79464740D01*
X75808258Y-79464736D01*
X75805164Y-79462022D01*
X75548971Y-79290840D01*
X75545272Y-79289016D01*
X75545267Y-79289013D01*
X75403238Y-79218972D01*
X75272627Y-79154562D01*
X75268721Y-79153236D01*
X74984766Y-79056846D01*
X74984763Y-79056845D01*
X74980859Y-79055520D01*
X74976820Y-79054717D01*
X74976814Y-79054715D01*
X74682703Y-78996213D01*
X74682700Y-78996213D01*
X74678660Y-78995409D01*
X74674549Y-78995140D01*
X74674545Y-78995139D01*
X74450190Y-78980434D01*
X74450181Y-78980434D01*
X74448141Y-78980300D01*
X74294259Y-78980300D01*
X74292219Y-78980434D01*
X74292210Y-78980434D01*
X74067855Y-78995139D01*
X74067851Y-78995140D01*
X74063740Y-78995409D01*
X74059700Y-78996213D01*
X74059697Y-78996213D01*
X73765586Y-79054715D01*
X73765580Y-79054717D01*
X73761541Y-79055520D01*
X73757637Y-79056845D01*
X73757634Y-79056846D01*
X73473679Y-79153236D01*
X73469773Y-79154562D01*
X73339162Y-79218972D01*
X73197133Y-79289013D01*
X73197128Y-79289016D01*
X73193429Y-79290840D01*
X72937236Y-79462022D01*
X72934142Y-79464736D01*
X72934136Y-79464740D01*
X72708669Y-79662471D01*
X72705580Y-79665180D01*
X72702871Y-79668269D01*
X72505140Y-79893736D01*
X72505136Y-79893742D01*
X72502422Y-79896836D01*
X72331240Y-80153028D01*
X72194962Y-80429373D01*
X72095920Y-80721141D01*
X72035809Y-81023340D01*
X72015657Y-81330800D01*
X71006400Y-81330800D01*
X71006400Y-78346000D01*
X71026402Y-78277879D01*
X71080058Y-78231386D01*
X71132400Y-78220000D01*
X153759200Y-78220000D01*
X153827321Y-78240002D01*
G37*
%TD.AperFunction*%
%TA.AperFunction,Conductor*%
G36*
X87623034Y-115883319D02*
G01*
X87623036Y-115883300D01*
X87631930Y-115884094D01*
X87643289Y-115885107D01*
X87709362Y-115911084D01*
X87721185Y-115921513D01*
X88653596Y-116853924D01*
X88687622Y-116916236D01*
X88690501Y-116943019D01*
X88690501Y-117211838D01*
X88670499Y-117279959D01*
X88616843Y-117326452D01*
X88553301Y-117337339D01*
X88486183Y-117331349D01*
X88486175Y-117331349D01*
X88483389Y-117331100D01*
X88188906Y-117331100D01*
X87894212Y-117331101D01*
X87809276Y-117338680D01*
X87781409Y-117341167D01*
X87781407Y-117341167D01*
X87775438Y-117341700D01*
X87582496Y-117397025D01*
X87576834Y-117399985D01*
X87437767Y-117472688D01*
X87368131Y-117486523D01*
X87302070Y-117460513D01*
X87260558Y-117402917D01*
X87256775Y-117332022D01*
X87281748Y-117281391D01*
X87320949Y-117233326D01*
X87324983Y-117228380D01*
X87417975Y-117050504D01*
X87432069Y-117001352D01*
X87471648Y-116863324D01*
X87471648Y-116863322D01*
X87473300Y-116857562D01*
X87483900Y-116738789D01*
X87483899Y-116024612D01*
X87483440Y-116019463D01*
X87483525Y-116019032D01*
X87483525Y-116019022D01*
X87483527Y-116019022D01*
X87497304Y-115949837D01*
X87546612Y-115898756D01*
X87615709Y-115882443D01*
X87623034Y-115883319D01*
G37*
%TD.AperFunction*%
%TA.AperFunction,Conductor*%
G36*
X137041219Y-112271247D02*
G01*
X137086790Y-112325688D01*
X137097300Y-112376068D01*
X137097300Y-114150685D01*
X137077298Y-114218806D01*
X137050937Y-114248327D01*
X136989326Y-114298576D01*
X136862467Y-114454120D01*
X136769475Y-114631996D01*
X136714150Y-114824938D01*
X136713617Y-114830909D01*
X136713617Y-114830910D01*
X136707523Y-114899199D01*
X136703550Y-114943711D01*
X136703551Y-115532888D01*
X136703800Y-115535675D01*
X136703800Y-115535682D01*
X136705737Y-115557382D01*
X136691870Y-115627011D01*
X136642559Y-115678089D01*
X136569036Y-115694083D01*
X136512245Y-115689014D01*
X136501430Y-115688049D01*
X136501428Y-115688049D01*
X136498639Y-115687800D01*
X136481726Y-115687800D01*
X136218884Y-115687801D01*
X136150765Y-115667799D01*
X136129790Y-115650896D01*
X135960205Y-115481311D01*
X135926179Y-115418999D01*
X135923300Y-115392216D01*
X135923300Y-114142915D01*
X135923742Y-114132371D01*
X135927629Y-114086082D01*
X135928200Y-114079284D01*
X135917235Y-113997104D01*
X135916866Y-113994055D01*
X135908655Y-113918471D01*
X135908654Y-113918467D01*
X135907918Y-113911691D01*
X135905743Y-113905228D01*
X135904927Y-113901518D01*
X135904897Y-113901347D01*
X135904853Y-113901196D01*
X135903944Y-113897495D01*
X135903042Y-113890733D01*
X135874687Y-113812829D01*
X135873669Y-113809923D01*
X135871146Y-113802426D01*
X135847245Y-113731404D01*
X135843730Y-113725554D01*
X135842134Y-113722100D01*
X135842072Y-113721950D01*
X135841993Y-113721805D01*
X135840317Y-113718398D01*
X135837982Y-113711983D01*
X135793545Y-113641962D01*
X135791960Y-113639394D01*
X135752788Y-113574201D01*
X135752787Y-113574200D01*
X135749274Y-113568353D01*
X135744587Y-113563396D01*
X135742286Y-113560365D01*
X135741844Y-113559730D01*
X135738834Y-113555750D01*
X135736056Y-113551373D01*
X135732163Y-113547019D01*
X135677070Y-113491926D01*
X135674616Y-113489404D01*
X135623262Y-113435098D01*
X135623260Y-113435096D01*
X135618575Y-113430142D01*
X135612934Y-113426308D01*
X135607734Y-113421883D01*
X135608058Y-113421502D01*
X135599884Y-113414740D01*
X135225039Y-113039895D01*
X135191013Y-112977583D01*
X135196078Y-112906768D01*
X135225039Y-112861705D01*
X135587096Y-112499648D01*
X135594850Y-112492517D01*
X135635551Y-112458122D01*
X135685944Y-112392210D01*
X135687772Y-112389880D01*
X135694426Y-112381604D01*
X135752701Y-112341050D01*
X135823649Y-112338439D01*
X135832280Y-112340964D01*
X135888487Y-112359607D01*
X135938041Y-112376044D01*
X135938043Y-112376045D01*
X135944572Y-112378210D01*
X136047934Y-112388800D01*
X136547666Y-112388800D01*
X136550912Y-112388463D01*
X136550916Y-112388463D01*
X136645461Y-112378653D01*
X136645465Y-112378652D01*
X136652319Y-112377941D01*
X136658855Y-112375760D01*
X136658857Y-112375760D01*
X136811381Y-112324874D01*
X136818329Y-112322556D01*
X136904998Y-112268924D01*
X136973449Y-112250086D01*
X137041219Y-112271247D01*
G37*
%TD.AperFunction*%
%TD*%
M02*
