%TF.GenerationSoftware,KiCad,Pcbnew,(6.0.1)*%
%TF.CreationDate,2022-02-10T09:54:43+00:00*%
%TF.ProjectId,TrackingGenerator,54726163-6b69-46e6-9747-656e65726174,rev?*%
%TF.SameCoordinates,Original*%
%TF.FileFunction,Legend,Top*%
%TF.FilePolarity,Positive*%
%FSLAX46Y46*%
G04 Gerber Fmt 4.6, Leading zero omitted, Abs format (unit mm)*
G04 Created by KiCad (PCBNEW (6.0.1)) date 2022-02-10 09:54:43*
%MOMM*%
%LPD*%
G01*
G04 APERTURE LIST*
G04 Aperture macros list*
%AMRoundRect*
0 Rectangle with rounded corners*
0 $1 Rounding radius*
0 $2 $3 $4 $5 $6 $7 $8 $9 X,Y pos of 4 corners*
0 Add a 4 corners polygon primitive as box body*
4,1,4,$2,$3,$4,$5,$6,$7,$8,$9,$2,$3,0*
0 Add four circle primitives for the rounded corners*
1,1,$1+$1,$2,$3*
1,1,$1+$1,$4,$5*
1,1,$1+$1,$6,$7*
1,1,$1+$1,$8,$9*
0 Add four rect primitives between the rounded corners*
20,1,$1+$1,$2,$3,$4,$5,0*
20,1,$1+$1,$4,$5,$6,$7,0*
20,1,$1+$1,$6,$7,$8,$9,0*
20,1,$1+$1,$8,$9,$2,$3,0*%
%AMFreePoly0*
4,1,53,2.042426,15.408426,2.060000,15.366000,2.060000,7.426000,13.541000,7.426000,13.583426,7.408426,13.601000,7.366000,13.601000,3.366000,13.583426,3.323574,13.541000,3.306000,10.601000,3.306000,10.601000,-3.306000,13.541000,-3.306000,13.583426,-3.323574,13.601000,-3.366000,13.601000,-7.366000,13.583426,-7.408426,13.541000,-7.426000,10.601000,-7.426000,10.601000,-10.366000,10.583426,-10.408426,
10.541000,-10.426000,7.541000,-10.426000,7.498574,-10.408426,7.481000,-10.366000,7.481000,-7.426000,-7.481000,-7.426000,-7.481000,-10.366000,-7.498574,-10.408426,-7.541000,-10.426000,-10.541000,-10.426000,-10.583426,-10.408426,-10.601000,-10.366000,-10.601000,-7.426000,-13.541000,-7.426000,-13.583426,-7.408426,-13.601000,-7.366000,-13.601000,-3.366000,-13.583426,-3.323574,-13.541000,-3.306000,-10.601000,-3.306000,
-10.601000,3.306000,-13.541000,3.306000,-13.583426,3.323574,-13.601000,3.366000,-13.601000,7.366000,-13.583426,7.408426,-13.541000,7.426000,-2.060000,7.426000,-2.060000,15.366000,-2.042426,15.408426,-2.000000,15.426000,2.000000,15.426000,2.042426,15.408426,2.042426,15.408426,$1*%
G04 Aperture macros list end*
%ADD10C,0.150000*%
%ADD11C,0.254000*%
%ADD12C,0.120000*%
%ADD13C,0.200000*%
%ADD14RoundRect,0.237500X-0.237500X0.300000X-0.237500X-0.300000X0.237500X-0.300000X0.237500X0.300000X0*%
%ADD15R,1.905000X2.000000*%
%ADD16O,1.905000X2.000000*%
%ADD17RoundRect,0.237500X-0.237500X0.250000X-0.237500X-0.250000X0.237500X-0.250000X0.237500X0.250000X0*%
%ADD18RoundRect,0.237500X-0.250000X-0.237500X0.250000X-0.237500X0.250000X0.237500X-0.250000X0.237500X0*%
%ADD19C,3.200000*%
%ADD20RoundRect,0.237500X0.237500X-0.250000X0.237500X0.250000X-0.237500X0.250000X-0.237500X-0.250000X0*%
%ADD21RoundRect,0.237500X-0.300000X-0.237500X0.300000X-0.237500X0.300000X0.237500X-0.300000X0.237500X0*%
%ADD22RoundRect,0.237500X-0.237500X0.287500X-0.237500X-0.287500X0.237500X-0.287500X0.237500X0.287500X0*%
%ADD23RoundRect,0.237500X0.300000X0.237500X-0.300000X0.237500X-0.300000X-0.237500X0.300000X-0.237500X0*%
%ADD24R,5.080000X1.500000*%
%ADD25RoundRect,0.237500X0.287500X0.237500X-0.287500X0.237500X-0.287500X-0.237500X0.287500X-0.237500X0*%
%ADD26RoundRect,0.237500X0.237500X-0.300000X0.237500X0.300000X-0.237500X0.300000X-0.237500X-0.300000X0*%
%ADD27R,1.600000X1.600000*%
%ADD28C,1.600000*%
%ADD29R,1.000000X3.000000*%
%ADD30FreePoly0,90.000000*%
%ADD31R,3.000000X1.000000*%
%ADD32RoundRect,0.237500X0.237500X-0.287500X0.237500X0.287500X-0.237500X0.287500X-0.237500X-0.287500X0*%
%ADD33R,1.050000X0.400000*%
%ADD34R,0.400000X1.050000*%
%ADD35RoundRect,0.237500X-0.287500X-0.237500X0.287500X-0.237500X0.287500X0.237500X-0.287500X0.237500X0*%
%ADD36C,2.400000*%
%ADD37O,2.400000X2.400000*%
%ADD38R,2.100000X2.100000*%
%ADD39C,2.100000*%
G04 APERTURE END LIST*
D10*
X112534914Y-133964419D02*
X112582533Y-133916800D01*
X112677771Y-133869180D01*
X112915866Y-133869180D01*
X113011104Y-133916800D01*
X113058723Y-133964419D01*
X113106342Y-134059657D01*
X113106342Y-134154895D01*
X113058723Y-134297752D01*
X112487295Y-134869180D01*
X113106342Y-134869180D01*
X113725390Y-133869180D02*
X113820628Y-133869180D01*
X113915866Y-133916800D01*
X113963485Y-133964419D01*
X114011104Y-134059657D01*
X114058723Y-134250133D01*
X114058723Y-134488228D01*
X114011104Y-134678704D01*
X113963485Y-134773942D01*
X113915866Y-134821561D01*
X113820628Y-134869180D01*
X113725390Y-134869180D01*
X113630152Y-134821561D01*
X113582533Y-134773942D01*
X113534914Y-134678704D01*
X113487295Y-134488228D01*
X113487295Y-134250133D01*
X113534914Y-134059657D01*
X113582533Y-133964419D01*
X113630152Y-133916800D01*
X113725390Y-133869180D01*
X114439676Y-133964419D02*
X114487295Y-133916800D01*
X114582533Y-133869180D01*
X114820628Y-133869180D01*
X114915866Y-133916800D01*
X114963485Y-133964419D01*
X115011104Y-134059657D01*
X115011104Y-134154895D01*
X114963485Y-134297752D01*
X114392057Y-134869180D01*
X115011104Y-134869180D01*
X115392057Y-133964419D02*
X115439676Y-133916800D01*
X115534914Y-133869180D01*
X115773009Y-133869180D01*
X115868247Y-133916800D01*
X115915866Y-133964419D01*
X115963485Y-134059657D01*
X115963485Y-134154895D01*
X115915866Y-134297752D01*
X115344438Y-134869180D01*
X115963485Y-134869180D01*
X95743028Y-132887980D02*
X95743028Y-131887980D01*
X96076361Y-132602266D01*
X96409695Y-131887980D01*
X96409695Y-132887980D01*
X97076361Y-131887980D02*
X97171600Y-131887980D01*
X97266838Y-131935600D01*
X97314457Y-131983219D01*
X97362076Y-132078457D01*
X97409695Y-132268933D01*
X97409695Y-132507028D01*
X97362076Y-132697504D01*
X97314457Y-132792742D01*
X97266838Y-132840361D01*
X97171600Y-132887980D01*
X97076361Y-132887980D01*
X96981123Y-132840361D01*
X96933504Y-132792742D01*
X96885885Y-132697504D01*
X96838266Y-132507028D01*
X96838266Y-132268933D01*
X96885885Y-132078457D01*
X96933504Y-131983219D01*
X96981123Y-131935600D01*
X97076361Y-131887980D01*
X97743028Y-131887980D02*
X98409695Y-131887980D01*
X97743028Y-132887980D01*
X98409695Y-132887980D01*
X98743028Y-132840361D02*
X98885885Y-132887980D01*
X99123980Y-132887980D01*
X99219219Y-132840361D01*
X99266838Y-132792742D01*
X99314457Y-132697504D01*
X99314457Y-132602266D01*
X99266838Y-132507028D01*
X99219219Y-132459409D01*
X99123980Y-132411790D01*
X98933504Y-132364171D01*
X98838266Y-132316552D01*
X98790647Y-132268933D01*
X98743028Y-132173695D01*
X98743028Y-132078457D01*
X98790647Y-131983219D01*
X98838266Y-131935600D01*
X98933504Y-131887980D01*
X99171600Y-131887980D01*
X99314457Y-131935600D01*
X99743028Y-131887980D02*
X99743028Y-132697504D01*
X99790647Y-132792742D01*
X99838266Y-132840361D01*
X99933504Y-132887980D01*
X100123980Y-132887980D01*
X100219219Y-132840361D01*
X100266838Y-132792742D01*
X100314457Y-132697504D01*
X100314457Y-131887980D01*
X101409695Y-131887980D02*
X101981123Y-131887980D01*
X101695409Y-132887980D02*
X101695409Y-131887980D01*
X102314457Y-132887980D02*
X102314457Y-132221314D01*
X102314457Y-132411790D02*
X102362076Y-132316552D01*
X102409695Y-132268933D01*
X102504933Y-132221314D01*
X102600171Y-132221314D01*
X103362076Y-132887980D02*
X103362076Y-132364171D01*
X103314457Y-132268933D01*
X103219219Y-132221314D01*
X103028742Y-132221314D01*
X102933504Y-132268933D01*
X103362076Y-132840361D02*
X103266838Y-132887980D01*
X103028742Y-132887980D01*
X102933504Y-132840361D01*
X102885885Y-132745123D01*
X102885885Y-132649885D01*
X102933504Y-132554647D01*
X103028742Y-132507028D01*
X103266838Y-132507028D01*
X103362076Y-132459409D01*
X104266838Y-132840361D02*
X104171600Y-132887980D01*
X103981123Y-132887980D01*
X103885885Y-132840361D01*
X103838266Y-132792742D01*
X103790647Y-132697504D01*
X103790647Y-132411790D01*
X103838266Y-132316552D01*
X103885885Y-132268933D01*
X103981123Y-132221314D01*
X104171600Y-132221314D01*
X104266838Y-132268933D01*
X104695409Y-132887980D02*
X104695409Y-131887980D01*
X104790647Y-132507028D02*
X105076361Y-132887980D01*
X105076361Y-132221314D02*
X104695409Y-132602266D01*
X105504933Y-132887980D02*
X105504933Y-132221314D01*
X105504933Y-131887980D02*
X105457314Y-131935600D01*
X105504933Y-131983219D01*
X105552552Y-131935600D01*
X105504933Y-131887980D01*
X105504933Y-131983219D01*
X105981123Y-132221314D02*
X105981123Y-132887980D01*
X105981123Y-132316552D02*
X106028742Y-132268933D01*
X106123980Y-132221314D01*
X106266838Y-132221314D01*
X106362076Y-132268933D01*
X106409695Y-132364171D01*
X106409695Y-132887980D01*
X107314457Y-132221314D02*
X107314457Y-133030838D01*
X107266838Y-133126076D01*
X107219219Y-133173695D01*
X107123980Y-133221314D01*
X106981123Y-133221314D01*
X106885885Y-133173695D01*
X107314457Y-132840361D02*
X107219219Y-132887980D01*
X107028742Y-132887980D01*
X106933504Y-132840361D01*
X106885885Y-132792742D01*
X106838266Y-132697504D01*
X106838266Y-132411790D01*
X106885885Y-132316552D01*
X106933504Y-132268933D01*
X107028742Y-132221314D01*
X107219219Y-132221314D01*
X107314457Y-132268933D01*
X109076361Y-131935600D02*
X108981123Y-131887980D01*
X108838266Y-131887980D01*
X108695409Y-131935600D01*
X108600171Y-132030838D01*
X108552552Y-132126076D01*
X108504933Y-132316552D01*
X108504933Y-132459409D01*
X108552552Y-132649885D01*
X108600171Y-132745123D01*
X108695409Y-132840361D01*
X108838266Y-132887980D01*
X108933504Y-132887980D01*
X109076361Y-132840361D01*
X109123980Y-132792742D01*
X109123980Y-132459409D01*
X108933504Y-132459409D01*
X109933504Y-132840361D02*
X109838266Y-132887980D01*
X109647790Y-132887980D01*
X109552552Y-132840361D01*
X109504933Y-132745123D01*
X109504933Y-132364171D01*
X109552552Y-132268933D01*
X109647790Y-132221314D01*
X109838266Y-132221314D01*
X109933504Y-132268933D01*
X109981123Y-132364171D01*
X109981123Y-132459409D01*
X109504933Y-132554647D01*
X110409695Y-132221314D02*
X110409695Y-132887980D01*
X110409695Y-132316552D02*
X110457314Y-132268933D01*
X110552552Y-132221314D01*
X110695409Y-132221314D01*
X110790647Y-132268933D01*
X110838266Y-132364171D01*
X110838266Y-132887980D01*
X111695409Y-132840361D02*
X111600171Y-132887980D01*
X111409695Y-132887980D01*
X111314457Y-132840361D01*
X111266838Y-132745123D01*
X111266838Y-132364171D01*
X111314457Y-132268933D01*
X111409695Y-132221314D01*
X111600171Y-132221314D01*
X111695409Y-132268933D01*
X111743028Y-132364171D01*
X111743028Y-132459409D01*
X111266838Y-132554647D01*
X112171600Y-132887980D02*
X112171600Y-132221314D01*
X112171600Y-132411790D02*
X112219219Y-132316552D01*
X112266838Y-132268933D01*
X112362076Y-132221314D01*
X112457314Y-132221314D01*
X113219219Y-132887980D02*
X113219219Y-132364171D01*
X113171600Y-132268933D01*
X113076361Y-132221314D01*
X112885885Y-132221314D01*
X112790647Y-132268933D01*
X113219219Y-132840361D02*
X113123980Y-132887980D01*
X112885885Y-132887980D01*
X112790647Y-132840361D01*
X112743028Y-132745123D01*
X112743028Y-132649885D01*
X112790647Y-132554647D01*
X112885885Y-132507028D01*
X113123980Y-132507028D01*
X113219219Y-132459409D01*
X113552552Y-132221314D02*
X113933504Y-132221314D01*
X113695409Y-131887980D02*
X113695409Y-132745123D01*
X113743028Y-132840361D01*
X113838266Y-132887980D01*
X113933504Y-132887980D01*
X114409695Y-132887980D02*
X114314457Y-132840361D01*
X114266838Y-132792742D01*
X114219219Y-132697504D01*
X114219219Y-132411790D01*
X114266838Y-132316552D01*
X114314457Y-132268933D01*
X114409695Y-132221314D01*
X114552552Y-132221314D01*
X114647790Y-132268933D01*
X114695409Y-132316552D01*
X114743028Y-132411790D01*
X114743028Y-132697504D01*
X114695409Y-132792742D01*
X114647790Y-132840361D01*
X114552552Y-132887980D01*
X114409695Y-132887980D01*
X115171600Y-132887980D02*
X115171600Y-132221314D01*
X115171600Y-132411790D02*
X115219219Y-132316552D01*
X115266838Y-132268933D01*
X115362076Y-132221314D01*
X115457314Y-132221314D01*
X116552552Y-132507028D02*
X117314457Y-132507028D01*
X118409695Y-132221314D02*
X118790647Y-132221314D01*
X118552552Y-131887980D02*
X118552552Y-132745123D01*
X118600171Y-132840361D01*
X118695409Y-132887980D01*
X118790647Y-132887980D01*
X119123980Y-132887980D02*
X119123980Y-131887980D01*
X119552552Y-132887980D02*
X119552552Y-132364171D01*
X119504933Y-132268933D01*
X119409695Y-132221314D01*
X119266838Y-132221314D01*
X119171600Y-132268933D01*
X119123980Y-132316552D01*
X120457314Y-132887980D02*
X120457314Y-132364171D01*
X120409695Y-132268933D01*
X120314457Y-132221314D01*
X120123980Y-132221314D01*
X120028742Y-132268933D01*
X120457314Y-132840361D02*
X120362076Y-132887980D01*
X120123980Y-132887980D01*
X120028742Y-132840361D01*
X119981123Y-132745123D01*
X119981123Y-132649885D01*
X120028742Y-132554647D01*
X120123980Y-132507028D01*
X120362076Y-132507028D01*
X120457314Y-132459409D01*
X120933504Y-132221314D02*
X120933504Y-132887980D01*
X120933504Y-132316552D02*
X120981123Y-132268933D01*
X121076361Y-132221314D01*
X121219219Y-132221314D01*
X121314457Y-132268933D01*
X121362076Y-132364171D01*
X121362076Y-132887980D01*
X121838266Y-132887980D02*
X121838266Y-131887980D01*
X121933504Y-132507028D02*
X122219219Y-132887980D01*
X122219219Y-132221314D02*
X121838266Y-132602266D01*
X122600171Y-132840361D02*
X122695409Y-132887980D01*
X122885885Y-132887980D01*
X122981123Y-132840361D01*
X123028742Y-132745123D01*
X123028742Y-132697504D01*
X122981123Y-132602266D01*
X122885885Y-132554647D01*
X122743028Y-132554647D01*
X122647790Y-132507028D01*
X122600171Y-132411790D01*
X122600171Y-132364171D01*
X122647790Y-132268933D01*
X122743028Y-132221314D01*
X122885885Y-132221314D01*
X122981123Y-132268933D01*
X124647790Y-132887980D02*
X124647790Y-132364171D01*
X124600171Y-132268933D01*
X124504933Y-132221314D01*
X124314457Y-132221314D01*
X124219219Y-132268933D01*
X124647790Y-132840361D02*
X124552552Y-132887980D01*
X124314457Y-132887980D01*
X124219219Y-132840361D01*
X124171600Y-132745123D01*
X124171600Y-132649885D01*
X124219219Y-132554647D01*
X124314457Y-132507028D01*
X124552552Y-132507028D01*
X124647790Y-132459409D01*
X125266838Y-132887980D02*
X125171600Y-132840361D01*
X125123980Y-132745123D01*
X125123980Y-131887980D01*
X125600171Y-132840361D02*
X125695409Y-132887980D01*
X125885885Y-132887980D01*
X125981123Y-132840361D01*
X126028742Y-132745123D01*
X126028742Y-132697504D01*
X125981123Y-132602266D01*
X125885885Y-132554647D01*
X125743028Y-132554647D01*
X125647790Y-132507028D01*
X125600171Y-132411790D01*
X125600171Y-132364171D01*
X125647790Y-132268933D01*
X125743028Y-132221314D01*
X125885885Y-132221314D01*
X125981123Y-132268933D01*
X126600171Y-132887980D02*
X126504933Y-132840361D01*
X126457314Y-132792742D01*
X126409695Y-132697504D01*
X126409695Y-132411790D01*
X126457314Y-132316552D01*
X126504933Y-132268933D01*
X126600171Y-132221314D01*
X126743028Y-132221314D01*
X126838266Y-132268933D01*
X126885885Y-132316552D01*
X126933504Y-132411790D01*
X126933504Y-132697504D01*
X126885885Y-132792742D01*
X126838266Y-132840361D01*
X126743028Y-132887980D01*
X126600171Y-132887980D01*
X127981123Y-132221314D02*
X128362076Y-132221314D01*
X128123980Y-131887980D02*
X128123980Y-132745123D01*
X128171600Y-132840361D01*
X128266838Y-132887980D01*
X128362076Y-132887980D01*
X128838266Y-132887980D02*
X128743028Y-132840361D01*
X128695409Y-132792742D01*
X128647790Y-132697504D01*
X128647790Y-132411790D01*
X128695409Y-132316552D01*
X128743028Y-132268933D01*
X128838266Y-132221314D01*
X128981123Y-132221314D01*
X129076361Y-132268933D01*
X129123980Y-132316552D01*
X129171600Y-132411790D01*
X129171600Y-132697504D01*
X129123980Y-132792742D01*
X129076361Y-132840361D01*
X128981123Y-132887980D01*
X128838266Y-132887980D01*
X130552552Y-132411790D02*
X130552552Y-132887980D01*
X130219219Y-131887980D02*
X130552552Y-132411790D01*
X130885885Y-131887980D01*
X131409695Y-131887980D02*
X131504933Y-131887980D01*
X131600171Y-131935600D01*
X131647790Y-131983219D01*
X131695409Y-132078457D01*
X131743028Y-132268933D01*
X131743028Y-132507028D01*
X131695409Y-132697504D01*
X131647790Y-132792742D01*
X131600171Y-132840361D01*
X131504933Y-132887980D01*
X131409695Y-132887980D01*
X131314457Y-132840361D01*
X131266838Y-132792742D01*
X131219219Y-132697504D01*
X131171600Y-132507028D01*
X131171600Y-132268933D01*
X131219219Y-132078457D01*
X131266838Y-131983219D01*
X131314457Y-131935600D01*
X131409695Y-131887980D01*
X132600171Y-132221314D02*
X132600171Y-132887980D01*
X132362076Y-131840361D02*
X132123980Y-132554647D01*
X132743028Y-132554647D01*
X133123980Y-132887980D02*
X133123980Y-131887980D01*
X133123980Y-132364171D02*
X133695409Y-132364171D01*
X133695409Y-132887980D02*
X133695409Y-131887980D01*
X134504933Y-132364171D02*
X134171600Y-132364171D01*
X134171600Y-132887980D02*
X134171600Y-131887980D01*
X134647790Y-131887980D01*
X135028742Y-131887980D02*
X135028742Y-132697504D01*
X135076361Y-132792742D01*
X135123980Y-132840361D01*
X135219219Y-132887980D01*
X135409695Y-132887980D01*
X135504933Y-132840361D01*
X135552552Y-132792742D01*
X135600171Y-132697504D01*
X135600171Y-131887980D01*
%TO.C,C9*%
X86564742Y-112993466D02*
X86612361Y-113041085D01*
X86659980Y-113183942D01*
X86659980Y-113279180D01*
X86612361Y-113422038D01*
X86517123Y-113517276D01*
X86421885Y-113564895D01*
X86231409Y-113612514D01*
X86088552Y-113612514D01*
X85898076Y-113564895D01*
X85802838Y-113517276D01*
X85707600Y-113422038D01*
X85659980Y-113279180D01*
X85659980Y-113183942D01*
X85707600Y-113041085D01*
X85755219Y-112993466D01*
X86659980Y-112517276D02*
X86659980Y-112326800D01*
X86612361Y-112231561D01*
X86564742Y-112183942D01*
X86421885Y-112088704D01*
X86231409Y-112041085D01*
X85850457Y-112041085D01*
X85755219Y-112088704D01*
X85707600Y-112136323D01*
X85659980Y-112231561D01*
X85659980Y-112422038D01*
X85707600Y-112517276D01*
X85755219Y-112564895D01*
X85850457Y-112612514D01*
X86088552Y-112612514D01*
X86183790Y-112564895D01*
X86231409Y-112517276D01*
X86279028Y-112422038D01*
X86279028Y-112231561D01*
X86231409Y-112136323D01*
X86183790Y-112088704D01*
X86088552Y-112041085D01*
%TO.C,U1*%
X118262495Y-80353780D02*
X118262495Y-81163304D01*
X118310114Y-81258542D01*
X118357733Y-81306161D01*
X118452971Y-81353780D01*
X118643447Y-81353780D01*
X118738685Y-81306161D01*
X118786304Y-81258542D01*
X118833923Y-81163304D01*
X118833923Y-80353780D01*
X119833923Y-81353780D02*
X119262495Y-81353780D01*
X119548209Y-81353780D02*
X119548209Y-80353780D01*
X119452971Y-80496638D01*
X119357733Y-80591876D01*
X119262495Y-80639495D01*
%TO.C,R14*%
X141154942Y-107915680D02*
X140821609Y-107439490D01*
X140583514Y-107915680D02*
X140583514Y-106915680D01*
X140964466Y-106915680D01*
X141059704Y-106963300D01*
X141107323Y-107010919D01*
X141154942Y-107106157D01*
X141154942Y-107249014D01*
X141107323Y-107344252D01*
X141059704Y-107391871D01*
X140964466Y-107439490D01*
X140583514Y-107439490D01*
X142107323Y-107915680D02*
X141535895Y-107915680D01*
X141821609Y-107915680D02*
X141821609Y-106915680D01*
X141726371Y-107058538D01*
X141631133Y-107153776D01*
X141535895Y-107201395D01*
X142964466Y-107249014D02*
X142964466Y-107915680D01*
X142726371Y-106868061D02*
X142488276Y-107582347D01*
X143107323Y-107582347D01*
%TO.C,R6*%
X95489733Y-92240380D02*
X95156400Y-91764190D01*
X94918304Y-92240380D02*
X94918304Y-91240380D01*
X95299257Y-91240380D01*
X95394495Y-91288000D01*
X95442114Y-91335619D01*
X95489733Y-91430857D01*
X95489733Y-91573714D01*
X95442114Y-91668952D01*
X95394495Y-91716571D01*
X95299257Y-91764190D01*
X94918304Y-91764190D01*
X96346876Y-91240380D02*
X96156400Y-91240380D01*
X96061161Y-91288000D01*
X96013542Y-91335619D01*
X95918304Y-91478476D01*
X95870685Y-91668952D01*
X95870685Y-92049904D01*
X95918304Y-92145142D01*
X95965923Y-92192761D01*
X96061161Y-92240380D01*
X96251638Y-92240380D01*
X96346876Y-92192761D01*
X96394495Y-92145142D01*
X96442114Y-92049904D01*
X96442114Y-91811809D01*
X96394495Y-91716571D01*
X96346876Y-91668952D01*
X96251638Y-91621333D01*
X96061161Y-91621333D01*
X95965923Y-91668952D01*
X95918304Y-91716571D01*
X95870685Y-91811809D01*
%TO.C,R10*%
X116929742Y-107084380D02*
X116596409Y-106608190D01*
X116358314Y-107084380D02*
X116358314Y-106084380D01*
X116739266Y-106084380D01*
X116834504Y-106132000D01*
X116882123Y-106179619D01*
X116929742Y-106274857D01*
X116929742Y-106417714D01*
X116882123Y-106512952D01*
X116834504Y-106560571D01*
X116739266Y-106608190D01*
X116358314Y-106608190D01*
X117882123Y-107084380D02*
X117310695Y-107084380D01*
X117596409Y-107084380D02*
X117596409Y-106084380D01*
X117501171Y-106227238D01*
X117405933Y-106322476D01*
X117310695Y-106370095D01*
X118501171Y-106084380D02*
X118596409Y-106084380D01*
X118691647Y-106132000D01*
X118739266Y-106179619D01*
X118786885Y-106274857D01*
X118834504Y-106465333D01*
X118834504Y-106703428D01*
X118786885Y-106893904D01*
X118739266Y-106989142D01*
X118691647Y-107036761D01*
X118596409Y-107084380D01*
X118501171Y-107084380D01*
X118405933Y-107036761D01*
X118358314Y-106989142D01*
X118310695Y-106893904D01*
X118263076Y-106703428D01*
X118263076Y-106465333D01*
X118310695Y-106274857D01*
X118358314Y-106179619D01*
X118405933Y-106132000D01*
X118501171Y-106084380D01*
%TO.C,C5*%
X86767942Y-122391466D02*
X86815561Y-122439085D01*
X86863180Y-122581942D01*
X86863180Y-122677180D01*
X86815561Y-122820038D01*
X86720323Y-122915276D01*
X86625085Y-122962895D01*
X86434609Y-123010514D01*
X86291752Y-123010514D01*
X86101276Y-122962895D01*
X86006038Y-122915276D01*
X85910800Y-122820038D01*
X85863180Y-122677180D01*
X85863180Y-122581942D01*
X85910800Y-122439085D01*
X85958419Y-122391466D01*
X85863180Y-121486704D02*
X85863180Y-121962895D01*
X86339371Y-122010514D01*
X86291752Y-121962895D01*
X86244133Y-121867657D01*
X86244133Y-121629561D01*
X86291752Y-121534323D01*
X86339371Y-121486704D01*
X86434609Y-121439085D01*
X86672704Y-121439085D01*
X86767942Y-121486704D01*
X86815561Y-121534323D01*
X86863180Y-121629561D01*
X86863180Y-121867657D01*
X86815561Y-121962895D01*
X86767942Y-122010514D01*
%TO.C,C17*%
X131554942Y-111570442D02*
X131507323Y-111618061D01*
X131364466Y-111665680D01*
X131269228Y-111665680D01*
X131126371Y-111618061D01*
X131031133Y-111522823D01*
X130983514Y-111427585D01*
X130935895Y-111237109D01*
X130935895Y-111094252D01*
X130983514Y-110903776D01*
X131031133Y-110808538D01*
X131126371Y-110713300D01*
X131269228Y-110665680D01*
X131364466Y-110665680D01*
X131507323Y-110713300D01*
X131554942Y-110760919D01*
X132507323Y-111665680D02*
X131935895Y-111665680D01*
X132221609Y-111665680D02*
X132221609Y-110665680D01*
X132126371Y-110808538D01*
X132031133Y-110903776D01*
X131935895Y-110951395D01*
X132840657Y-110665680D02*
X133507323Y-110665680D01*
X133078752Y-111665680D01*
%TO.C,R3*%
X82748380Y-96889866D02*
X82272190Y-97223200D01*
X82748380Y-97461295D02*
X81748380Y-97461295D01*
X81748380Y-97080342D01*
X81796000Y-96985104D01*
X81843619Y-96937485D01*
X81938857Y-96889866D01*
X82081714Y-96889866D01*
X82176952Y-96937485D01*
X82224571Y-96985104D01*
X82272190Y-97080342D01*
X82272190Y-97461295D01*
X81748380Y-96556533D02*
X81748380Y-95937485D01*
X82129333Y-96270819D01*
X82129333Y-96127961D01*
X82176952Y-96032723D01*
X82224571Y-95985104D01*
X82319809Y-95937485D01*
X82557904Y-95937485D01*
X82653142Y-95985104D01*
X82700761Y-96032723D01*
X82748380Y-96127961D01*
X82748380Y-96413676D01*
X82700761Y-96508914D01*
X82653142Y-96556533D01*
%TO.C,C10*%
X87994742Y-82583257D02*
X88042361Y-82630876D01*
X88089980Y-82773733D01*
X88089980Y-82868971D01*
X88042361Y-83011828D01*
X87947123Y-83107066D01*
X87851885Y-83154685D01*
X87661409Y-83202304D01*
X87518552Y-83202304D01*
X87328076Y-83154685D01*
X87232838Y-83107066D01*
X87137600Y-83011828D01*
X87089980Y-82868971D01*
X87089980Y-82773733D01*
X87137600Y-82630876D01*
X87185219Y-82583257D01*
X88089980Y-81630876D02*
X88089980Y-82202304D01*
X88089980Y-81916590D02*
X87089980Y-81916590D01*
X87232838Y-82011828D01*
X87328076Y-82107066D01*
X87375695Y-82202304D01*
X87089980Y-81011828D02*
X87089980Y-80916590D01*
X87137600Y-80821352D01*
X87185219Y-80773733D01*
X87280457Y-80726114D01*
X87470933Y-80678495D01*
X87709028Y-80678495D01*
X87899504Y-80726114D01*
X87994742Y-80773733D01*
X88042361Y-80821352D01*
X88089980Y-80916590D01*
X88089980Y-81011828D01*
X88042361Y-81107066D01*
X87994742Y-81154685D01*
X87899504Y-81202304D01*
X87709028Y-81249923D01*
X87470933Y-81249923D01*
X87280457Y-81202304D01*
X87185219Y-81154685D01*
X87137600Y-81107066D01*
X87089980Y-81011828D01*
%TO.C,L3*%
X91036380Y-88355466D02*
X91036380Y-88831657D01*
X90036380Y-88831657D01*
X90036380Y-88117371D02*
X90036380Y-87498323D01*
X90417333Y-87831657D01*
X90417333Y-87688800D01*
X90464952Y-87593561D01*
X90512571Y-87545942D01*
X90607809Y-87498323D01*
X90845904Y-87498323D01*
X90941142Y-87545942D01*
X90988761Y-87593561D01*
X91036380Y-87688800D01*
X91036380Y-87974514D01*
X90988761Y-88069752D01*
X90941142Y-88117371D01*
%TO.C,C12*%
X91101942Y-90171542D02*
X91054323Y-90219161D01*
X90911466Y-90266780D01*
X90816228Y-90266780D01*
X90673371Y-90219161D01*
X90578133Y-90123923D01*
X90530514Y-90028685D01*
X90482895Y-89838209D01*
X90482895Y-89695352D01*
X90530514Y-89504876D01*
X90578133Y-89409638D01*
X90673371Y-89314400D01*
X90816228Y-89266780D01*
X90911466Y-89266780D01*
X91054323Y-89314400D01*
X91101942Y-89362019D01*
X92054323Y-90266780D02*
X91482895Y-90266780D01*
X91768609Y-90266780D02*
X91768609Y-89266780D01*
X91673371Y-89409638D01*
X91578133Y-89504876D01*
X91482895Y-89552495D01*
X92435276Y-89362019D02*
X92482895Y-89314400D01*
X92578133Y-89266780D01*
X92816228Y-89266780D01*
X92911466Y-89314400D01*
X92959085Y-89362019D01*
X93006704Y-89457257D01*
X93006704Y-89552495D01*
X92959085Y-89695352D01*
X92387657Y-90266780D01*
X93006704Y-90266780D01*
%TO.C,J4*%
X150616666Y-102202380D02*
X150616666Y-102916666D01*
X150569047Y-103059523D01*
X150473809Y-103154761D01*
X150330952Y-103202380D01*
X150235714Y-103202380D01*
X151521428Y-102535714D02*
X151521428Y-103202380D01*
X151283333Y-102154761D02*
X151045238Y-102869047D01*
X151664285Y-102869047D01*
%TO.C,L5*%
X92019380Y-120867466D02*
X92019380Y-121343657D01*
X91019380Y-121343657D01*
X91019380Y-120057942D02*
X91019380Y-120534133D01*
X91495571Y-120581752D01*
X91447952Y-120534133D01*
X91400333Y-120438895D01*
X91400333Y-120200800D01*
X91447952Y-120105561D01*
X91495571Y-120057942D01*
X91590809Y-120010323D01*
X91828904Y-120010323D01*
X91924142Y-120057942D01*
X91971761Y-120105561D01*
X92019380Y-120200800D01*
X92019380Y-120438895D01*
X91971761Y-120534133D01*
X91924142Y-120581752D01*
%TO.C,L6*%
X127107933Y-107069180D02*
X126631742Y-107069180D01*
X126631742Y-106069180D01*
X127869838Y-106069180D02*
X127679361Y-106069180D01*
X127584123Y-106116800D01*
X127536504Y-106164419D01*
X127441266Y-106307276D01*
X127393647Y-106497752D01*
X127393647Y-106878704D01*
X127441266Y-106973942D01*
X127488885Y-107021561D01*
X127584123Y-107069180D01*
X127774600Y-107069180D01*
X127869838Y-107021561D01*
X127917457Y-106973942D01*
X127965076Y-106878704D01*
X127965076Y-106640609D01*
X127917457Y-106545371D01*
X127869838Y-106497752D01*
X127774600Y-106450133D01*
X127584123Y-106450133D01*
X127488885Y-106497752D01*
X127441266Y-106545371D01*
X127393647Y-106640609D01*
%TO.C,C14*%
X91127342Y-126239542D02*
X91079723Y-126287161D01*
X90936866Y-126334780D01*
X90841628Y-126334780D01*
X90698771Y-126287161D01*
X90603533Y-126191923D01*
X90555914Y-126096685D01*
X90508295Y-125906209D01*
X90508295Y-125763352D01*
X90555914Y-125572876D01*
X90603533Y-125477638D01*
X90698771Y-125382400D01*
X90841628Y-125334780D01*
X90936866Y-125334780D01*
X91079723Y-125382400D01*
X91127342Y-125430019D01*
X92079723Y-126334780D02*
X91508295Y-126334780D01*
X91794009Y-126334780D02*
X91794009Y-125334780D01*
X91698771Y-125477638D01*
X91603533Y-125572876D01*
X91508295Y-125620495D01*
X92936866Y-125668114D02*
X92936866Y-126334780D01*
X92698771Y-125287161D02*
X92460676Y-126001447D01*
X93079723Y-126001447D01*
%TO.C,C23*%
X129109742Y-86088457D02*
X129157361Y-86136076D01*
X129204980Y-86278933D01*
X129204980Y-86374171D01*
X129157361Y-86517028D01*
X129062123Y-86612266D01*
X128966885Y-86659885D01*
X128776409Y-86707504D01*
X128633552Y-86707504D01*
X128443076Y-86659885D01*
X128347838Y-86612266D01*
X128252600Y-86517028D01*
X128204980Y-86374171D01*
X128204980Y-86278933D01*
X128252600Y-86136076D01*
X128300219Y-86088457D01*
X128300219Y-85707504D02*
X128252600Y-85659885D01*
X128204980Y-85564647D01*
X128204980Y-85326552D01*
X128252600Y-85231314D01*
X128300219Y-85183695D01*
X128395457Y-85136076D01*
X128490695Y-85136076D01*
X128633552Y-85183695D01*
X129204980Y-85755123D01*
X129204980Y-85136076D01*
X128204980Y-84802742D02*
X128204980Y-84183695D01*
X128585933Y-84517028D01*
X128585933Y-84374171D01*
X128633552Y-84278933D01*
X128681171Y-84231314D01*
X128776409Y-84183695D01*
X129014504Y-84183695D01*
X129109742Y-84231314D01*
X129157361Y-84278933D01*
X129204980Y-84374171D01*
X129204980Y-84659885D01*
X129157361Y-84755123D01*
X129109742Y-84802742D01*
%TO.C,C24*%
X132404942Y-121220442D02*
X132357323Y-121268061D01*
X132214466Y-121315680D01*
X132119228Y-121315680D01*
X131976371Y-121268061D01*
X131881133Y-121172823D01*
X131833514Y-121077585D01*
X131785895Y-120887109D01*
X131785895Y-120744252D01*
X131833514Y-120553776D01*
X131881133Y-120458538D01*
X131976371Y-120363300D01*
X132119228Y-120315680D01*
X132214466Y-120315680D01*
X132357323Y-120363300D01*
X132404942Y-120410919D01*
X132785895Y-120410919D02*
X132833514Y-120363300D01*
X132928752Y-120315680D01*
X133166847Y-120315680D01*
X133262085Y-120363300D01*
X133309704Y-120410919D01*
X133357323Y-120506157D01*
X133357323Y-120601395D01*
X133309704Y-120744252D01*
X132738276Y-121315680D01*
X133357323Y-121315680D01*
X134214466Y-120649014D02*
X134214466Y-121315680D01*
X133976371Y-120268061D02*
X133738276Y-120982347D01*
X134357323Y-120982347D01*
%TO.C,R15*%
X144004942Y-109306880D02*
X143671609Y-108830690D01*
X143433514Y-109306880D02*
X143433514Y-108306880D01*
X143814466Y-108306880D01*
X143909704Y-108354500D01*
X143957323Y-108402119D01*
X144004942Y-108497357D01*
X144004942Y-108640214D01*
X143957323Y-108735452D01*
X143909704Y-108783071D01*
X143814466Y-108830690D01*
X143433514Y-108830690D01*
X144957323Y-109306880D02*
X144385895Y-109306880D01*
X144671609Y-109306880D02*
X144671609Y-108306880D01*
X144576371Y-108449738D01*
X144481133Y-108544976D01*
X144385895Y-108592595D01*
X145862085Y-108306880D02*
X145385895Y-108306880D01*
X145338276Y-108783071D01*
X145385895Y-108735452D01*
X145481133Y-108687833D01*
X145719228Y-108687833D01*
X145814466Y-108735452D01*
X145862085Y-108783071D01*
X145909704Y-108878309D01*
X145909704Y-109116404D01*
X145862085Y-109211642D01*
X145814466Y-109259261D01*
X145719228Y-109306880D01*
X145481133Y-109306880D01*
X145385895Y-109259261D01*
X145338276Y-109211642D01*
%TO.C,C21*%
X130154942Y-115120442D02*
X130107323Y-115168061D01*
X129964466Y-115215680D01*
X129869228Y-115215680D01*
X129726371Y-115168061D01*
X129631133Y-115072823D01*
X129583514Y-114977585D01*
X129535895Y-114787109D01*
X129535895Y-114644252D01*
X129583514Y-114453776D01*
X129631133Y-114358538D01*
X129726371Y-114263300D01*
X129869228Y-114215680D01*
X129964466Y-114215680D01*
X130107323Y-114263300D01*
X130154942Y-114310919D01*
X130535895Y-114310919D02*
X130583514Y-114263300D01*
X130678752Y-114215680D01*
X130916847Y-114215680D01*
X131012085Y-114263300D01*
X131059704Y-114310919D01*
X131107323Y-114406157D01*
X131107323Y-114501395D01*
X131059704Y-114644252D01*
X130488276Y-115215680D01*
X131107323Y-115215680D01*
X132059704Y-115215680D02*
X131488276Y-115215680D01*
X131773990Y-115215680D02*
X131773990Y-114215680D01*
X131678752Y-114358538D01*
X131583514Y-114453776D01*
X131488276Y-114501395D01*
%TO.C,R5*%
X94067333Y-128163580D02*
X93734000Y-127687390D01*
X93495904Y-128163580D02*
X93495904Y-127163580D01*
X93876857Y-127163580D01*
X93972095Y-127211200D01*
X94019714Y-127258819D01*
X94067333Y-127354057D01*
X94067333Y-127496914D01*
X94019714Y-127592152D01*
X93972095Y-127639771D01*
X93876857Y-127687390D01*
X93495904Y-127687390D01*
X94972095Y-127163580D02*
X94495904Y-127163580D01*
X94448285Y-127639771D01*
X94495904Y-127592152D01*
X94591142Y-127544533D01*
X94829238Y-127544533D01*
X94924476Y-127592152D01*
X94972095Y-127639771D01*
X95019714Y-127735009D01*
X95019714Y-127973104D01*
X94972095Y-128068342D01*
X94924476Y-128115961D01*
X94829238Y-128163580D01*
X94591142Y-128163580D01*
X94495904Y-128115961D01*
X94448285Y-128068342D01*
%TO.C,C18*%
X131504942Y-105420442D02*
X131457323Y-105468061D01*
X131314466Y-105515680D01*
X131219228Y-105515680D01*
X131076371Y-105468061D01*
X130981133Y-105372823D01*
X130933514Y-105277585D01*
X130885895Y-105087109D01*
X130885895Y-104944252D01*
X130933514Y-104753776D01*
X130981133Y-104658538D01*
X131076371Y-104563300D01*
X131219228Y-104515680D01*
X131314466Y-104515680D01*
X131457323Y-104563300D01*
X131504942Y-104610919D01*
X132457323Y-105515680D02*
X131885895Y-105515680D01*
X132171609Y-105515680D02*
X132171609Y-104515680D01*
X132076371Y-104658538D01*
X131981133Y-104753776D01*
X131885895Y-104801395D01*
X133028752Y-104944252D02*
X132933514Y-104896633D01*
X132885895Y-104849014D01*
X132838276Y-104753776D01*
X132838276Y-104706157D01*
X132885895Y-104610919D01*
X132933514Y-104563300D01*
X133028752Y-104515680D01*
X133219228Y-104515680D01*
X133314466Y-104563300D01*
X133362085Y-104610919D01*
X133409704Y-104706157D01*
X133409704Y-104753776D01*
X133362085Y-104849014D01*
X133314466Y-104896633D01*
X133219228Y-104944252D01*
X133028752Y-104944252D01*
X132933514Y-104991871D01*
X132885895Y-105039490D01*
X132838276Y-105134728D01*
X132838276Y-105325204D01*
X132885895Y-105420442D01*
X132933514Y-105468061D01*
X133028752Y-105515680D01*
X133219228Y-105515680D01*
X133314466Y-105468061D01*
X133362085Y-105420442D01*
X133409704Y-105325204D01*
X133409704Y-105134728D01*
X133362085Y-105039490D01*
X133314466Y-104991871D01*
X133219228Y-104944252D01*
%TO.C,C20*%
X137854942Y-121220442D02*
X137807323Y-121268061D01*
X137664466Y-121315680D01*
X137569228Y-121315680D01*
X137426371Y-121268061D01*
X137331133Y-121172823D01*
X137283514Y-121077585D01*
X137235895Y-120887109D01*
X137235895Y-120744252D01*
X137283514Y-120553776D01*
X137331133Y-120458538D01*
X137426371Y-120363300D01*
X137569228Y-120315680D01*
X137664466Y-120315680D01*
X137807323Y-120363300D01*
X137854942Y-120410919D01*
X138235895Y-120410919D02*
X138283514Y-120363300D01*
X138378752Y-120315680D01*
X138616847Y-120315680D01*
X138712085Y-120363300D01*
X138759704Y-120410919D01*
X138807323Y-120506157D01*
X138807323Y-120601395D01*
X138759704Y-120744252D01*
X138188276Y-121315680D01*
X138807323Y-121315680D01*
X139426371Y-120315680D02*
X139521609Y-120315680D01*
X139616847Y-120363300D01*
X139664466Y-120410919D01*
X139712085Y-120506157D01*
X139759704Y-120696633D01*
X139759704Y-120934728D01*
X139712085Y-121125204D01*
X139664466Y-121220442D01*
X139616847Y-121268061D01*
X139521609Y-121315680D01*
X139426371Y-121315680D01*
X139331133Y-121268061D01*
X139283514Y-121220442D01*
X139235895Y-121125204D01*
X139188276Y-120934728D01*
X139188276Y-120696633D01*
X139235895Y-120506157D01*
X139283514Y-120410919D01*
X139331133Y-120363300D01*
X139426371Y-120315680D01*
%TO.C,R11*%
X119471342Y-112219980D02*
X119138009Y-111743790D01*
X118899914Y-112219980D02*
X118899914Y-111219980D01*
X119280866Y-111219980D01*
X119376104Y-111267600D01*
X119423723Y-111315219D01*
X119471342Y-111410457D01*
X119471342Y-111553314D01*
X119423723Y-111648552D01*
X119376104Y-111696171D01*
X119280866Y-111743790D01*
X118899914Y-111743790D01*
X120423723Y-112219980D02*
X119852295Y-112219980D01*
X120138009Y-112219980D02*
X120138009Y-111219980D01*
X120042771Y-111362838D01*
X119947533Y-111458076D01*
X119852295Y-111505695D01*
X121376104Y-112219980D02*
X120804676Y-112219980D01*
X121090390Y-112219980D02*
X121090390Y-111219980D01*
X120995152Y-111362838D01*
X120899914Y-111458076D01*
X120804676Y-111505695D01*
%TO.C,R4*%
X92247980Y-94197466D02*
X91771790Y-94530800D01*
X92247980Y-94768895D02*
X91247980Y-94768895D01*
X91247980Y-94387942D01*
X91295600Y-94292704D01*
X91343219Y-94245085D01*
X91438457Y-94197466D01*
X91581314Y-94197466D01*
X91676552Y-94245085D01*
X91724171Y-94292704D01*
X91771790Y-94387942D01*
X91771790Y-94768895D01*
X91581314Y-93340323D02*
X92247980Y-93340323D01*
X91200361Y-93578419D02*
X91914647Y-93816514D01*
X91914647Y-93197466D01*
%TO.C,J1*%
X72779080Y-100002933D02*
X73493366Y-100002933D01*
X73636223Y-100050552D01*
X73731461Y-100145790D01*
X73779080Y-100288647D01*
X73779080Y-100383885D01*
X73779080Y-99002933D02*
X73779080Y-99574361D01*
X73779080Y-99288647D02*
X72779080Y-99288647D01*
X72921938Y-99383885D01*
X73017176Y-99479123D01*
X73064795Y-99574361D01*
%TO.C,C15*%
X123790142Y-113520442D02*
X123742523Y-113568061D01*
X123599666Y-113615680D01*
X123504428Y-113615680D01*
X123361571Y-113568061D01*
X123266333Y-113472823D01*
X123218714Y-113377585D01*
X123171095Y-113187109D01*
X123171095Y-113044252D01*
X123218714Y-112853776D01*
X123266333Y-112758538D01*
X123361571Y-112663300D01*
X123504428Y-112615680D01*
X123599666Y-112615680D01*
X123742523Y-112663300D01*
X123790142Y-112710919D01*
X124742523Y-113615680D02*
X124171095Y-113615680D01*
X124456809Y-113615680D02*
X124456809Y-112615680D01*
X124361571Y-112758538D01*
X124266333Y-112853776D01*
X124171095Y-112901395D01*
X125647285Y-112615680D02*
X125171095Y-112615680D01*
X125123476Y-113091871D01*
X125171095Y-113044252D01*
X125266333Y-112996633D01*
X125504428Y-112996633D01*
X125599666Y-113044252D01*
X125647285Y-113091871D01*
X125694904Y-113187109D01*
X125694904Y-113425204D01*
X125647285Y-113520442D01*
X125599666Y-113568061D01*
X125504428Y-113615680D01*
X125266333Y-113615680D01*
X125171095Y-113568061D01*
X125123476Y-113520442D01*
%TO.C,L8*%
X141331133Y-115715680D02*
X140854942Y-115715680D01*
X140854942Y-114715680D01*
X141807323Y-115144252D02*
X141712085Y-115096633D01*
X141664466Y-115049014D01*
X141616847Y-114953776D01*
X141616847Y-114906157D01*
X141664466Y-114810919D01*
X141712085Y-114763300D01*
X141807323Y-114715680D01*
X141997800Y-114715680D01*
X142093038Y-114763300D01*
X142140657Y-114810919D01*
X142188276Y-114906157D01*
X142188276Y-114953776D01*
X142140657Y-115049014D01*
X142093038Y-115096633D01*
X141997800Y-115144252D01*
X141807323Y-115144252D01*
X141712085Y-115191871D01*
X141664466Y-115239490D01*
X141616847Y-115334728D01*
X141616847Y-115525204D01*
X141664466Y-115620442D01*
X141712085Y-115668061D01*
X141807323Y-115715680D01*
X141997800Y-115715680D01*
X142093038Y-115668061D01*
X142140657Y-115620442D01*
X142188276Y-115525204D01*
X142188276Y-115334728D01*
X142140657Y-115239490D01*
X142093038Y-115191871D01*
X141997800Y-115144252D01*
%TO.C,C25*%
X138704942Y-113770442D02*
X138657323Y-113818061D01*
X138514466Y-113865680D01*
X138419228Y-113865680D01*
X138276371Y-113818061D01*
X138181133Y-113722823D01*
X138133514Y-113627585D01*
X138085895Y-113437109D01*
X138085895Y-113294252D01*
X138133514Y-113103776D01*
X138181133Y-113008538D01*
X138276371Y-112913300D01*
X138419228Y-112865680D01*
X138514466Y-112865680D01*
X138657323Y-112913300D01*
X138704942Y-112960919D01*
X139085895Y-112960919D02*
X139133514Y-112913300D01*
X139228752Y-112865680D01*
X139466847Y-112865680D01*
X139562085Y-112913300D01*
X139609704Y-112960919D01*
X139657323Y-113056157D01*
X139657323Y-113151395D01*
X139609704Y-113294252D01*
X139038276Y-113865680D01*
X139657323Y-113865680D01*
X140562085Y-112865680D02*
X140085895Y-112865680D01*
X140038276Y-113341871D01*
X140085895Y-113294252D01*
X140181133Y-113246633D01*
X140419228Y-113246633D01*
X140514466Y-113294252D01*
X140562085Y-113341871D01*
X140609704Y-113437109D01*
X140609704Y-113675204D01*
X140562085Y-113770442D01*
X140514466Y-113818061D01*
X140419228Y-113865680D01*
X140181133Y-113865680D01*
X140085895Y-113818061D01*
X140038276Y-113770442D01*
%TO.C,C2*%
X80773542Y-127217466D02*
X80821161Y-127265085D01*
X80868780Y-127407942D01*
X80868780Y-127503180D01*
X80821161Y-127646038D01*
X80725923Y-127741276D01*
X80630685Y-127788895D01*
X80440209Y-127836514D01*
X80297352Y-127836514D01*
X80106876Y-127788895D01*
X80011638Y-127741276D01*
X79916400Y-127646038D01*
X79868780Y-127503180D01*
X79868780Y-127407942D01*
X79916400Y-127265085D01*
X79964019Y-127217466D01*
X79964019Y-126836514D02*
X79916400Y-126788895D01*
X79868780Y-126693657D01*
X79868780Y-126455561D01*
X79916400Y-126360323D01*
X79964019Y-126312704D01*
X80059257Y-126265085D01*
X80154495Y-126265085D01*
X80297352Y-126312704D01*
X80868780Y-126884133D01*
X80868780Y-126265085D01*
%TO.C,C26*%
X138104942Y-107220442D02*
X138057323Y-107268061D01*
X137914466Y-107315680D01*
X137819228Y-107315680D01*
X137676371Y-107268061D01*
X137581133Y-107172823D01*
X137533514Y-107077585D01*
X137485895Y-106887109D01*
X137485895Y-106744252D01*
X137533514Y-106553776D01*
X137581133Y-106458538D01*
X137676371Y-106363300D01*
X137819228Y-106315680D01*
X137914466Y-106315680D01*
X138057323Y-106363300D01*
X138104942Y-106410919D01*
X138485895Y-106410919D02*
X138533514Y-106363300D01*
X138628752Y-106315680D01*
X138866847Y-106315680D01*
X138962085Y-106363300D01*
X139009704Y-106410919D01*
X139057323Y-106506157D01*
X139057323Y-106601395D01*
X139009704Y-106744252D01*
X138438276Y-107315680D01*
X139057323Y-107315680D01*
X139914466Y-106315680D02*
X139723990Y-106315680D01*
X139628752Y-106363300D01*
X139581133Y-106410919D01*
X139485895Y-106553776D01*
X139438276Y-106744252D01*
X139438276Y-107125204D01*
X139485895Y-107220442D01*
X139533514Y-107268061D01*
X139628752Y-107315680D01*
X139819228Y-107315680D01*
X139914466Y-107268061D01*
X139962085Y-107220442D01*
X140009704Y-107125204D01*
X140009704Y-106887109D01*
X139962085Y-106791871D01*
X139914466Y-106744252D01*
X139819228Y-106696633D01*
X139628752Y-106696633D01*
X139533514Y-106744252D01*
X139485895Y-106791871D01*
X139438276Y-106887109D01*
%TO.C,C13*%
X88393542Y-112961657D02*
X88441161Y-113009276D01*
X88488780Y-113152133D01*
X88488780Y-113247371D01*
X88441161Y-113390228D01*
X88345923Y-113485466D01*
X88250685Y-113533085D01*
X88060209Y-113580704D01*
X87917352Y-113580704D01*
X87726876Y-113533085D01*
X87631638Y-113485466D01*
X87536400Y-113390228D01*
X87488780Y-113247371D01*
X87488780Y-113152133D01*
X87536400Y-113009276D01*
X87584019Y-112961657D01*
X88488780Y-112009276D02*
X88488780Y-112580704D01*
X88488780Y-112294990D02*
X87488780Y-112294990D01*
X87631638Y-112390228D01*
X87726876Y-112485466D01*
X87774495Y-112580704D01*
X87488780Y-111675942D02*
X87488780Y-111056895D01*
X87869733Y-111390228D01*
X87869733Y-111247371D01*
X87917352Y-111152133D01*
X87964971Y-111104514D01*
X88060209Y-111056895D01*
X88298304Y-111056895D01*
X88393542Y-111104514D01*
X88441161Y-111152133D01*
X88488780Y-111247371D01*
X88488780Y-111533085D01*
X88441161Y-111628323D01*
X88393542Y-111675942D01*
%TO.C,C28*%
X101316342Y-85665237D02*
X101363961Y-85712856D01*
X101411580Y-85855713D01*
X101411580Y-85950951D01*
X101363961Y-86093808D01*
X101268723Y-86189046D01*
X101173485Y-86236665D01*
X100983009Y-86284284D01*
X100840152Y-86284284D01*
X100649676Y-86236665D01*
X100554438Y-86189046D01*
X100459200Y-86093808D01*
X100411580Y-85950951D01*
X100411580Y-85855713D01*
X100459200Y-85712856D01*
X100506819Y-85665237D01*
X100506819Y-85284284D02*
X100459200Y-85236665D01*
X100411580Y-85141427D01*
X100411580Y-84903332D01*
X100459200Y-84808094D01*
X100506819Y-84760475D01*
X100602057Y-84712856D01*
X100697295Y-84712856D01*
X100840152Y-84760475D01*
X101411580Y-85331903D01*
X101411580Y-84712856D01*
X100840152Y-84141427D02*
X100792533Y-84236665D01*
X100744914Y-84284284D01*
X100649676Y-84331903D01*
X100602057Y-84331903D01*
X100506819Y-84284284D01*
X100459200Y-84236665D01*
X100411580Y-84141427D01*
X100411580Y-83950951D01*
X100459200Y-83855713D01*
X100506819Y-83808094D01*
X100602057Y-83760475D01*
X100649676Y-83760475D01*
X100744914Y-83808094D01*
X100792533Y-83855713D01*
X100840152Y-83950951D01*
X100840152Y-84141427D01*
X100887771Y-84236665D01*
X100935390Y-84284284D01*
X101030628Y-84331903D01*
X101221104Y-84331903D01*
X101316342Y-84284284D01*
X101363961Y-84236665D01*
X101411580Y-84141427D01*
X101411580Y-83950951D01*
X101363961Y-83855713D01*
X101316342Y-83808094D01*
X101221104Y-83760475D01*
X101030628Y-83760475D01*
X100935390Y-83808094D01*
X100887771Y-83855713D01*
X100840152Y-83950951D01*
%TO.C,M1*%
X113558580Y-103908123D02*
X112558580Y-103908123D01*
X113272866Y-103574790D01*
X112558580Y-103241457D01*
X113558580Y-103241457D01*
X113558580Y-102241457D02*
X113558580Y-102812885D01*
X113558580Y-102527171D02*
X112558580Y-102527171D01*
X112701438Y-102622409D01*
X112796676Y-102717647D01*
X112844295Y-102812885D01*
X101188780Y-95854876D02*
X100712590Y-96188209D01*
X101188780Y-96426304D02*
X100188780Y-96426304D01*
X100188780Y-96045352D01*
X100236400Y-95950114D01*
X100284019Y-95902495D01*
X100379257Y-95854876D01*
X100522114Y-95854876D01*
X100617352Y-95902495D01*
X100664971Y-95950114D01*
X100712590Y-96045352D01*
X100712590Y-96426304D01*
X84844000Y-109016704D02*
X84796380Y-109111942D01*
X84796380Y-109254800D01*
X84844000Y-109397657D01*
X84939238Y-109492895D01*
X85034476Y-109540514D01*
X85224952Y-109588133D01*
X85367809Y-109588133D01*
X85558285Y-109540514D01*
X85653523Y-109492895D01*
X85748761Y-109397657D01*
X85796380Y-109254800D01*
X85796380Y-109159561D01*
X85748761Y-109016704D01*
X85701142Y-108969085D01*
X85367809Y-108969085D01*
X85367809Y-109159561D01*
X85796380Y-108540514D02*
X84796380Y-108540514D01*
X85796380Y-107969085D01*
X84796380Y-107969085D01*
X85796380Y-107492895D02*
X84796380Y-107492895D01*
X84796380Y-107254800D01*
X84844000Y-107111942D01*
X84939238Y-107016704D01*
X85034476Y-106969085D01*
X85224952Y-106921466D01*
X85367809Y-106921466D01*
X85558285Y-106969085D01*
X85653523Y-107016704D01*
X85748761Y-107111942D01*
X85796380Y-107254800D01*
X85796380Y-107492895D01*
X111729780Y-108331000D02*
X110729780Y-108331000D01*
X101137980Y-120213476D02*
X101137980Y-120689666D01*
X100137980Y-120689666D01*
%TO.C,C19*%
X141304942Y-117920442D02*
X141257323Y-117968061D01*
X141114466Y-118015680D01*
X141019228Y-118015680D01*
X140876371Y-117968061D01*
X140781133Y-117872823D01*
X140733514Y-117777585D01*
X140685895Y-117587109D01*
X140685895Y-117444252D01*
X140733514Y-117253776D01*
X140781133Y-117158538D01*
X140876371Y-117063300D01*
X141019228Y-117015680D01*
X141114466Y-117015680D01*
X141257323Y-117063300D01*
X141304942Y-117110919D01*
X142257323Y-118015680D02*
X141685895Y-118015680D01*
X141971609Y-118015680D02*
X141971609Y-117015680D01*
X141876371Y-117158538D01*
X141781133Y-117253776D01*
X141685895Y-117301395D01*
X142733514Y-118015680D02*
X142923990Y-118015680D01*
X143019228Y-117968061D01*
X143066847Y-117920442D01*
X143162085Y-117777585D01*
X143209704Y-117587109D01*
X143209704Y-117206157D01*
X143162085Y-117110919D01*
X143114466Y-117063300D01*
X143019228Y-117015680D01*
X142828752Y-117015680D01*
X142733514Y-117063300D01*
X142685895Y-117110919D01*
X142638276Y-117206157D01*
X142638276Y-117444252D01*
X142685895Y-117539490D01*
X142733514Y-117587109D01*
X142828752Y-117634728D01*
X143019228Y-117634728D01*
X143114466Y-117587109D01*
X143162085Y-117539490D01*
X143209704Y-117444252D01*
%TO.C,L7*%
X135731133Y-121315680D02*
X135254942Y-121315680D01*
X135254942Y-120315680D01*
X135969228Y-120315680D02*
X136635895Y-120315680D01*
X136207323Y-121315680D01*
%TO.C,R2*%
X79487733Y-91732380D02*
X79154400Y-91256190D01*
X78916304Y-91732380D02*
X78916304Y-90732380D01*
X79297257Y-90732380D01*
X79392495Y-90780000D01*
X79440114Y-90827619D01*
X79487733Y-90922857D01*
X79487733Y-91065714D01*
X79440114Y-91160952D01*
X79392495Y-91208571D01*
X79297257Y-91256190D01*
X78916304Y-91256190D01*
X79868685Y-90827619D02*
X79916304Y-90780000D01*
X80011542Y-90732380D01*
X80249638Y-90732380D01*
X80344876Y-90780000D01*
X80392495Y-90827619D01*
X80440114Y-90922857D01*
X80440114Y-91018095D01*
X80392495Y-91160952D01*
X79821066Y-91732380D01*
X80440114Y-91732380D01*
D11*
%TO.C,IC2*%
X86999838Y-127625323D02*
X86999838Y-126355323D01*
X88330314Y-127504371D02*
X88269838Y-127564847D01*
X88088409Y-127625323D01*
X87967457Y-127625323D01*
X87786028Y-127564847D01*
X87665076Y-127443895D01*
X87604600Y-127322942D01*
X87544123Y-127081038D01*
X87544123Y-126899609D01*
X87604600Y-126657704D01*
X87665076Y-126536752D01*
X87786028Y-126415800D01*
X87967457Y-126355323D01*
X88088409Y-126355323D01*
X88269838Y-126415800D01*
X88330314Y-126476276D01*
X88814123Y-126476276D02*
X88874600Y-126415800D01*
X88995552Y-126355323D01*
X89297933Y-126355323D01*
X89418885Y-126415800D01*
X89479361Y-126476276D01*
X89539838Y-126597228D01*
X89539838Y-126718180D01*
X89479361Y-126899609D01*
X88753647Y-127625323D01*
X89539838Y-127625323D01*
D10*
%TO.C,C16*%
X128997942Y-113438342D02*
X128950323Y-113485961D01*
X128807466Y-113533580D01*
X128712228Y-113533580D01*
X128569371Y-113485961D01*
X128474133Y-113390723D01*
X128426514Y-113295485D01*
X128378895Y-113105009D01*
X128378895Y-112962152D01*
X128426514Y-112771676D01*
X128474133Y-112676438D01*
X128569371Y-112581200D01*
X128712228Y-112533580D01*
X128807466Y-112533580D01*
X128950323Y-112581200D01*
X128997942Y-112628819D01*
X129950323Y-113533580D02*
X129378895Y-113533580D01*
X129664609Y-113533580D02*
X129664609Y-112533580D01*
X129569371Y-112676438D01*
X129474133Y-112771676D01*
X129378895Y-112819295D01*
X130807466Y-112533580D02*
X130616990Y-112533580D01*
X130521752Y-112581200D01*
X130474133Y-112628819D01*
X130378895Y-112771676D01*
X130331276Y-112962152D01*
X130331276Y-113343104D01*
X130378895Y-113438342D01*
X130426514Y-113485961D01*
X130521752Y-113533580D01*
X130712228Y-113533580D01*
X130807466Y-113485961D01*
X130855085Y-113438342D01*
X130902704Y-113343104D01*
X130902704Y-113105009D01*
X130855085Y-113009771D01*
X130807466Y-112962152D01*
X130712228Y-112914533D01*
X130521752Y-112914533D01*
X130426514Y-112962152D01*
X130378895Y-113009771D01*
X130331276Y-113105009D01*
%TO.C,C8*%
X82297542Y-85967866D02*
X82345161Y-86015485D01*
X82392780Y-86158342D01*
X82392780Y-86253580D01*
X82345161Y-86396438D01*
X82249923Y-86491676D01*
X82154685Y-86539295D01*
X81964209Y-86586914D01*
X81821352Y-86586914D01*
X81630876Y-86539295D01*
X81535638Y-86491676D01*
X81440400Y-86396438D01*
X81392780Y-86253580D01*
X81392780Y-86158342D01*
X81440400Y-86015485D01*
X81488019Y-85967866D01*
X81821352Y-85396438D02*
X81773733Y-85491676D01*
X81726114Y-85539295D01*
X81630876Y-85586914D01*
X81583257Y-85586914D01*
X81488019Y-85539295D01*
X81440400Y-85491676D01*
X81392780Y-85396438D01*
X81392780Y-85205961D01*
X81440400Y-85110723D01*
X81488019Y-85063104D01*
X81583257Y-85015485D01*
X81630876Y-85015485D01*
X81726114Y-85063104D01*
X81773733Y-85110723D01*
X81821352Y-85205961D01*
X81821352Y-85396438D01*
X81868971Y-85491676D01*
X81916590Y-85539295D01*
X82011828Y-85586914D01*
X82202304Y-85586914D01*
X82297542Y-85539295D01*
X82345161Y-85491676D01*
X82392780Y-85396438D01*
X82392780Y-85205961D01*
X82345161Y-85110723D01*
X82297542Y-85063104D01*
X82202304Y-85015485D01*
X82011828Y-85015485D01*
X81916590Y-85063104D01*
X81868971Y-85110723D01*
X81821352Y-85205961D01*
%TO.C,C11*%
X94556342Y-85091542D02*
X94508723Y-85139161D01*
X94365866Y-85186780D01*
X94270628Y-85186780D01*
X94127771Y-85139161D01*
X94032533Y-85043923D01*
X93984914Y-84948685D01*
X93937295Y-84758209D01*
X93937295Y-84615352D01*
X93984914Y-84424876D01*
X94032533Y-84329638D01*
X94127771Y-84234400D01*
X94270628Y-84186780D01*
X94365866Y-84186780D01*
X94508723Y-84234400D01*
X94556342Y-84282019D01*
X95508723Y-85186780D02*
X94937295Y-85186780D01*
X95223009Y-85186780D02*
X95223009Y-84186780D01*
X95127771Y-84329638D01*
X95032533Y-84424876D01*
X94937295Y-84472495D01*
X96461104Y-85186780D02*
X95889676Y-85186780D01*
X96175390Y-85186780D02*
X96175390Y-84186780D01*
X96080152Y-84329638D01*
X95984914Y-84424876D01*
X95889676Y-84472495D01*
%TO.C,IC3*%
X135021609Y-107065680D02*
X135021609Y-106065680D01*
X136069228Y-106970442D02*
X136021609Y-107018061D01*
X135878752Y-107065680D01*
X135783514Y-107065680D01*
X135640657Y-107018061D01*
X135545419Y-106922823D01*
X135497800Y-106827585D01*
X135450180Y-106637109D01*
X135450180Y-106494252D01*
X135497800Y-106303776D01*
X135545419Y-106208538D01*
X135640657Y-106113300D01*
X135783514Y-106065680D01*
X135878752Y-106065680D01*
X136021609Y-106113300D01*
X136069228Y-106160919D01*
X136402561Y-106065680D02*
X137021609Y-106065680D01*
X136688276Y-106446633D01*
X136831133Y-106446633D01*
X136926371Y-106494252D01*
X136973990Y-106541871D01*
X137021609Y-106637109D01*
X137021609Y-106875204D01*
X136973990Y-106970442D01*
X136926371Y-107018061D01*
X136831133Y-107065680D01*
X136545419Y-107065680D01*
X136450180Y-107018061D01*
X136402561Y-106970442D01*
%TO.C,R8*%
X98994933Y-128163580D02*
X98661600Y-127687390D01*
X98423504Y-128163580D02*
X98423504Y-127163580D01*
X98804457Y-127163580D01*
X98899695Y-127211200D01*
X98947314Y-127258819D01*
X98994933Y-127354057D01*
X98994933Y-127496914D01*
X98947314Y-127592152D01*
X98899695Y-127639771D01*
X98804457Y-127687390D01*
X98423504Y-127687390D01*
X99566361Y-127592152D02*
X99471123Y-127544533D01*
X99423504Y-127496914D01*
X99375885Y-127401676D01*
X99375885Y-127354057D01*
X99423504Y-127258819D01*
X99471123Y-127211200D01*
X99566361Y-127163580D01*
X99756838Y-127163580D01*
X99852076Y-127211200D01*
X99899695Y-127258819D01*
X99947314Y-127354057D01*
X99947314Y-127401676D01*
X99899695Y-127496914D01*
X99852076Y-127544533D01*
X99756838Y-127592152D01*
X99566361Y-127592152D01*
X99471123Y-127639771D01*
X99423504Y-127687390D01*
X99375885Y-127782628D01*
X99375885Y-127973104D01*
X99423504Y-128068342D01*
X99471123Y-128115961D01*
X99566361Y-128163580D01*
X99756838Y-128163580D01*
X99852076Y-128115961D01*
X99899695Y-128068342D01*
X99947314Y-127973104D01*
X99947314Y-127782628D01*
X99899695Y-127687390D01*
X99852076Y-127639771D01*
X99756838Y-127592152D01*
%TO.C,L1*%
X79284533Y-124244380D02*
X78808342Y-124244380D01*
X78808342Y-123244380D01*
X80141676Y-124244380D02*
X79570247Y-124244380D01*
X79855961Y-124244380D02*
X79855961Y-123244380D01*
X79760723Y-123387238D01*
X79665485Y-123482476D01*
X79570247Y-123530095D01*
%TO.C,C22*%
X136837142Y-89522857D02*
X136884761Y-89570476D01*
X136932380Y-89713333D01*
X136932380Y-89808571D01*
X136884761Y-89951428D01*
X136789523Y-90046666D01*
X136694285Y-90094285D01*
X136503809Y-90141904D01*
X136360952Y-90141904D01*
X136170476Y-90094285D01*
X136075238Y-90046666D01*
X135980000Y-89951428D01*
X135932380Y-89808571D01*
X135932380Y-89713333D01*
X135980000Y-89570476D01*
X136027619Y-89522857D01*
X136027619Y-89141904D02*
X135980000Y-89094285D01*
X135932380Y-88999047D01*
X135932380Y-88760952D01*
X135980000Y-88665714D01*
X136027619Y-88618095D01*
X136122857Y-88570476D01*
X136218095Y-88570476D01*
X136360952Y-88618095D01*
X136932380Y-89189523D01*
X136932380Y-88570476D01*
X136027619Y-88189523D02*
X135980000Y-88141904D01*
X135932380Y-88046666D01*
X135932380Y-87808571D01*
X135980000Y-87713333D01*
X136027619Y-87665714D01*
X136122857Y-87618095D01*
X136218095Y-87618095D01*
X136360952Y-87665714D01*
X136932380Y-88237142D01*
X136932380Y-87618095D01*
%TO.C,C27*%
X114817142Y-92082857D02*
X114864761Y-92130476D01*
X114912380Y-92273333D01*
X114912380Y-92368571D01*
X114864761Y-92511428D01*
X114769523Y-92606666D01*
X114674285Y-92654285D01*
X114483809Y-92701904D01*
X114340952Y-92701904D01*
X114150476Y-92654285D01*
X114055238Y-92606666D01*
X113960000Y-92511428D01*
X113912380Y-92368571D01*
X113912380Y-92273333D01*
X113960000Y-92130476D01*
X114007619Y-92082857D01*
X114007619Y-91701904D02*
X113960000Y-91654285D01*
X113912380Y-91559047D01*
X113912380Y-91320952D01*
X113960000Y-91225714D01*
X114007619Y-91178095D01*
X114102857Y-91130476D01*
X114198095Y-91130476D01*
X114340952Y-91178095D01*
X114912380Y-91749523D01*
X114912380Y-91130476D01*
X113912380Y-90797142D02*
X113912380Y-90130476D01*
X114912380Y-90559047D01*
%TO.C,C7*%
X88647542Y-122391466D02*
X88695161Y-122439085D01*
X88742780Y-122581942D01*
X88742780Y-122677180D01*
X88695161Y-122820038D01*
X88599923Y-122915276D01*
X88504685Y-122962895D01*
X88314209Y-123010514D01*
X88171352Y-123010514D01*
X87980876Y-122962895D01*
X87885638Y-122915276D01*
X87790400Y-122820038D01*
X87742780Y-122677180D01*
X87742780Y-122581942D01*
X87790400Y-122439085D01*
X87838019Y-122391466D01*
X87742780Y-122058133D02*
X87742780Y-121391466D01*
X88742780Y-121820038D01*
%TO.C,R13*%
X128389142Y-100451180D02*
X128055809Y-99974990D01*
X127817714Y-100451180D02*
X127817714Y-99451180D01*
X128198666Y-99451180D01*
X128293904Y-99498800D01*
X128341523Y-99546419D01*
X128389142Y-99641657D01*
X128389142Y-99784514D01*
X128341523Y-99879752D01*
X128293904Y-99927371D01*
X128198666Y-99974990D01*
X127817714Y-99974990D01*
X129341523Y-100451180D02*
X128770095Y-100451180D01*
X129055809Y-100451180D02*
X129055809Y-99451180D01*
X128960571Y-99594038D01*
X128865333Y-99689276D01*
X128770095Y-99736895D01*
X129674857Y-99451180D02*
X130293904Y-99451180D01*
X129960571Y-99832133D01*
X130103428Y-99832133D01*
X130198666Y-99879752D01*
X130246285Y-99927371D01*
X130293904Y-100022609D01*
X130293904Y-100260704D01*
X130246285Y-100355942D01*
X130198666Y-100403561D01*
X130103428Y-100451180D01*
X129817714Y-100451180D01*
X129722476Y-100403561D01*
X129674857Y-100355942D01*
%TO.C,C1*%
X77319142Y-123407466D02*
X77366761Y-123455085D01*
X77414380Y-123597942D01*
X77414380Y-123693180D01*
X77366761Y-123836038D01*
X77271523Y-123931276D01*
X77176285Y-123978895D01*
X76985809Y-124026514D01*
X76842952Y-124026514D01*
X76652476Y-123978895D01*
X76557238Y-123931276D01*
X76462000Y-123836038D01*
X76414380Y-123693180D01*
X76414380Y-123597942D01*
X76462000Y-123455085D01*
X76509619Y-123407466D01*
X77414380Y-122455085D02*
X77414380Y-123026514D01*
X77414380Y-122740800D02*
X76414380Y-122740800D01*
X76557238Y-122836038D01*
X76652476Y-122931276D01*
X76700095Y-123026514D01*
D11*
%TO.C,IC1*%
X87152238Y-95164123D02*
X87152238Y-93894123D01*
X88482714Y-95043171D02*
X88422238Y-95103647D01*
X88240809Y-95164123D01*
X88119857Y-95164123D01*
X87938428Y-95103647D01*
X87817476Y-94982695D01*
X87757000Y-94861742D01*
X87696523Y-94619838D01*
X87696523Y-94438409D01*
X87757000Y-94196504D01*
X87817476Y-94075552D01*
X87938428Y-93954600D01*
X88119857Y-93894123D01*
X88240809Y-93894123D01*
X88422238Y-93954600D01*
X88482714Y-94015076D01*
X89692238Y-95164123D02*
X88966523Y-95164123D01*
X89329380Y-95164123D02*
X89329380Y-93894123D01*
X89208428Y-94075552D01*
X89087476Y-94196504D01*
X88966523Y-94256980D01*
D10*
%TO.C,R16*%
X146604942Y-115465680D02*
X146271609Y-114989490D01*
X146033514Y-115465680D02*
X146033514Y-114465680D01*
X146414466Y-114465680D01*
X146509704Y-114513300D01*
X146557323Y-114560919D01*
X146604942Y-114656157D01*
X146604942Y-114799014D01*
X146557323Y-114894252D01*
X146509704Y-114941871D01*
X146414466Y-114989490D01*
X146033514Y-114989490D01*
X147557323Y-115465680D02*
X146985895Y-115465680D01*
X147271609Y-115465680D02*
X147271609Y-114465680D01*
X147176371Y-114608538D01*
X147081133Y-114703776D01*
X146985895Y-114751395D01*
X148414466Y-114465680D02*
X148223990Y-114465680D01*
X148128752Y-114513300D01*
X148081133Y-114560919D01*
X147985895Y-114703776D01*
X147938276Y-114894252D01*
X147938276Y-115275204D01*
X147985895Y-115370442D01*
X148033514Y-115418061D01*
X148128752Y-115465680D01*
X148319228Y-115465680D01*
X148414466Y-115418061D01*
X148462085Y-115370442D01*
X148509704Y-115275204D01*
X148509704Y-115037109D01*
X148462085Y-114941871D01*
X148414466Y-114894252D01*
X148319228Y-114846633D01*
X148128752Y-114846633D01*
X148033514Y-114894252D01*
X147985895Y-114941871D01*
X147938276Y-115037109D01*
%TO.C,C3*%
X84262933Y-124149142D02*
X84215314Y-124196761D01*
X84072457Y-124244380D01*
X83977219Y-124244380D01*
X83834361Y-124196761D01*
X83739123Y-124101523D01*
X83691504Y-124006285D01*
X83643885Y-123815809D01*
X83643885Y-123672952D01*
X83691504Y-123482476D01*
X83739123Y-123387238D01*
X83834361Y-123292000D01*
X83977219Y-123244380D01*
X84072457Y-123244380D01*
X84215314Y-123292000D01*
X84262933Y-123339619D01*
X84596266Y-123244380D02*
X85215314Y-123244380D01*
X84881980Y-123625333D01*
X85024838Y-123625333D01*
X85120076Y-123672952D01*
X85167695Y-123720571D01*
X85215314Y-123815809D01*
X85215314Y-124053904D01*
X85167695Y-124149142D01*
X85120076Y-124196761D01*
X85024838Y-124244380D01*
X84739123Y-124244380D01*
X84643885Y-124196761D01*
X84596266Y-124149142D01*
%TO.C,R9*%
X98258333Y-90368380D02*
X97925000Y-89892190D01*
X97686904Y-90368380D02*
X97686904Y-89368380D01*
X98067857Y-89368380D01*
X98163095Y-89416000D01*
X98210714Y-89463619D01*
X98258333Y-89558857D01*
X98258333Y-89701714D01*
X98210714Y-89796952D01*
X98163095Y-89844571D01*
X98067857Y-89892190D01*
X97686904Y-89892190D01*
X98734523Y-90368380D02*
X98925000Y-90368380D01*
X99020238Y-90320761D01*
X99067857Y-90273142D01*
X99163095Y-90130285D01*
X99210714Y-89939809D01*
X99210714Y-89558857D01*
X99163095Y-89463619D01*
X99115476Y-89416000D01*
X99020238Y-89368380D01*
X98829761Y-89368380D01*
X98734523Y-89416000D01*
X98686904Y-89463619D01*
X98639285Y-89558857D01*
X98639285Y-89796952D01*
X98686904Y-89892190D01*
X98734523Y-89939809D01*
X98829761Y-89987428D01*
X99020238Y-89987428D01*
X99115476Y-89939809D01*
X99163095Y-89892190D01*
X99210714Y-89796952D01*
%TO.C,C6*%
X85040742Y-86120266D02*
X85088361Y-86167885D01*
X85135980Y-86310742D01*
X85135980Y-86405980D01*
X85088361Y-86548838D01*
X84993123Y-86644076D01*
X84897885Y-86691695D01*
X84707409Y-86739314D01*
X84564552Y-86739314D01*
X84374076Y-86691695D01*
X84278838Y-86644076D01*
X84183600Y-86548838D01*
X84135980Y-86405980D01*
X84135980Y-86310742D01*
X84183600Y-86167885D01*
X84231219Y-86120266D01*
X84135980Y-85263123D02*
X84135980Y-85453600D01*
X84183600Y-85548838D01*
X84231219Y-85596457D01*
X84374076Y-85691695D01*
X84564552Y-85739314D01*
X84945504Y-85739314D01*
X85040742Y-85691695D01*
X85088361Y-85644076D01*
X85135980Y-85548838D01*
X85135980Y-85358361D01*
X85088361Y-85263123D01*
X85040742Y-85215504D01*
X84945504Y-85167885D01*
X84707409Y-85167885D01*
X84612171Y-85215504D01*
X84564552Y-85263123D01*
X84516933Y-85358361D01*
X84516933Y-85548838D01*
X84564552Y-85644076D01*
X84612171Y-85691695D01*
X84707409Y-85739314D01*
%TO.C,R1*%
X77617580Y-96788266D02*
X77141390Y-97121600D01*
X77617580Y-97359695D02*
X76617580Y-97359695D01*
X76617580Y-96978742D01*
X76665200Y-96883504D01*
X76712819Y-96835885D01*
X76808057Y-96788266D01*
X76950914Y-96788266D01*
X77046152Y-96835885D01*
X77093771Y-96883504D01*
X77141390Y-96978742D01*
X77141390Y-97359695D01*
X77617580Y-95835885D02*
X77617580Y-96407314D01*
X77617580Y-96121600D02*
X76617580Y-96121600D01*
X76760438Y-96216838D01*
X76855676Y-96312076D01*
X76903295Y-96407314D01*
%TO.C,C4*%
X84516933Y-91543142D02*
X84469314Y-91590761D01*
X84326457Y-91638380D01*
X84231219Y-91638380D01*
X84088361Y-91590761D01*
X83993123Y-91495523D01*
X83945504Y-91400285D01*
X83897885Y-91209809D01*
X83897885Y-91066952D01*
X83945504Y-90876476D01*
X83993123Y-90781238D01*
X84088361Y-90686000D01*
X84231219Y-90638380D01*
X84326457Y-90638380D01*
X84469314Y-90686000D01*
X84516933Y-90733619D01*
X85374076Y-90971714D02*
X85374076Y-91638380D01*
X85135980Y-90590761D02*
X84897885Y-91305047D01*
X85516933Y-91305047D01*
%TO.C,L4*%
X90469980Y-115127066D02*
X90469980Y-115603257D01*
X89469980Y-115603257D01*
X89803314Y-114365161D02*
X90469980Y-114365161D01*
X89422361Y-114603257D02*
X90136647Y-114841352D01*
X90136647Y-114222304D01*
%TO.C,J2*%
X73975980Y-118494133D02*
X74690266Y-118494133D01*
X74833123Y-118541752D01*
X74928361Y-118636990D01*
X74975980Y-118779847D01*
X74975980Y-118875085D01*
X74071219Y-118065561D02*
X74023600Y-118017942D01*
X73975980Y-117922704D01*
X73975980Y-117684609D01*
X74023600Y-117589371D01*
X74071219Y-117541752D01*
X74166457Y-117494133D01*
X74261695Y-117494133D01*
X74404552Y-117541752D01*
X74975980Y-118113180D01*
X74975980Y-117494133D01*
%TO.C,R12*%
X121987542Y-107134380D02*
X121654209Y-106658190D01*
X121416114Y-107134380D02*
X121416114Y-106134380D01*
X121797066Y-106134380D01*
X121892304Y-106182000D01*
X121939923Y-106229619D01*
X121987542Y-106324857D01*
X121987542Y-106467714D01*
X121939923Y-106562952D01*
X121892304Y-106610571D01*
X121797066Y-106658190D01*
X121416114Y-106658190D01*
X122939923Y-107134380D02*
X122368495Y-107134380D01*
X122654209Y-107134380D02*
X122654209Y-106134380D01*
X122558971Y-106277238D01*
X122463733Y-106372476D01*
X122368495Y-106420095D01*
X123320876Y-106229619D02*
X123368495Y-106182000D01*
X123463733Y-106134380D01*
X123701828Y-106134380D01*
X123797066Y-106182000D01*
X123844685Y-106229619D01*
X123892304Y-106324857D01*
X123892304Y-106420095D01*
X123844685Y-106562952D01*
X123273257Y-107134380D01*
X123892304Y-107134380D01*
%TO.C,R7*%
X96505733Y-126588780D02*
X96172400Y-126112590D01*
X95934304Y-126588780D02*
X95934304Y-125588780D01*
X96315257Y-125588780D01*
X96410495Y-125636400D01*
X96458114Y-125684019D01*
X96505733Y-125779257D01*
X96505733Y-125922114D01*
X96458114Y-126017352D01*
X96410495Y-126064971D01*
X96315257Y-126112590D01*
X95934304Y-126112590D01*
X96839066Y-125588780D02*
X97505733Y-125588780D01*
X97077161Y-126588780D01*
%TO.C,J3*%
X140382666Y-79207180D02*
X140382666Y-79921466D01*
X140335047Y-80064323D01*
X140239809Y-80159561D01*
X140096952Y-80207180D01*
X140001714Y-80207180D01*
X140763619Y-79207180D02*
X141382666Y-79207180D01*
X141049333Y-79588133D01*
X141192190Y-79588133D01*
X141287428Y-79635752D01*
X141335047Y-79683371D01*
X141382666Y-79778609D01*
X141382666Y-80016704D01*
X141335047Y-80111942D01*
X141287428Y-80159561D01*
X141192190Y-80207180D01*
X140906476Y-80207180D01*
X140811238Y-80159561D01*
X140763619Y-80111942D01*
%TO.C,L2*%
X91036380Y-84189866D02*
X91036380Y-84666057D01*
X90036380Y-84666057D01*
X90131619Y-83904152D02*
X90084000Y-83856533D01*
X90036380Y-83761295D01*
X90036380Y-83523200D01*
X90084000Y-83427961D01*
X90131619Y-83380342D01*
X90226857Y-83332723D01*
X90322095Y-83332723D01*
X90464952Y-83380342D01*
X91036380Y-83951771D01*
X91036380Y-83332723D01*
D12*
%TO.C,C9*%
X86768400Y-115372933D02*
X86768400Y-115665467D01*
X85748400Y-115372933D02*
X85748400Y-115665467D01*
%TO.C,U1*%
X113904400Y-81901400D02*
X124144400Y-81901400D01*
X113904400Y-81901400D02*
X113904400Y-86542400D01*
X124144400Y-81901400D02*
X124144400Y-86542400D01*
X113904400Y-86542400D02*
X124144400Y-86542400D01*
X113904400Y-83411400D02*
X124144400Y-83411400D01*
X120875400Y-81901400D02*
X120875400Y-83411400D01*
X117174400Y-81901400D02*
X117174400Y-83411400D01*
%TO.C,R14*%
X141125300Y-111758576D02*
X141125300Y-112268024D01*
X142170300Y-111758576D02*
X142170300Y-112268024D01*
%TO.C,R6*%
X95401676Y-92695500D02*
X95911124Y-92695500D01*
X95401676Y-93740500D02*
X95911124Y-93740500D01*
%TO.C,R10*%
X116800100Y-110236724D02*
X116800100Y-109727276D01*
X117845100Y-110236724D02*
X117845100Y-109727276D01*
%TO.C,C5*%
X85799200Y-119386133D02*
X85799200Y-119678667D01*
X86819200Y-119386133D02*
X86819200Y-119678667D01*
%TO.C,C17*%
X132051533Y-108503300D02*
X132344067Y-108503300D01*
X132051533Y-109523300D02*
X132344067Y-109523300D01*
%TO.C,R3*%
X82615300Y-93369676D02*
X82615300Y-93879124D01*
X81570300Y-93369676D02*
X81570300Y-93879124D01*
%TO.C,C10*%
X86717600Y-81794133D02*
X86717600Y-82086667D01*
X85697600Y-81794133D02*
X85697600Y-82086667D01*
%TO.C,L3*%
X88644000Y-88017533D02*
X88644000Y-88360067D01*
X89664000Y-88017533D02*
X89664000Y-88360067D01*
%TO.C,C12*%
X91891067Y-91950000D02*
X91598533Y-91950000D01*
X91891067Y-90930000D02*
X91598533Y-90930000D01*
%TO.C,J4*%
X148727500Y-111350000D02*
X148227500Y-111100000D01*
X148227500Y-111100000D02*
X148227500Y-111600000D01*
X148227500Y-111600000D02*
X148727500Y-111350000D01*
%TO.C,L5*%
X89507600Y-121139133D02*
X89507600Y-121481667D01*
X90527600Y-121139133D02*
X90527600Y-121481667D01*
%TO.C,L6*%
X127145867Y-108506800D02*
X126803333Y-108506800D01*
X127145867Y-109526800D02*
X126803333Y-109526800D01*
%TO.C,C14*%
X91547733Y-123492800D02*
X91840267Y-123492800D01*
X91547733Y-124512800D02*
X91840267Y-124512800D01*
%TO.C,C23*%
X126490000Y-87483733D02*
X126490000Y-87776267D01*
X127510000Y-87483733D02*
X127510000Y-87776267D01*
%TO.C,C24*%
X133257783Y-118228300D02*
X133550317Y-118228300D01*
X133257783Y-119248300D02*
X133550317Y-119248300D01*
%TO.C,R15*%
X144093076Y-111635800D02*
X144602524Y-111635800D01*
X144093076Y-110590800D02*
X144602524Y-110590800D01*
%TO.C,C21*%
X134407800Y-113959567D02*
X134407800Y-113667033D01*
X133387800Y-113959567D02*
X133387800Y-113667033D01*
%TO.C,R5*%
X93660700Y-124662476D02*
X93660700Y-125171924D01*
X94705700Y-124662476D02*
X94705700Y-125171924D01*
%TO.C,C18*%
X132051533Y-106753300D02*
X132344067Y-106753300D01*
X132051533Y-107773300D02*
X132344067Y-107773300D01*
%TO.C,C20*%
X138514050Y-117692033D02*
X138514050Y-117984567D01*
X137494050Y-117692033D02*
X137494050Y-117984567D01*
%TO.C,R11*%
X119709476Y-108545100D02*
X120218924Y-108545100D01*
X119709476Y-109590100D02*
X120218924Y-109590100D01*
%TO.C,R4*%
X93740500Y-93826876D02*
X93740500Y-94336324D01*
X92695500Y-93826876D02*
X92695500Y-94336324D01*
%TO.C,J1*%
X76412800Y-92710000D02*
X76912800Y-92960000D01*
X76912800Y-92960000D02*
X76912800Y-92460000D01*
X76912800Y-92460000D02*
X76412800Y-92710000D01*
%TO.C,C15*%
X123823000Y-110109567D02*
X123823000Y-109817033D01*
X124843000Y-110109567D02*
X124843000Y-109817033D01*
%TO.C,L8*%
X139025317Y-114728300D02*
X138682783Y-114728300D01*
X139025317Y-115748300D02*
X138682783Y-115748300D01*
%TO.C,C25*%
X138751533Y-111623300D02*
X139044067Y-111623300D01*
X138751533Y-110603300D02*
X139044067Y-110603300D01*
%TO.C,C2*%
X81379600Y-125990133D02*
X81379600Y-126282667D01*
X82399600Y-125990133D02*
X82399600Y-126282667D01*
%TO.C,C26*%
X138701533Y-108803300D02*
X138994067Y-108803300D01*
X138701533Y-109823300D02*
X138994067Y-109823300D01*
%TO.C,C13*%
X88546400Y-115614667D02*
X88546400Y-115322133D01*
X87526400Y-115614667D02*
X87526400Y-115322133D01*
%TO.C,C28*%
X103135200Y-82661380D02*
X107583200Y-82661380D01*
X104726200Y-81821380D02*
X105992200Y-81821380D01*
X102781200Y-83061380D02*
X104319200Y-83061380D01*
X106399200Y-83661380D02*
X108293200Y-83661380D01*
X102407200Y-83701380D02*
X104319200Y-83701380D01*
X106399200Y-83381380D02*
X108149200Y-83381380D01*
X106399200Y-83781380D02*
X108345200Y-83781380D01*
X103054200Y-82741380D02*
X104319200Y-82741380D01*
X102326200Y-83901380D02*
X104319200Y-83901380D01*
X102148200Y-84662380D02*
X104319200Y-84662380D01*
X106399200Y-83901380D02*
X108392200Y-83901380D01*
X102695200Y-83181380D02*
X104319200Y-83181380D01*
X102273200Y-84061380D02*
X104319200Y-84061380D01*
X106399200Y-83501380D02*
X108215200Y-83501380D01*
X104957200Y-81781380D02*
X105761200Y-81781380D01*
X103415200Y-82421380D02*
X107303200Y-82421380D01*
X106399200Y-83301380D02*
X108101200Y-83301380D01*
X102170200Y-84502380D02*
X104319200Y-84502380D01*
X106399200Y-82861380D02*
X107775200Y-82861380D01*
X102875200Y-82941380D02*
X104319200Y-82941380D01*
X103222200Y-82581380D02*
X107496200Y-82581380D01*
X102218200Y-84261380D02*
X104319200Y-84261380D01*
X104097200Y-82021380D02*
X106621200Y-82021380D01*
X102192200Y-84382380D02*
X104319200Y-84382380D01*
X106399200Y-83141380D02*
X107995200Y-83141380D01*
X103927200Y-82101380D02*
X106791200Y-82101380D01*
X106399200Y-84261380D02*
X108500200Y-84261380D01*
X106399200Y-84422380D02*
X108534200Y-84422380D01*
X102298200Y-83981380D02*
X104319200Y-83981380D01*
X106399200Y-84662380D02*
X108570200Y-84662380D01*
X102249200Y-84141380D02*
X104319200Y-84141380D01*
X102843200Y-82981380D02*
X104319200Y-82981380D01*
X104557200Y-81861380D02*
X106161200Y-81861380D01*
X103469200Y-82381380D02*
X107249200Y-82381380D01*
X102158200Y-84582380D02*
X104319200Y-84582380D01*
X106399200Y-84582380D02*
X108560200Y-84582380D01*
X106399200Y-84382380D02*
X108526200Y-84382380D01*
X102483200Y-83541380D02*
X104319200Y-83541380D01*
X103850200Y-82141380D02*
X106868200Y-82141380D01*
X103520200Y-88522621D02*
X103520200Y-87892621D01*
X106399200Y-83261380D02*
X108075200Y-83261380D01*
X102593200Y-83341380D02*
X104319200Y-83341380D01*
X106399200Y-82901380D02*
X107809200Y-82901380D01*
X104009200Y-82061380D02*
X106709200Y-82061380D01*
X102979200Y-82821380D02*
X104319200Y-82821380D01*
X102669200Y-83221380D02*
X104319200Y-83221380D01*
X106399200Y-84101380D02*
X108457200Y-84101380D01*
X106399200Y-84782380D02*
X108581200Y-84782380D01*
X104419200Y-81901380D02*
X106299200Y-81901380D01*
X106399200Y-83341380D02*
X108125200Y-83341380D01*
X102132200Y-84862380D02*
X108586200Y-84862380D01*
X103709200Y-82221380D02*
X107009200Y-82221380D01*
X102285200Y-84021380D02*
X104319200Y-84021380D01*
X103315200Y-82501380D02*
X107403200Y-82501380D01*
X106399200Y-84622380D02*
X108565200Y-84622380D01*
X106399200Y-83421380D02*
X108171200Y-83421380D01*
X106399200Y-82781380D02*
X107702200Y-82781380D01*
X106399200Y-83741380D02*
X108329200Y-83741380D01*
X106399200Y-84542380D02*
X108554200Y-84542380D01*
X106399200Y-84462380D02*
X108541200Y-84462380D01*
X102131200Y-84902380D02*
X108587200Y-84902380D01*
X102569200Y-83381380D02*
X104319200Y-83381380D01*
X104194200Y-81981380D02*
X106524200Y-81981380D01*
X102228200Y-84221380D02*
X104319200Y-84221380D01*
X102463200Y-83581380D02*
X104319200Y-83581380D01*
X106399200Y-83541380D02*
X108235200Y-83541380D01*
X106399200Y-84742380D02*
X108577200Y-84742380D01*
X102425200Y-83661380D02*
X104319200Y-83661380D01*
X102643200Y-83261380D02*
X104319200Y-83261380D01*
X106399200Y-82981380D02*
X107875200Y-82981380D01*
X102503200Y-83501380D02*
X104319200Y-83501380D01*
X102525200Y-83461380D02*
X104319200Y-83461380D01*
X102752200Y-83101380D02*
X104319200Y-83101380D01*
X102341200Y-83861380D02*
X104319200Y-83861380D01*
X102617200Y-83301380D02*
X104319200Y-83301380D01*
X102141200Y-84742380D02*
X104319200Y-84742380D01*
X106399200Y-83621380D02*
X108275200Y-83621380D01*
X102164200Y-84542380D02*
X104319200Y-84542380D01*
X106399200Y-84342380D02*
X108518200Y-84342380D01*
X106399200Y-83221380D02*
X108049200Y-83221380D01*
X106399200Y-83861380D02*
X108377200Y-83861380D01*
X102909200Y-82901380D02*
X104319200Y-82901380D01*
X106399200Y-83981380D02*
X108420200Y-83981380D01*
X106399200Y-83181380D02*
X108023200Y-83181380D01*
X102261200Y-84101380D02*
X104319200Y-84101380D01*
X106399200Y-83101380D02*
X107966200Y-83101380D01*
X102811200Y-83021380D02*
X104319200Y-83021380D01*
X103094200Y-82701380D02*
X107624200Y-82701380D01*
X102129200Y-84942380D02*
X108589200Y-84942380D01*
X102177200Y-84462380D02*
X104319200Y-84462380D01*
X102129200Y-84982380D02*
X108589200Y-84982380D01*
X103177200Y-82621380D02*
X107541200Y-82621380D01*
X102723200Y-83141380D02*
X104319200Y-83141380D01*
X102357200Y-83821380D02*
X104319200Y-83821380D01*
X106399200Y-82941380D02*
X107843200Y-82941380D01*
X106399200Y-83701380D02*
X108311200Y-83701380D01*
X102443200Y-83621380D02*
X104319200Y-83621380D01*
X106399200Y-84502380D02*
X108548200Y-84502380D01*
X102943200Y-82861380D02*
X104319200Y-82861380D01*
X106399200Y-83461380D02*
X108193200Y-83461380D01*
X104300200Y-81941380D02*
X106418200Y-81941380D01*
X102389200Y-83741380D02*
X104319200Y-83741380D01*
X103267200Y-82541380D02*
X107451200Y-82541380D01*
X106399200Y-82821380D02*
X107739200Y-82821380D01*
X106399200Y-84021380D02*
X108433200Y-84021380D01*
X102209200Y-84301380D02*
X104319200Y-84301380D01*
X106399200Y-84141380D02*
X108469200Y-84141380D01*
X103525200Y-82341380D02*
X107193200Y-82341380D01*
X106399200Y-84702380D02*
X108574200Y-84702380D01*
X106399200Y-83941380D02*
X108406200Y-83941380D01*
X106399200Y-83061380D02*
X107937200Y-83061380D01*
X103205200Y-88207621D02*
X103835200Y-88207621D01*
X102137200Y-84782380D02*
X104319200Y-84782380D01*
X102238200Y-84181380D02*
X104319200Y-84181380D01*
X106399200Y-83581380D02*
X108255200Y-83581380D01*
X103645200Y-82261380D02*
X107073200Y-82261380D01*
X102135200Y-84822380D02*
X108583200Y-84822380D01*
X102200200Y-84342380D02*
X104319200Y-84342380D01*
X103364200Y-82461380D02*
X107354200Y-82461380D01*
X103016200Y-82781380D02*
X104319200Y-82781380D01*
X106399200Y-82741380D02*
X107664200Y-82741380D01*
X102547200Y-83421380D02*
X104319200Y-83421380D01*
X106399200Y-84301380D02*
X108509200Y-84301380D01*
X106399200Y-83821380D02*
X108361200Y-83821380D01*
X103583200Y-82301380D02*
X107135200Y-82301380D01*
X102312200Y-83941380D02*
X104319200Y-83941380D01*
X102144200Y-84702380D02*
X104319200Y-84702380D01*
X103778200Y-82181380D02*
X106940200Y-82181380D01*
X106399200Y-84221380D02*
X108490200Y-84221380D01*
X106399200Y-84061380D02*
X108445200Y-84061380D01*
X106399200Y-84181380D02*
X108480200Y-84181380D01*
X102373200Y-83781380D02*
X104319200Y-83781380D01*
X102184200Y-84422380D02*
X104319200Y-84422380D01*
X106399200Y-83021380D02*
X107907200Y-83021380D01*
X102153200Y-84622380D02*
X104319200Y-84622380D01*
X102129200Y-85022380D02*
X108589200Y-85022380D01*
X108629200Y-85022380D02*
G75*
G03*
X108629200Y-85022380I-3270000J0D01*
G01*
%TO.C,M1*%
X94220200Y-105816400D02*
X94144000Y-94310200D01*
X94144000Y-94310200D02*
X99401800Y-94310200D01*
X99401800Y-94310200D02*
X99401800Y-90906600D01*
X99401800Y-90906600D02*
X101967200Y-90830400D01*
X101967200Y-90830400D02*
X101814800Y-94386400D01*
X101814800Y-94386400D02*
X109765000Y-94361000D01*
X109765000Y-94361000D02*
X109815800Y-97358200D01*
X109815800Y-97358200D02*
X112609800Y-97358200D01*
X112609800Y-97358200D02*
X112609800Y-101269800D01*
X112609800Y-101269800D02*
X109739600Y-101269800D01*
X109739600Y-101269800D02*
X109739600Y-107442000D01*
X109739600Y-107442000D02*
X115835600Y-107416600D01*
X115835600Y-107416600D02*
X115835600Y-109296200D01*
X115835600Y-109296200D02*
X109638000Y-109220000D01*
X109638000Y-109220000D02*
X109663400Y-115443000D01*
X109663400Y-115443000D02*
X112711400Y-115392200D01*
X112711400Y-115392200D02*
X112736800Y-119202200D01*
X112736800Y-119202200D02*
X109714200Y-119253000D01*
X109714200Y-119253000D02*
X109688800Y-122250200D01*
X109688800Y-122250200D02*
X101764000Y-122250200D01*
X101764000Y-122250200D02*
X101764000Y-125806200D01*
X101764000Y-125806200D02*
X99579600Y-125831600D01*
X99579600Y-125831600D02*
X99579600Y-122199400D01*
X99579600Y-122199400D02*
X94144000Y-122174000D01*
X94144000Y-122174000D02*
X94118600Y-110769400D01*
X94118600Y-110769400D02*
X86016000Y-110820200D01*
X86016000Y-110820200D02*
X86016000Y-105816400D01*
X86016000Y-105816400D02*
X94220200Y-105816400D01*
%TO.C,C19*%
X139244050Y-117692033D02*
X139244050Y-117984567D01*
X140264050Y-117692033D02*
X140264050Y-117984567D01*
%TO.C,L7*%
X135694050Y-118009567D02*
X135694050Y-117667033D01*
X136714050Y-118009567D02*
X136714050Y-117667033D01*
%TO.C,R2*%
X79399676Y-93232500D02*
X79909124Y-93232500D01*
X79399676Y-92187500D02*
X79909124Y-92187500D01*
D13*
%TO.C,IC2*%
X87912200Y-125624400D02*
X87912200Y-123600400D01*
X87912200Y-123600400D02*
X88262200Y-123600400D01*
X86512200Y-123412400D02*
X87562200Y-123412400D01*
X88262200Y-123600400D02*
X88262200Y-125624400D01*
X88262200Y-125624400D02*
X87912200Y-125624400D01*
D12*
%TO.C,C16*%
X130100800Y-109784933D02*
X130100800Y-110077467D01*
X129080800Y-109784933D02*
X129080800Y-110077467D01*
%TO.C,C8*%
X83974400Y-85604133D02*
X83974400Y-85896667D01*
X82954400Y-85604133D02*
X82954400Y-85896667D01*
%TO.C,C11*%
X93732133Y-83669600D02*
X94024667Y-83669600D01*
X93732133Y-82649600D02*
X94024667Y-82649600D01*
D13*
%TO.C,IC3*%
X136847800Y-108488300D02*
X136847800Y-109538300D01*
X136659800Y-110238300D02*
X134635800Y-110238300D01*
X134635800Y-109888300D02*
X136659800Y-109888300D01*
X134635800Y-110238300D02*
X134635800Y-109888300D01*
X136659800Y-109888300D02*
X136659800Y-110238300D01*
D12*
%TO.C,R8*%
X98588300Y-124662476D02*
X98588300Y-125171924D01*
X99633300Y-124662476D02*
X99633300Y-125171924D01*
%TO.C,L1*%
X79279933Y-124712000D02*
X79622467Y-124712000D01*
X79279933Y-125732000D02*
X79622467Y-125732000D01*
%TO.C,C22*%
X131040000Y-89921000D02*
X129019000Y-89921000D01*
X135286000Y-89280000D02*
X133120000Y-89280000D01*
X134716000Y-90761000D02*
X133120000Y-90761000D01*
X131040000Y-89961000D02*
X129033000Y-89961000D01*
X131040000Y-89440000D02*
X128898000Y-89440000D01*
X133661000Y-91721000D02*
X130499000Y-91721000D01*
X135082000Y-90081000D02*
X133120000Y-90081000D01*
X131040000Y-90561000D02*
X129314000Y-90561000D01*
X131040000Y-90961000D02*
X129596000Y-90961000D01*
X135113000Y-90001000D02*
X133120000Y-90001000D01*
X134075000Y-91441000D02*
X130085000Y-91441000D01*
X131040000Y-90521000D02*
X129290000Y-90521000D01*
X134172000Y-91361000D02*
X129988000Y-91361000D01*
X134658000Y-90841000D02*
X133120000Y-90841000D01*
X131040000Y-90721000D02*
X129416000Y-90721000D01*
X131040000Y-89280000D02*
X128874000Y-89280000D01*
X131040000Y-90201000D02*
X129128000Y-90201000D01*
X135304000Y-89080000D02*
X128856000Y-89080000D01*
X134423000Y-91121000D02*
X133120000Y-91121000D01*
X134687000Y-90801000D02*
X133120000Y-90801000D01*
X133794000Y-91641000D02*
X130366000Y-91641000D01*
X131040000Y-90761000D02*
X129444000Y-90761000D01*
X135310000Y-88880000D02*
X128850000Y-88880000D01*
X135211000Y-89681000D02*
X133120000Y-89681000D01*
X131040000Y-90041000D02*
X129062000Y-90041000D01*
X131040000Y-91121000D02*
X129737000Y-91121000D01*
X134892000Y-90481000D02*
X133120000Y-90481000D01*
X135127000Y-89961000D02*
X133120000Y-89961000D01*
X134234000Y-85694759D02*
X133604000Y-85694759D01*
X131040000Y-90801000D02*
X129473000Y-90801000D01*
X131040000Y-89801000D02*
X128982000Y-89801000D01*
X134956000Y-90361000D02*
X133120000Y-90361000D01*
X135275000Y-89360000D02*
X133120000Y-89360000D01*
X135307000Y-89040000D02*
X128853000Y-89040000D01*
X134822000Y-90601000D02*
X133120000Y-90601000D01*
X131040000Y-89240000D02*
X128869000Y-89240000D01*
X131040000Y-89641000D02*
X128939000Y-89641000D01*
X135269000Y-89400000D02*
X133120000Y-89400000D01*
X134914000Y-90441000D02*
X133120000Y-90441000D01*
X132882000Y-92041000D02*
X131278000Y-92041000D01*
X135201000Y-89721000D02*
X133120000Y-89721000D01*
X131040000Y-90281000D02*
X129164000Y-90281000D01*
X131040000Y-90601000D02*
X129338000Y-90601000D01*
X135298000Y-89160000D02*
X133120000Y-89160000D01*
X134124000Y-91401000D02*
X130036000Y-91401000D01*
X131040000Y-89520000D02*
X128913000Y-89520000D01*
X134976000Y-90321000D02*
X133120000Y-90321000D01*
X135190000Y-89761000D02*
X133120000Y-89761000D01*
X134262000Y-91281000D02*
X129898000Y-91281000D01*
X134345000Y-91201000D02*
X129815000Y-91201000D01*
X135310000Y-88960000D02*
X128850000Y-88960000D01*
X135291000Y-89240000D02*
X133120000Y-89240000D01*
X131040000Y-89400000D02*
X128891000Y-89400000D01*
X133512000Y-91801000D02*
X130648000Y-91801000D01*
X131040000Y-89721000D02*
X128959000Y-89721000D01*
X135281000Y-89320000D02*
X133120000Y-89320000D01*
X131040000Y-89881000D02*
X129006000Y-89881000D01*
X134744000Y-90721000D02*
X133120000Y-90721000D01*
X131040000Y-90401000D02*
X129224000Y-90401000D01*
X131040000Y-89480000D02*
X128905000Y-89480000D01*
X131040000Y-89200000D02*
X128865000Y-89200000D01*
X135310000Y-88920000D02*
X128850000Y-88920000D01*
X134596000Y-90921000D02*
X133120000Y-90921000D01*
X134564000Y-90961000D02*
X133120000Y-90961000D01*
X132713000Y-92081000D02*
X131447000Y-92081000D01*
X135154000Y-89881000D02*
X133120000Y-89881000D01*
X131040000Y-89681000D02*
X128949000Y-89681000D01*
X131040000Y-90841000D02*
X129502000Y-90841000D01*
X133139000Y-91961000D02*
X131021000Y-91961000D01*
X134460000Y-91081000D02*
X133120000Y-91081000D01*
X131040000Y-89761000D02*
X128970000Y-89761000D01*
X133730000Y-91681000D02*
X130430000Y-91681000D01*
X131040000Y-90441000D02*
X129246000Y-90441000D01*
X133342000Y-91881000D02*
X130818000Y-91881000D01*
X131040000Y-91161000D02*
X129775000Y-91161000D01*
X131040000Y-90361000D02*
X129204000Y-90361000D01*
X135014000Y-90241000D02*
X133120000Y-90241000D01*
X134628000Y-90881000D02*
X133120000Y-90881000D01*
X133245000Y-91921000D02*
X130915000Y-91921000D01*
X131040000Y-90481000D02*
X129268000Y-90481000D01*
X131040000Y-90241000D02*
X129146000Y-90241000D01*
X134936000Y-90401000D02*
X133120000Y-90401000D01*
X133589000Y-91761000D02*
X130571000Y-91761000D01*
X131040000Y-90081000D02*
X129078000Y-90081000D01*
X134496000Y-91041000D02*
X133120000Y-91041000D01*
X135178000Y-89801000D02*
X133120000Y-89801000D01*
X131040000Y-90881000D02*
X129532000Y-90881000D01*
X131040000Y-90001000D02*
X129047000Y-90001000D01*
X134530000Y-91001000D02*
X133120000Y-91001000D01*
X133919000Y-85379759D02*
X133919000Y-86009759D01*
X133970000Y-91521000D02*
X130190000Y-91521000D01*
X135255000Y-89480000D02*
X133120000Y-89480000D01*
X132482000Y-92121000D02*
X131678000Y-92121000D01*
X131040000Y-90121000D02*
X129094000Y-90121000D01*
X133430000Y-91841000D02*
X130730000Y-91841000D01*
X131040000Y-90321000D02*
X129184000Y-90321000D01*
X134385000Y-91161000D02*
X133120000Y-91161000D01*
X135032000Y-90201000D02*
X133120000Y-90201000D01*
X134996000Y-90281000D02*
X133120000Y-90281000D01*
X131040000Y-89560000D02*
X128921000Y-89560000D01*
X135066000Y-90121000D02*
X133120000Y-90121000D01*
X131040000Y-89120000D02*
X128858000Y-89120000D01*
X131040000Y-89360000D02*
X128885000Y-89360000D01*
X131040000Y-89601000D02*
X128930000Y-89601000D01*
X134796000Y-90641000D02*
X133120000Y-90641000D01*
X131040000Y-91041000D02*
X129664000Y-91041000D01*
X133914000Y-91561000D02*
X130246000Y-91561000D01*
X133856000Y-91601000D02*
X130304000Y-91601000D01*
X135247000Y-89520000D02*
X133120000Y-89520000D01*
X135221000Y-89641000D02*
X133120000Y-89641000D01*
X131040000Y-89160000D02*
X128862000Y-89160000D01*
X135050000Y-90161000D02*
X133120000Y-90161000D01*
X135308000Y-89000000D02*
X128852000Y-89000000D01*
X135262000Y-89440000D02*
X133120000Y-89440000D01*
X134770000Y-90681000D02*
X133120000Y-90681000D01*
X135230000Y-89601000D02*
X133120000Y-89601000D01*
X131040000Y-90921000D02*
X129564000Y-90921000D01*
X134024000Y-91481000D02*
X130136000Y-91481000D01*
X134870000Y-90521000D02*
X133120000Y-90521000D01*
X131040000Y-89320000D02*
X128879000Y-89320000D01*
X135166000Y-89841000D02*
X133120000Y-89841000D01*
X131040000Y-91001000D02*
X129630000Y-91001000D01*
X134846000Y-90561000D02*
X133120000Y-90561000D01*
X135295000Y-89200000D02*
X133120000Y-89200000D01*
X135098000Y-90041000D02*
X133120000Y-90041000D01*
X131040000Y-90681000D02*
X129390000Y-90681000D01*
X133020000Y-92001000D02*
X131140000Y-92001000D01*
X135141000Y-89921000D02*
X133120000Y-89921000D01*
X131040000Y-89841000D02*
X128994000Y-89841000D01*
X135302000Y-89120000D02*
X133120000Y-89120000D01*
X135239000Y-89560000D02*
X133120000Y-89560000D01*
X131040000Y-91081000D02*
X129700000Y-91081000D01*
X131040000Y-90161000D02*
X129110000Y-90161000D01*
X131040000Y-90641000D02*
X129364000Y-90641000D01*
X134217000Y-91321000D02*
X129943000Y-91321000D01*
X134304000Y-91241000D02*
X129856000Y-91241000D01*
X135350000Y-88880000D02*
G75*
G03*
X135350000Y-88880000I-3270000J0D01*
G01*
%TO.C,C27*%
X113540000Y-91293733D02*
X113540000Y-91586267D01*
X112520000Y-91293733D02*
X112520000Y-91586267D01*
%TO.C,C7*%
X87678800Y-119335333D02*
X87678800Y-119627867D01*
X88698800Y-119335333D02*
X88698800Y-119627867D01*
%TO.C,R13*%
X134102000Y-95158800D02*
X123962000Y-95158800D01*
X123962000Y-98998800D02*
X134102000Y-98998800D01*
X134102000Y-98998800D02*
X134102000Y-95158800D01*
X123962000Y-95158800D02*
X123962000Y-98998800D01*
X140292000Y-97078800D02*
X134102000Y-97078800D01*
X117772000Y-97078800D02*
X123962000Y-97078800D01*
%TO.C,C1*%
X76452000Y-125990133D02*
X76452000Y-126282667D01*
X77472000Y-125990133D02*
X77472000Y-126282667D01*
D13*
%TO.C,IC1*%
X88313000Y-93112400D02*
X87963000Y-93112400D01*
X87963000Y-91088400D02*
X88313000Y-91088400D01*
X86563000Y-90900400D02*
X87613000Y-90900400D01*
X87963000Y-93112400D02*
X87963000Y-91088400D01*
X88313000Y-91088400D02*
X88313000Y-93112400D01*
D12*
%TO.C,R16*%
X147620300Y-111808576D02*
X147620300Y-112318024D01*
X146575300Y-111808576D02*
X146575300Y-112318024D01*
%TO.C,C3*%
X84283333Y-125732000D02*
X84575867Y-125732000D01*
X84283333Y-124712000D02*
X84575867Y-124712000D01*
%TO.C,R9*%
X97851700Y-92532924D02*
X97851700Y-92023476D01*
X98896700Y-92532924D02*
X98896700Y-92023476D01*
%TO.C,C6*%
X85646800Y-85604133D02*
X85646800Y-85896667D01*
X86666800Y-85604133D02*
X86666800Y-85896667D01*
%TO.C,R1*%
X77636900Y-93369676D02*
X77636900Y-93879124D01*
X76591900Y-93369676D02*
X76591900Y-93879124D01*
%TO.C,C4*%
X84435733Y-93270800D02*
X84728267Y-93270800D01*
X84435733Y-92250800D02*
X84728267Y-92250800D01*
%TO.C,L4*%
X90426000Y-117583133D02*
X90426000Y-117925667D01*
X89406000Y-117583133D02*
X89406000Y-117925667D01*
%TO.C,J2*%
X76738100Y-125573600D02*
X76738100Y-125073600D01*
X76238100Y-125323600D02*
X76738100Y-125573600D01*
X76738100Y-125073600D02*
X76238100Y-125323600D01*
%TO.C,R12*%
X122057900Y-109727276D02*
X122057900Y-110236724D01*
X123102900Y-109727276D02*
X123102900Y-110236724D01*
%TO.C,R7*%
X96468476Y-124525300D02*
X96977924Y-124525300D01*
X96468476Y-123480300D02*
X96977924Y-123480300D01*
%TO.C,J3*%
X137826000Y-86974800D02*
X143606000Y-86974800D01*
X137826000Y-80754800D02*
X137826000Y-87494800D01*
X143606000Y-80754800D02*
X143606000Y-87494800D01*
X137826000Y-80754800D02*
X143606000Y-80754800D01*
X137826000Y-87494800D02*
X143606000Y-87494800D01*
X137826000Y-81874800D02*
X143606000Y-81874800D01*
X137586000Y-87094800D02*
X137586000Y-87734800D01*
X137586000Y-87734800D02*
X137986000Y-87734800D01*
%TO.C,L2*%
X89664000Y-83851933D02*
X89664000Y-84194467D01*
X88644000Y-83851933D02*
X88644000Y-84194467D01*
%TD*%
%LPC*%
D14*
%TO.C,C9*%
X86258400Y-114656700D03*
X86258400Y-116381700D03*
%TD*%
D15*
%TO.C,U1*%
X116484400Y-85171400D03*
D16*
X119024400Y-85171400D03*
X121564400Y-85171400D03*
%TD*%
D17*
%TO.C,R14*%
X141647800Y-111100800D03*
X141647800Y-112925800D03*
%TD*%
D18*
%TO.C,R6*%
X94743900Y-93218000D03*
X96568900Y-93218000D03*
%TD*%
D19*
%TO.C,H4*%
X148742400Y-133096000D03*
%TD*%
D20*
%TO.C,R10*%
X117322600Y-110894500D03*
X117322600Y-109069500D03*
%TD*%
D14*
%TO.C,C5*%
X86309200Y-118669900D03*
X86309200Y-120394900D03*
%TD*%
D21*
%TO.C,C17*%
X131335300Y-109013300D03*
X133060300Y-109013300D03*
%TD*%
D17*
%TO.C,R3*%
X82092800Y-92711900D03*
X82092800Y-94536900D03*
%TD*%
D14*
%TO.C,C10*%
X86207600Y-81077900D03*
X86207600Y-82802900D03*
%TD*%
D22*
%TO.C,L3*%
X89154000Y-87313800D03*
X89154000Y-89063800D03*
%TD*%
D23*
%TO.C,C12*%
X92607300Y-91440000D03*
X90882300Y-91440000D03*
%TD*%
D24*
%TO.C,J4*%
X151937500Y-111350000D03*
X151937500Y-115600000D03*
X151937500Y-107100000D03*
%TD*%
D22*
%TO.C,L5*%
X90017600Y-120435400D03*
X90017600Y-122185400D03*
%TD*%
D25*
%TO.C,L6*%
X127849600Y-109016800D03*
X126099600Y-109016800D03*
%TD*%
D21*
%TO.C,C14*%
X90831500Y-124002800D03*
X92556500Y-124002800D03*
%TD*%
D14*
%TO.C,C23*%
X127000000Y-86767500D03*
X127000000Y-88492500D03*
%TD*%
D21*
%TO.C,C24*%
X132541550Y-118738300D03*
X134266550Y-118738300D03*
%TD*%
D18*
%TO.C,R15*%
X143435300Y-111113300D03*
X145260300Y-111113300D03*
%TD*%
D26*
%TO.C,C21*%
X133897800Y-114675800D03*
X133897800Y-112950800D03*
%TD*%
D17*
%TO.C,R5*%
X94183200Y-124004700D03*
X94183200Y-125829700D03*
%TD*%
D21*
%TO.C,C18*%
X131335300Y-107263300D03*
X133060300Y-107263300D03*
%TD*%
D14*
%TO.C,C20*%
X138004050Y-116975800D03*
X138004050Y-118700800D03*
%TD*%
D18*
%TO.C,R11*%
X119051700Y-109067600D03*
X120876700Y-109067600D03*
%TD*%
D17*
%TO.C,R4*%
X93218000Y-93169100D03*
X93218000Y-94994100D03*
%TD*%
D24*
%TO.C,J1*%
X73202800Y-92710000D03*
X73202800Y-96960000D03*
X73202800Y-88460000D03*
%TD*%
D19*
%TO.C,H2*%
X149707600Y-87985600D03*
%TD*%
D26*
%TO.C,C15*%
X124333000Y-110825800D03*
X124333000Y-109100800D03*
%TD*%
D25*
%TO.C,L8*%
X139729050Y-115238300D03*
X137979050Y-115238300D03*
%TD*%
D21*
%TO.C,C25*%
X138035300Y-111113300D03*
X139760300Y-111113300D03*
%TD*%
D14*
%TO.C,C2*%
X81889600Y-125273900D03*
X81889600Y-126998900D03*
%TD*%
D21*
%TO.C,C26*%
X137985300Y-109313300D03*
X139710300Y-109313300D03*
%TD*%
D26*
%TO.C,C13*%
X88036400Y-116330900D03*
X88036400Y-114605900D03*
%TD*%
D27*
%TO.C,C28*%
X105359200Y-86272380D03*
D28*
X105359200Y-83772380D03*
%TD*%
D29*
%TO.C,M1*%
X100757000Y-92831000D03*
D30*
X102018000Y-108331000D03*
D29*
X100757000Y-123831000D03*
D31*
X114018000Y-108331000D03*
%TD*%
D14*
%TO.C,C19*%
X139754050Y-116975800D03*
X139754050Y-118700800D03*
%TD*%
D19*
%TO.C,H3*%
X80924400Y-132842000D03*
%TD*%
D32*
%TO.C,L7*%
X136204050Y-118713300D03*
X136204050Y-116963300D03*
%TD*%
D19*
%TO.C,H1*%
X74371200Y-81330800D03*
%TD*%
D18*
%TO.C,R2*%
X78741900Y-92710000D03*
X80566900Y-92710000D03*
%TD*%
D33*
%TO.C,IC2*%
X87037200Y-123962400D03*
X87037200Y-124612400D03*
X87037200Y-125262400D03*
X89137200Y-125262400D03*
X89137200Y-124612400D03*
X89137200Y-123962400D03*
%TD*%
D14*
%TO.C,C16*%
X129590800Y-109068700D03*
X129590800Y-110793700D03*
%TD*%
%TO.C,C8*%
X83464400Y-84887900D03*
X83464400Y-86612900D03*
%TD*%
D21*
%TO.C,C11*%
X93015900Y-83159600D03*
X94740900Y-83159600D03*
%TD*%
D34*
%TO.C,IC3*%
X136297800Y-109013300D03*
X135647800Y-109013300D03*
X134997800Y-109013300D03*
X134997800Y-111113300D03*
X135647800Y-111113300D03*
X136297800Y-111113300D03*
%TD*%
D17*
%TO.C,R8*%
X99110800Y-124004700D03*
X99110800Y-125829700D03*
%TD*%
D35*
%TO.C,L1*%
X78576200Y-125222000D03*
X80326200Y-125222000D03*
%TD*%
D27*
%TO.C,C22*%
X132080000Y-87630000D03*
D28*
X132080000Y-90130000D03*
%TD*%
D14*
%TO.C,C27*%
X113030000Y-90577500D03*
X113030000Y-92302500D03*
%TD*%
%TO.C,C7*%
X88188800Y-118619100D03*
X88188800Y-120344100D03*
%TD*%
D36*
%TO.C,R13*%
X141732000Y-97078800D03*
D37*
X116332000Y-97078800D03*
%TD*%
D14*
%TO.C,C1*%
X76962000Y-125273900D03*
X76962000Y-126998900D03*
%TD*%
D33*
%TO.C,IC1*%
X87088000Y-91450400D03*
X87088000Y-92100400D03*
X87088000Y-92750400D03*
X89188000Y-92750400D03*
X89188000Y-92100400D03*
X89188000Y-91450400D03*
%TD*%
D17*
%TO.C,R16*%
X147097800Y-111150800D03*
X147097800Y-112975800D03*
%TD*%
D21*
%TO.C,C3*%
X83567100Y-125222000D03*
X85292100Y-125222000D03*
%TD*%
D20*
%TO.C,R9*%
X98374200Y-93190700D03*
X98374200Y-91365700D03*
%TD*%
D14*
%TO.C,C6*%
X86156800Y-84887900D03*
X86156800Y-86612900D03*
%TD*%
D17*
%TO.C,R1*%
X77114400Y-92711900D03*
X77114400Y-94536900D03*
%TD*%
D21*
%TO.C,C4*%
X83719500Y-92760800D03*
X85444500Y-92760800D03*
%TD*%
D22*
%TO.C,L4*%
X89916000Y-116879400D03*
X89916000Y-118629400D03*
%TD*%
D24*
%TO.C,J2*%
X73028100Y-125323600D03*
X73028100Y-129573600D03*
X73028100Y-121073600D03*
%TD*%
D17*
%TO.C,R12*%
X122580400Y-109069500D03*
X122580400Y-110894500D03*
%TD*%
D18*
%TO.C,R7*%
X95810700Y-124002800D03*
X97635700Y-124002800D03*
%TD*%
D38*
%TO.C,J3*%
X139446000Y-84124800D03*
D39*
X141986000Y-84124800D03*
%TD*%
D22*
%TO.C,L2*%
X89154000Y-83148200D03*
X89154000Y-84898200D03*
%TD*%
M02*
